<?xml version="1.0" encoding="UTF-8" standalone="no"?>
<!-- Created with Inkscape (http://www.inkscape.org/) -->

<svg
   width="512"
   height="512"
   viewBox="0 0 512 512"
   version="1.1"
   id="SVGRoot"
   inkscape:version="1.2.2 (b0a8486541, 2022-12-01)"
   sodipodi:docname="folder.svg"
   xmlns:inkscape="http://www.inkscape.org/namespaces/inkscape"
   xmlns:sodipodi="http://sodipodi.sourceforge.net/DTD/sodipodi-0.dtd"
   xmlns:xlink="http://www.w3.org/1999/xlink"
   xmlns="http://www.w3.org/2000/svg"
   xmlns:svg="http://www.w3.org/2000/svg">
  <sodipodi:namedview
     id="namedview7"
     pagecolor="#f1f1f1"
     bordercolor="#000000"
     borderopacity="1"
     inkscape:showpageshadow="false"
     inkscape:pageopacity="0.49803922"
     inkscape:pagecheckerboard="false"
     inkscape:deskcolor="#b3b3b3"
     inkscape:document-units="px"
     showgrid="true"
     inkscape:zoom="1.552184"
     inkscape:cx="255.12439"
     inkscape:cy="258.34565"
     inkscape:current-layer="layer1"
     showguides="false"
     inkscape:window-width="1920"
     inkscape:window-height="1021"
     inkscape:window-x="1920"
     inkscape:window-y="26"
     inkscape:window-maximized="1">
    <sodipodi:guide
       position="-1054.4847,1596.7479"
       orientation="0.70710678,-0.70710678"
       id="guide27979"
       inkscape:locked="false" />
  </sodipodi:namedview>
  <defs
     id="defs2">
    <linearGradient
       inkscape:collect="always"
       id="linearGradient15627">
      <stop
         style="stop-color:#ffffff;stop-opacity:0.59558946;"
         offset="0"
         id="stop15631" />
      <stop
         style="stop-color:#cdcdcd;stop-opacity:0;"
         offset="0.05343216"
         id="stop15633" />
      <stop
         style="stop-color:#cdcdcd;stop-opacity:0;"
         offset="0.95483112"
         id="stop15637" />
      <stop
         style="stop-color:#ffffff;stop-opacity:0.60202682;"
         offset="1"
         id="stop15635" />
    </linearGradient>
    <linearGradient
       inkscape:collect="always"
       id="linearGradient15929">
      <stop
         style="stop-color:#ffffff;stop-opacity:0;"
         offset="0"
         id="stop15925" />
      <stop
         style="stop-color:#ffffff;stop-opacity:0.49912021;"
         offset="0.69873863"
         id="stop15933" />
      <stop
         style="stop-color:#ffffff;stop-opacity:0;"
         offset="1"
         id="stop15927" />
    </linearGradient>
    <clipPath
       clipPathUnits="userSpaceOnUse"
       id="clipPath7133">
      <path
         id="path7135"
         style="fill:#7349a3;fill-opacity:1;stroke:none;stroke-width:0;stroke-miterlimit:10;paint-order:stroke fill markers"
         d="m 103.82827,77.400041 c -23.015647,0 -42.218594,16.324803 -46.659624,38.027889 -1.12e-4,5.8e-4 1.21e-4,9.3e-4 0,0.002 -0.634191,3.09991 -0.968361,6.31085 -0.968361,9.59827 v 261.94733 c 0,26.30358 21.32439,47.62616 47.627985,47.62616 h 119.0672 214.31952 c 26.30437,0 47.62799,-21.32187 47.62799,-47.62616 V 315.53447 196.46725 125.02801 c 0,-26.304287 -21.32362,-47.627969 -47.62799,-47.627969 H 222.89547 Z" />
    </clipPath>
    <linearGradient
       id="linearGradient13846"
       x1="321"
       x2="352"
       y1="139"
       y2="163"
       gradientTransform="matrix(7.7013446,0,0,7.7013446,-3047.5241,-768.82582)"
       gradientUnits="userSpaceOnUse"
       xlink:href="#linearGradient8401">
      <stop
         stop-color="#666"
         offset="0"
         id="stop308"
         style="stop-color:#4babf9;stop-opacity:1;" />
      <stop
         stop-color="#7a7a7a"
         offset="1"
         id="stop310"
         style="stop-color:#279efc;stop-opacity:1;" />
    </linearGradient>
    <linearGradient
       inkscape:collect="always"
       id="linearGradient8401">
      <stop
         style="stop-color:#51adf9;stop-opacity:1;"
         offset="0"
         id="stop8397" />
      <stop
         style="stop-color:#229cfc;stop-opacity:1;"
         offset="1"
         id="stop8399" />
    </linearGradient>
    <linearGradient
       inkscape:collect="always"
       xlink:href="#linearGradient2759"
       id="linearGradient2761"
       x1="160.16568"
       y1="30.165686"
       x2="160.16568"
       y2="235.27434"
       gradientUnits="userSpaceOnUse"
       gradientTransform="matrix(1.060511,0,0,1.0764187,-15.488977,22.906859)" />
    <linearGradient
       inkscape:collect="always"
       id="linearGradient2759">
      <stop
         style="stop-color:#6a4b9f;stop-opacity:1;"
         offset="0"
         id="stop2755" />
      <stop
         style="stop-color:#6a4b9f;stop-opacity:1;"
         offset="1"
         id="stop2757" />
    </linearGradient>
    <filter
       inkscape:collect="always"
       style="color-interpolation-filters:sRGB"
       id="filter1161-3"
       x="-0.032999258"
       y="-0.088005278"
       width="1.0659985"
       height="1.1760106">
      <feGaussianBlur
         inkscape:collect="always"
         stdDeviation="2.9294746"
         id="feGaussianBlur1163-5" />
    </filter>
    <linearGradient
       inkscape:collect="always"
       xlink:href="#linearGradient47707-2"
       id="linearGradient13430-6"
       gradientUnits="userSpaceOnUse"
       gradientTransform="matrix(1.060511,0,0,1.0764187,-15.490666,-26.021562)"
       x1="254.77802"
       y1="118.5861"
       x2="254.77802"
       y2="448.37762" />
    <linearGradient
       inkscape:collect="always"
       id="linearGradient47707-2">
      <stop
         style="stop-color:#9478ba;stop-opacity:1;"
         offset="0"
         id="stop47703-9" />
      <stop
         style="stop-color:#9772c0;stop-opacity:1;"
         offset="0.79729575"
         id="stop48280-1" />
      <stop
         style="stop-color:#784baf;stop-opacity:1;"
         offset="1"
         id="stop47705-2" />
    </linearGradient>
    <linearGradient
       inkscape:collect="always"
       xlink:href="#linearGradient15929"
       id="linearGradient15931-2"
       x1="-461.48615"
       y1="143.22641"
       x2="-266.48044"
       y2="143.22641"
       gradientUnits="userSpaceOnUse"
       gradientTransform="matrix(1.060511,0,0,1.0764187,533.71748,-19.563026)" />
    <linearGradient
       inkscape:collect="always"
       xlink:href="#linearGradient15627"
       id="linearGradient15629"
       x1="5.0183334"
       y1="7.3891544"
       x2="43.520355"
       y2="40.390129"
       gradientUnits="userSpaceOnUse"
       gradientTransform="matrix(10.848358,0,0,10.848358,-4.360331,-4.3608369)" />
    <linearGradient
       inkscape:collect="always"
       xlink:href="#linearGradient15627"
       id="linearGradient1253"
       gradientUnits="userSpaceOnUse"
       gradientTransform="matrix(10.848358,0,0,10.848358,-4.360331,-4.3608369)"
       x1="41.596203"
       y1="9.9779472"
       x2="4.6369324"
       y2="40.531876" />
  </defs>
  <g
     inkscape:label="Layer 1"
     inkscape:groupmode="layer"
     id="layer1">
    <path
       fill="currentColor"
       class="ColorScheme-Text"
       d="M 139.12405,55.377702 C 102.69201,55.821206 75.87824,54.519977 53.727602,66.826332 42.36395,73.367606 33.67949,83.818616 29.244353,96.29078 c -4.663324,12.95727 -6.411135,28.39957 -6.411135,47.83542 v 223.74574 c 0,19.4655 1.748702,34.87815 6.411135,47.83544 4.954777,12.98681 13.69933,23.37037 24.483249,29.52359 21.859186,12.30647 48.964408,10.94568 85.396448,11.38945 H 372.8725 c 36.43197,-0.44349 63.53746,0.88804 85.39664,-11.38945 10.78391,-6.1236 19.52768,-16.56633 24.48236,-29.52359 4.66332,-12.95729 6.41206,-28.39959 6.41206,-47.83544 V 190.37486 c 0,-19.46551 -1.74874,-34.87813 -6.41206,-47.83544 -5.13242,-11.94854 -14.75162,-23.74512 -24.48235,-29.52368 -21.85918,-12.30635 -48.96467,-10.94558 -85.39664,-11.38936 H 255.1046 L 203.89377,55.377702 Z"
       id="path13416-9"
       style="color:#e0def4;fill:url(#linearGradient2761);fill-opacity:1;stroke-width:29.3634"
       sodipodi:nodetypes="cccssccccccsscccccc" />
    <path
       style="color:#e0def4;fill:#000000;fill-opacity:1;stroke-width:25.444;filter:url(#filter1161-3)"
       d="M 251.39077,115.93034 206.84328,155.5 H 145.7964 c -34.35319,0.35336 -59.911521,-0.73113 -80.523439,9.06836 -8.66571,4.34575 -17.99953,13.50132 -23.08593,23.50976 -0.38034,0.89244 -0.7128,1.8197 -1.05274,2.74219 v 5 c 0.33994,-0.92249 0.6724,-1.84975 1.05274,-2.74219 5.0864,-10.00844 14.42022,-19.16401 23.08593,-23.50976 20.611918,-9.79949 46.170249,-8.715 80.523439,-9.06836 h 61.04688 l 47.3485,-42.08428 z"
       id="path1063-2"
       sodipodi:nodetypes="ccccccccccccc"
       transform="matrix(1.0605109,0,0,1.0764186,-15.490568,-19.563026)" />
    <path
       fill="currentColor"
       class="ColorScheme-Text"
       d="m 372.87615,101.62767 c 36.43209,0.37999 63.24575,-0.73571 85.39647,9.81301 11.36355,5.60683 20.0481,14.56489 24.48314,25.25524 4.66334,11.10635 6.41127,24.34253 6.41127,41.00185 v 202.85386 c 0,16.68467 -1.74881,29.89554 -6.41127,41.00176 -4.95466,11.13164 -13.6993,20.03184 -24.48314,25.30607 -21.8593,10.54837 -48.96438,9.3819 -85.39647,9.76227 H 139.12773 c -36.43205,-0.37999 -63.537471,0.761 -85.39676,-9.76227 -10.783919,-5.24893 -19.527562,-14.19982 -24.482348,-25.30607 -4.663325,-11.10622 -6.412037,-24.34238 -6.412037,-41.00176 v -156.6611 c 0,-16.68476 1.748712,-29.89564 6.412037,-41.00188 5.394192,-10.77331 15.292226,-20.6281 24.482348,-25.30595 21.859289,-10.54846 48.96471,-9.38199 85.39676,-9.7624 h 64.74164 l 51.23543,-46.19354 c 28.65195,2.3e-4 89.1193,6.2e-4 117.77135,9.1e-4 z"
       id="path13418-0"
       style="color:#e0def4;fill:url(#linearGradient13430-6);fill-opacity:1;stroke-width:27.1853"
       sodipodi:nodetypes="cccssccccccsscccccc" />
    <path
       id="path13422-3"
       style="color:#e0def4;fill:none;fill-opacity:1;stroke:#000000;stroke-width:10.8519;stroke-dasharray:none;stroke-opacity:0.401604"
       class="ColorScheme-Text"
       d="M 139.08916,55.307962 C 102.64608,55.751587 75.824704,54.44892 53.667368,66.759402 42.300301,73.303085 33.611414,83.758145 29.174936,96.2347 c -4.664741,12.96182 -6.412591,28.40944 -6.412591,47.85223 V 367.9113 c 0,0.0599 0.0037,0.10737 0.0037,0.16641 v 12.51779 c 0,16.66524 1.747952,29.90696 6.412694,41.01708 4.956287,11.11016 13.703165,20.0646 24.490245,25.31528 21.865894,10.52675 48.980896,9.38426 85.423866,9.76478 h 233.81808 c 36.44301,-0.38013 63.55592,0.7875 85.42181,-9.76478 10.78708,-5.27609 19.53606,-14.17972 24.49234,-25.31528 4.66387,-11.11012 6.41258,-24.32654 6.41258,-41.01708 V 177.66971 c 0,-16.66518 -1.74784,-29.90489 -6.41258,-41.01507 -4.43648,-10.6941 -13.12536,-19.65594 -24.49234,-25.26475 -21.69709,-10.33282 -47.99739,-9.48117 -83.29402,-9.79836 -0.74894,-0.008 -1.37464,-0.01 -2.13193,-0.0195 H 255.10484 L 203.87826,55.307379 Z"
       sodipodi:nodetypes="cccssssccccccssccccccc" />
    <path
       d="m 44.306403,163.99053 c 36.662664,-16.05278 74.680687,-11.5118 164.917827,-6.26298 l 41.88783,-52.50097 -47.24269,42.59372 c -77.11895,-0.0803 -99.46481,0.0196 -112.150859,1.01173 -35.606377,2.7898 -45.779775,14.08875 -47.412108,15.15836 z"
       id="path16-7"
       inkscape:connector-curvature="0"
       style="opacity:0.5;fill:url(#linearGradient15931-2);fill-opacity:1;stroke-width:16.0503"
       sodipodi:nodetypes="ccccsc" />
    <path
       id="path15590"
       style="color:#e0def4;fill:none;fill-opacity:1;stroke:url(#linearGradient15629);stroke-width:10.8481;stroke-dasharray:none;stroke-opacity:0.401604"
       class="ColorScheme-Text"
       d="M 144.52596,66.153766 C 109.77761,66.573435 80.460524,64.440538 59.333584,76.085719 48.095522,82.599887 40.855349,93.19867 38.080706,103.69834 c -3.84091,12.22702 -4.471965,28.04443 -4.471965,46.43646 v 211.72805 c 0,0.0562 0.0037,0.10197 0.0037,0.15738 v 11.84128 c 0,18.93161 0.589339,31.80135 5.03715,42.31103 4.45039,9.89723 8.997224,15.05269 20.342227,21.28843 20.25977,9.67638 50.789572,8.02514 85.537822,8.38507 H 367.4744 c 34.74828,-0.35962 63.97543,1.11464 83.40935,-7.4556 10.28542,-4.99092 17.01216,-10.26902 22.17827,-21.20411 4.66045,-11.11103 5.3295,-27.53634 5.3295,-43.32482 v -191.959 c 0,-15.76456 -0.58615,-29.27094 -5.03393,-39.78067 -4.38461,-10.48555 -9.62311,-15.94058 -21.80224,-21.90261 -19.5513,-9.2373 -53.63576,-7.5293 -82.17014,-7.78367 -0.71415,-0.008 -1.31071,-0.01 -2.03279,-0.0195 l -116.47309,0.003 -51.08722,-46.267209 z"
       sodipodi:nodetypes="cccssssccccccssccccccc" />
    <path
       id="path1251"
       style="color:#e0def4;fill:none;fill-opacity:1;stroke:url(#linearGradient1253);stroke-width:10.8481;stroke-dasharray:none;stroke-opacity:0.401604"
       class="ColorScheme-Text"
       d="M 144.52596,66.153766 C 109.77761,66.573435 80.460524,64.440538 59.333584,76.085719 48.095522,82.599887 40.855349,93.19867 38.080706,103.69834 c -3.84091,12.22702 -4.471965,28.04443 -4.471965,46.43646 v 211.72805 c 0,0.0562 0.0037,0.10197 0.0037,0.15738 v 11.84128 c 0,18.93161 0.589339,31.80135 5.03715,42.31103 4.45039,9.89723 8.997224,15.05269 20.342227,21.28843 20.25977,9.67638 50.789572,8.02514 85.537822,8.38507 H 367.4744 c 34.74828,-0.35962 63.97543,1.11464 83.40935,-7.4556 10.28542,-4.99092 17.01216,-10.26902 22.17827,-21.20411 4.66045,-11.11103 5.3295,-27.53634 5.3295,-43.32482 v -191.959 c 0,-15.76456 -0.58615,-29.27094 -5.03393,-39.78067 -4.38461,-10.48555 -9.62311,-15.94058 -21.80224,-21.90261 -19.5513,-9.2373 -53.63576,-7.5293 -82.17014,-7.78367 -0.71415,-0.008 -1.31071,-0.01 -2.03279,-0.0195 l -116.47309,0.003 -51.08722,-46.267209 z"
       sodipodi:nodetypes="cccssssccccccssccccccc" />
  </g>
</svg>
