<?xml version="1.0" encoding="UTF-8" standalone="no"?>
<svg
   version="1.1"
   width="512"
   height="512"
   x="0"
   y="0"
   viewBox="0 0 512 512"
   style="enable-background:new 0 0 512 512"
   xml:space="preserve"
   class=""
   id="svg28"
   sodipodi:docname="folder-documents.svg"
   inkscape:version="1.2.2 (b0a8486541, 2022-12-01)"
   xmlns:inkscape="http://www.inkscape.org/namespaces/inkscape"
   xmlns:sodipodi="http://sodipodi.sourceforge.net/DTD/sodipodi-0.dtd"
   xmlns="http://www.w3.org/2000/svg"
   xmlns:svg="http://www.w3.org/2000/svg"><defs
     id="defs32"><inkscape:path-effect
       effect="skeletal"
       id="path-effect2114"
       is_visible="true"
       lpeversion="1"
       pattern="M 0,0 H 1"
       copytype="repeated"
       prop_scale="1"
       scale_y_rel="false"
       spacing="0"
       normal_offset="0"
       tang_offset="0"
       prop_units="false"
       vertical_pattern="false"
       hide_knot="false"
       fuse_tolerance="0" /><inkscape:path-effect
       effect="fillet_chamfer"
       id="path-effect2048"
       is_visible="true"
       lpeversion="1"
       nodesatellites_param="F,0,0,1,0,0,0,1 @ F,0,1,1,0,10,0,1 @ F,0,0,1,0,0,0,1 @ F,0,0,1,0,0,0,1"
       unit="px"
       method="auto"
       mode="F"
       radius="10"
       chamfer_steps="1"
       flexible="false"
       use_knot_distance="true"
       apply_no_radius="true"
       apply_with_radius="true"
       only_selected="true"
       hide_knots="false" /><inkscape:path-effect
       effect="fillet_chamfer"
       id="path-effect2046"
       is_visible="true"
       lpeversion="1"
       nodesatellites_param="F,0,0,1,0,0,0,1 @ F,0,1,1,0,10,0,1 @ F,0,0,1,0,0,0,1 @ F,0,0,1,0,0,0,1"
       unit="px"
       method="auto"
       mode="F"
       radius="10"
       chamfer_steps="1"
       flexible="false"
       use_knot_distance="true"
       apply_no_radius="true"
       apply_with_radius="true"
       only_selected="true"
       hide_knots="false" /><inkscape:path-effect
       effect="fillet_chamfer"
       id="path-effect2044"
       is_visible="true"
       lpeversion="1"
       nodesatellites_param="F,0,0,1,0,0,0,1 @ F,0,0,1,0,0,0,1 @ F,0,0,1,0,0,0,1 @ F,0,1,1,0,10,0,1 @ F,0,1,1,0,10,0,1 @ F,0,1,1,0,10,0,1"
       unit="px"
       method="auto"
       mode="F"
       radius="10"
       chamfer_steps="1"
       flexible="false"
       use_knot_distance="true"
       apply_no_radius="true"
       apply_with_radius="true"
       only_selected="true"
       hide_knots="false" /><inkscape:path-effect
       effect="fillet_chamfer"
       id="path-effect2042"
       is_visible="true"
       lpeversion="1"
       nodesatellites_param="F,0,0,1,0,0,0,1 @ F,0,0,1,0,0,0,1 @ F,0,0,1,0,0,0,1 @ F,0,0,1,0,0,0,1 @ F,0,0,1,0,0,0,1 @ F,0,0,1,0,0,0,1"
       unit="px"
       method="auto"
       mode="F"
       radius="0"
       chamfer_steps="1"
       flexible="false"
       use_knot_distance="true"
       apply_no_radius="true"
       apply_with_radius="true"
       only_selected="true"
       hide_knots="false" /></defs><sodipodi:namedview
     id="namedview30"
     pagecolor="#505050"
     bordercolor="#eeeeee"
     borderopacity="1"
     inkscape:showpageshadow="0"
     inkscape:pageopacity="0"
     inkscape:pagecheckerboard="0"
     inkscape:deskcolor="#505050"
     showgrid="true"
     inkscape:zoom="1.1737625"
     inkscape:cx="258.5702"
     inkscape:cy="275.18344"
     inkscape:current-layer="svg28"><inkscape:grid
       type="xygrid"
       id="grid415" /></sodipodi:namedview><g
     id="g2665"
     transform="translate(-20.07879,-7.7512953)"><g
       id="g2603"
       transform="rotate(-30,355.92422,375.23146)"
       inkscape:transform-center-y="-232.78801"><path
         id="path2585"
         style="fill:#9aadbe;fill-opacity:1;stroke-width:6.79058;stroke-linecap:round;stroke-linejoin:round"
         d="m 808.21981,30.28238 54.32462,54.324615 54.32462,54.324615 v 259.92797 c 0,5.52285 -4.47715,10 -10,10 h -278.7854 c -5.52285,0 -10,-4.47715 -10,-10 V 40.28238 c 0,-5.522847 4.47715,-10 10,-10 z"
         sodipodi:nodetypes="cccccccssc"
         class="UnoptimicedTransforms"
         transform="matrix(0.93636713,0,0,0.93636713,-402.83721,20.274575)" /><path
         id="path2587"
         style="fill:#ffffff;fill-opacity:1;stroke-width:6.79058;stroke-linecap:round;stroke-linejoin:round"
         d="m 808.21981,30.28238 54.32462,54.324615 54.32462,54.324615 v 259.92797 c 0,5.52285 -4.47715,10 -10,10 h -278.7854 c -5.52285,0 -10,-4.47715 -10,-10 V 40.28238 c 0,-5.522847 4.47715,-10 10,-10 z"
         sodipodi:nodetypes="cccccccssc"
         class="UnoptimicedTransforms"
         transform="matrix(0.93636713,0,0,0.93636713,-389.33718,6.7748953)" /><path
         d="m 469.18886,143.22436 h -92.3719 a 9.3636713,9.3636713 0 0 1 -9.36368,-9.36367 V 35.130321 L 469.18886,136.86589 Z"
         style="fill:#c1ccd7;fill-opacity:1;stroke-width:6.35848;stroke-linecap:round;stroke-linejoin:round"
         id="path2589"
         sodipodi:nodetypes="ccccc" /><path
         id="path2591"
         style="fill:#9aadbe;fill-opacity:1;stroke-width:6.35848;stroke-linecap:round;stroke-linejoin:round"
         d="m 469.18886,136.86589 h -92.3719 c -5.17142,0 -9.36368,-4.19226 -9.36368,-9.36367 V 35.130321 l 52.47389,52.116441 z"
         sodipodi:nodetypes="cccccc" /><g
         id="g2601"
         transform="matrix(6.3584733,0,0,6.3584733,125.8313,12.875664)"
         style="fill:#9aadbe;fill-opacity:1"><path
           style="fill:#9aadbe;fill-opacity:1;stroke-width:2;stroke-linecap:round;stroke-linejoin:round"
           d="m 18,47 a 1.4999695,1.4999695 44.998835 0 0 1.5,1.499939 h 17 a 1.5,1.5 135 0 0 1.5,-1.5 A 1.4999695,1.4999695 44.998835 0 0 36.5,45.5 h -17 A 1.5,1.5 135 0 0 18,47 Z"
           id="path2593"
           sodipodi:nodetypes="ccccc" /><path
           style="fill:#9aadbe;fill-opacity:1;stroke-width:2;stroke-linecap:round;stroke-linejoin:round"
           d="m 18,41 a 1.4999695,1.4999695 44.998835 0 0 1.5,1.499939 h 25 a 1.5,1.5 135 0 0 1.5,-1.5 A 1.4999695,1.4999695 44.998835 0 0 44.5,39.5 h -25 A 1.5,1.5 135 0 0 18,41 Z"
           id="path2595"
           sodipodi:nodetypes="ccccc" /><path
           style="fill:#9aadbe;fill-opacity:1;stroke-width:2;stroke-linecap:round;stroke-linejoin:round"
           d="m 18,35 a 1.4999695,1.4999695 44.998835 0 0 1.5,1.499939 h 25 a 1.5,1.5 135 0 0 1.5,-1.5 A 1.4999695,1.4999695 44.998835 0 0 44.5,33.5 h -25 A 1.5,1.5 135 0 0 18,35 Z"
           id="path2597"
           sodipodi:nodetypes="ccccc" /><path
           style="fill:#9aadbe;fill-opacity:1;stroke-width:2;stroke-linecap:round;stroke-linejoin:round"
           d="m 18,29 a 1.4999695,1.4999695 44.998835 0 0 1.5,1.499939 h 25 a 1.5,1.5 135 0 0 1.5,-1.5 A 1.4999695,1.4999695 44.998835 0 0 44.5,27.5 h -25 A 1.5,1.5 135 0 0 18,29 Z"
           id="path2599"
           sodipodi:nodetypes="ccccc" /></g></g><g
       id="g2583"
       transform="rotate(-15,368.31257,292.52669)"
       inkscape:transform-center-y="-232.78801"><path
         id="path2565"
         style="fill:#9aadbe;fill-opacity:1;stroke-width:6.79058;stroke-linecap:round;stroke-linejoin:round"
         d="m 808.21981,30.28238 54.32462,54.324615 54.32462,54.324615 v 259.92797 c 0,5.52285 -4.47715,10 -10,10 h -278.7854 c -5.52285,0 -10,-4.47715 -10,-10 V 40.28238 c 0,-5.522847 4.47715,-10 10,-10 z"
         sodipodi:nodetypes="cccccccssc"
         class="UnoptimicedTransforms"
         transform="matrix(0.93636713,0,0,0.93636713,-402.83721,20.274575)" /><path
         id="path2567"
         style="fill:#ffffff;fill-opacity:1;stroke-width:6.79058;stroke-linecap:round;stroke-linejoin:round"
         d="m 808.21981,30.28238 54.32462,54.324615 54.32462,54.324615 v 259.92797 c 0,5.52285 -4.47715,10 -10,10 h -278.7854 c -5.52285,0 -10,-4.47715 -10,-10 V 40.28238 c 0,-5.522847 4.47715,-10 10,-10 z"
         sodipodi:nodetypes="cccccccssc"
         class="UnoptimicedTransforms"
         transform="matrix(0.93636713,0,0,0.93636713,-389.33718,6.7748953)" /><path
         d="m 469.18886,143.22436 h -92.3719 a 9.3636713,9.3636713 0 0 1 -9.36368,-9.36367 V 35.130321 L 469.18886,136.86589 Z"
         style="fill:#c1ccd7;fill-opacity:1;stroke-width:6.35848;stroke-linecap:round;stroke-linejoin:round"
         id="path2569"
         sodipodi:nodetypes="ccccc" /><path
         id="path2571"
         style="fill:#9aadbe;fill-opacity:1;stroke-width:6.35848;stroke-linecap:round;stroke-linejoin:round"
         d="m 469.18886,136.86589 h -92.3719 c -5.17142,0 -9.36368,-4.19226 -9.36368,-9.36367 V 35.130321 l 52.47389,52.116441 z"
         sodipodi:nodetypes="cccccc" /><g
         id="g2581"
         transform="matrix(6.3584733,0,0,6.3584733,125.8313,12.875664)"
         style="fill:#9aadbe;fill-opacity:1"><path
           style="fill:#9aadbe;fill-opacity:1;stroke-width:2;stroke-linecap:round;stroke-linejoin:round"
           d="m 18,47 a 1.4999695,1.4999695 44.998835 0 0 1.5,1.499939 h 17 a 1.5,1.5 135 0 0 1.5,-1.5 A 1.4999695,1.4999695 44.998835 0 0 36.5,45.5 h -17 A 1.5,1.5 135 0 0 18,47 Z"
           id="path2573"
           sodipodi:nodetypes="ccccc" /><path
           style="fill:#9aadbe;fill-opacity:1;stroke-width:2;stroke-linecap:round;stroke-linejoin:round"
           d="m 18,41 a 1.4999695,1.4999695 44.998835 0 0 1.5,1.499939 h 25 a 1.5,1.5 135 0 0 1.5,-1.5 A 1.4999695,1.4999695 44.998835 0 0 44.5,39.5 h -25 A 1.5,1.5 135 0 0 18,41 Z"
           id="path2575"
           sodipodi:nodetypes="ccccc" /><path
           style="fill:#9aadbe;fill-opacity:1;stroke-width:2;stroke-linecap:round;stroke-linejoin:round"
           d="m 18,35 a 1.4999695,1.4999695 44.998835 0 0 1.5,1.499939 h 25 a 1.5,1.5 135 0 0 1.5,-1.5 A 1.4999695,1.4999695 44.998835 0 0 44.5,33.5 h -25 A 1.5,1.5 135 0 0 18,35 Z"
           id="path2577"
           sodipodi:nodetypes="ccccc" /><path
           style="fill:#9aadbe;fill-opacity:1;stroke-width:2;stroke-linecap:round;stroke-linejoin:round"
           d="m 18,29 a 1.4999695,1.4999695 44.998835 0 0 1.5,1.499939 h 25 a 1.5,1.5 135 0 0 1.5,-1.5 A 1.4999695,1.4999695 44.998835 0 0 44.5,27.5 h -25 A 1.5,1.5 135 0 0 18,29 Z"
           id="path2579"
           sodipodi:nodetypes="ccccc" /></g></g><g
       id="g2623"
       transform="translate(42.811139,6.4126794)"
       inkscape:transform-center-y="-232.78801"><path
         id="path2605"
         style="fill:#9aadbe;fill-opacity:1;stroke-width:6.79058;stroke-linecap:round;stroke-linejoin:round"
         d="m 808.21981,30.28238 54.32462,54.324615 54.32462,54.324615 v 259.92797 c 0,5.52285 -4.47715,10 -10,10 h -278.7854 c -5.52285,0 -10,-4.47715 -10,-10 V 40.28238 c 0,-5.522847 4.47715,-10 10,-10 z"
         sodipodi:nodetypes="cccccccssc"
         class="UnoptimicedTransforms"
         transform="matrix(0.93636713,0,0,0.93636713,-402.83721,20.274575)" /><path
         id="path2607"
         style="fill:#ffffff;fill-opacity:1;stroke-width:6.79058;stroke-linecap:round;stroke-linejoin:round"
         d="m 808.21981,30.28238 54.32462,54.324615 54.32462,54.324615 v 259.92797 c 0,5.52285 -4.47715,10 -10,10 h -278.7854 c -5.52285,0 -10,-4.47715 -10,-10 V 40.28238 c 0,-5.522847 4.47715,-10 10,-10 z"
         sodipodi:nodetypes="cccccccssc"
         class="UnoptimicedTransforms"
         transform="matrix(0.93636713,0,0,0.93636713,-389.33718,6.7748953)" /><path
         d="m 469.18886,143.22436 h -92.3719 a 9.3636713,9.3636713 0 0 1 -9.36368,-9.36367 V 35.130321 L 469.18886,136.86589 Z"
         style="fill:#c1ccd7;fill-opacity:1;stroke-width:6.35848;stroke-linecap:round;stroke-linejoin:round"
         id="path2609"
         sodipodi:nodetypes="ccccc" /><path
         id="path2611"
         style="fill:#9aadbe;fill-opacity:1;stroke-width:6.35848;stroke-linecap:round;stroke-linejoin:round"
         d="m 469.18886,136.86589 h -92.3719 c -5.17142,0 -9.36368,-4.19226 -9.36368,-9.36367 V 35.130321 l 52.47389,52.116441 z"
         sodipodi:nodetypes="cccccc" /><g
         id="g2621"
         transform="matrix(6.3584733,0,0,6.3584733,125.8313,12.875664)"
         style="fill:#9aadbe;fill-opacity:1"><path
           style="fill:#9aadbe;fill-opacity:1;stroke-width:2;stroke-linecap:round;stroke-linejoin:round"
           d="m 18,47 a 1.4999695,1.4999695 44.998835 0 0 1.5,1.499939 h 17 a 1.5,1.5 135 0 0 1.5,-1.5 A 1.4999695,1.4999695 44.998835 0 0 36.5,45.5 h -17 A 1.5,1.5 135 0 0 18,47 Z"
           id="path2613"
           sodipodi:nodetypes="ccccc" /><path
           style="fill:#9aadbe;fill-opacity:1;stroke-width:2;stroke-linecap:round;stroke-linejoin:round"
           d="m 18,41 a 1.4999695,1.4999695 44.998835 0 0 1.5,1.499939 h 25 a 1.5,1.5 135 0 0 1.5,-1.5 A 1.4999695,1.4999695 44.998835 0 0 44.5,39.5 h -25 A 1.5,1.5 135 0 0 18,41 Z"
           id="path2615"
           sodipodi:nodetypes="ccccc" /><path
           style="fill:#9aadbe;fill-opacity:1;stroke-width:2;stroke-linecap:round;stroke-linejoin:round"
           d="m 18,35 a 1.4999695,1.4999695 44.998835 0 0 1.5,1.499939 h 25 a 1.5,1.5 135 0 0 1.5,-1.5 A 1.4999695,1.4999695 44.998835 0 0 44.5,33.5 h -25 A 1.5,1.5 135 0 0 18,35 Z"
           id="path2617"
           sodipodi:nodetypes="ccccc" /><path
           style="fill:#9aadbe;fill-opacity:1;stroke-width:2;stroke-linecap:round;stroke-linejoin:round"
           d="m 18,29 a 1.4999695,1.4999695 44.998835 0 0 1.5,1.499939 h 25 a 1.5,1.5 135 0 0 1.5,-1.5 A 1.4999695,1.4999695 44.998835 0 0 44.5,27.5 h -25 A 1.5,1.5 135 0 0 18,29 Z"
           id="path2619"
           sodipodi:nodetypes="ccccc" /></g></g><g
       id="g2563"
       transform="translate(42.811139,6.4126794)"
       inkscape:transform-center-y="-232.78801"><path
         id="path2345"
         style="fill:#9aadbe;fill-opacity:1;stroke-width:6.79058;stroke-linecap:round;stroke-linejoin:round"
         d="m 808.21981,30.28238 54.32462,54.324615 54.32462,54.324615 v 259.92797 c 0,5.52285 -4.47715,10 -10,10 h -278.7854 c -5.52285,0 -10,-4.47715 -10,-10 V 40.28238 c 0,-5.522847 4.47715,-10 10,-10 z"
         sodipodi:nodetypes="cccccccssc"
         class="UnoptimicedTransforms"
         transform="matrix(0.93636713,0,0,0.93636713,-402.83721,20.274575)" /><path
         id="rect448"
         style="fill:#ffffff;fill-opacity:1;stroke-width:6.79058;stroke-linecap:round;stroke-linejoin:round"
         d="m 808.21981,30.28238 54.32462,54.324615 54.32462,54.324615 v 259.92797 c 0,5.52285 -4.47715,10 -10,10 h -278.7854 c -5.52285,0 -10,-4.47715 -10,-10 V 40.28238 c 0,-5.522847 4.47715,-10 10,-10 z"
         sodipodi:nodetypes="cccccccssc"
         class="UnoptimicedTransforms"
         transform="matrix(0.93636713,0,0,0.93636713,-389.33718,6.7748953)" /><path
         d="m 469.18886,143.22436 h -92.3719 a 9.3636713,9.3636713 0 0 1 -9.36368,-9.36367 V 35.130321 L 469.18886,136.86589 Z"
         style="fill:#c1ccd7;fill-opacity:1;stroke-width:6.35848;stroke-linecap:round;stroke-linejoin:round"
         id="path611"
         sodipodi:nodetypes="ccccc" /><path
         id="rect600"
         style="fill:#9aadbe;fill-opacity:1;stroke-width:6.35848;stroke-linecap:round;stroke-linejoin:round"
         d="m 469.18886,136.86589 h -92.3719 c -5.17142,0 -9.36368,-4.19226 -9.36368,-9.36367 V 35.130321 l 52.47389,52.116441 z"
         sodipodi:nodetypes="cccccc" /><g
         id="g450"
         transform="matrix(6.3584733,0,0,6.3584733,125.8313,12.875664)"
         style="fill:#9aadbe;fill-opacity:1"><path
           style="fill:#9aadbe;fill-opacity:1;stroke-width:2;stroke-linecap:round;stroke-linejoin:round"
           d="m 18,47 a 1.4999695,1.4999695 44.998835 0 0 1.5,1.499939 h 17 a 1.5,1.5 135 0 0 1.5,-1.5 A 1.4999695,1.4999695 44.998835 0 0 36.5,45.5 h -17 A 1.5,1.5 135 0 0 18,47 Z"
           id="path1563"
           sodipodi:nodetypes="ccccc" /><path
           style="fill:#9aadbe;fill-opacity:1;stroke-width:2;stroke-linecap:round;stroke-linejoin:round"
           d="m 18,41 a 1.4999695,1.4999695 44.998835 0 0 1.5,1.499939 h 25 a 1.5,1.5 135 0 0 1.5,-1.5 A 1.4999695,1.4999695 44.998835 0 0 44.5,39.5 h -25 A 1.5,1.5 135 0 0 18,41 Z"
           id="path1561"
           sodipodi:nodetypes="ccccc" /><path
           style="fill:#9aadbe;fill-opacity:1;stroke-width:2;stroke-linecap:round;stroke-linejoin:round"
           d="m 18,35 a 1.4999695,1.4999695 44.998835 0 0 1.5,1.499939 h 25 a 1.5,1.5 135 0 0 1.5,-1.5 A 1.4999695,1.4999695 44.998835 0 0 44.5,33.5 h -25 A 1.5,1.5 135 0 0 18,35 Z"
           id="path1559"
           sodipodi:nodetypes="ccccc" /><path
           style="fill:#9aadbe;fill-opacity:1;stroke-width:2;stroke-linecap:round;stroke-linejoin:round"
           d="m 18,29 a 1.4999695,1.4999695 44.998835 0 0 1.5,1.499939 h 25 a 1.5,1.5 135 0 0 1.5,-1.5 A 1.4999695,1.4999695 44.998835 0 0 44.5,27.5 h -25 A 1.5,1.5 135 0 0 18,29 Z"
           id="rect759"
           sodipodi:nodetypes="ccccc" /></g></g></g></svg>
