<?xml version="1.0" encoding="UTF-8" standalone="no"?>
<svg
   version="1.1"
   width="512"
   height="512"
   x="0"
   y="0"
   viewBox="0 0 64 64"
   style="enable-background:new 0 0 512 512"
   xml:space="preserve"
   class=""
   id="svg5872"
   sodipodi:docname="folder-pictures.svg"
   inkscape:version="1.2.2 (b0a8486541, 2022-12-01)"
   xmlns:inkscape="http://www.inkscape.org/namespaces/inkscape"
   xmlns:sodipodi="http://sodipodi.sourceforge.net/DTD/sodipodi-0.dtd"
   xmlns="http://www.w3.org/2000/svg"
   xmlns:svg="http://www.w3.org/2000/svg"><path
     fill="#348fd9"
     d="M 12.945476,1.6033685 56.307333,19.486197 43.361857,50.38358 2.5762633e-7,32.500751 Z"
     data-original="#348fd9"
     id="path5838"
     style="fill:#2e92fa;fill-opacity:1;stroke-width:0.934306" /><path
     fill="#9fe4ed"
     d="M 14.551249,5.5184004 51.402405,20.836651 41.190239,45.404088 4.339082,30.085838 Z"
     data-original="#9fe4ed"
     class=""
     id="path5840"
     style="stroke-width:0.950193" /><circle
     cx="22.206154"
     cy="6.1617193"
     r="2.8505785"
     fill="#ffa912"
     data-original="#ffa912"
     class=""
     id="circle5842"
     transform="rotate(22.571629)"
     style="stroke-width:0.950193" /><path
     fill="#44546c"
     d="M 8.5113086,17.802119 H 55.180273 V 50.814286 H 8.5113086 Z"
     data-original="#44546c"
     id="path5844"
     style="fill:#9976c2;fill-opacity:1;stroke-width:0.925156" /><path
     fill="#9fe4ed"
     d="M 11.4714,20.408112 H 51.379502 V 47.013514 H 11.4714 Z"
     data-original="#9fe4ed"
     class=""
     id="path5846"
     style="stroke-width:0.950193" /><circle
     cx="18.122751"
     cy="27.059462"
     r="2.8505788"
     fill="#ffa912"
     data-original="#ffa912"
     class=""
     id="circle5848"
     style="stroke-width:0.950193" /><path
     fill="#ffa912"
     d="M 10.367416,33.672583 21.758754,62.396632 64.000003,45.644665 52.608664,16.920614 Z"
     data-original="#ffa912"
     class=""
     id="path5850"
     style="fill:#f9d78d;fill-opacity:1;stroke-width:0.908972" /><path
     fill="#9fe4ed"
     d="M 14.084818,35.53274 23.190872,58.494286 60.2826,43.784508 51.176546,20.822959 Z"
     data-original="#9fe4ed"
     class=""
     id="path5852"
     style="stroke-width:0.950193" /><path
     d="M 53.254968,33.153722 57.838484,44.753115 60.2826,43.784508 51.176679,20.822948 14.084847,35.533044 14.881635,37.54158 40.256174,27.519763 c 5.145582,-2.033615 10.965457,0.489252 12.998886,5.634907 z"
     opacity="0.2"
     fill="#000000"
     data-original="#000000"
     class=""
     id="path5854"
     style="stroke-width:0.950193"
     sodipodi:nodetypes="ccccccccc" /><g
     id="g6746"
     transform="matrix(0.68680272,-0.71402289,0.69556393,0.71371607,-16.956801,42.105954)"><path
       fill="#7eb457"
       d="m 50.553521,32.044906 -19.343824,10.85056 -1.060229,3.212518 24.530083,10.946925 3.998518,-9.401827"
       data-original="#7eb457"
       class=""
       id="path5856"
       style="stroke-width:0.940929"
       sodipodi:nodetypes="ccccc" /><path
       d="M 58.681893,47.660414 C 56.390039,43.265543 52.858438,36.452868 50.561677,32.060399 l -1.164172,0.65347 c 1.345117,8.013462 0.288981,18.608704 -14.443245,15.537435 l -0.01139,-0.0051 -4.797326,-2.139991 24.534008,10.948677 z"
       opacity="0.2"
       fill="#000000"
       data-original="#000000"
       class=""
       id="path5858"
       style="stroke-width:0.940929"
       sodipodi:nodetypes="cccccccc" /></g><g
     id="g6750"
     transform="matrix(-0.72957568,0.69821675,0.69821675,0.72957568,17.302082,-7.1253668)"><path
       fill="#7eb457"
       d="M 40.714773,50.97746 24.308154,43.450639 16.899398,58.099699 15.273637,61.31475 Z"
       data-original="#7eb457"
       class=""
       id="path5860"
       style="stroke-width:0.940929"
       sodipodi:nodetypes="ccccc" /><path
       d="m 15.274442,61.312665 9.033712,-17.862026 1.601165,0.734562 c -2.213525,4.834142 0.923099,8.589669 6.21971,8.126489 l 8.585744,-1.33423 z"
       opacity="0.21"
       fill="#000000"
       data-original="#000000"
       class=""
       id="path5862"
       style="stroke-width:0.940929"
       sodipodi:nodetypes="cccccc" /></g><circle
     cx="4.6773915"
     cy="45.913658"
     r="2.8505785"
     fill="#ffa912"
     data-original="#ffa912"
     class=""
     id="circle5866"
     style="fill:#ffa912;fill-opacity:1;stroke-width:0.950193"
     transform="matrix(-0.79168952,0.61092365,0.61092365,0.79168952,0,0)" /><defs
     id="defs5876" /><sodipodi:namedview
     id="namedview5874"
     pagecolor="#505050"
     bordercolor="#eeeeee"
     borderopacity="1"
     inkscape:showpageshadow="0"
     inkscape:pageopacity="0"
     inkscape:pagecheckerboard="0"
     inkscape:deskcolor="#505050"
     showgrid="false"
     inkscape:zoom="0.82590472"
     inkscape:cx="600.55354"
     inkscape:cy="369.29199"
     inkscape:current-layer="svg5872" /></svg>
