<?xml version="1.0" encoding="UTF-8" standalone="no"?>
<!-- Created with Inkscape (http://www.inkscape.org/) -->

<svg
   width="64"
   height="64"
   viewBox="0 0 64 64"
   version="1.1"
   id="svg5"
   inkscape:version="1.3.2 (091e20ef0f, 2023-11-25, custom)"
   sodipodi:docname="folder-remote.svg"
   xml:space="preserve"
   xmlns:inkscape="http://www.inkscape.org/namespaces/inkscape"
   xmlns:sodipodi="http://sodipodi.sourceforge.net/DTD/sodipodi-0.dtd"
   xmlns:xlink="http://www.w3.org/1999/xlink"
   xmlns="http://www.w3.org/2000/svg"
   xmlns:svg="http://www.w3.org/2000/svg"><sodipodi:namedview
     id="namedview7"
     pagecolor="#ffffff"
     bordercolor="#000000"
     borderopacity="0.25"
     inkscape:showpageshadow="2"
     inkscape:pageopacity="0.0"
     inkscape:pagecheckerboard="0"
     inkscape:deskcolor="#d1d1d1"
     inkscape:document-units="px"
     showgrid="true"
     inkscape:zoom="9.16323"
     inkscape:cx="23.62704"
     inkscape:cy="28.483406"
     inkscape:window-width="1920"
     inkscape:window-height="1013"
     inkscape:window-x="0"
     inkscape:window-y="36"
     inkscape:window-maximized="1"
     inkscape:current-layer="layer1"><inkscape:grid
       id="grid1"
       units="px"
       originx="0"
       originy="0"
       spacingx="1"
       spacingy="1"
       empcolor="#0099e5"
       empopacity="0.30196078"
       color="#0099e5"
       opacity="0.14902"
       empspacing="5"
       dotted="false"
       gridanglex="30"
       gridanglez="30"
       visible="true" /></sodipodi:namedview><defs
     id="defs2"><inkscape:path-effect
       effect="fillet_chamfer"
       id="path-effect15"
       is_visible="true"
       lpeversion="1"
       nodesatellites_param="F,0,0,1,0,0,0,1 @ F,0,0,1,0,0,0,1 @ F,0,0,1,0,0,0,1 @ F,0,1,1,0,5,0,1 @ F,0,1,1,0,5,0,1 @ F,0,0,1,0,0,0,1 @ F,0,0,1,0,0,0,1"
       radius="5"
       unit="px"
       method="auto"
       mode="F"
       chamfer_steps="1"
       flexible="false"
       use_knot_distance="true"
       apply_no_radius="true"
       apply_with_radius="true"
       only_selected="true"
       hide_knots="false" /><inkscape:path-effect
       effect="fillet_chamfer"
       id="path-effect14"
       is_visible="true"
       lpeversion="1"
       nodesatellites_param="F,0,0,1,0,0,0,1 @ F,0,0,1,0,0,0,1 @ F,0,0,1,0,0,0,1 @ F,0,0,1,0,0,0,1 @ F,0,0,1,0,0,0,1 @ F,0,0,1,0,0,0,1 @ F,0,0,1,0,0,0,1 @ F,0,0,1,0,0,0,1 @ F,0,0,1,0,0,0,1 @ F,0,0,1,0,0,0,1 @ F,0,0,1,0,0,0,1 @ F,0,1,1,0,5,0,1 @ F,0,0,1,0,0,0,1 @ F,0,0,1,0,0,0,1 @ F,0,0,1,0,0,0,1 @ F,0,0,1,0,0,0,1"
       radius="5"
       unit="px"
       method="auto"
       mode="F"
       chamfer_steps="1"
       flexible="false"
       use_knot_distance="true"
       apply_no_radius="true"
       apply_with_radius="true"
       only_selected="true"
       hide_knots="false" /><inkscape:path-effect
       effect="fillet_chamfer"
       id="path-effect1"
       is_visible="true"
       lpeversion="1"
       nodesatellites_param="F,0,1,1,0,40,0,1 @ F,0,0,1,0,0,0,1 @ F,0,0,1,0,0,0,1 @ F,0,0,1,0,0,0,1 @ F,0,0,1,0,0,0,1 @ F,0,0,1,0,0,0,1 @ F,0,0,1,0,0,0,1 @ F,0,0,1,0,0,0,1 @ F,0,0,1,0,0,0,1 @ F,0,0,1,0,0,0,1 @ F,0,0,1,0,0,0,1 @ F,0,0,1,0,0,0,1 @ F,0,0,1,0,0,0,1 @ F,0,0,1,0,0,0,1"
       radius="40"
       unit="px"
       method="auto"
       mode="F"
       chamfer_steps="1"
       flexible="false"
       use_knot_distance="true"
       apply_no_radius="true"
       apply_with_radius="true"
       only_selected="true"
       hide_knots="false" /><inkscape:path-effect
       effect="fillet_chamfer"
       id="path-effect3"
       is_visible="true"
       lpeversion="1"
       nodesatellites_param="F,0,0,1,0,0,0,1 @ F,0,0,1,0,0,0,1 @ F,0,0,1,0,0,0,1 @ F,0,0,1,0,0,0,1 @ F,0,0,1,0,0,0,1 @ F,0,0,1,0,0,0,1 @ F,0,1,1,0,0.5,0,1 @ F,0,0,1,0,0,0,1 @ F,0,0,1,0,0,0,1 @ F,0,0,1,0,0,0,1 @ F,0,0,1,0,0,0,1 @ F,0,0,1,0,0,0,1 @ F,0,0,1,0,0,0,1 @ F,0,0,1,0,0,0,1 @ F,0,0,1,0,0,0,1 @ F,0,0,1,0,0,0,1 @ F,0,0,1,0,0,0,1 @ F,0,0,1,0,0,0,1"
       radius="0.5"
       unit="px"
       method="auto"
       mode="F"
       chamfer_steps="1"
       flexible="false"
       use_knot_distance="true"
       apply_no_radius="true"
       apply_with_radius="true"
       only_selected="true"
       hide_knots="false" /><inkscape:path-effect
       effect="fillet_chamfer"
       id="path-effect2"
       is_visible="true"
       lpeversion="1"
       nodesatellites_param="F,0,0,1,0,0,0,1 @ F,0,0,1,0,0,0,1 @ F,0,0,1,0,0,0,1 @ F,0,0,1,0,0,0,1 @ F,0,0,1,0,0,0,1 @ F,0,0,1,0,0,0,1 @ F,0,0,1,0,0,0,1 @ F,0,0,1,0,0,0,1 @ F,0,0,1,0,0,0,1 @ F,0,0,1,0,0,0,1 @ F,0,0,1,0,0,0,1 @ F,0,0,1,0,0,0,1 @ F,0,0,1,0,0,0,1 @ F,0,0,1,0,0,0,1 @ F,0,0,1,0,0,0,1 @ F,0,0,1,0,0,0,1 @ F,0,1,1,0,0.5,0,1"
       radius="0.5"
       unit="px"
       method="auto"
       mode="F"
       chamfer_steps="1"
       flexible="false"
       use_knot_distance="true"
       apply_no_radius="true"
       apply_with_radius="true"
       only_selected="true"
       hide_knots="false" /><inkscape:path-effect
       effect="fillet_chamfer"
       id="path-effect1-6"
       is_visible="true"
       lpeversion="1"
       nodesatellites_param="F,0,1,1,0,0,0,1 @ F,0,0,1,0,0,0,1 @ F,0,0,1,0,0,0,1 @ F,0,0,1,0,0,0,1 @ F,0,0,1,0,0,0,1 @ F,0,0,1,0,0,0,1 @ F,0,0,1,0,0,0,1 @ F,0,1,1,0,0.5,0,1 @ F,0,0,1,0,0,0,1 @ F,0,0,1,0,0,0,1 @ F,0,0,1,0,0,0,1 @ F,0,0,1,0,0,0,1 @ F,0,0,1,0,0,0,1 @ F,0,0,1,0,0,0,1 @ F,0,0,1,0,0,0,1 @ F,0,0,1,0,0,0,1 @ F,0,0,1,0,0,0,1"
       radius="0.5"
       unit="px"
       method="auto"
       mode="F"
       chamfer_steps="1"
       flexible="false"
       use_knot_distance="true"
       apply_no_radius="true"
       apply_with_radius="true"
       only_selected="true"
       hide_knots="false" /><inkscape:path-effect
       effect="fillet_chamfer"
       id="path-effect19"
       is_visible="true"
       lpeversion="1"
       nodesatellites_param="F,0,0,1,0,0,0,1 @ F,0,0,1,0,0,0,1 @ F,0,0,1,0,0,0,1 @ F,0,0,1,0,0,0,1 @ F,0,0,1,0,0,0,1 @ F,0,0,1,0,0,0,1 @ F,0,0,1,0,0,0,1 @ F,0,0,1,0,0,0,1 @ F,0,0,1,0,0,0,1 @ F,0,0,1,0,0,0,1 @ F,0,0,1,0,0,0,1 @ F,0,0,1,0,0,0,1 @ F,0,0,1,0,0,0,1 @ F,0,0,1,0,0,0,1 @ F,0,1,1,0,1,0,1 @ F,0,0,1,0,0,0,1 @ F,0,0,1,0,0,0,1 @ F,0,0,1,0,0,0,1 @ F,0,0,1,0,0,0,1 @ F,0,0,1,0,0,0,1 @ F,0,0,1,0,0,0,1 @ F,0,0,1,0,0,0,1 @ F,0,0,1,0,0,0,1 @ F,0,0,1,0,0,0,1 @ F,0,0,1,0,0,0,1 @ F,0,0,1,0,0,0,1"
       radius="1"
       unit="px"
       method="auto"
       mode="F"
       chamfer_steps="1"
       flexible="false"
       use_knot_distance="true"
       apply_no_radius="true"
       apply_with_radius="true"
       only_selected="true"
       hide_knots="false" /><style
       type="text/css"
       id="current-color-scheme">
   .ColorScheme-Text { color:#5c616c; } .ColorScheme-Highlight { color:#5294e2; } .ColorScheme-ButtonBackground { color:#d3dae3; }
  </style><linearGradient
       inkscape:collect="always"
       xlink:href="#linearGradient13848"
       id="linearGradient1707"
       x1="6.1048079"
       y1="56.832436"
       x2="6.1719809"
       y2="58.714455"
       gradientUnits="userSpaceOnUse"
       gradientTransform="matrix(0.98833186,0,0,2.0286699,3.2776461,-59.408141)" /><linearGradient
       id="linearGradient13848"
       x1="321"
       x2="367"
       y1="70"
       y2="105"
       gradientTransform="translate(-320,-60)"
       gradientUnits="userSpaceOnUse"><stop
         stop-color="#666"
         offset="0"
         id="stop27"
         style="stop-color:#b2b2b2;stop-opacity:1;" /><stop
         stop-color="#7a7a7a"
         offset="1"
         id="stop29"
         style="stop-color:#b2b2b2;stop-opacity:1;" /></linearGradient><filter
       inkscape:collect="always"
       style="color-interpolation-filters:sRGB"
       id="filter12-8"
       x="-0.017995655"
       y="-0.033029687"
       width="1.0359913"
       height="1.0660594"><feGaussianBlur
         inkscape:collect="always"
         stdDeviation="0.23976628"
         id="feGaussianBlur12-4" /></filter><linearGradient
       inkscape:collect="always"
       xlink:href="#linearGradient6"
       id="linearGradient8"
       x1="0"
       y1="0"
       x2="64"
       y2="64"
       gradientUnits="userSpaceOnUse"
       gradientTransform="matrix(0.92198652,0,0,0.92198652,2.4964264,-3.6214675)" /><linearGradient
       id="linearGradient6"
       inkscape:collect="always"><stop
         style="stop-color:#9477bb;stop-opacity:1;"
         offset="0"
         id="stop7" /><stop
         style="stop-color:#9274ba;stop-opacity:1;"
         offset="1"
         id="stop9" /></linearGradient><linearGradient
       inkscape:collect="always"
       xlink:href="#linearGradient12"
       id="linearGradient13-5"
       x1="-63.829453"
       y1="32.006756"
       x2="-6.9064422"
       y2="32.006756"
       gradientUnits="userSpaceOnUse"
       gradientTransform="matrix(0.92198652,0,0,0.92198652,64.609235,-3.6235392)" /><linearGradient
       id="linearGradient12"
       inkscape:collect="always"><stop
         style="stop-color:#ffffff;stop-opacity:0;"
         offset="0"
         id="stop12" /><stop
         style="stop-color:#ffffff;stop-opacity:0.3"
         offset="0.09748957"
         id="stop14" /><stop
         style="stop-color:#ffffff;stop-opacity:0;"
         offset="0.1993918"
         id="stop15" /><stop
         style="stop-color:#ffffff;stop-opacity:0;"
         offset="0.50489056"
         id="stop16" /><stop
         style="stop-color:#ffffff;stop-opacity:0;"
         offset="0.80300045"
         id="stop19" /><stop
         style="stop-color:#ffffff;stop-opacity:0.302"
         offset="0.89696491"
         id="stop18" /><stop
         style="stop-color:#ffffff;stop-opacity:0;"
         offset="1"
         id="stop13" /></linearGradient><linearGradient
       inkscape:collect="always"
       xlink:href="#linearGradient3"
       id="linearGradient5"
       x1="12.78446"
       y1="18.196804"
       x2="35.266891"
       y2="18.196804"
       gradientUnits="userSpaceOnUse"
       gradientTransform="matrix(0.92198652,0,0,0.92198652,2.4964264,-3.6214675)" /><linearGradient
       id="linearGradient3"
       inkscape:collect="always"><stop
         style="stop-color:#ffffff;stop-opacity:0;"
         offset="0"
         id="stop4" /><stop
         style="stop-color:#ffffff;stop-opacity:0.30240488;"
         offset="0.69896251"
         id="stop6" /><stop
         style="stop-color:#ffffff;stop-opacity:0;"
         offset="1"
         id="stop5" /></linearGradient></defs><g
     inkscape:label="Layer 1"
     inkscape:groupmode="layer"
     id="layer1"><rect
       style="fill:#b2b2b2;fill-opacity:1;stroke:none;stroke-width:2.02507;stroke-linecap:round;stroke-linejoin:round"
       id="rect2323"
       width="3.6073835"
       height="14.069846"
       x="29.682154"
       y="43.527695" /><rect
       style="fill:url(#linearGradient1707);fill-opacity:1;stroke:none;stroke-width:1.41597;stroke-linecap:round;stroke-linejoin:round"
       id="rect909"
       width="45.377552"
       height="3.4258506"
       x="9.311224"
       y="55.886116" /><rect
       style="fill:#b2b2b2;fill-opacity:1;stroke:none;stroke-width:1.93093;stroke-linecap:round;stroke-linejoin:round"
       id="rect2003"
       width="13.716032"
       height="8.6256924"
       x="24.641394"
       y="53.316727"
       ry="2.2166135" /><path
       fill="url(#_lgradient_1)"
       fill-rule="evenodd"
       d="m 35.337822,9.1940554 h 4.752251 c 0.944713,-0.002 1.889418,0.0082 2.83414,0.02824 0.845831,0.01596 1.691892,0.04625 2.537722,0.0925 0.753724,0.04011 1.507218,0.09843 2.258756,0.17476 0.667712,0.06855 1.335443,0.160846 1.99683,0.275443 0.592625,0.102728 1.178713,0.233287 1.756273,0.3920856 0.523873,0.142837 1.03706,0.319643 1.532987,0.528783 0.461657,0.192974 0.903888,0.422168 1.322562,0.685536 0.401636,0.253341 0.777281,0.542903 1.12085,0.862548 0.341402,0.321689 0.65048,0.67162 0.920926,1.047539 0.281372,0.392085 0.526058,0.806272 0.734298,1.23642 0.223296,0.466573 0.41234,0.945017 0.566893,1.433487 0.169599,0.540857 0.309289,1.089694 0.418655,1.644671 0.122449,0.619234 0.221111,1.24256 0.294234,1.867728 0.08169,0.703749 0.143857,1.407498 0.18685,2.113088 0.04933,0.790106 0.08141,1.582257 0.100846,2.372364 0.01918,0.884648 0.03006,1.769297 0.02784,2.651898 v 5.237125 c 0.0028,0.884648 -0.0083,1.767251 -0.02784,2.651898 -0.01945,0.792153 -0.05154,1.582258 -0.100846,2.372364 -0.04306,0.705591 -0.105208,1.411386 -0.18685,2.113088 -0.07311,0.625168 -0.171785,1.250541 -0.294234,1.869775 -0.109366,0.55293 -0.249056,1.101768 -0.418655,1.642625 -0.154553,0.488469 -0.343597,0.96896 -0.566893,1.433486 -0.20824,0.432195 -0.452926,0.844336 -0.734298,1.236421 -0.270446,0.375915 -0.579524,0.727892 -0.920926,1.047536 -0.343569,0.319644 -0.719214,0.609206 -1.12085,0.862547 -0.418674,0.263368 -0.860905,0.492563 -1.322562,0.685536 -0.495927,0.209139 -1.009114,0.385947 -1.532987,0.53083 -0.57756,0.158799 -1.163648,0.289357 -1.756273,0.390039 -0.661387,0.116439 -1.329118,0.206889 -1.99683,0.275442 -0.751538,0.07633 -1.505032,0.134651 -2.258756,0.174762 -0.84583,0.04625 -1.691891,0.07653 -2.537722,0.09454 -0.944722,0.01801 -1.889427,0.02823 -2.83414,0.02619 H 23.909855 c -0.944714,0.0021 -1.889427,-0.0082 -2.834141,-0.02619 -0.845839,-0.01801 -1.691891,-0.04829 -2.537721,-0.09454 -0.753724,-0.04011 -1.507227,-0.09843 -2.258766,-0.174762 -0.667712,-0.06855 -1.335433,-0.159003 -1.99682,-0.275442 -0.592634,-0.100682 -1.178711,-0.23124 -1.75628,-0.390039 -0.523868,-0.144883 -1.037045,-0.321691 -1.532975,-0.53083 C 10.53149,47.560574 10.089256,47.331379 9.6705952,47.068011 9.2689594,46.81467 8.8932997,46.525108 8.549727,46.205464 8.2083366,45.88582 7.8992526,45.533843 7.6288044,45.157924 7.3474418,44.765839 7.1027503,44.353698 6.8945113,43.921503 6.6712108,43.456977 6.4821796,42.976486 6.327638,42.488017 6.1580349,41.94716 6.0183355,41.398322 5.9089778,40.845392 5.7865232,40.226158 5.6878596,39.600785 5.6147359,38.975617 5.5331125,38.273915 5.4708895,37.56812 5.4278889,36.862529 5.3785626,36.072423 5.3464775,35.282318 5.3270439,34.490165 5.3078297,33.605518 5.2969226,32.722915 5.2991169,31.838267 V 19.925903 c -0.00221,-0.882601 0.00876,-1.76725 0.027927,-2.651898 0.019426,-0.790106 0.051511,-1.582258 0.100845,-2.372363 0.043011,-0.705591 0.1052107,-1.40934 0.186847,-2.113088 C 5.6878587,12.163385 5.7865232,11.54006 5.9089778,10.920826 6.0183355,10.365849 6.1580349,9.8170124 6.327638,9.2761544 6.4821796,8.7876844 6.6712108,8.3092414 6.8945113,7.8426684 7.1027503,7.4125198 7.3474418,6.9983331 7.6288044,6.6062482 7.8992526,6.2303285 8.2083366,5.8803977 8.549727,5.5587083 8.8932997,5.2390639 9.2689594,4.949502 9.6705952,4.6961604 10.089256,4.4327931 10.53149,4.2035974 10.993152,4.010621 c 0.49593,-0.2091342 1.009107,-0.3859435 1.532975,-0.5287768 0.577569,-0.1588038 1.163646,-0.2893571 1.75628,-0.3920849 0.661387,-0.114602 1.329108,-0.2068928 1.99682,-0.2754425 0.751539,-0.07634 1.505042,-0.1346571 2.258766,-0.1747626 0.84583,-0.046284 1.691882,-0.076525 2.537721,-0.092494 0.944714,-0.020099 1.889427,-0.030333 2.834141,-0.028213 h 4.752785"
       id="path9-2"
       style="isolation:isolate;fill:#6a4b9f;fill-opacity:1;stroke-width:0.211349"
       sodipodi:nodetypes="cccccccccccccccccccccccccccccccccccccccccccccccccccccccccccccccccccccc" /><path
       id="path8-0"
       style="isolation:isolate;mix-blend-mode:normal;fill:#000000;fill-opacity:1;stroke:none;stroke-width:0.229232;stroke-opacity:1;filter:url(#filter12-8)"
       d="m 34.816688,10.641898 -6.88672,6.886719 h -5.1543 c -1.02465,-0.0022 -2.04956,0.0095 -3.07422,0.03125 -0.9174,0.01731 -1.83455,0.04945 -2.75195,0.09961 -0.8175,0.0435 -1.63409,0.106665 -2.44922,0.189453 -0.72421,0.07435 -1.44867,0.174534 -2.16602,0.298828 -0.64276,0.11142 -1.279817,0.253545 -1.906247,0.425781 -0.5681946,0.154923 -1.1242136,0.34543 -1.6621046,0.572266 -0.500716,0.2093 -0.979494,0.45849 -1.433594,0.74414 -0.435617,0.274778 -0.844159,0.588857 -1.216797,0.935547 -0.370288,0.348909 -0.70472,0.728992 -0.998047,1.136719 -0.30518,0.425259 -0.571016,0.873299 -0.796875,1.339844 -0.242189,0.506049 -0.447604,1.024889 -0.615235,1.554687 -0.183947,0.586622 -0.334504,1.183222 -0.453125,1.785156 -0.06062,0.306586 -0.114102,0.613756 -0.164062,0.921875 v 0.5 c 0.04996,-0.308119 0.103438,-0.615289 0.164062,-0.921875 0.118621,-0.601934 0.269178,-1.196581 0.453125,-1.783203 0.167631,-0.529798 0.373046,-1.048638 0.615235,-1.554687 0.225859,-0.466545 0.491695,-0.916538 0.796875,-1.341797 0.293327,-0.407727 0.627758,-0.78781 0.998047,-1.136719 0.372638,-0.34669 0.78118,-0.660769 1.216797,-0.935547 0.4541,-0.28565 0.932878,-0.53484 1.433594,-0.74414 0.53789,-0.226836 1.09391,-0.417343 1.6621046,-0.572266 0.62643,-0.172236 1.263487,-0.314361 1.906247,-0.425781 0.71735,-0.124294 1.44181,-0.224478 2.16602,-0.298828 0.81513,-0.08279 1.63172,-0.145955 2.44922,-0.189453 0.9174,-0.05016 1.83455,-0.0823 2.75195,-0.09961 1.02466,-0.02173 2.04957,-0.03345 3.07422,-0.03125 h 5.1543 l 7.13476,-7.134766 z"
       transform="matrix(0.92198652,0,0,0.92198652,2.9115034,-0.2915164)" /><path
       fill="url(#_lgradient_1)"
       fill-rule="evenodd"
       d="m 28.66264,15.869263 h -4.75225 c -0.944714,-0.002 -1.889418,0.0082 -2.834141,0.02824 -0.84583,0.01596 -1.691891,0.04625 -2.537722,0.0925 -0.753724,0.04011 -1.507217,0.09843 -2.258756,0.174761 -0.667712,0.06855 -1.335442,0.160845 -1.996829,0.275442 -0.592625,0.102728 -1.178711,0.233287 -1.756271,0.392086 -0.523871,0.142837 -1.037057,0.319643 -1.532985,0.528783 -0.461657,0.192974 -0.903887,0.422168 -1.3225616,0.685536 -0.4016358,0.253342 -0.7772816,0.542903 -1.1208507,0.862548 -0.3414024,0.321689 -0.6504799,0.67162 -0.9209262,1.04754 -0.2813719,0.392085 -0.5260579,0.806271 -0.7342977,1.23642 -0.223296,0.466572 -0.4123309,0.945016 -0.5668835,1.433485 -0.1695994,0.540858 -0.3092896,1.089695 -0.4186556,1.644672 -0.122449,0.619233 -0.2211108,1.242559 -0.2942335,1.867728 -0.081688,0.703748 -0.1438576,1.407497 -0.1868498,2.113089 -0.049326,0.790105 -0.081411,1.582257 -0.1008469,2.372362 -0.019177,0.884649 -0.030057,1.769297 -0.027844,2.651899 v -1.437651 c -0.00277,0.884649 0.0083,1.767251 0.027844,2.651899 0.019454,0.792152 0.051539,1.582258 0.1008469,2.372363 0.043057,0.705591 0.1052078,1.411387 0.1868498,2.113088 0.073113,0.625168 0.1717845,1.250541 0.2942335,1.869775 0.109366,0.55293 0.2490562,1.101769 0.4186556,1.642625 0.1545526,0.48847 0.3435875,0.96896 0.5668835,1.433486 0.2082398,0.432195 0.4529258,0.844336 0.7342977,1.236421 0.2704463,0.37592 0.5795238,0.727897 0.9209262,1.04754 0.3435691,0.319644 0.7192149,0.609206 1.1208507,0.862547 0.4186746,0.263368 0.8609046,0.492564 1.3225616,0.685537 0.495928,0.209138 1.009114,0.385946 1.532985,0.53083 0.57756,0.158798 1.163646,0.289357 1.756271,0.390039 0.661387,0.116438 1.329117,0.206888 1.996829,0.275441 0.751539,0.07633 1.505032,0.134652 2.258756,0.174762 0.845831,0.04625 1.691892,0.07653 2.537722,0.09454 0.944723,0.01801 1.889427,0.02823 2.834141,0.02619 h 16.180218 c 0.944713,0.0021 1.889427,-0.0082 2.83414,-0.02619 0.84584,-0.01801 1.691891,-0.04829 2.537722,-0.09454 0.753724,-0.04011 1.507226,-0.09843 2.258765,-0.174762 0.667712,-0.06855 1.335433,-0.159003 1.99682,-0.275441 0.592635,-0.100682 1.178714,-0.231241 1.756283,-0.390039 0.523873,-0.144884 1.037051,-0.321692 1.532978,-0.53083 0.461666,-0.192973 0.903897,-0.422169 1.322553,-0.685537 0.401636,-0.253341 0.777299,-0.542903 1.120868,-0.862547 0.341393,-0.319643 0.65048,-0.67162 0.920926,-1.04754 0.281363,-0.392085 0.526058,-0.804226 0.734298,-1.236421 0.223296,-0.464526 0.41234,-0.945016 0.566874,-1.433486 0.169609,-0.540856 0.309308,-1.089695 0.418665,-1.642625 0.122458,-0.619234 0.22112,-1.244607 0.294243,-1.869775 0.0816,-0.701701 0.143848,-1.407497 0.18685,-2.113088 0.04933,-0.790105 0.08141,-1.580211 0.100837,-2.372363 0.01918,-0.884648 0.03015,-1.76725 0.02794,-2.651899 v -5.237588 c 0.0018,-0.882601 -0.0092,-1.76725 -0.02794,-2.651898 -0.01945,-0.790106 -0.05154,-1.582257 -0.100837,-2.372363 -0.04297,-0.705591 -0.105218,-1.409339 -0.18685,-2.113088 -0.07311,-0.625169 -0.171785,-1.248494 -0.294243,-1.867728 -0.109357,-0.554978 -0.249056,-1.103814 -0.418665,-1.644673 -0.154534,-0.488469 -0.343578,-0.966912 -0.566874,-1.433486 -0.20824,-0.430148 -0.452935,-0.844335 -0.734298,-1.23642 -0.270446,-0.37592 -0.579533,-0.72585 -0.920926,-1.04754 -0.343569,-0.319648 -0.719232,-0.60921 -1.120868,-0.862552 C 53.911213,11.107999 53.468982,10.878804 53.007316,10.685828 52.511389,10.476694 51.998211,10.299884 51.474338,10.15705 50.896769,9.9982474 50.31069,9.8676944 49.718055,9.7649664 c -0.661387,-0.114603 -1.329108,-0.206893 -1.99682,-0.275443 -0.751539,-0.07634 -1.505041,-0.134656 -2.258765,-0.174763 -0.845831,-0.04628 -1.691882,-0.07652 -2.537722,-0.09249 -0.944713,-0.0201 -1.889427,-0.03033 -2.83414,-0.02821 h -4.752786"
       id="path10-6"
       style="isolation:isolate;fill:url(#linearGradient8);fill-opacity:1;stroke-width:0.211349"
       sodipodi:nodetypes="cccccccccccccccccccccccccccccccccccccccccccccccccccccccccccccccccccccc" /><path
       fill="url(#_lgradient_1)"
       fill-rule="evenodd"
       d="m 35.337822,9.1940554 h 4.752251 c 0.944713,-0.002 1.889418,0.0082 2.83414,0.02824 0.845831,0.01596 1.691892,0.04625 2.537722,0.0925 0.753724,0.04011 1.507218,0.09843 2.258756,0.17476 0.667712,0.06855 1.335443,0.160846 1.99683,0.275443 0.592625,0.102728 1.178713,0.233287 1.756273,0.3920856 0.523873,0.142837 1.03706,0.319643 1.532987,0.528783 0.461657,0.192974 0.903888,0.422168 1.322562,0.685536 0.401636,0.253341 0.777281,0.542903 1.12085,0.862548 0.341402,0.321689 0.65048,0.67162 0.920926,1.047539 0.281372,0.392085 0.526058,0.806272 0.734298,1.23642 0.223296,0.466573 0.41234,0.945017 0.566893,1.433487 0.169599,0.540857 0.309289,1.089694 0.418655,1.644671 0.122449,0.619234 0.221111,1.24256 0.294234,1.867728 0.08169,0.703749 0.143857,1.407498 0.18685,2.113088 0.04933,0.790106 0.08141,1.582257 0.100846,2.372364 0.01918,0.884648 0.03006,1.769297 0.02784,2.651898 v 5.237125 c 0.0028,0.884648 -0.0083,1.767251 -0.02784,2.651898 -0.01945,0.792153 -0.05154,1.582258 -0.100846,2.372364 -0.04306,0.705591 -0.105208,1.411386 -0.18685,2.113088 -0.07311,0.625168 -0.171785,1.250541 -0.294234,1.869775 -0.109366,0.55293 -0.249056,1.101768 -0.418655,1.642625 -0.154553,0.488469 -0.343597,0.96896 -0.566893,1.433486 -0.20824,0.432195 -0.452926,0.844336 -0.734298,1.236421 -0.270446,0.375915 -0.579524,0.727892 -0.920926,1.047536 -0.343569,0.319644 -0.719214,0.609206 -1.12085,0.862547 -0.418674,0.263368 -0.860905,0.492563 -1.322562,0.685536 -0.495927,0.209139 -1.009114,0.385947 -1.532987,0.53083 -0.57756,0.158799 -1.163648,0.289357 -1.756273,0.390039 -0.661387,0.116439 -1.329118,0.206889 -1.99683,0.275442 -0.751538,0.07633 -1.505032,0.134651 -2.258756,0.174762 -0.84583,0.04625 -1.691891,0.07653 -2.537722,0.09454 -0.944722,0.01801 -1.889427,0.02823 -2.83414,0.02619 H 23.909855 c -0.944714,0.0021 -1.889427,-0.0082 -2.834141,-0.02619 -0.845839,-0.01801 -1.691891,-0.04829 -2.537721,-0.09454 -0.753724,-0.04011 -1.507227,-0.09843 -2.258766,-0.174762 -0.667712,-0.06855 -1.335433,-0.159003 -1.99682,-0.275442 -0.592634,-0.100682 -1.178711,-0.23124 -1.75628,-0.390039 -0.523868,-0.144883 -1.037045,-0.321691 -1.532975,-0.53083 C 10.53149,47.560574 10.089256,47.331379 9.6705952,47.068011 9.2689594,46.81467 8.8932997,46.525108 8.549727,46.205464 8.2083366,45.88582 7.8992526,45.533843 7.6288044,45.157924 7.3474418,44.765839 7.1027503,44.353698 6.8945113,43.921503 6.6712108,43.456977 6.4821796,42.976486 6.327638,42.488017 6.1580349,41.94716 6.0183355,41.398322 5.9089778,40.845392 5.7865232,40.226158 5.6878596,39.600785 5.6147359,38.975617 5.5331125,38.273915 5.4708895,37.56812 5.4278889,36.862529 5.3785626,36.072423 5.3464775,35.282318 5.3270439,34.490165 5.3078297,33.605518 5.2969226,32.722915 5.2991169,31.838267 V 19.925903 c -0.00221,-0.882601 0.00876,-1.76725 0.027927,-2.651898 0.019426,-0.790106 0.051511,-1.582258 0.100845,-2.372363 0.043011,-0.705591 0.1052107,-1.40934 0.186847,-2.113088 C 5.6878587,12.163385 5.7865232,11.54006 5.9089778,10.920826 6.0183355,10.365849 6.1580349,9.8170124 6.327638,9.2761544 6.4821796,8.7876844 6.6712108,8.3092414 6.8945113,7.8426684 7.1027503,7.4125198 7.3474418,6.9983331 7.6288044,6.6062482 7.8992526,6.2303285 8.2083366,5.8803977 8.549727,5.5587083 8.8932997,5.2390639 9.2689594,4.949502 9.6705952,4.6961604 10.089256,4.4327931 10.53149,4.2035974 10.993152,4.010621 c 0.49593,-0.2091342 1.009107,-0.3859435 1.532975,-0.5287768 0.577569,-0.1588038 1.163646,-0.2893571 1.75628,-0.3920849 0.661387,-0.114602 1.329108,-0.2068928 1.99682,-0.2754425 0.751539,-0.07634 1.505042,-0.1346571 2.258766,-0.1747626 0.84583,-0.046284 1.691882,-0.076525 2.537721,-0.092494 0.944714,-0.020099 1.889427,-0.030333 2.834141,-0.028213 h 4.752785 z"
       id="path6-1"
       style="isolation:isolate;fill:none;fill-opacity:1;stroke:#000000;stroke-width:0.921987;stroke-dasharray:none;stroke-opacity:0.296232"
       sodipodi:nodetypes="cccccccccccccccccccccccccccccccccccccccccccccccccccccccccccccccccccccc" /><path
       style="isolation:isolate;fill:#000000;fill-opacity:1;stroke:none;stroke-width:0.211349;stroke-opacity:1"
       d="m 5.3067666,32.557228 c -0.0012,-0.239408 -0.00793,-0.478875 -0.00719,-0.718501 v 0.460993 c -5.089e-4,0.162756 0.00498,0.325362 0.00544,0.488005 2.129e-4,-0.0768 0.00138,-0.15367 0.00184,-0.230497 z"
       id="path11-5" /><path
       fill="url(#_lgradient_1)"
       fill-rule="evenodd"
       d="m 34.953529,10.095619 4.872321,-0.004 c 0.91272,-0.0019 1.843503,0.0067 2.756233,0.02599 0.817184,0.01534 1.614066,0.0442 2.43125,0.08865 0.728204,0.03856 1.461662,0.06248 2.187754,0.135856 0.645096,0.06589 1.276509,0.127743 1.915501,0.237898 0.572554,0.09875 1.104835,0.174423 1.66284,0.327066 0.506124,0.137299 0.988259,0.252512 1.467397,0.453545 0.44602,0.185492 0.958506,0.389895 1.342744,0.604417 0.388027,0.243522 0.766549,0.501036 1.098482,0.80829 0.329841,0.309222 0.64055,0.625758 0.901841,0.987104 0.271848,0.376888 0.520268,0.786525 0.721455,1.199999 0.215735,0.448488 0.383648,0.918493 0.532963,1.388029 0.163856,0.519892 0.283364,1.038868 0.389023,1.572333 0.1183,0.595231 0.1904,1.168946 0.261042,1.769881 0.07892,0.676469 0.136685,1.383602 0.17822,2.061842 0.04767,0.759479 0.07865,1.520923 0.09744,2.280403 0.01853,0.850356 0.02904,1.700714 0.02692,2.549103 v 5.03412 c 0.0028,0.850357 -0.0083,1.698747 -0.02692,2.549103 -0.01881,0.761446 -0.02987,1.51893 -0.07754,2.27841 -0.04158,0.67824 -0.07975,1.367275 -0.158656,2.041777 -0.07062,0.600935 -0.138408,1.22073 -0.256727,1.815961 -0.105659,0.531495 -0.205446,1.065888 -0.369301,1.58578 -0.149316,0.469533 -0.299711,0.987291 -0.515437,1.433811 -0.201187,0.415443 -0.418425,0.840894 -0.690264,1.217781 -0.261291,0.361347 -0.570931,0.729289 -0.900771,1.036542 -0.331906,0.307254 -0.761432,0.589723 -1.149468,0.833242 -0.404494,0.25316 -0.8742,0.448824 -1.320221,0.634317 -0.479138,0.201033 -0.969441,0.320425 -1.475565,0.459693 -0.558005,0.152643 -1.123994,0.248329 -1.696548,0.345108 -0.638992,0.111925 -1.308796,0.168329 -1.953901,0.234225 -0.726083,0.07337 -1.470947,0.111978 -2.19915,0.150536 -0.817184,0.04446 -1.63459,0.07357 -2.451774,0.09088 -0.91273,0.01731 -1.825432,0.02713 -2.738153,0.02517 H 24.184312 c -0.912721,0.002 -1.825441,-0.0079 -2.738162,-0.02517 -0.817193,-0.01731 -1.65066,-0.04117 -2.467844,-0.08562 -0.728194,-0.03856 -1.47634,-0.07247 -2.202423,-0.145845 -0.645105,-0.06589 -1.274693,-0.130306 -1.913685,-0.242231 -0.572562,-0.09678 -1.19152,-0.179531 -1.749522,-0.332174 -0.506133,-0.139269 -1.07334,-0.31292 -1.552474,-0.513952 -0.446028,-0.185454 -0.90561,-0.39533 -1.310091,-0.64849 C 9.862078,46.111479 9.4736644,45.820849 9.1417271,45.513595 8.8118975,45.206342 8.5009613,44.810566 8.2396721,44.449219 7.9678382,44.072332 7.7993277,43.707691 7.5981419,43.292249 7.3824035,42.845729 7.2468457,42.376902 7.0975383,41.907368 6.9336791,41.387476 6.8429114,40.842725 6.7372582,40.311231 6.6189507,39.716 6.5447318,39.076082 6.4740855,38.475147 6.395228,37.800646 6.3552331,37.125663 6.3136893,36.447424 6.2660318,35.687942 6.2496205,34.926733 6.2308396,34.165287 6.21228,33.31493 6.2017417,32.466541 6.2038531,31.616185 V 20.165573 c -0.00212,-0.848389 0.00848,-1.698746 0.026987,-2.549102 0.018762,-0.75948 0.032002,-1.525955 0.07966,-2.285434 0.041554,-0.67824 0.07717,-1.35541 0.1560435,-2.031881 0.070652,-0.600935 0.1438197,-1.20922 0.2621272,-1.804452 C 6.834324,10.961242 6.9143137,10.426123 7.0781728,9.9062294 7.2274794,9.4366974 7.3686447,8.9599124 7.5843831,8.5114254 7.7855689,8.0979494 8.0019803,7.6510694 8.2738142,7.2741822 8.5351033,6.9128354 8.8251059,6.554498 9.1549355,6.2452794 9.4868728,5.9380246 9.8910274,5.6404977 10.27906,5.3969762 10.683542,5.1438171 11.144371,4.9367805 11.590399,4.7512841 12.069533,4.550257 12.61095,4.4006905 13.117074,4.2633938 c 0.558002,-0.1526487 1.132317,-0.2370465 1.70488,-0.3357921 0.638982,-0.1101608 1.302204,-0.1765964 1.947309,-0.242488 0.726083,-0.073381 1.455153,-0.1136395 2.183347,-0.1521914 0.817193,-0.044486 1.676347,-0.057191 2.49354,-0.072542 0.912721,-0.019325 1.825441,-0.029153 2.738162,-0.027116 l 4.109072,-0.00913 z"
       id="path12-5"
       style="isolation:isolate;fill:none;fill-opacity:1;stroke:url(#linearGradient13-5);stroke-width:0.888502;stroke-dasharray:none;opacity:0.5"
       sodipodi:nodetypes="ccccccccccccccccccccccccccccccccccccccccccccccccccccccccccccccccccccccc" /><path
       id="path2"
       style="isolation:isolate;mix-blend-mode:normal;fill:url(#linearGradient5);fill-opacity:1;stroke:none;stroke-width:0.211349;stroke-opacity:1;opacity:0.5"
       d="m 35.01202,9.5201704 -6.349463,6.3494616 c -4.752195,0 -10.936936,-0.129383 -14.379034,0.570839 v 0 c 5.730644,-0.700222 14.655473,0.350843 14.655473,0.350843 z"
       sodipodi:nodetypes="cccccc" /></g></svg>
