<?xml version="1.0" encoding="UTF-8" standalone="no"?>
<svg
   version="1.1"
   width="512"
   height="512"
   x="0"
   y="0"
   viewBox="0 0 497 497"
   style="enable-background:new 0 0 512 512"
   xml:space="preserve"
   class=""
   id="svg18"
   sodipodi:docname="folder-public.svg"
   inkscape:version="1.2.2 (b0a8486541, 2022-12-01)"
   xmlns:inkscape="http://www.inkscape.org/namespaces/inkscape"
   xmlns:sodipodi="http://sodipodi.sourceforge.net/DTD/sodipodi-0.dtd"
   xmlns="http://www.w3.org/2000/svg"
   xmlns:svg="http://www.w3.org/2000/svg"><defs
     id="defs22"><linearGradient
       id="a"
       x1="0.086597763"
       x2="16.847181"
       y1="281.43524"
       y2="295.90347"
       gradientTransform="matrix(29.652907,0,0,27.676785,509.4482,-7910.8083)"
       gradientUnits="userSpaceOnUse"><stop
         stop-color="#ff9fa7"
         offset="0"
         id="stop4"
         style="stop-color:#9772c0;stop-opacity:1;" /><stop
         stop-color="#966fff"
         offset="1"
         id="stop6"
         style="stop-color:#7146a2;stop-opacity:1;" /></linearGradient></defs><sodipodi:namedview
     id="namedview20"
     pagecolor="#ffffff"
     bordercolor="#000000"
     borderopacity="0.25"
     inkscape:showpageshadow="2"
     inkscape:pageopacity="0.0"
     inkscape:pagecheckerboard="0"
     inkscape:deskcolor="#d1d1d1"
     showgrid="true"
     inkscape:zoom="0.64629675"
     inkscape:cx="133.06581"
     inkscape:cy="42.550113"
     inkscape:window-width="1920"
     inkscape:window-height="1020"
     inkscape:window-x="1920"
     inkscape:window-y="26"
     inkscape:window-maximized="1"
     inkscape:current-layer="svg18"><inkscape:grid
       type="xygrid"
       id="grid1476" /></sodipodi:namedview><path
     id="path312"
     style="fill:#a87dcd;fill-opacity:1"
     d="m 245.2589,76.668543 c -2.27905,0 -4.53517,0.09339 -6.79492,0.172527 102.37452,3.585337 184.28003,87.65357 184.28003,190.90242 0,103.24884 -81.90551,187.31708 -184.28003,190.90242 2.25975,0.0791 4.51587,0.17252 6.79492,0.17252 105.5279,0 191.07495,-85.54705 191.07495,-191.07494 0,-105.5279 -85.54705,-191.074947 -191.07495,-191.074947 z m -13.58984,29.998897 c -88.95891,0 -161.074152,72.11714 -161.074152,161.07605 0,88.95891 72.115242,161.07415 161.074152,161.07415 2.27891,0 4.53905,-0.0769 6.79492,-0.17063 -85.80381,-3.56487 -154.279232,-74.22352 -154.279232,-160.90352 0,-86.68 68.475422,-157.33865 154.279232,-160.90352 -2.25587,-0.0937 -4.51601,-0.17253 -6.79492,-0.17253 z" /><path
     fill="#725fee"
     d="m 231.66896,76.667971 c -105.528,0 -191.075002,85.546999 -191.075002,191.074999 0,105.528 85.547002,191.075 191.075002,191.075 105.528,0 191.075,-85.547 191.075,-191.075 0,-105.528 -85.547,-191.074999 -191.075,-191.074999 z m 0,352.149999 c -88.959,0 -161.075002,-72.116 -161.075002,-161.075 0,-88.959 72.116002,-161.075 161.075002,-161.075 88.959,0 161.075,72.116 161.075,161.075 0,88.959 -72.116,161.075 -161.075,161.075 z"
     data-original="#725fee"
     id="path310"
     style="fill:#e7dbf1;fill-opacity:1" /><ellipse
     style="fill:#9c7ac2;fill-opacity:1;stroke-width:0;stroke-linecap:round;paint-order:markers fill stroke"
     id="ellipse1490"
     cx="245.66869"
     cy="125.45702"
     rx="99.128304"
     ry="98.421638" /><path
     id="path1488"
     style="fill:#5e3787;fill-opacity:1;stroke-width:0;stroke-linecap:round;paint-order:markers fill stroke"
     d="m 245.6696,27.034908 a 99.128304,98.421638 0 0 0 -14.47713,1.08257 99.128304,98.421638 0 0 1 84.48341,97.339522 99.128304,98.421638 0 0 1 -84.56683,97.32246 99.128304,98.421638 0 0 0 14.56055,1.09963 A 99.128304,98.421638 0 0 0 344.79697,125.457 99.128304,98.421638 0 0 0 245.6696,27.034908 Z" /><ellipse
     style="fill:#9c7ac2;fill-opacity:1;stroke-width:0;stroke-linecap:round;paint-order:markers fill stroke"
     id="ellipse1496"
     cx="104.25603"
     cy="366.16461"
     rx="99.128304"
     ry="98.421638" /><path
     id="path1498"
     style="fill:#5e3787;fill-opacity:1;stroke-width:0;stroke-linecap:round;paint-order:markers fill stroke"
     d="m 104.25697,267.74249 a 99.128304,98.421638 0 0 0 -14.477136,1.08257 99.128304,98.421638 0 0 1 84.483416,97.33953 99.128304,98.421638 0 0 1 -84.566836,97.32246 99.128304,98.421638 0 0 0 14.560556,1.09963 99.128304,98.421638 0 0 0 99.12737,-98.42209 99.128304,98.421638 0 0 0 -99.12737,-98.4221 z" /><ellipse
     style="fill:#9c7ac2;fill-opacity:1;stroke-width:0;stroke-linecap:round;paint-order:markers fill stroke"
     id="ellipse1500"
     cx="392.74396"
     cy="366.16461"
     rx="99.128304"
     ry="98.421638" /><path
     id="path1502"
     style="fill:#5e3787;fill-opacity:1;stroke-width:0;stroke-linecap:round;paint-order:markers fill stroke"
     d="m 392.74489,267.74249 a 99.128304,98.421638 0 0 0 -14.47713,1.08257 99.128304,98.421638 0 0 1 84.48341,97.33953 99.128304,98.421638 0 0 1 -84.56683,97.32246 99.128304,98.421638 0 0 0 14.56055,1.09963 99.128304,98.421638 0 0 0 99.12737,-98.42209 99.128304,98.421638 0 0 0 -99.12737,-98.4221 z" /><g
     id="g2534"
     transform="matrix(0.17682768,0,0,0.17682768,51.929213,320.89637)"
     style="fill:#000000;fill-opacity:0.5"><path
       d="m 210.352,246.633 c 33.882,0 63.222,-12.153 87.195,-36.13 23.973,-23.972 36.125,-53.304 36.125,-87.19 0,-33.876 -12.152,-63.211 -36.129,-87.192 C 273.566,12.152 244.23,0 210.352,0 176.465,0 147.132,12.152 123.16,36.125 99.188,60.098 87.031,89.434 87.031,123.313 c 0,33.886 12.156,63.222 36.133,87.195 23.977,23.969 53.313,36.125 87.188,36.125 z m 215.777,147.07 c -0.692,-9.976 -2.09,-20.86 -4.149,-32.351 -2.078,-11.579 -4.753,-22.524 -7.957,-32.528 -3.308,-10.34 -7.808,-20.55 -13.37,-30.336 -5.774,-10.156 -12.555,-19 -20.165,-26.277 -7.957,-7.613 -17.699,-13.734 -28.965,-18.2 -11.226,-4.44 -23.668,-6.69 -36.976,-6.69 -5.227,0 -10.281,2.144 -20.043,8.5 a 2711.03,2711.03 0 0 1 -20.879,13.46 c -6.707,4.274 -15.793,8.278 -27.016,11.903 -10.949,3.543 -22.066,5.34 -33.039,5.34 -10.972,0 -22.086,-1.797 -33.047,-5.34 -11.21,-3.622 -20.296,-7.625 -26.996,-11.899 -7.77,-4.965 -14.8,-9.496 -20.898,-13.469 -9.75,-6.355 -14.809,-8.5 -20.035,-8.5 -13.313,0 -25.75,2.254 -36.973,6.7 -11.258,4.457 -21.004,10.578 -28.969,18.199 -7.605,7.281 -14.39,16.12 -20.156,26.273 -5.558,9.785 -10.058,19.992 -13.371,30.34 -3.2,10.004 -5.875,20.945 -7.953,32.524 -2.059,11.476 -3.457,22.363 -4.149,32.363 A 438.821,438.821 0 0 0 0,423.949 c 0,26.727 8.496,48.363 25.25,64.32 16.547,15.747 38.441,23.735 65.066,23.735 h 246.532 c 26.625,0 48.511,-7.984 65.062,-23.734 16.758,-15.946 25.254,-37.586 25.254,-64.325 -0.004,-10.316 -0.351,-20.492 -1.035,-30.242 z m 0,0"
       fill="#000000"
       data-original="#000000"
       class=""
       id="path2532"
       style="fill:#000000;fill-opacity:0.5" /></g><g
     id="g321"
     transform="matrix(0.17682768,0,0,0.17682768,344.79699,325.14081)"
     style="fill:#000000;fill-opacity:0.5"><path
       d="m 210.352,246.633 c 33.882,0 63.222,-12.153 87.195,-36.13 23.973,-23.972 36.125,-53.304 36.125,-87.19 0,-33.876 -12.152,-63.211 -36.129,-87.192 C 273.566,12.152 244.23,0 210.352,0 176.465,0 147.132,12.152 123.16,36.125 99.188,60.098 87.031,89.434 87.031,123.313 c 0,33.886 12.156,63.222 36.133,87.195 23.977,23.969 53.313,36.125 87.188,36.125 z m 215.777,147.07 c -0.692,-9.976 -2.09,-20.86 -4.149,-32.351 -2.078,-11.579 -4.753,-22.524 -7.957,-32.528 -3.308,-10.34 -7.808,-20.55 -13.37,-30.336 -5.774,-10.156 -12.555,-19 -20.165,-26.277 -7.957,-7.613 -17.699,-13.734 -28.965,-18.2 -11.226,-4.44 -23.668,-6.69 -36.976,-6.69 -5.227,0 -10.281,2.144 -20.043,8.5 a 2711.03,2711.03 0 0 1 -20.879,13.46 c -6.707,4.274 -15.793,8.278 -27.016,11.903 -10.949,3.543 -22.066,5.34 -33.039,5.34 -10.972,0 -22.086,-1.797 -33.047,-5.34 -11.21,-3.622 -20.296,-7.625 -26.996,-11.899 -7.77,-4.965 -14.8,-9.496 -20.898,-13.469 -9.75,-6.355 -14.809,-8.5 -20.035,-8.5 -13.313,0 -25.75,2.254 -36.973,6.7 -11.258,4.457 -21.004,10.578 -28.969,18.199 -7.605,7.281 -14.39,16.12 -20.156,26.273 -5.558,9.785 -10.058,19.992 -13.371,30.34 -3.2,10.004 -5.875,20.945 -7.953,32.524 -2.059,11.476 -3.457,22.363 -4.149,32.363 A 438.821,438.821 0 0 0 0,423.949 c 0,26.727 8.496,48.363 25.25,64.32 16.547,15.747 38.441,23.735 65.066,23.735 h 246.532 c 26.625,0 48.511,-7.984 65.062,-23.734 16.758,-15.946 25.254,-37.586 25.254,-64.325 -0.004,-10.316 -0.351,-20.492 -1.035,-30.242 z m 0,0"
       fill="#000000"
       data-original="#000000"
       class=""
       id="path319"
       style="fill:#000000;fill-opacity:0.5" /></g><path
     style="fill:#000000;fill-opacity:0.5;stroke-width:0.176828"
     d="M 266.69015,150.20992"
     id="path320" /><path
     style="fill:#000000;fill-opacity:0.5;stroke-width:0.176828"
     d="m 266.69015,150.20992 c -0.12236,-1.76403 -0.36957,-3.68862 -0.73366,-5.72055 -0.36744,-2.04749 -0.84046,-3.98287 -1.40701,-5.75185 -0.58495,-1.8284 -1.38067,-3.63381 -2.36419,-5.36425 -1.021,-1.79586 -2.22007,-3.35972 -3.56573,-4.6465 -1.40702,-1.34619 -3.12967,-2.42855 -5.12181,-3.21826 -1.98507,-0.78512 -4.18516,-1.18298 -6.53838,-1.18298 -0.92428,0 -1.81797,0.37912 -3.54416,1.50304 a 479.38515,479.38515 0 0 1 -3.69199,2.3801 c -1.18598,0.75576 -2.79264,1.46378 -4.77717,2.10478 -1.93609,0.6265 -3.90188,0.94426 -5.84221,0.94426 -1.94016,0 -3.90542,-0.31776 -5.84363,-0.94426 -1.98224,-0.64047 -3.58889,-1.34831 -4.77364,-2.10408 -1.37395,-0.87794 -2.61705,-1.67915 -3.69534,-2.38169 -1.72407,-1.12374 -2.61864,-1.50303 -3.54274,-1.50303 -2.35411,0 -4.55332,0.39857 -6.53785,1.18474 -1.99073,0.78812 -3.71409,1.87049 -5.12253,3.21809 -1.34477,1.28748 -2.54455,2.85046 -3.56413,4.64579 -0.98281,1.73026 -1.77854,3.53514 -2.36437,5.36496 -0.56585,1.76898 -1.03886,3.70365 -1.40631,5.75114 -0.36409,2.02927 -0.61129,3.9544 -0.73366,5.72267 a 77.595699,77.595699 0 0 0 -0.18089,5.34621 c 0,4.72607 1.50233,8.55192 4.4649,11.37356 2.92597,2.7845 6.79743,4.197 11.50547,4.197 h 43.59368 c 4.70804,0 8.57809,-1.41179 11.50476,-4.19683 2.96328,-2.81969 4.46561,-6.64624 4.46561,-11.37444 -7.1e-4,-1.82415 -0.0621,-3.62355 -0.18302,-5.34762 z"
     id="path318" /><path
     style="fill:#000000;fill-opacity:0.5;stroke-width:0.176828"
     d="m 228.53481,124.20387 c 5.99127,0 11.1794,-2.14898 15.41849,-6.38878 4.23909,-4.23891 6.3879,-9.42562 6.3879,-15.41761 0,-5.99021 -2.14881,-11.17745 -6.38861,-15.417954 -4.2398,-4.238383 -9.42722,-6.387193 -15.41778,-6.387193 -5.99216,0 -11.17905,2.14881 -15.41796,6.3879 -4.23892,4.23909 -6.38861,9.426507 -6.38861,15.417247 0,5.99199 2.14952,11.1794 6.38931,15.41849 4.2398,4.23839 9.42722,6.3879 15.41726,6.3879 z"
     id="path323" /><path
     id="path333"
     style="fill:#000000;fill-opacity:0.5;stroke-width:0.176828"
     d="m 211.24705,124.32373 c -2.3541,0 -4.55255,0.39877 -6.53707,1.18494 -0.80699,0.31948 -1.55725,0.70054 -2.27319,1.11479 0.78845,0.50984 1.54461,1.0007 2.45898,1.58498 1.18475,0.75577 2.79165,1.46398 4.77389,2.10445 1.93821,0.6265 3.90302,0.94416 5.84318,0.94416 1.94033,0 3.90709,-0.31766 5.84318,-0.94416 0.33346,-0.10771 0.63981,-0.22038 0.95174,-0.33178 -1.54305,-0.55123 -2.83647,-1.1439 -3.82214,-1.77267 -1.37395,-0.87794 -2.61683,-1.67872 -3.69512,-2.38126 -1.72407,-1.12374 -2.61935,-1.50345 -3.54345,-1.50345 z m 35.71126,0.002 c -0.92428,0 -1.81726,0.37953 -3.54344,1.50345 a 479.38515,479.38515 0 0 1 -1.23234,0.79438 c 1.04958,0.60767 2.00948,1.30244 2.84575,2.10256 1.34566,1.28678 2.5452,2.851 3.5662,4.64686 0.98352,1.73044 1.77924,3.53512 2.36419,5.36352 0.56655,1.76898 1.03932,3.70469 1.40676,5.75217 0.36409,2.03193 0.61136,3.95781 0.73372,5.72184 0.12092,1.72407 0.18319,3.5223 0.1839,5.34645 0,4.72819 -1.50347,8.55574 -4.46675,11.37543 -2.92667,2.78503 -6.79632,4.19563 -11.50435,4.19563 h 13.58984 c 4.70804,0 8.57769,-1.4106 11.50435,-4.19563 2.96328,-2.81969 4.46675,-6.64724 4.46675,-11.37543 -7.1e-4,-1.82415 -0.063,-3.62238 -0.1839,-5.34645 -0.12236,-1.76403 -0.36962,-3.68991 -0.73371,-5.72184 -0.36744,-2.04748 -0.84022,-3.98319 -1.40677,-5.75217 -0.58495,-1.8284 -1.38067,-3.63308 -2.36419,-5.36352 -1.021,-1.79586 -2.22054,-3.36008 -3.5662,-4.64686 -1.40701,-1.34619 -3.1287,-2.42764 -5.12083,-3.21735 -1.98507,-0.78512 -4.18576,-1.18304 -6.53898,-1.18304 z" /><path
     id="path335"
     style="fill:#000000;fill-opacity:0.5;stroke-width:0.176828"
     d="m 228.53391,80.592796 c -2.39793,0 -4.66405,0.348786 -6.79492,1.033268 3.19382,1.025891 6.07945,2.811765 8.62257,5.354034 4.2398,4.2405 6.3892,9.427292 6.3892,15.417492 0,5.99199 -2.14821,11.17859 -6.3873,15.4175 -2.54297,2.54339 -5.42995,4.32801 -8.62447,5.35403 2.13092,0.68472 4.39758,1.03517 6.79492,1.03517 5.99127,0 11.18031,-2.1494 15.41939,-6.3892 4.23909,-4.23891 6.38731,-9.42551 6.38731,-15.4175 0,-5.9902 -2.14941,-11.176992 -6.3892,-15.417492 -4.2398,-4.238378 -9.42694,-6.387302 -15.4175,-6.387302 z" /><path
     id="path343"
     style="fill:#000000;fill-opacity:0.5;stroke-width:0.176828"
     d="m 71.83895,364.62842 c -2.3541,0 -4.55255,0.39877 -6.53707,1.18494 -0.80699,0.31948 -1.55725,0.70054 -2.27319,1.11479 0.78845,0.50984 1.54461,1.0007 2.45898,1.58498 1.18475,0.75577 2.79165,1.46398 4.77389,2.10445 1.93821,0.6265 3.90302,0.94416 5.84318,0.94416 1.94033,0 3.90709,-0.31766 5.84318,-0.94416 0.33346,-0.10771 0.63981,-0.22038 0.95174,-0.33178 -1.54305,-0.55123 -2.83647,-1.1439 -3.82214,-1.77267 -1.37395,-0.87794 -2.61683,-1.67872 -3.69512,-2.38126 -1.72407,-1.12374 -2.61935,-1.50345 -3.54345,-1.50345 z m 35.71126,0.002 c -0.92428,0 -1.81726,0.37953 -3.54344,1.50345 a 479.38515,479.38515 0 0 1 -1.23234,0.79438 c 1.04958,0.60767 2.00948,1.30244 2.84575,2.10256 1.34566,1.28678 2.5452,2.851 3.5662,4.64686 0.98352,1.73044 1.77924,3.53512 2.36419,5.36352 0.56655,1.76898 1.03932,3.70469 1.40676,5.75217 0.36409,2.03193 0.61136,3.95781 0.73372,5.72184 0.12092,1.72407 0.18319,3.5223 0.1839,5.34645 0,4.72819 -1.50347,8.55574 -4.46675,11.37543 -2.92667,2.78503 -6.79632,4.19563 -11.50435,4.19563 h 13.58984 c 4.70804,0 8.57769,-1.4106 11.50435,-4.19563 2.96328,-2.81969 4.46675,-6.64724 4.46675,-11.37543 -7.1e-4,-1.82415 -0.063,-3.62238 -0.1839,-5.34645 -0.12236,-1.76403 -0.36962,-3.68991 -0.73371,-5.72184 -0.36744,-2.04748 -0.84022,-3.98319 -1.40677,-5.75217 -0.58495,-1.8284 -1.38067,-3.63308 -2.36419,-5.36352 -1.021,-1.79586 -2.22054,-3.36008 -3.5662,-4.64686 -1.40701,-1.34619 -3.1287,-2.42764 -5.12083,-3.21735 -1.98507,-0.78512 -4.18576,-1.18304 -6.53898,-1.18304 z" /><path
     id="path345"
     style="fill:#000000;fill-opacity:0.5;stroke-width:0.176828"
     d="m 89.12581,320.89748 c -2.39793,0 -4.66405,0.34879 -6.79492,1.03327 3.19382,1.02589 6.07945,2.81176 8.62257,5.35403 4.2398,4.2405 6.3892,9.4273 6.3892,15.4175 0,5.99199 -2.14821,11.17859 -6.3873,15.4175 -2.54297,2.54339 -5.42995,4.32801 -8.62447,5.35403 2.13092,0.68472 4.39758,1.03517 6.79492,1.03517 5.99127,0 11.18031,-2.1494 15.41939,-6.3892 4.23909,-4.23891 6.38731,-9.42551 6.38731,-15.4175 0,-5.9902 -2.14941,-11.177 -6.3892,-15.4175 -4.2398,-4.23837 -9.42694,-6.3873 -15.4175,-6.3873 z" /><path
     id="path347"
     style="fill:#000000;fill-opacity:0.5;stroke-width:0.176828"
     d="m 364.70588,368.8721 c -2.3541,0 -4.55255,0.39877 -6.53707,1.18494 -0.80699,0.31948 -1.55725,0.70054 -2.27319,1.11479 0.78845,0.50984 1.54461,1.0007 2.45898,1.58498 1.18475,0.75577 2.79165,1.46398 4.77389,2.10445 1.93821,0.6265 3.90302,0.94416 5.84318,0.94416 1.94033,0 3.90709,-0.31766 5.84318,-0.94416 0.33346,-0.10771 0.63981,-0.22038 0.95174,-0.33178 -1.54305,-0.55123 -2.83647,-1.1439 -3.82214,-1.77267 -1.37395,-0.87794 -2.61683,-1.67872 -3.69512,-2.38126 -1.72407,-1.12374 -2.61935,-1.50345 -3.54345,-1.50345 z m 35.71126,0.002 c -0.92428,0 -1.81726,0.37953 -3.54344,1.50345 a 479.38515,479.38515 0 0 1 -1.23234,0.79438 c 1.04958,0.60767 2.00948,1.30244 2.84575,2.10256 1.34566,1.28678 2.5452,2.851 3.5662,4.64686 0.98352,1.73044 1.77924,3.53512 2.36419,5.36352 0.56655,1.76898 1.03932,3.70469 1.40676,5.75217 0.36409,2.03193 0.61136,3.95781 0.73372,5.72184 0.12092,1.72407 0.18319,3.5223 0.1839,5.34645 0,4.72819 -1.50347,8.55574 -4.46675,11.37543 -2.92667,2.78503 -6.79632,4.19563 -11.50435,4.19563 h 13.58984 c 4.70804,0 8.57769,-1.4106 11.50435,-4.19563 2.96328,-2.81969 4.46675,-6.64724 4.46675,-11.37543 -7.1e-4,-1.82415 -0.063,-3.62238 -0.1839,-5.34645 -0.12236,-1.76403 -0.36962,-3.68991 -0.73371,-5.72184 -0.36744,-2.04748 -0.84022,-3.98319 -1.40677,-5.75217 -0.58495,-1.8284 -1.38067,-3.63308 -2.36419,-5.36352 -1.021,-1.79586 -2.22054,-3.36008 -3.5662,-4.64686 -1.40701,-1.34619 -3.1287,-2.42764 -5.12083,-3.21735 -1.98507,-0.78512 -4.18576,-1.18304 -6.53898,-1.18304 z" /><path
     id="path349"
     style="fill:#000000;fill-opacity:0.5;stroke-width:0.176828"
     d="m 381.99274,325.14116 c -2.39793,0 -4.66405,0.34879 -6.79492,1.03327 3.19382,1.02589 6.07945,2.81176 8.62257,5.35403 4.2398,4.2405 6.3892,9.4273 6.3892,15.4175 0,5.99199 -2.14821,11.17859 -6.3873,15.4175 -2.54297,2.54339 -5.42995,4.32801 -8.62447,5.35403 2.13092,0.68472 4.39758,1.03517 6.79492,1.03517 5.99127,0 11.18031,-2.1494 15.41939,-6.3892 4.23909,-4.23891 6.38731,-9.42551 6.38731,-15.4175 0,-5.9902 -2.14941,-11.177 -6.3892,-15.4175 -4.2398,-4.23837 -9.42694,-6.3873 -15.4175,-6.3873 z" /></svg>
