<?xml version="1.0" encoding="UTF-8" standalone="no"?>
<svg
   version="1.1"
   width="512"
   height="512"
   x="0"
   y="0"
   viewBox="0 0 68 68"
   style="enable-background:new 0 0 512 512"
   xml:space="preserve"
   class="hovered-paths"
   id="svg2761"
   sodipodi:docname="folder-home.svg"
   inkscape:version="1.2.2 (b0a8486541, 2022-12-01)"
   xmlns:inkscape="http://www.inkscape.org/namespaces/inkscape"
   xmlns:sodipodi="http://sodipodi.sourceforge.net/DTD/sodipodi-0.dtd"
   xmlns="http://www.w3.org/2000/svg"
   xmlns:svg="http://www.w3.org/2000/svg"><defs
     id="defs2765" /><sodipodi:namedview
     id="namedview2763"
     pagecolor="#505050"
     bordercolor="#eeeeee"
     borderopacity="1"
     inkscape:showpageshadow="0"
     inkscape:pageopacity="0"
     inkscape:pagecheckerboard="0"
     inkscape:deskcolor="#505050"
     showgrid="false"
     inkscape:zoom="1.2987503"
     inkscape:cx="140.13471"
     inkscape:cy="247.93064"
     inkscape:current-layer="svg2761" /><g
     id="g8916"
     transform="translate(0,-1.328125)"><g
       id="g4773"
       transform="matrix(1.1029208,0,0,1.1029208,-3.4992758,0.4737694)"><path
         fill="#ed524e"
         d="m 58.139359,4.2736383 h -8.516 V 19.211633 h 8.516 z"
         data-original="#ed524e"
         class=""
         id="path2725"
         style="fill:#ff6360;fill-opacity:1" /><path
         fill="#b72a2a"
         d="m 49.624359,13.030448 v 5.982568 l 3.881,2.605999 h 4.634 v -2.875591 m 0.002,-12.061408 h -8.519 v 2.0001587 h 8.519 z"
         data-original="#b72a2a"
         id="path2727"
         style="fill:#d44444;fill-opacity:1"
         sodipodi:nodetypes="cccccccccc" /><path
         fill="#ed524e"
         d="m 48.407359,4.6430178 v 2.7049987 c 0,0.3667173 0.297283,0.6640005 0.664,0.6640005 h 9.62 c 0.367108,5.529e-4 0.665,-0.2968923 0.665,-0.6640005 V 4.6430183 c 0,-0.3669998 -0.297,-0.6639999 -0.664,-0.6639999 h -9.621 c -0.367,0 -0.664,0.2969998 -0.664,0.6639994 z"
         data-original="#ed524e"
         class=""
         id="path2729"
         style="fill:#ff6360;fill-opacity:1"
         sodipodi:nodetypes="ssscsssss" /><path
         fill="#ed524e"
         d="M 5.9963593,27.083116 33.425359,8.6821146 c 0.347192,-0.2330222 0.800808,-0.2330222 1.148,0 l 27.429,18.4000014 c 0.47216,0.317777 1.112557,0.192385 1.43,-0.28 l 1.16,-1.730001 c 0.317384,-0.472681 0.191072,-1.113199 -0.282,-1.429999 l -28.501,-19.1190002 c -1.094896,-0.7344944 -2.525104,-0.7344944 -3.62,0 L 3.6893593,23.643119 c -0.473,0.318001 -0.6,0.958 -0.282,1.429999 l 1.16,1.730001 c 0.317443,0.472385 0.9578394,0.597778 1.43,0.280001 z"
         data-original="#ed524e"
         class=""
         id="path2755"
         style="fill:#ff6360;fill-opacity:1"
         sodipodi:nodetypes="cccccccccccccc" /></g><path
       fill="#e9e9ff"
       d="m 60.13967,27.160238 0.0084,38.639241 H 7.6094343 L 7.6009928,27.324989 33.985523,9.585892 Z"
       data-original="#e9e9ff"
       class="hovered-path"
       id="path2731"
       style="fill:#ffffff;fill-opacity:1;stroke-width:0.99695"
       sodipodi:nodetypes="cccccc" /><path
       fill="#4f5d99"
       d="m 56.54275,63.948541 v 1.85151 H 12.191 v -1.852179 c 0,-0.59955 0.74,-1.094713 1.636,-1.094713 h 41.07975 c 0.897,0 1.636,0.495163 1.636,1.094713 z"
       data-original="#4f5d99"
       id="path2733"
       sodipodi:nodetypes="cccssssc"
       style="stroke:none;stroke-width:0.81801;stroke-opacity:1" /><path
       fill="#fdc72e"
       d="M 41.845067,46.541029 V 62.85316 H 25.912489 V 46.541891 c 0,-4.738117 3.566206,-8.579158 7.966289,-8.579158 4.400083,0 7.966289,3.841041 7.966289,8.578296 z"
       data-original="#fdc72e"
       id="path2735"
       style="fill:#8d6930;fill-opacity:1;stroke-width:0.831235" /><path
       fill="#f9ac00"
       d="M 27.433654,62.85316 V 46.541891 c 0,-3.827239 2.891735,-6.940268 6.445124,-6.940268 3.553389,0 6.444324,3.113892 6.444324,6.939406 V 62.85316 Z"
       data-original="#f9ac00"
       id="path2737"
       style="fill:#bf9045;fill-opacity:1;stroke-width:0.831235" /><path
       fill="#fdc72e"
       d="m 39.185632,52.259892 a 0.96444569,1.0385387 0 1 1 -0.969252,-1.0325 c 0.536693,0 0.969252,0.465789 0.969252,1.0325 z"
       data-original="#fdc72e"
       id="path2739"
       style="fill:#5b5b5b;fill-opacity:1;stroke-width:0.831235" /><path
       style="fill:#33a43a;fill-opacity:1;stroke-width:1.28197"
       d="m 0,60.753768 c 0,0.742261 0.143581,1.447344 0.387155,2.099867 h 22.519078 a 3.9087253,3.9087253 0 0 0 -3.897187,-3.63182 c -0.587142,0 -1.149927,0.132043 -1.647331,0.371771 A 5.0701898,5.0701898 0 0 0 10.840335,57.334756 5.9342373,5.9342373 0 0 0 5.963723,54.790046 5.9662866,5.9662866 0 0 0 0,60.753768 Z"
       id="path4779" /><path
       style="fill:#7bd681;fill-opacity:1;stroke-width:1.28197"
       d="m 0,63.701542 c 0,0.742261 0.1435806,1.447344 0.3871549,2.099867 H 22.906226 a 3.9087253,3.9087253 0 0 0 -3.897179,-3.63182 c -0.587141,0 -1.149926,0.132044 -1.647329,0.371772 A 5.0701898,5.0701898 0 0 0 10.840334,60.28253 5.9342373,5.9342373 0 0 0 5.9637219,57.737819 5.9662866,5.9662866 0 0 0 0,63.701542 Z"
       id="path4624" /><path
       style="fill:#33a43a;fill-opacity:1;stroke-width:1.28197"
       d="m 68,60.753768 c 0,0.742261 -0.143581,1.447344 -0.387155,2.099867 H 45.093767 a 3.9087253,3.9087253 0 0 1 3.897187,-3.63182 c 0.587142,0 1.149927,0.132043 1.647331,0.371771 a 5.0701898,5.0701898 0 0 1 6.52138,-2.25883 5.9342373,5.9342373 0 0 1 4.876612,-2.54471 A 5.9662866,5.9662866 0 0 1 68,60.753768 Z"
       id="path4775" /><path
       style="fill:#7bd681;fill-opacity:1;stroke-width:1.28197"
       d="m 68,63.701541 c 0,0.742261 -0.14358,1.447344 -0.387158,2.099867 H 45.09377 a 3.9087253,3.9087253 0 0 1 3.897188,-3.63182 c 0.587142,0 1.149926,0.132043 1.647331,0.371771 a 5.0701898,5.0701898 0 0 1 6.521381,-2.25883 5.9342373,5.9342373 0 0 1 4.876612,-2.54471 A 5.9662866,5.9662866 0 0 1 68,63.701541 Z"
       id="path4620" /><g
       id="g8618"
       transform="matrix(0.67270488,0,0,0.67270488,-53.036734,18.200395)"><path
         fill="#4f5d99"
         d="m 111.78579,30.251063 v 20.58 a 0.585,0.585 0 0 1 -0.585,0.585 H 94.620787 a 0.585,0.585 0 0 1 -0.585,-0.585 v -20.58 c 0,-0.323 0.261,-0.585 0.584,-0.585 h 16.580003 c 0.324,0 0.586,0.262 0.586,0.585 z"
         data-original="#4f5d99"
         id="path8610" /><path
         fill="#70c1f9"
         d="m 95.535787,31.166063 h 14.750003 v 18.75 H 95.535787 Z"
         data-original="#70c1f9"
         id="path8612" /><path
         fill="#4f5d99"
         d="m 102.16079,31.166063 h 1.5 v 18.75 h -1.5 z"
         data-original="#4f5d99"
         id="path8614" /><path
         d="m 95.479787,39.791063 h 14.864003 v 1.5 H 95.479787 Z"
         id="path8616"
         style="fill:#4f5d99;fill-opacity:1" /></g><g
       id="g8624"
       transform="matrix(0.79450869,0,0,0.79450869,7.2540001,6.844233)"><path
         d="m 42.158762,21.421024 c 0,4.770282 -3.870967,8.641249 -8.641249,8.641249 -4.783316,0 -8.654283,-3.870967 -8.654283,-8.641249 0,-4.770283 3.870967,-8.64125 8.654283,-8.64125 4.770282,0 8.641249,3.870967 8.641249,8.64125 z"
         id="path8620"
         style="fill:#4f5d99;fill-opacity:1;stroke:none;stroke-width:1.33378;stroke-opacity:1" /><path
         d="m 40.990418,21.421024 a 7.476347,7.476347 0 0 1 -7.473365,7.474856 c -4.138452,0 -7.486782,-3.34833 -7.486782,-7.474856 0,-4.126527 3.34833,-7.474856 7.486782,-7.474856 a 7.476347,7.476347 0 0 1 7.473365,7.474856 z"
         id="path8622"
         style="fill:#70c1f9;fill-opacity:1;stroke:none;stroke-width:1.52559;stroke-opacity:1" /></g><g
       id="g8715"
       transform="matrix(0.67270488,0,0,0.67270488,-17.658489,18.200395)"><path
         fill="#4f5d99"
         d="m 111.78579,30.251063 v 20.58 a 0.585,0.585 0 0 1 -0.585,0.585 H 94.620787 a 0.585,0.585 0 0 1 -0.585,-0.585 v -20.58 c 0,-0.323 0.261,-0.585 0.584,-0.585 h 16.580003 c 0.324,0 0.586,0.262 0.586,0.585 z"
         data-original="#4f5d99"
         id="path8707" /><path
         fill="#70c1f9"
         d="m 95.535787,31.166063 h 14.750003 v 18.75 H 95.535787 Z"
         data-original="#70c1f9"
         id="path8709" /><path
         fill="#4f5d99"
         d="m 102.16079,31.166063 h 1.5 v 18.75 h -1.5 z"
         data-original="#4f5d99"
         id="path8711" /><path
         d="m 95.479787,39.791063 h 14.864003 v 1.5 H 95.479787 Z"
         id="path8713"
         style="fill:#4f5d99;fill-opacity:1" /></g></g></svg>
