<?xml version="1.0" encoding="UTF-8" standalone="no"?>
<!-- Created with Inkscape (http://www.inkscape.org/) -->

<svg
   width="64"
   height="64"
   viewBox="0 0 64 64"
   version="1.1"
   id="svg5"
   inkscape:version="1.3.2 (091e20ef0f, 2023-11-25, custom)"
   sodipodi:docname="folder-templates.svg"
   xml:space="preserve"
   xmlns:inkscape="http://www.inkscape.org/namespaces/inkscape"
   xmlns:sodipodi="http://sodipodi.sourceforge.net/DTD/sodipodi-0.dtd"
   xmlns:xlink="http://www.w3.org/1999/xlink"
   xmlns="http://www.w3.org/2000/svg"
   xmlns:svg="http://www.w3.org/2000/svg"><sodipodi:namedview
     id="namedview7"
     pagecolor="#ffffff"
     bordercolor="#000000"
     borderopacity="0.25"
     inkscape:showpageshadow="2"
     inkscape:pageopacity="0.0"
     inkscape:pagecheckerboard="0"
     inkscape:deskcolor="#d1d1d1"
     inkscape:document-units="px"
     showgrid="true"
     inkscape:zoom="5.0661248"
     inkscape:cx="31.68102"
     inkscape:cy="57.637743"
     inkscape:window-width="1920"
     inkscape:window-height="1013"
     inkscape:window-x="1920"
     inkscape:window-y="36"
     inkscape:window-maximized="1"
     inkscape:current-layer="layer1"><inkscape:grid
       id="grid1"
       units="px"
       originx="0"
       originy="0"
       spacingx="1"
       spacingy="1"
       empcolor="#0099e5"
       empopacity="0.30196078"
       color="#0099e5"
       opacity="0.14902"
       empspacing="5"
       dotted="false"
       gridanglex="30"
       gridanglez="30"
       visible="true" /></sodipodi:namedview><defs
     id="defs2"><inkscape:path-effect
       effect="fillet_chamfer"
       id="path-effect15"
       is_visible="true"
       lpeversion="1"
       nodesatellites_param="F,0,0,1,0,0,0,1 @ F,0,0,1,0,0,0,1 @ F,0,0,1,0,0,0,1 @ F,0,1,1,0,5,0,1 @ F,0,1,1,0,5,0,1 @ F,0,0,1,0,0,0,1 @ F,0,0,1,0,0,0,1"
       radius="5"
       unit="px"
       method="auto"
       mode="F"
       chamfer_steps="1"
       flexible="false"
       use_knot_distance="true"
       apply_no_radius="true"
       apply_with_radius="true"
       only_selected="true"
       hide_knots="false" /><inkscape:path-effect
       effect="fillet_chamfer"
       id="path-effect14"
       is_visible="true"
       lpeversion="1"
       nodesatellites_param="F,0,0,1,0,0,0,1 @ F,0,0,1,0,0,0,1 @ F,0,0,1,0,0,0,1 @ F,0,0,1,0,0,0,1 @ F,0,0,1,0,0,0,1 @ F,0,0,1,0,0,0,1 @ F,0,0,1,0,0,0,1 @ F,0,0,1,0,0,0,1 @ F,0,0,1,0,0,0,1 @ F,0,0,1,0,0,0,1 @ F,0,0,1,0,0,0,1 @ F,0,1,1,0,5,0,1 @ F,0,0,1,0,0,0,1 @ F,0,0,1,0,0,0,1 @ F,0,0,1,0,0,0,1 @ F,0,0,1,0,0,0,1"
       radius="5"
       unit="px"
       method="auto"
       mode="F"
       chamfer_steps="1"
       flexible="false"
       use_knot_distance="true"
       apply_no_radius="true"
       apply_with_radius="true"
       only_selected="true"
       hide_knots="false" /><inkscape:path-effect
       effect="fillet_chamfer"
       id="path-effect1"
       is_visible="true"
       lpeversion="1"
       nodesatellites_param="F,0,1,1,0,40,0,1 @ F,0,0,1,0,0,0,1 @ F,0,0,1,0,0,0,1 @ F,0,0,1,0,0,0,1 @ F,0,0,1,0,0,0,1 @ F,0,0,1,0,0,0,1 @ F,0,0,1,0,0,0,1 @ F,0,0,1,0,0,0,1 @ F,0,0,1,0,0,0,1 @ F,0,0,1,0,0,0,1 @ F,0,0,1,0,0,0,1 @ F,0,0,1,0,0,0,1 @ F,0,0,1,0,0,0,1 @ F,0,0,1,0,0,0,1"
       radius="40"
       unit="px"
       method="auto"
       mode="F"
       chamfer_steps="1"
       flexible="false"
       use_knot_distance="true"
       apply_no_radius="true"
       apply_with_radius="true"
       only_selected="true"
       hide_knots="false" /><linearGradient
       y2="11.02436"
       y1="3.0069399"
       x2="0"
       id="linearGradient1022-8-8-3-0-06-59"
       gradientUnits="userSpaceOnUse"><stop
         id="stop3001-0-9-4-9-02"
         offset="0" /><stop
         id="stop3003-5-6-6-5-70"
         stop-color="#363636"
         offset="1" /></linearGradient><linearGradient
       inkscape:collect="always"
       xlink:href="#linearGradient1022-8-8-3-0-06-59"
       id="linearGradient3058"
       gradientUnits="userSpaceOnUse"
       gradientTransform="matrix(1.3439926,0,0,1.2077771,-297.98001,-832.20823)"
       x1="213.08154"
       y1="7.8809905"
       x2="213.08154"
       y2="21.128468" /><linearGradient
       inkscape:collect="always"
       xlink:href="#linearGradient1022-8-8-3-0-06-59-9"
       id="linearGradient3058-5"
       gradientUnits="userSpaceOnUse"
       gradientTransform="matrix(1.3439926,0,0,1.2077771,-281.98001,-832.20823)"
       x1="213.08154"
       y1="7.8809905"
       x2="213.08154"
       y2="21.128468" /><linearGradient
       y2="11.02436"
       y1="3.0069399"
       x2="0"
       id="linearGradient1022-8-8-3-0-06-59-9"
       gradientUnits="userSpaceOnUse"><stop
         id="stop3001-0-9-4-9-02-6"
         offset="0" /><stop
         id="stop3003-5-6-6-5-70-0"
         stop-color="#363636"
         offset="1" /></linearGradient><linearGradient
       y2="7.0165396"
       x2="45.447727"
       y1="92.539597"
       x1="45.447727"
       gradientTransform="scale(1.0058652,0.994169)"
       gradientUnits="userSpaceOnUse"
       id="linearGradient4049-3"
       xlink:href="#ButtonShadow-3-6"
       inkscape:collect="always" /><filter
       id="filter3174-34-6"
       color-interpolation-filters="sRGB"><feGaussianBlur
         stdDeviation="1.71"
         id="feGaussianBlur3176-32-5" /></filter><linearGradient
       gradientTransform="scale(1.0058652,0.994169)"
       gradientUnits="userSpaceOnUse"
       id="ButtonShadow-3-6"
       y2="7.0165396"
       x2="45.447727"
       y1="92.539597"
       x1="45.447727"><stop
         offset="0"
         style="stop-color:#000000;stop-opacity:1"
         id="stop3750-41-9" /><stop
         offset="1"
         style="stop-color:#000000;stop-opacity:0.58823532"
         id="stop3752-4-1" /></linearGradient><filter
       id="filter3174-2-0-6"
       color-interpolation-filters="sRGB"><feGaussianBlur
         stdDeviation="1.71"
         id="feGaussianBlur3176-1-0-3" /></filter><filter
       color-interpolation-filters="sRGB"
       id="filter3174-4-7-8"><feGaussianBlur
         id="feGaussianBlur3176-2-4-0"
         stdDeviation="1.71" /></filter><filter
       id="filter3174-44-5"
       color-interpolation-filters="sRGB"><feGaussianBlur
         stdDeviation="1.71"
         id="feGaussianBlur3176-3-3" /></filter><filter
       id="filter3174-2-2-0"
       color-interpolation-filters="sRGB"><feGaussianBlur
         stdDeviation="1.71"
         id="feGaussianBlur3176-1-3-6" /></filter><filter
       color-interpolation-filters="sRGB"
       id="filter3174-4-4-7"><feGaussianBlur
         id="feGaussianBlur3176-2-3-8"
         stdDeviation="1.71" /></filter><linearGradient
       y2="22.113136"
       x2="9.8763561"
       y1="2.6014566"
       x1="9.8763561"
       gradientTransform="matrix(1.9111661,0,0,1.9298341,1.3337251,-0.28635201)"
       gradientUnits="userSpaceOnUse"
       id="linearGradient4979-4"
       xlink:href="#linearGradient5157-7"
       inkscape:collect="always" /><linearGradient
       y2="36.607079"
       x2="-28.531403"
       y1="17.955765"
       x1="-28.531403"
       gradientTransform="matrix(1.9111661,0,0,1.9298341,67.0358,-28.2715)"
       gradientUnits="userSpaceOnUse"
       id="linearGradient4977-4"
       xlink:href="#linearGradient11111-3"
       inkscape:collect="always" /><linearGradient
       y2="4.3030405"
       x2="9.7045717"
       y1="20.882006"
       x1="9.7045717"
       gradientTransform="matrix(1.887725,0,0,1.9135761,0.69595624,3.033457)"
       gradientUnits="userSpaceOnUse"
       id="linearGradient4974-7"
       xlink:href="#linearGradient3390-2"
       inkscape:collect="always" /><radialGradient
       r="11.268134"
       fy="8.5608768"
       fx="7.8185525"
       cy="8.5608768"
       cx="7.8185525"
       gradientTransform="matrix(3.2075645,0,0,2.0079171,-9.0023714,1.5788615)"
       gradientUnits="userSpaceOnUse"
       id="radialGradient4972-5"
       xlink:href="#linearGradient7012-661-145-733-759-865-745-4"
       inkscape:collect="always" /><radialGradient
       r="10.273108"
       fy="5.5926585"
       fx="4.02005"
       cy="5.5926585"
       cx="4.02005"
       gradientTransform="matrix(-6.6378207e-8,2.4796237,-3.4102775,-0.00103325,27.453784,3.7547958)"
       gradientUnits="userSpaceOnUse"
       id="radialGradient4969-3"
       xlink:href="#linearGradient921-8"
       inkscape:collect="always" /><linearGradient
       y2="24.627615"
       x2="20.054544"
       y1="16.407909"
       x1="18.03083"
       gradientTransform="matrix(0.8538712,0,0,0.79298395,6.253477,6.4875963)"
       gradientUnits="userSpaceOnUse"
       id="linearGradient4966-0"
       xlink:href="#linearGradient8265-821-176-38-919-66-249-7"
       inkscape:collect="always" /><radialGradient
       r="117.14286"
       fy="486.64789"
       fx="605.71429"
       cy="486.64789"
       cx="605.71429"
       gradientTransform="matrix(-0.06214224,0,0,0.02900085,46.53201,28.085503)"
       gradientUnits="userSpaceOnUse"
       id="radialGradient3131-4"
       xlink:href="#linearGradient5060-3"
       inkscape:collect="always" /><radialGradient
       r="117.14286"
       fy="486.64789"
       fx="605.71429"
       cy="486.64789"
       cx="605.71429"
       gradientTransform="matrix(0.06214224,0,0,0.02900085,1.6365015,28.085503)"
       gradientUnits="userSpaceOnUse"
       id="radialGradient3129-3"
       xlink:href="#linearGradient5060-3"
       inkscape:collect="always" /><linearGradient
       y2="609.50507"
       x2="302.85715"
       y1="366.64789"
       x1="302.85715"
       gradientTransform="matrix(0.06214224,0,0,0.02900085,1.6242719,28.085503)"
       gradientUnits="userSpaceOnUse"
       id="linearGradient3127-7"
       xlink:href="#linearGradient5048-1"
       inkscape:collect="always" /><linearGradient
       id="linearGradient5048-1"><stop
         offset="0"
         style="stop-color:#000000;stop-opacity:0"
         id="stop5050-4" /><stop
         offset="0.5"
         style="stop-color:#000000;stop-opacity:1"
         id="stop5056-7" /><stop
         offset="1"
         style="stop-color:#000000;stop-opacity:0"
         id="stop5052-5" /></linearGradient><linearGradient
       id="linearGradient5060-3"><stop
         offset="0"
         style="stop-color:#000000;stop-opacity:1"
         id="stop5062-2" /><stop
         offset="1"
         style="stop-color:#000000;stop-opacity:0"
         id="stop5064-9" /></linearGradient><linearGradient
       id="linearGradient11111-3"><stop
         offset="0"
         style="stop-color:#ffffff;stop-opacity:1"
         id="stop11113-7" /><stop
         offset="0.91013825"
         style="stop-color:#cdcdcd;stop-opacity:1"
         id="stop11115-8" /><stop
         offset="1"
         style="stop-color:#a1a1a1;stop-opacity:1"
         id="stop11117-5" /></linearGradient><linearGradient
       id="linearGradient5157-7"><stop
         offset="0"
         style="stop-color:#b5b5b5;stop-opacity:1;"
         id="stop5159-0" /><stop
         offset="1"
         style="stop-color:#5d5d5d;stop-opacity:1;"
         id="stop5161-0" /></linearGradient><linearGradient
       id="linearGradient7012-661-145-733-759-865-745-4"><stop
         offset="0"
         style="stop-color:#9cbbd9;stop-opacity:1"
         id="stop2699-8" /><stop
         offset="1"
         style="stop-color:#5c82ab;stop-opacity:1"
         id="stop2701-7" /></linearGradient><linearGradient
       id="linearGradient3390-2"><stop
         offset="0"
         style="stop-color:#344960;stop-opacity:1;"
         id="stop3392-7" /><stop
         offset="1"
         style="stop-color:#5e778e;stop-opacity:1;"
         id="stop3394-0" /></linearGradient><linearGradient
       id="linearGradient8265-821-176-38-919-66-249-7"><stop
         offset="0"
         style="stop-color:#ffffff;stop-opacity:1"
         id="stop2687-8" /><stop
         offset="1"
         style="stop-color:#ffffff;stop-opacity:0"
         id="stop2689-1" /></linearGradient><linearGradient
       id="linearGradient921-8"><stop
         id="stop923-9"
         style="stop-color:#ffffff;stop-opacity:1"
         offset="0" /><stop
         id="stop925-7"
         style="stop-color:#ffffff;stop-opacity:1"
         offset="0.69999999" /><stop
         id="stop927-1"
         style="stop-color:#ffffff;stop-opacity:0"
         offset="1" /></linearGradient><linearGradient
       inkscape:collect="always"
       xlink:href="#linearGradient8265-821-176-38-919-66-249-7"
       id="linearGradient3295"
       gradientUnits="userSpaceOnUse"
       gradientTransform="matrix(0.8538712,0,0,0.79298395,3.3382354,-19.493595)"
       x1="18.03083"
       y1="16.407909"
       x2="20.054544"
       y2="24.627615" /><radialGradient
       inkscape:collect="always"
       xlink:href="#linearGradient921-8"
       id="radialGradient3298"
       gradientUnits="userSpaceOnUse"
       gradientTransform="matrix(-6.6378207e-8,2.4796237,-3.4102775,-0.00103325,24.538542,-22.226395)"
       cx="4.02005"
       cy="5.5926585"
       fx="4.02005"
       fy="5.5926585"
       r="10.273108" /><radialGradient
       inkscape:collect="always"
       xlink:href="#linearGradient7012-661-145-733-759-865-745-4"
       id="radialGradient3301"
       gradientUnits="userSpaceOnUse"
       gradientTransform="matrix(3.2075645,0,0,2.0079171,-11.917613,-24.402329)"
       cx="7.8185525"
       cy="8.5608768"
       fx="7.8185525"
       fy="8.5608768"
       r="11.268134" /><linearGradient
       inkscape:collect="always"
       xlink:href="#linearGradient3390-2"
       id="linearGradient3303"
       gradientUnits="userSpaceOnUse"
       gradientTransform="matrix(1.887725,0,0,1.9135761,-2.2192854,-22.947734)"
       x1="9.7045717"
       y1="20.882006"
       x2="9.7045717"
       y2="4.3030405" /><linearGradient
       inkscape:collect="always"
       xlink:href="#linearGradient11111-3"
       id="linearGradient3306"
       gradientUnits="userSpaceOnUse"
       gradientTransform="matrix(1.9111661,0,0,1.9298341,64.120558,-54.252691)"
       x1="-28.531403"
       y1="17.955765"
       x2="-28.531403"
       y2="36.607079" /><linearGradient
       inkscape:collect="always"
       xlink:href="#linearGradient5157-7"
       id="linearGradient3308"
       gradientUnits="userSpaceOnUse"
       gradientTransform="matrix(1.9111661,0,0,1.9298341,-1.5815165,-26.267543)"
       x1="9.8763561"
       y1="2.6014566"
       x2="9.8763561"
       y2="22.113136" /><linearGradient
       y2="11.02436"
       y1="3.0069399"
       x2="0"
       id="linearGradient1022-8-8-3-0-06-59-9-0"
       gradientUnits="userSpaceOnUse"><stop
         id="stop3001-0-9-4-9-02-6-1"
         offset="0" /><stop
         id="stop3003-5-6-6-5-70-0-7"
         stop-color="#363636"
         offset="1" /></linearGradient><inkscape:path-effect
       effect="fillet_chamfer"
       id="path-effect1-3"
       is_visible="true"
       lpeversion="1"
       nodesatellites_param="F,0,0,1,0,0,0,1 @ F,0,1,1,0,14,0,1 @ F,0,1,1,0,14,0,1 @ F,0,0,1,0,0,0,1 @ F,0,1,1,0,14,0,1 @ F,0,1,1,0,14,0,1 @ F,0,1,1,0,14,0,1"
       radius="15"
       unit="px"
       method="auto"
       mode="F"
       chamfer_steps="1"
       flexible="false"
       use_knot_distance="true"
       apply_no_radius="true"
       apply_with_radius="true"
       only_selected="true"
       hide_knots="false" /><linearGradient
       y2="11.02436"
       y1="3.0069399"
       x2="0"
       id="linearGradient1022-8-8-3-0-06-59-9-5"
       gradientUnits="userSpaceOnUse"><stop
         id="stop3001-0-9-4-9-02-6-6"
         offset="0" /><stop
         id="stop3003-5-6-6-5-70-0-2"
         stop-color="#363636"
         offset="1" /></linearGradient><linearGradient
       inkscape:collect="always"
       xlink:href="#linearGradient1022-8-8-3-0-06-59-9-5"
       id="linearGradient3075"
       gradientUnits="userSpaceOnUse"
       gradientTransform="matrix(1.3439926,0,0,1.2077771,-278.98001,-832.20823)"
       x1="213.08154"
       y1="7.8809905"
       x2="213.08154"
       y2="21.128468" /><linearGradient
       inkscape:collect="always"
       xlink:href="#linearGradient1022-8-8-3-0-06-59-9-3"
       id="linearGradient3058-5-0"
       gradientUnits="userSpaceOnUse"
       gradientTransform="matrix(0.89599507,0,0,0.80518473,-196.32001,-552.80544)"
       x1="213.08154"
       y1="7.8809905"
       x2="213.08154"
       y2="21.128468" /><linearGradient
       y2="11.02436"
       y1="3.0069399"
       x2="0"
       id="linearGradient1022-8-8-3-0-06-59-9-3"
       gradientUnits="userSpaceOnUse"><stop
         id="stop3001-0-9-4-9-02-6-0"
         offset="0" /><stop
         id="stop3003-5-6-6-5-70-0-4"
         stop-color="#363636"
         offset="1" /></linearGradient><linearGradient
       inkscape:collect="always"
       xlink:href="#linearGradient1022-8-8-3-0-06-59-9-5"
       id="linearGradient3116"
       gradientUnits="userSpaceOnUse"
       gradientTransform="matrix(1.3439926,0,0,1.2077771,-297.93582,-832.05918)"
       x1="213.08154"
       y1="7.8809905"
       x2="213.08154"
       y2="21.128468" /><linearGradient
       inkscape:collect="always"
       xlink:href="#linearGradient1022-8-8-3-0-06-59-9-3"
       id="linearGradient3124"
       gradientUnits="userSpaceOnUse"
       gradientTransform="matrix(0.89599507,0,0,0.80518473,-196.32001,-556.80544)"
       x1="213.08154"
       y1="7.8809905"
       x2="213.08154"
       y2="21.128468" /><linearGradient
       inkscape:collect="always"
       xlink:href="#linearGradient1022-8-8-3-0-06-59-9-3"
       id="linearGradient3144"
       gradientUnits="userSpaceOnUse"
       gradientTransform="matrix(1.3439926,0,0,1.2077771,-297.98001,-837.20816)"
       x1="213.08154"
       y1="7.8809905"
       x2="213.08154"
       y2="21.128468" /><linearGradient
       y2="11.02436"
       y1="3.0069399"
       x2="0"
       id="linearGradient1022-8-8-3-0-06-59-9-7"
       gradientUnits="userSpaceOnUse"><stop
         id="stop3001-0-9-4-9-02-6-2"
         offset="0" /><stop
         id="stop3003-5-6-6-5-70-0-3"
         stop-color="#363636"
         offset="1" /></linearGradient><inkscape:path-effect
       effect="fillet_chamfer"
       id="path-effect19301"
       is_visible="true"
       lpeversion="1"
       nodesatellites_param="F,0,0,1,0,0,0,1 @ F,0,1,1,0,0.5,0,1 @ F,0,0,1,0,0,0,1 @ F,0,1,1,0,0.5,0,1 @ F,0,0,1,0,0,0,1 | F,0,0,1,0,0,0,1 @ F,0,0,1,0,0,0,1 @ F,0,0,1,0,0,0,1 @ F,0,0,1,0,0,0,1"
       unit="px"
       method="auto"
       mode="F"
       radius="0.5"
       chamfer_steps="1"
       flexible="false"
       use_knot_distance="true"
       apply_no_radius="true"
       apply_with_radius="true"
       only_selected="true"
       hide_knots="false" /><style
       id="current-color-scheme"
       type="text/css">.ColorScheme-Text { color:#dedede; } .ColorScheme-Text { color:#dedede; }</style><style
       id="current-color-scheme-2"
       type="text/css">
   .ColorScheme-Text { color:#dfdfdf; } .ColorScheme-Highlight { color:#4285f4; } .ColorScheme-NeutralText { color:#ff9800; } .ColorScheme-PositiveText { color:#4caf50; } .ColorScheme-NegativeText { color:#f44336; }
  </style><inkscape:path-effect
       effect="fillet_chamfer"
       id="path-effect3"
       is_visible="true"
       lpeversion="1"
       nodesatellites_param="F,0,0,1,0,0,0,1 @ F,0,0,1,0,0,0,1 @ F,0,0,1,0,0,0,1 @ F,0,0,1,0,0,0,1 @ F,0,0,1,0,0,0,1 @ F,0,0,1,0,0,0,1 @ F,0,1,1,0,0.5,0,1 @ F,0,0,1,0,0,0,1 @ F,0,0,1,0,0,0,1 @ F,0,0,1,0,0,0,1 @ F,0,0,1,0,0,0,1 @ F,0,0,1,0,0,0,1 @ F,0,0,1,0,0,0,1 @ F,0,0,1,0,0,0,1 @ F,0,0,1,0,0,0,1 @ F,0,0,1,0,0,0,1 @ F,0,0,1,0,0,0,1 @ F,0,0,1,0,0,0,1"
       radius="0.5"
       unit="px"
       method="auto"
       mode="F"
       chamfer_steps="1"
       flexible="false"
       use_knot_distance="true"
       apply_no_radius="true"
       apply_with_radius="true"
       only_selected="true"
       hide_knots="false" /><inkscape:path-effect
       effect="fillet_chamfer"
       id="path-effect2"
       is_visible="true"
       lpeversion="1"
       nodesatellites_param="F,0,0,1,0,0,0,1 @ F,0,0,1,0,0,0,1 @ F,0,0,1,0,0,0,1 @ F,0,0,1,0,0,0,1 @ F,0,0,1,0,0,0,1 @ F,0,0,1,0,0,0,1 @ F,0,0,1,0,0,0,1 @ F,0,0,1,0,0,0,1 @ F,0,0,1,0,0,0,1 @ F,0,0,1,0,0,0,1 @ F,0,0,1,0,0,0,1 @ F,0,0,1,0,0,0,1 @ F,0,0,1,0,0,0,1 @ F,0,0,1,0,0,0,1 @ F,0,0,1,0,0,0,1 @ F,0,0,1,0,0,0,1 @ F,0,1,1,0,0.5,0,1"
       radius="0.5"
       unit="px"
       method="auto"
       mode="F"
       chamfer_steps="1"
       flexible="false"
       use_knot_distance="true"
       apply_no_radius="true"
       apply_with_radius="true"
       only_selected="true"
       hide_knots="false" /><inkscape:path-effect
       effect="fillet_chamfer"
       id="path-effect1-9"
       is_visible="true"
       lpeversion="1"
       nodesatellites_param="F,0,1,1,0,0,0,1 @ F,0,0,1,0,0,0,1 @ F,0,0,1,0,0,0,1 @ F,0,0,1,0,0,0,1 @ F,0,0,1,0,0,0,1 @ F,0,0,1,0,0,0,1 @ F,0,0,1,0,0,0,1 @ F,0,1,1,0,0.5,0,1 @ F,0,0,1,0,0,0,1 @ F,0,0,1,0,0,0,1 @ F,0,0,1,0,0,0,1 @ F,0,0,1,0,0,0,1 @ F,0,0,1,0,0,0,1 @ F,0,0,1,0,0,0,1 @ F,0,0,1,0,0,0,1 @ F,0,0,1,0,0,0,1 @ F,0,0,1,0,0,0,1"
       radius="0.5"
       unit="px"
       method="auto"
       mode="F"
       chamfer_steps="1"
       flexible="false"
       use_knot_distance="true"
       apply_no_radius="true"
       apply_with_radius="true"
       only_selected="true"
       hide_knots="false" /><inkscape:path-effect
       effect="fillet_chamfer"
       id="path-effect19"
       is_visible="true"
       lpeversion="1"
       nodesatellites_param="F,0,0,1,0,0,0,1 @ F,0,0,1,0,0,0,1 @ F,0,0,1,0,0,0,1 @ F,0,0,1,0,0,0,1 @ F,0,0,1,0,0,0,1 @ F,0,0,1,0,0,0,1 @ F,0,0,1,0,0,0,1 @ F,0,0,1,0,0,0,1 @ F,0,0,1,0,0,0,1 @ F,0,0,1,0,0,0,1 @ F,0,0,1,0,0,0,1 @ F,0,0,1,0,0,0,1 @ F,0,0,1,0,0,0,1 @ F,0,0,1,0,0,0,1 @ F,0,1,1,0,1,0,1 @ F,0,0,1,0,0,0,1 @ F,0,0,1,0,0,0,1 @ F,0,0,1,0,0,0,1 @ F,0,0,1,0,0,0,1 @ F,0,0,1,0,0,0,1 @ F,0,0,1,0,0,0,1 @ F,0,0,1,0,0,0,1 @ F,0,0,1,0,0,0,1 @ F,0,0,1,0,0,0,1 @ F,0,0,1,0,0,0,1 @ F,0,0,1,0,0,0,1"
       radius="1"
       unit="px"
       method="auto"
       mode="F"
       chamfer_steps="1"
       flexible="false"
       use_knot_distance="true"
       apply_no_radius="true"
       apply_with_radius="true"
       only_selected="true"
       hide_knots="false" /><style
       type="text/css"
       id="current-color-scheme-3">
   .ColorScheme-Text { color:#5c616c; } .ColorScheme-Highlight { color:#5294e2; } .ColorScheme-ButtonBackground { color:#d3dae3; }
  </style><filter
       inkscape:collect="always"
       style="color-interpolation-filters:sRGB"
       id="filter12-8"
       x="-0.017995654"
       y="-0.033029687"
       width="1.0359913"
       height="1.0660594"><feGaussianBlur
         inkscape:collect="always"
         stdDeviation="0.23976628"
         id="feGaussianBlur12-4" /></filter><linearGradient
       inkscape:collect="always"
       xlink:href="#linearGradient6"
       id="linearGradient8"
       x1="0"
       y1="0"
       x2="64"
       y2="64"
       gradientUnits="userSpaceOnUse"
       gradientTransform="translate(1.04e-6)" /><linearGradient
       id="linearGradient6"
       inkscape:collect="always"><stop
         style="stop-color:#9477bb;stop-opacity:1;"
         offset="0"
         id="stop7" /><stop
         style="stop-color:#9274ba;stop-opacity:1;"
         offset="1"
         id="stop9" /></linearGradient><linearGradient
       inkscape:collect="always"
       xlink:href="#linearGradient12"
       id="linearGradient13-5"
       x1="-63.829453"
       y1="32.006756"
       x2="-6.9064422"
       y2="32.006756"
       gradientUnits="userSpaceOnUse"
       gradientTransform="translate(67.368449,-0.0022473)" /><linearGradient
       id="linearGradient12"
       inkscape:collect="always"><stop
         style="stop-color:#ffffff;stop-opacity:0;"
         offset="0"
         id="stop12" /><stop
         style="stop-color:#ffffff;stop-opacity:0.3"
         offset="0.09748957"
         id="stop14" /><stop
         style="stop-color:#ffffff;stop-opacity:0;"
         offset="0.1993918"
         id="stop15" /><stop
         style="stop-color:#ffffff;stop-opacity:0;"
         offset="0.50489056"
         id="stop16" /><stop
         style="stop-color:#ffffff;stop-opacity:0;"
         offset="0.80300045"
         id="stop19" /><stop
         style="stop-color:#ffffff;stop-opacity:0.302"
         offset="0.89696491"
         id="stop18" /><stop
         style="stop-color:#ffffff;stop-opacity:0;"
         offset="1"
         id="stop13" /></linearGradient><linearGradient
       inkscape:collect="always"
       xlink:href="#linearGradient3"
       id="linearGradient5"
       x1="12.78446"
       y1="18.196804"
       x2="35.266891"
       y2="18.196804"
       gradientUnits="userSpaceOnUse"
       gradientTransform="translate(1.04e-6)" /><linearGradient
       id="linearGradient3"
       inkscape:collect="always"><stop
         style="stop-color:#ffffff;stop-opacity:0;"
         offset="0"
         id="stop4" /><stop
         style="stop-color:#ffffff;stop-opacity:0.30240488;"
         offset="0.69896251"
         id="stop6" /><stop
         style="stop-color:#ffffff;stop-opacity:0;"
         offset="1"
         id="stop5" /></linearGradient></defs><g
     inkscape:label="Layer 1"
     inkscape:groupmode="layer"
     id="layer1"><path
       fill="url(#_lgradient_1)"
       fill-rule="evenodd"
       d="m 35.620259,13.899902 h 5.15436 c 1.02465,-0.0022 2.04929,0.0089 3.07395,0.03063 0.9174,0.01731 1.83505,0.05016 2.75245,0.100322 0.8175,0.0435 1.63475,0.10676 2.44988,0.189548 0.72421,0.07435 1.44844,0.174455 2.16579,0.298749 0.64277,0.11142 1.27845,0.253026 1.90488,0.425262 0.5682,0.154923 1.12481,0.34669 1.6627,0.573526 0.50072,0.209302 0.98037,0.457889 1.43447,0.743542 0.43562,0.274778 0.84305,0.588841 1.21569,0.935532 0.37029,0.348909 0.70552,0.728449 0.99885,1.136177 0.30518,0.425261 0.57057,0.874494 0.79643,1.341039 0.24219,0.506052 0.44722,1.024979 0.61485,1.55478 0.18395,0.586622 0.33546,1.181899 0.45408,1.783835 0.13281,0.67163 0.23982,1.347698 0.31913,2.025765 0.0886,0.763296 0.15603,1.526592 0.20266,2.291886 0.0535,0.85696 0.0883,1.716139 0.10938,2.5731 0.0208,0.959502 0.0326,1.919005 0.0302,2.876287 v 5.680262 c 0.003,0.959503 -0.009,1.916786 -0.0302,2.876288 -0.0211,0.85918 -0.0559,1.71614 -0.10938,2.5731 -0.0467,0.765294 -0.11411,1.53081 -0.20266,2.291886 -0.0793,0.678066 -0.18632,1.356355 -0.31913,2.027985 -0.11862,0.599716 -0.27013,1.194994 -0.45408,1.781615 -0.16763,0.529801 -0.37266,1.050948 -0.61485,1.55478 -0.22586,0.468765 -0.49125,0.915779 -0.79643,1.34104 -0.29333,0.407728 -0.62856,0.789487 -0.99885,1.136177 -0.37264,0.346691 -0.78007,0.660754 -1.21569,0.935531 -0.4541,0.285653 -0.93375,0.534242 -1.43447,0.743543 -0.53789,0.226835 -1.0945,0.418603 -1.6627,0.575746 -0.62643,0.172235 -1.26211,0.313841 -1.90488,0.423042 -0.71735,0.126291 -1.44158,0.224394 -2.16579,0.298748 -0.81513,0.08279 -1.63238,0.146045 -2.44988,0.189549 -0.9174,0.05016 -1.83505,0.08301 -2.75245,0.102542 -1.02466,0.01953 -2.0493,0.03062 -3.07395,0.02841 h -17.5493 c -1.02465,0.0023 -2.0493,-0.0089 -3.073948,-0.02841 -0.91741,-0.01953 -1.83505,-0.05238 -2.75245,-0.102542 -0.8175,-0.0435 -1.63476,-0.106759 -2.44989,-0.189549 -0.72421,-0.07435 -1.44843,-0.172457 -2.16578,-0.298748 -0.64278,-0.109201 -1.27845,-0.250807 -1.90489,-0.423042 C 10.310166,56.140692 9.7535673,55.948924 9.215674,55.722089 8.714948,55.512788 8.235295,55.264199 7.781209,54.978546 7.345589,54.703769 6.938143,54.389706 6.565499,54.043015 6.195222,53.696325 5.859985,53.314566 5.566653,52.906838 5.261483,52.481577 4.996087,52.034563 4.770228,51.565798 4.528033,51.061966 4.323007,50.540819 4.155389,50.011018 3.971435,49.424397 3.819915,48.829119 3.701304,48.229403 3.568488,47.557773 3.461476,46.879484 3.382165,46.201418 3.293635,45.440341 3.226147,44.674826 3.179508,43.909532 3.126008,43.052572 3.091208,42.195612 3.07013,41.336431 3.04929,40.376929 3.03746,39.419647 3.03984,38.460143 V 25.539821 c -0.0024,-0.957282 0.0095,-1.916785 0.03029,-2.876287 0.02107,-0.856961 0.05587,-1.71614 0.109378,-2.5731 0.04665,-0.765294 0.114113,-1.52859 0.202657,-2.291886 0.07931,-0.678067 0.186323,-1.354135 0.319139,-2.025765 0.118611,-0.601936 0.270131,-1.197213 0.454085,-1.783835 0.167618,-0.529801 0.372644,-1.048728 0.614839,-1.55478 0.225859,-0.466545 0.491255,-0.915778 0.796425,-1.341039 0.293332,-0.407728 0.628569,-0.787268 0.998846,-1.1361773 0.372644,-0.346691 0.78009,-0.660754 1.21571,-0.935532 0.454086,-0.285652 0.933739,-0.534241 1.434465,-0.743546 0.5378933,-0.22683 1.094492,-0.4186 1.662687,-0.573519 0.62644,-0.172241 1.26211,-0.313841 1.90489,-0.425261 0.71735,-0.124299 1.44157,-0.224399 2.16578,-0.298749 0.81513,-0.0828 1.63239,-0.146051 2.44989,-0.18955 0.9174,-0.0502 1.83504,-0.083 2.75245,-0.10032 1.024648,-0.0218 2.049298,-0.0329 3.073948,-0.0306 h 5.15494"
       id="path9-2"
       style="isolation:isolate;fill:#6a4b9f;fill-opacity:1;stroke-width:0.229232"
       sodipodi:nodetypes="cccccccccccccccccccccccccccccccccccccccccccccccccccccccccccccccccccccc" /><path
       id="path8-0"
       style="isolation:isolate;mix-blend-mode:normal;fill:#000000;fill-opacity:1;stroke:none;stroke-width:0.229232;stroke-opacity:1;filter:url(#filter12-8)"
       d="m 35.266889,14.253611 -6.88672,6.886719 h -5.1543 c -1.02465,-0.0022 -2.04956,0.0095 -3.074218,0.03125 -0.9174,0.01731 -1.83455,0.04945 -2.75195,0.09961 -0.8175,0.0435 -1.63409,0.106665 -2.44922,0.189453 -0.72421,0.07435 -1.44867,0.174534 -2.16602,0.298828 -0.64276,0.11142 -1.27982,0.253545 -1.90625,0.425781 -0.568195,0.154923 -1.1242137,0.34543 -1.662105,0.572266 -0.500716,0.2093 -0.979494,0.45849 -1.433594,0.74414 -0.435617,0.274778 -0.844159,0.588857 -1.216797,0.935547 -0.370288,0.348909 -0.70472,0.728992 -0.998047,1.136719 -0.30518,0.425259 -0.571016,0.873299 -0.796875,1.339844 -0.242189,0.506049 -0.447604,1.024889 -0.615235,1.554687 -0.183947,0.586622 -0.334504,1.183222 -0.453125,1.785156 -0.06062,0.306586 -0.114102,0.613756 -0.164062,0.921875 v 0.5 c 0.04996,-0.308119 0.103438,-0.615289 0.164062,-0.921875 0.118621,-0.601934 0.269178,-1.196581 0.453125,-1.783203 0.167631,-0.529798 0.373046,-1.048638 0.615235,-1.554687 0.225859,-0.466545 0.491695,-0.916538 0.796875,-1.341797 0.293327,-0.407727 0.627758,-0.78781 0.998047,-1.136719 0.372638,-0.34669 0.78118,-0.660769 1.216797,-0.935547 0.4541,-0.28565 0.932878,-0.53484 1.433594,-0.74414 0.5378903,-0.226836 1.09391,-0.417343 1.662105,-0.572266 0.62643,-0.172236 1.26349,-0.314361 1.90625,-0.425781 0.71735,-0.124294 1.44181,-0.224478 2.16602,-0.298828 0.81513,-0.08279 1.63172,-0.145955 2.44922,-0.189453 0.9174,-0.05016 1.83455,-0.0823 2.75195,-0.09961 1.024658,-0.02173 2.049568,-0.03345 3.074218,-0.03125 h 5.1543 l 7.13476,-7.134766 z" /><path
       fill="url(#_lgradient_1)"
       fill-rule="evenodd"
       d="m 28.380259,21.13993 h -5.15436 c -1.02465,-0.0022 -2.04929,0.0089 -3.073948,0.03063 -0.9174,0.01731 -1.83505,0.05016 -2.75245,0.100322 -0.8175,0.0435 -1.63475,0.10676 -2.44988,0.189548 -0.72421,0.07435 -1.44844,0.174454 -2.16579,0.298749 -0.64277,0.111419 -1.27845,0.253025 -1.90488,0.425262 -0.568199,0.154923 -1.1248077,0.346689 -1.662698,0.573526 -0.50072,0.209302 -0.98037,0.457889 -1.43447,0.743542 -0.43562,0.274778 -0.843051,0.588841 -1.215691,0.935532 -0.37029,0.348909 -0.70552,0.728449 -0.99885,1.136177 -0.30518,0.425261 -0.57057,0.874494 -0.79643,1.341039 -0.24219,0.50605 -0.44722,1.024978 -0.61485,1.554779 -0.18395,0.586622 -0.33546,1.181899 -0.45408,1.783835 -0.13281,0.67163 -0.23982,1.347698 -0.31913,2.025765 -0.0886,0.763296 -0.15603,1.526591 -0.20266,2.291886 -0.0535,0.856961 -0.0883,1.716139 -0.10938,2.573099 -0.0208,0.959503 -0.0326,1.919005 -0.0302,2.876289 v -1.559298 c -0.003,0.959503 0.009,1.916787 0.0302,2.876289 0.0211,0.85918 0.0559,1.71614 0.10938,2.5731 0.0467,0.765294 0.11411,1.53081 0.20266,2.291886 0.0793,0.678066 0.18632,1.356355 0.31913,2.027985 0.11862,0.599716 0.27013,1.194994 0.45408,1.781615 0.16763,0.529801 0.37266,1.050948 0.61485,1.55478 0.22586,0.468765 0.49125,0.915779 0.79643,1.34104 0.29333,0.407728 0.62856,0.789487 0.99885,1.136177 0.37264,0.346691 0.780071,0.660754 1.215691,0.935531 0.4541,0.285653 0.93375,0.534242 1.43447,0.743543 0.5378903,0.226835 1.094499,0.418603 1.662698,0.575746 0.62643,0.172235 1.26211,0.313841 1.90488,0.423042 0.71735,0.126291 1.44158,0.224394 2.16579,0.298748 0.81513,0.08279 1.63238,0.146045 2.44988,0.189549 0.9174,0.05016 1.83505,0.08301 2.75245,0.102542 1.024658,0.01953 2.049298,0.03062 3.073948,0.02841 h 17.5493 c 1.02465,0.0023 2.0493,-0.0089 3.07395,-0.02841 0.91741,-0.01953 1.83505,-0.05238 2.75245,-0.102542 0.8175,-0.0435 1.63476,-0.106759 2.44989,-0.189549 0.72421,-0.07435 1.44843,-0.172457 2.16578,-0.298748 0.64278,-0.109201 1.27845,-0.250807 1.90489,-0.423042 0.5682,-0.157143 1.1248,-0.348911 1.66269,-0.575746 0.50073,-0.209301 0.98038,-0.45789 1.43446,-0.743543 0.43562,-0.274777 0.84307,-0.58884 1.21571,-0.935531 0.37028,-0.34669 0.70552,-0.728449 0.99885,-1.136177 0.30517,-0.425261 0.57057,-0.872276 0.79643,-1.34104 0.24219,-0.503833 0.44722,-1.02498 0.61483,-1.55478 0.18396,-0.586622 0.33548,-1.1819 0.45409,-1.781616 0.13282,-0.67163 0.23983,-1.349919 0.31914,-2.027985 0.0885,-0.761076 0.15602,-1.526592 0.20266,-2.291886 0.0535,-0.85696 0.0883,-1.71392 0.10937,-2.5731 0.0208,-0.959502 0.0327,-1.916785 0.0303,-2.876288 v -5.680764 c 0.002,-0.957282 -0.01,-1.916785 -0.0303,-2.876287 -0.0211,-0.856961 -0.0559,-1.71614 -0.10937,-2.5731 -0.0466,-0.765294 -0.11412,-1.52859 -0.20266,-2.291886 -0.0793,-0.678067 -0.18632,-1.354135 -0.31914,-2.025765 -0.11861,-0.601937 -0.27013,-1.197213 -0.45409,-1.783836 -0.16761,-0.529801 -0.37264,-1.048727 -0.61483,-1.55478 -0.22586,-0.466545 -0.49126,-0.915778 -0.79643,-1.341039 -0.29333,-0.407728 -0.62857,-0.787268 -0.99885,-1.136177 -0.37264,-0.346691 -0.78009,-0.660754 -1.21571,-0.935532 -0.45408,-0.285653 -0.93373,-0.534241 -1.43446,-0.743546 -0.53789,-0.22683 -1.09449,-0.4186 -1.66269,-0.57352 -0.62644,-0.17224 -1.26211,-0.31384 -1.90489,-0.42526 -0.71735,-0.1243 -1.44157,-0.2244 -2.16578,-0.29875 -0.81513,-0.0828 -1.63239,-0.14605 -2.44989,-0.18955 -0.9174,-0.0502 -1.83504,-0.083 -2.75245,-0.10032 -1.02465,-0.0218 -2.0493,-0.0329 -3.07395,-0.0306 h -5.15494"
       id="path10-6"
       style="isolation:isolate;fill:url(#linearGradient8);fill-opacity:1;stroke-width:0.229232"
       sodipodi:nodetypes="cccccccccccccccccccccccccccccccccccccccccccccccccccccccccccccccccccccc" /><path
       fill="url(#_lgradient_1)"
       fill-rule="evenodd"
       d="m 35.620259,13.899902 h 5.15436 c 1.02465,-0.0022 2.04929,0.0089 3.07395,0.03063 0.9174,0.01731 1.83505,0.05016 2.75245,0.100322 0.8175,0.0435 1.63475,0.10676 2.44988,0.189548 0.72421,0.07435 1.44844,0.174455 2.16579,0.298749 0.64277,0.11142 1.27845,0.253026 1.90488,0.425262 0.5682,0.154923 1.12481,0.34669 1.6627,0.573526 0.50072,0.209302 0.98037,0.457889 1.43447,0.743542 0.43562,0.274778 0.84305,0.588841 1.21569,0.935532 0.37029,0.348909 0.70552,0.728449 0.99885,1.136177 0.30518,0.425261 0.57057,0.874494 0.79643,1.341039 0.24219,0.506052 0.44722,1.024979 0.61485,1.55478 0.18395,0.586622 0.33546,1.181899 0.45408,1.783835 0.13281,0.67163 0.23982,1.347698 0.31913,2.025765 0.0886,0.763296 0.15603,1.526592 0.20266,2.291886 0.0535,0.85696 0.0883,1.716139 0.10938,2.5731 0.0208,0.959502 0.0326,1.919005 0.0302,2.876287 v 5.680262 c 0.003,0.959503 -0.009,1.916786 -0.0302,2.876288 -0.0211,0.85918 -0.0559,1.71614 -0.10938,2.5731 -0.0467,0.765294 -0.11411,1.53081 -0.20266,2.291886 -0.0793,0.678066 -0.18632,1.356355 -0.31913,2.027985 -0.11862,0.599716 -0.27013,1.194994 -0.45408,1.781615 -0.16763,0.529801 -0.37266,1.050948 -0.61485,1.55478 -0.22586,0.468765 -0.49125,0.915779 -0.79643,1.34104 -0.29333,0.407728 -0.62856,0.789487 -0.99885,1.136177 -0.37264,0.346691 -0.78007,0.660754 -1.21569,0.935531 -0.4541,0.285653 -0.93375,0.534242 -1.43447,0.743543 -0.53789,0.226835 -1.0945,0.418603 -1.6627,0.575746 -0.62643,0.172235 -1.26211,0.313841 -1.90488,0.423042 -0.71735,0.126291 -1.44158,0.224394 -2.16579,0.298748 -0.81513,0.08279 -1.63238,0.146045 -2.44988,0.189549 -0.9174,0.05016 -1.83505,0.08301 -2.75245,0.102542 -1.02466,0.01953 -2.0493,0.03062 -3.07395,0.02841 h -17.5493 c -1.02465,0.0023 -2.0493,-0.0089 -3.073948,-0.02841 -0.91741,-0.01953 -1.83505,-0.05238 -2.75245,-0.102542 -0.8175,-0.0435 -1.63476,-0.106759 -2.44989,-0.189549 -0.72421,-0.07435 -1.44843,-0.172457 -2.16578,-0.298748 -0.64278,-0.109201 -1.27845,-0.250807 -1.90489,-0.423042 C 10.310166,56.140692 9.7535673,55.948924 9.215674,55.722089 8.714948,55.512788 8.235295,55.264199 7.781209,54.978546 7.345589,54.703769 6.938143,54.389706 6.565499,54.043015 6.195222,53.696325 5.859985,53.314566 5.566653,52.906838 5.261483,52.481577 4.996087,52.034563 4.770228,51.565798 4.528033,51.061966 4.323007,50.540819 4.155389,50.011018 3.971435,49.424397 3.819915,48.829119 3.701304,48.229403 3.568488,47.557773 3.461476,46.879484 3.382165,46.201418 3.293635,45.440341 3.226147,44.674826 3.179508,43.909532 3.126008,43.052572 3.091208,42.195612 3.07013,41.336431 3.04929,40.376929 3.03746,39.419647 3.03984,38.460143 V 25.539821 c -0.0024,-0.957282 0.0095,-1.916785 0.03029,-2.876287 0.02107,-0.856961 0.05587,-1.71614 0.109378,-2.5731 0.04665,-0.765294 0.114113,-1.52859 0.202657,-2.291886 0.07931,-0.678067 0.186323,-1.354135 0.319139,-2.025765 0.118611,-0.601936 0.270131,-1.197213 0.454085,-1.783835 0.167618,-0.529801 0.372644,-1.048728 0.614839,-1.55478 0.225859,-0.466545 0.491255,-0.915778 0.796425,-1.341039 0.293332,-0.407728 0.628569,-0.787268 0.998846,-1.1361773 0.372644,-0.346691 0.78009,-0.660754 1.21571,-0.935532 0.454086,-0.285652 0.933739,-0.534241 1.434465,-0.743546 0.5378933,-0.22683 1.094492,-0.4186 1.662687,-0.573519 0.62644,-0.172241 1.26211,-0.313841 1.90489,-0.425261 0.71735,-0.124299 1.44157,-0.224399 2.16578,-0.298749 0.81513,-0.0828 1.63239,-0.146051 2.44989,-0.18955 0.9174,-0.0502 1.83504,-0.083 2.75245,-0.10032 1.024648,-0.0218 2.049298,-0.0329 3.073948,-0.0306 h 5.15494 z"
       id="path6-1"
       style="isolation:isolate;fill:none;fill-opacity:1;stroke:#000000;stroke-width:1;stroke-dasharray:none;stroke-opacity:0.296232"
       sodipodi:nodetypes="cccccccccccccccccccccccccccccccccccccccccccccccccccccccccccccccccccccc" /><path
       style="isolation:isolate;fill:#000000;fill-opacity:1;stroke:none;stroke-width:0.229232;stroke-opacity:1"
       d="m 3.048137,39.23994 c -0.0013,-0.259667 -0.0086,-0.519396 -0.0078,-0.779297 v 0.5 c -5.52e-4,0.176527 0.0054,0.352891 0.0059,0.529297 2.31e-4,-0.0833 0.0015,-0.166672 0.002,-0.25 z"
       id="path11-5" /><path
       fill="url(#_lgradient_1)"
       fill-rule="evenodd"
       d="m 35.203449,14.877752 5.28459,-0.0043 c 0.98995,-0.0021 1.99949,0.0073 2.98945,0.02819 0.88633,0.01664 1.75064,0.04794 2.63697,0.09615 0.78982,0.04182 1.58534,0.06777 2.37287,0.147351 0.69968,0.07147 1.38452,0.138552 2.07758,0.258027 0.621,0.107102 1.19832,0.189182 1.80354,0.354741 0.54895,0.148917 1.07188,0.273878 1.59156,0.491922 0.48376,0.201187 1.03961,0.422885 1.45636,0.655559 0.42086,0.264127 0.83141,0.543431 1.19143,0.876683 0.35775,0.335387 0.69475,0.678706 0.97815,1.070628 0.29485,0.408778 0.56429,0.853076 0.7825,1.301536 0.23399,0.486437 0.41611,0.996211 0.57806,1.505476 0.17772,0.563883 0.30734,1.126772 0.42194,1.705376 0.12831,0.645596 0.2065,1.267856 0.28312,1.919638 0.0856,0.733708 0.14825,1.500675 0.1933,2.236304 0.0517,0.823742 0.0853,1.649615 0.10568,2.473358 0.0201,0.922309 0.0315,1.84462 0.0292,2.764795 v 5.46008 c 0.003,0.922309 -0.009,1.842485 -0.0292,2.764794 -0.0204,0.825875 -0.0324,1.647453 -0.0841,2.471197 -0.0451,0.735628 -0.0865,1.482966 -0.17208,2.21454 -0.0766,0.651783 -0.15012,1.324022 -0.27844,1.969618 -0.1146,0.576467 -0.22283,1.156078 -0.40055,1.71996 -0.16195,0.509263 -0.32507,1.070831 -0.55905,1.555133 -0.21821,0.450595 -0.45383,0.912045 -0.74867,1.320823 -0.2834,0.391922 -0.61924,0.790997 -0.97699,1.124248 -0.35999,0.333252 -0.82586,0.639622 -1.24673,0.903747 -0.43872,0.274581 -0.94817,0.486801 -1.43193,0.687989 -0.51968,0.218043 -1.05147,0.347538 -1.60042,0.49859 -0.60522,0.165559 -1.2191,0.269341 -1.8401,0.374309 -0.69306,0.121395 -1.41954,0.182572 -2.11923,0.254044 -0.78752,0.07958 -1.59541,0.121453 -2.38523,0.163273 -0.88633,0.04822 -1.7729,0.0798 -2.65923,0.09857 -0.98996,0.01877 -1.97989,0.02943 -2.96984,0.0273 h -16.95496 c -0.98995,0.0022 -1.9799,-0.0086 -2.96985,-0.0273 -0.886338,-0.01877 -1.790328,-0.04465 -2.676658,-0.09286 -0.78981,-0.04182 -1.60126,-0.0786 -2.38878,-0.158186 -0.69969,-0.07147 -1.38255,-0.141332 -2.07561,-0.262727 -0.62101,-0.104968 -1.29234,-0.194722 -1.89756,-0.360281 C 10.965581,55.314994 10.35038,55.126649 9.8307043,54.908607 9.346936,54.707419 8.848467,54.479784 8.40976,54.205203 7.988894,53.941078 7.567615,53.625856 7.207591,53.292604 6.849853,52.959353 6.512607,52.530089 6.229209,52.138167 5.934374,51.729389 5.751605,51.333895 5.533396,50.8833 5.299403,50.398998 5.152375,49.890501 4.990434,49.381238 4.81271,48.817356 4.714262,48.226511 4.599669,47.650044 4.471351,47.004448 4.390852,46.310384 4.314228,45.658601 4.228698,44.927027 4.185319,44.194931 4.14026,43.459303 4.08857,42.635558 4.07077,41.80994 4.0504,40.984064 4.03027,40.061755 4.01884,39.14158 4.02113,38.219271 v -12.4195 C 4.01883,24.879595 4.03033,23.957286 4.0504,23.034977 4.07075,22.211234 4.08511,21.379904 4.1368,20.556162 4.18187,19.820533 4.2205,19.086065 4.306047,18.352355 4.382677,17.700572 4.462036,17.040817 4.590354,16.39522 4.704947,15.816619 4.791705,15.236221 4.969429,14.672337 5.13137,14.163075 5.28448,13.645947 5.518473,13.159512 5.736682,12.71105 5.971405,12.226357 6.26624,11.81758 6.549638,11.425658 6.864179,11.037 7.221917,10.701617 7.581941,10.368364 8.020293,10.045662 8.441159,9.7815347 c 0.438707,-0.27458 0.938529,-0.499135 1.4222973,-0.700327 0.5196757,-0.218037 1.1069047,-0.380259 1.6558547,-0.529173 0.60522,-0.165565 1.22813,-0.257104 1.84914,-0.364205 0.69305,-0.119482 1.41239,-0.191539 2.11208,-0.263006 0.78752,-0.07959 1.57828,-0.123255 2.36809,-0.165069 0.88634,-0.04825 1.81819,-0.06203 2.704528,-0.07868 0.98995,-0.02096 1.9799,-0.03162 2.96985,-0.02941 l 4.45676,-0.0099 z"
       id="path12-5"
       style="isolation:isolate;fill:none;fill-opacity:1;stroke:url(#linearGradient13-5);stroke-width:0.963682;stroke-dasharray:none;opacity:0.5"
       sodipodi:nodetypes="ccccccccccccccccccccccccccccccccccccccccccccccccccccccccccccccccccccccc" /><path
       id="path2"
       style="isolation:isolate;mix-blend-mode:normal;fill:url(#linearGradient5);fill-opacity:1;stroke:none;stroke-width:0.229232;stroke-opacity:1;opacity:0.5"
       d="m 35.266889,14.253611 -6.88672,6.886719 c -5.1543,0 -11.862362,-0.14033 -15.595708,0.619141 v 0 C 19.000001,21 28.679999,22.14 28.679999,22.14 Z"
       sodipodi:nodetypes="cccccc" /><g
       id="g61"
       style="fill:#6b4ba0;fill-opacity:1"
       transform="matrix(1.5612829,0,0,1.5612829,18.859943,26.999239)"><path
         style="opacity:1;fill:#6b4ba0;fill-opacity:1"
         d="M 3,12 H 4 V 11 H 3 Z"
         id="path43" /><path
         style="opacity:1;fill:#6b4ba0;fill-opacity:1"
         d="M 3,13 V 12 H 2 v 1 z"
         id="path44" /><path
         style="opacity:1;fill:#6b4ba0;fill-opacity:1"
         d="M 3,14 H 4 V 13 H 3 Z"
         id="path45" /><path
         style="opacity:1;fill:#6b4ba0;fill-opacity:1"
         d="M 3,15 V 14 H 2 v 1 z"
         id="path46" /><path
         style="opacity:1;fill:#6b4ba0;fill-opacity:1"
         d="M 4,15 H 3 v 1 h 1 z"
         id="path47" /><path
         style="opacity:1;fill:#6b4ba0;fill-opacity:1"
         d="M 5,15 V 14 H 4 v 1 z"
         id="path48" /><path
         style="opacity:1;fill:#6b4ba0;fill-opacity:1"
         d="M 6,15 H 5 v 1 h 1 z"
         id="path49" /><path
         style="opacity:1;fill:#6b4ba0;fill-opacity:1"
         d="M 7,15 V 14 H 6 v 1 z"
         id="path50" /><path
         style="opacity:1;fill:#6b4ba0;fill-opacity:1"
         d="M 8,15 H 7 v 1 h 1 z"
         id="path51" /><path
         style="opacity:1;fill:#6b4ba0;fill-opacity:1"
         d="M 9,15 V 14 H 8 v 1 z"
         id="path52" /><path
         style="opacity:1;fill:#6b4ba0;fill-opacity:1"
         d="M 10,15 H 9 v 1 h 1 z"
         id="path53" /><path
         style="opacity:1;fill:#6b4ba0;fill-opacity:1"
         d="m 11,15 v -1 h -1 v 1 z"
         id="path54" /><path
         style="opacity:1;fill:#6b4ba0;fill-opacity:1"
         d="m 12,15 h -1 v 1 h 1 z"
         id="path55" /><path
         style="opacity:1;fill:#6b4ba0;fill-opacity:1"
         d="m 13,15 v 1 h 1 v -1 z"
         id="path56" /><path
         style="opacity:1;fill:#6b4ba0;fill-opacity:1"
         d="M 2,9 H 3 V 8 H 4 V 3 H 8 V 6.5083003 A 0.49896354,0.49896354 44.940554 0 0 8.4999989,7.0072628 L 12,7 v 6 h 1 v -1 h 1 c 10e-4,-0.145 -10e-4,-0.738 0,-1 V 8 6 L 9,1 H 2.5 C 2.2238576,1 2,1.2238576 2,1.5 Z"
         id="path57"
         sodipodi:nodetypes="cccccccccccccccccc" /><path
         style="opacity:1;fill:#6b4ba0;fill-opacity:1"
         d="M 3,10 H 4 V 9 H 3 Z"
         id="path58" /><path
         style="opacity:1;fill:#6b4ba0;fill-opacity:1"
         d="M 2,11 H 3 V 10 H 2 Z"
         id="path59" /><path
         style="opacity:1;fill:#6b4ba0;fill-opacity:1"
         d="m 13,15 v -1 h -1 v 1 z"
         id="path60" /><path
         style="opacity:1;fill:#6b4ba0;fill-opacity:1"
         d="m 14,14 v -1 h -1 v 1 z"
         id="path61" /></g><g
       id="g19"
       style="fill:#bfafda;fill-opacity:1"
       transform="matrix(1.5612829,0,0,1.5612829,20.16013,25.699446)"><path
         style="opacity:1;fill:#bfafda;fill-opacity:1"
         d="M 3,12 H 4 V 11 H 3 Z"
         id="path15" /><path
         style="opacity:1;fill:#bfafda;fill-opacity:1"
         d="M 3,13 V 12 H 2 v 1 z"
         id="path14" /><path
         style="opacity:1;fill:#bfafda;fill-opacity:1"
         d="M 3,14 H 4 V 13 H 3 Z"
         id="path13" /><path
         style="opacity:1;fill:#bfafda;fill-opacity:1"
         d="M 3,15 V 14 H 2 v 1 z"
         id="path12" /><path
         style="opacity:1;fill:#bfafda;fill-opacity:1"
         d="M 4,15 H 3 v 1 h 1 z"
         id="path11" /><path
         style="opacity:1;fill:#bfafda;fill-opacity:1"
         d="M 5,15 V 14 H 4 v 1 z"
         id="path10" /><path
         style="opacity:1;fill:#bfafda;fill-opacity:1"
         d="M 6,15 H 5 v 1 h 1 z"
         id="path9" /><path
         style="opacity:1;fill:#bfafda;fill-opacity:1"
         d="M 7,15 V 14 H 6 v 1 z"
         id="path8" /><path
         style="opacity:1;fill:#bfafda;fill-opacity:1"
         d="M 8,15 H 7 v 1 h 1 z"
         id="path7" /><path
         style="opacity:1;fill:#bfafda;fill-opacity:1"
         d="M 9,15 V 14 H 8 v 1 z"
         id="path6" /><path
         style="opacity:1;fill:#bfafda;fill-opacity:1"
         d="M 10,15 H 9 v 1 h 1 z"
         id="path4-6" /><path
         style="opacity:1;fill:#bfafda;fill-opacity:1"
         d="m 11,15 v -1 h -1 v 1 z"
         id="path3-0" /><path
         style="opacity:1;fill:#bfafda;fill-opacity:1"
         d="m 12,15 h -1 v 1 h 1 z"
         id="path2-6" /><path
         style="opacity:1;fill:#bfafda;fill-opacity:1"
         d="m 13,15 v 1 h 1 v -1 z"
         id="path1-2" /><path
         style="opacity:1;fill:#bfafda;fill-opacity:1"
         d="M 2,9 H 3 V 8 H 4 V 3 H 8 V 6.5083003 A 0.49896354,0.49896354 44.940554 0 0 8.4999989,7.0072628 L 12,7 v 6 h 1 v -1 h 1 c 10e-4,-0.145 -10e-4,-0.738 0,-1 V 8 6 L 9,1 H 2.5 C 2.2238576,1 2,1.2238576 2,1.5 Z"
         id="path5-6"
         sodipodi:nodetypes="cccccccccccccccccc" /><path
         style="opacity:1;fill:#bfafda;fill-opacity:1"
         d="M 3,10 H 4 V 9 H 3 Z"
         id="path16" /><path
         style="opacity:1;fill:#bfafda;fill-opacity:1"
         d="M 2,11 H 3 V 10 H 2 Z"
         id="path17" /><path
         style="opacity:1;fill:#bfafda;fill-opacity:1"
         d="m 13,15 v -1 h -1 v 1 z"
         id="path18" /><path
         style="opacity:1;fill:#bfafda;fill-opacity:1"
         d="m 14,14 v -1 h -1 v 1 z"
         id="path19" /></g></g></svg>
