<?xml version="1.0" encoding="UTF-8" standalone="no"?>
<!-- Created with Inkscape (http://www.inkscape.org/) -->

<svg
   width="64"
   height="64"
   viewBox="0 0 64 64"
   version="1.1"
   id="svg5"
   inkscape:version="1.3.2 (091e20ef0f, 2023-11-25, custom)"
   sodipodi:docname="folder-pictures.svg"
   xml:space="preserve"
   xmlns:inkscape="http://www.inkscape.org/namespaces/inkscape"
   xmlns:sodipodi="http://sodipodi.sourceforge.net/DTD/sodipodi-0.dtd"
   xmlns:xlink="http://www.w3.org/1999/xlink"
   xmlns="http://www.w3.org/2000/svg"
   xmlns:svg="http://www.w3.org/2000/svg"><sodipodi:namedview
     id="namedview7"
     pagecolor="#ffffff"
     bordercolor="#000000"
     borderopacity="0.25"
     inkscape:showpageshadow="2"
     inkscape:pageopacity="0.0"
     inkscape:pagecheckerboard="0"
     inkscape:deskcolor="#d1d1d1"
     inkscape:document-units="px"
     showgrid="true"
     inkscape:zoom="6.3598322"
     inkscape:cx="57.155596"
     inkscape:cy="32.390792"
     inkscape:window-width="1920"
     inkscape:window-height="1013"
     inkscape:window-x="1920"
     inkscape:window-y="36"
     inkscape:window-maximized="1"
     inkscape:current-layer="layer1"><inkscape:grid
       id="grid1"
       units="px"
       originx="0"
       originy="0"
       spacingx="1"
       spacingy="1"
       empcolor="#0099e5"
       empopacity="0.30196078"
       color="#0099e5"
       opacity="0.14902"
       empspacing="5"
       dotted="false"
       gridanglex="30"
       gridanglez="30"
       visible="true" /></sodipodi:namedview><defs
     id="defs2"><inkscape:path-effect
       effect="fillet_chamfer"
       id="path-effect15"
       is_visible="true"
       lpeversion="1"
       nodesatellites_param="F,0,0,1,0,0,0,1 @ F,0,0,1,0,0,0,1 @ F,0,0,1,0,0,0,1 @ F,0,1,1,0,5,0,1 @ F,0,1,1,0,5,0,1 @ F,0,0,1,0,0,0,1 @ F,0,0,1,0,0,0,1"
       radius="5"
       unit="px"
       method="auto"
       mode="F"
       chamfer_steps="1"
       flexible="false"
       use_knot_distance="true"
       apply_no_radius="true"
       apply_with_radius="true"
       only_selected="true"
       hide_knots="false" /><inkscape:path-effect
       effect="fillet_chamfer"
       id="path-effect14"
       is_visible="true"
       lpeversion="1"
       nodesatellites_param="F,0,0,1,0,0,0,1 @ F,0,0,1,0,0,0,1 @ F,0,0,1,0,0,0,1 @ F,0,0,1,0,0,0,1 @ F,0,0,1,0,0,0,1 @ F,0,0,1,0,0,0,1 @ F,0,0,1,0,0,0,1 @ F,0,0,1,0,0,0,1 @ F,0,0,1,0,0,0,1 @ F,0,0,1,0,0,0,1 @ F,0,0,1,0,0,0,1 @ F,0,1,1,0,5,0,1 @ F,0,0,1,0,0,0,1 @ F,0,0,1,0,0,0,1 @ F,0,0,1,0,0,0,1 @ F,0,0,1,0,0,0,1"
       radius="5"
       unit="px"
       method="auto"
       mode="F"
       chamfer_steps="1"
       flexible="false"
       use_knot_distance="true"
       apply_no_radius="true"
       apply_with_radius="true"
       only_selected="true"
       hide_knots="false" /><inkscape:path-effect
       effect="fillet_chamfer"
       id="path-effect1"
       is_visible="true"
       lpeversion="1"
       nodesatellites_param="F,0,1,1,0,40,0,1 @ F,0,0,1,0,0,0,1 @ F,0,0,1,0,0,0,1 @ F,0,0,1,0,0,0,1 @ F,0,0,1,0,0,0,1 @ F,0,0,1,0,0,0,1 @ F,0,0,1,0,0,0,1 @ F,0,0,1,0,0,0,1 @ F,0,0,1,0,0,0,1 @ F,0,0,1,0,0,0,1 @ F,0,0,1,0,0,0,1 @ F,0,0,1,0,0,0,1 @ F,0,0,1,0,0,0,1 @ F,0,0,1,0,0,0,1"
       radius="40"
       unit="px"
       method="auto"
       mode="F"
       chamfer_steps="1"
       flexible="false"
       use_knot_distance="true"
       apply_no_radius="true"
       apply_with_radius="true"
       only_selected="true"
       hide_knots="false" /><linearGradient
       y2="11.02436"
       y1="3.0069399"
       x2="0"
       id="linearGradient1022-8-8-3-0-06-59"
       gradientUnits="userSpaceOnUse"><stop
         id="stop3001-0-9-4-9-02"
         offset="0" /><stop
         id="stop3003-5-6-6-5-70"
         stop-color="#363636"
         offset="1" /></linearGradient><linearGradient
       inkscape:collect="always"
       xlink:href="#linearGradient1022-8-8-3-0-06-59"
       id="linearGradient3058"
       gradientUnits="userSpaceOnUse"
       gradientTransform="matrix(1.3439926,0,0,1.2077771,-297.98001,-832.20823)"
       x1="213.08154"
       y1="7.8809905"
       x2="213.08154"
       y2="21.128468" /><linearGradient
       inkscape:collect="always"
       xlink:href="#linearGradient1022-8-8-3-0-06-59-9"
       id="linearGradient3058-5"
       gradientUnits="userSpaceOnUse"
       gradientTransform="matrix(1.3439926,0,0,1.2077771,-281.98001,-832.20823)"
       x1="213.08154"
       y1="7.8809905"
       x2="213.08154"
       y2="21.128468" /><linearGradient
       y2="11.02436"
       y1="3.0069399"
       x2="0"
       id="linearGradient1022-8-8-3-0-06-59-9"
       gradientUnits="userSpaceOnUse"><stop
         id="stop3001-0-9-4-9-02-6"
         offset="0" /><stop
         id="stop3003-5-6-6-5-70-0"
         stop-color="#363636"
         offset="1" /></linearGradient><linearGradient
       y2="7.0165396"
       x2="45.447727"
       y1="92.539597"
       x1="45.447727"
       gradientTransform="scale(1.0058652,0.994169)"
       gradientUnits="userSpaceOnUse"
       id="linearGradient4049-3"
       xlink:href="#ButtonShadow-3-6"
       inkscape:collect="always" /><filter
       id="filter3174-34-6"
       color-interpolation-filters="sRGB"><feGaussianBlur
         stdDeviation="1.71"
         id="feGaussianBlur3176-32-5" /></filter><linearGradient
       gradientTransform="scale(1.0058652,0.994169)"
       gradientUnits="userSpaceOnUse"
       id="ButtonShadow-3-6"
       y2="7.0165396"
       x2="45.447727"
       y1="92.539597"
       x1="45.447727"><stop
         offset="0"
         style="stop-color:#000000;stop-opacity:1"
         id="stop3750-41-9" /><stop
         offset="1"
         style="stop-color:#000000;stop-opacity:0.58823532"
         id="stop3752-4-1" /></linearGradient><filter
       id="filter3174-2-0-6"
       color-interpolation-filters="sRGB"><feGaussianBlur
         stdDeviation="1.71"
         id="feGaussianBlur3176-1-0-3" /></filter><filter
       color-interpolation-filters="sRGB"
       id="filter3174-4-7-8"><feGaussianBlur
         id="feGaussianBlur3176-2-4-0"
         stdDeviation="1.71" /></filter><filter
       id="filter3174-44-5"
       color-interpolation-filters="sRGB"><feGaussianBlur
         stdDeviation="1.71"
         id="feGaussianBlur3176-3-3" /></filter><filter
       id="filter3174-2-2-0"
       color-interpolation-filters="sRGB"><feGaussianBlur
         stdDeviation="1.71"
         id="feGaussianBlur3176-1-3-6" /></filter><filter
       color-interpolation-filters="sRGB"
       id="filter3174-4-4-7"><feGaussianBlur
         id="feGaussianBlur3176-2-3-8"
         stdDeviation="1.71" /></filter><linearGradient
       y2="22.113136"
       x2="9.8763561"
       y1="2.6014566"
       x1="9.8763561"
       gradientTransform="matrix(1.9111661,0,0,1.9298341,1.3337251,-0.28635201)"
       gradientUnits="userSpaceOnUse"
       id="linearGradient4979-4"
       xlink:href="#linearGradient5157-7"
       inkscape:collect="always" /><linearGradient
       y2="36.607079"
       x2="-28.531403"
       y1="17.955765"
       x1="-28.531403"
       gradientTransform="matrix(1.9111661,0,0,1.9298341,67.0358,-28.2715)"
       gradientUnits="userSpaceOnUse"
       id="linearGradient4977-4"
       xlink:href="#linearGradient11111-3"
       inkscape:collect="always" /><linearGradient
       y2="4.3030405"
       x2="9.7045717"
       y1="20.882006"
       x1="9.7045717"
       gradientTransform="matrix(1.887725,0,0,1.9135761,0.69595624,3.033457)"
       gradientUnits="userSpaceOnUse"
       id="linearGradient4974-7"
       xlink:href="#linearGradient3390-2"
       inkscape:collect="always" /><radialGradient
       r="11.268134"
       fy="8.5608768"
       fx="7.8185525"
       cy="8.5608768"
       cx="7.8185525"
       gradientTransform="matrix(3.2075645,0,0,2.0079171,-9.0023714,1.5788615)"
       gradientUnits="userSpaceOnUse"
       id="radialGradient4972-5"
       xlink:href="#linearGradient7012-661-145-733-759-865-745-4"
       inkscape:collect="always" /><radialGradient
       r="10.273108"
       fy="5.5926585"
       fx="4.02005"
       cy="5.5926585"
       cx="4.02005"
       gradientTransform="matrix(-6.6378207e-8,2.4796237,-3.4102775,-0.00103325,27.453784,3.7547958)"
       gradientUnits="userSpaceOnUse"
       id="radialGradient4969-3"
       xlink:href="#linearGradient921-8"
       inkscape:collect="always" /><linearGradient
       y2="24.627615"
       x2="20.054544"
       y1="16.407909"
       x1="18.03083"
       gradientTransform="matrix(0.8538712,0,0,0.79298395,6.253477,6.4875963)"
       gradientUnits="userSpaceOnUse"
       id="linearGradient4966-0"
       xlink:href="#linearGradient8265-821-176-38-919-66-249-7"
       inkscape:collect="always" /><radialGradient
       r="117.14286"
       fy="486.64789"
       fx="605.71429"
       cy="486.64789"
       cx="605.71429"
       gradientTransform="matrix(-0.06214224,0,0,0.02900085,46.53201,28.085503)"
       gradientUnits="userSpaceOnUse"
       id="radialGradient3131-4"
       xlink:href="#linearGradient5060-3"
       inkscape:collect="always" /><radialGradient
       r="117.14286"
       fy="486.64789"
       fx="605.71429"
       cy="486.64789"
       cx="605.71429"
       gradientTransform="matrix(0.06214224,0,0,0.02900085,1.6365015,28.085503)"
       gradientUnits="userSpaceOnUse"
       id="radialGradient3129-3"
       xlink:href="#linearGradient5060-3"
       inkscape:collect="always" /><linearGradient
       y2="609.50507"
       x2="302.85715"
       y1="366.64789"
       x1="302.85715"
       gradientTransform="matrix(0.06214224,0,0,0.02900085,1.6242719,28.085503)"
       gradientUnits="userSpaceOnUse"
       id="linearGradient3127-7"
       xlink:href="#linearGradient5048-1"
       inkscape:collect="always" /><linearGradient
       id="linearGradient5048-1"><stop
         offset="0"
         style="stop-color:#000000;stop-opacity:0"
         id="stop5050-4" /><stop
         offset="0.5"
         style="stop-color:#000000;stop-opacity:1"
         id="stop5056-7" /><stop
         offset="1"
         style="stop-color:#000000;stop-opacity:0"
         id="stop5052-5" /></linearGradient><linearGradient
       id="linearGradient5060-3"><stop
         offset="0"
         style="stop-color:#000000;stop-opacity:1"
         id="stop5062-2" /><stop
         offset="1"
         style="stop-color:#000000;stop-opacity:0"
         id="stop5064-9" /></linearGradient><linearGradient
       id="linearGradient11111-3"><stop
         offset="0"
         style="stop-color:#ffffff;stop-opacity:1"
         id="stop11113-7" /><stop
         offset="0.91013825"
         style="stop-color:#cdcdcd;stop-opacity:1"
         id="stop11115-8" /><stop
         offset="1"
         style="stop-color:#a1a1a1;stop-opacity:1"
         id="stop11117-5" /></linearGradient><linearGradient
       id="linearGradient5157-7"><stop
         offset="0"
         style="stop-color:#b5b5b5;stop-opacity:1;"
         id="stop5159-0" /><stop
         offset="1"
         style="stop-color:#5d5d5d;stop-opacity:1;"
         id="stop5161-0" /></linearGradient><linearGradient
       id="linearGradient7012-661-145-733-759-865-745-4"><stop
         offset="0"
         style="stop-color:#9cbbd9;stop-opacity:1"
         id="stop2699-8" /><stop
         offset="1"
         style="stop-color:#5c82ab;stop-opacity:1"
         id="stop2701-7" /></linearGradient><linearGradient
       id="linearGradient3390-2"><stop
         offset="0"
         style="stop-color:#344960;stop-opacity:1;"
         id="stop3392-7" /><stop
         offset="1"
         style="stop-color:#5e778e;stop-opacity:1;"
         id="stop3394-0" /></linearGradient><linearGradient
       id="linearGradient8265-821-176-38-919-66-249-7"><stop
         offset="0"
         style="stop-color:#ffffff;stop-opacity:1"
         id="stop2687-8" /><stop
         offset="1"
         style="stop-color:#ffffff;stop-opacity:0"
         id="stop2689-1" /></linearGradient><linearGradient
       id="linearGradient921-8"><stop
         id="stop923-9"
         style="stop-color:#ffffff;stop-opacity:1"
         offset="0" /><stop
         id="stop925-7"
         style="stop-color:#ffffff;stop-opacity:1"
         offset="0.69999999" /><stop
         id="stop927-1"
         style="stop-color:#ffffff;stop-opacity:0"
         offset="1" /></linearGradient><linearGradient
       inkscape:collect="always"
       xlink:href="#linearGradient8265-821-176-38-919-66-249-7"
       id="linearGradient3295"
       gradientUnits="userSpaceOnUse"
       gradientTransform="matrix(0.8538712,0,0,0.79298395,3.3382354,-19.493595)"
       x1="18.03083"
       y1="16.407909"
       x2="20.054544"
       y2="24.627615" /><radialGradient
       inkscape:collect="always"
       xlink:href="#linearGradient921-8"
       id="radialGradient3298"
       gradientUnits="userSpaceOnUse"
       gradientTransform="matrix(-6.6378207e-8,2.4796237,-3.4102775,-0.00103325,24.538542,-22.226395)"
       cx="4.02005"
       cy="5.5926585"
       fx="4.02005"
       fy="5.5926585"
       r="10.273108" /><radialGradient
       inkscape:collect="always"
       xlink:href="#linearGradient7012-661-145-733-759-865-745-4"
       id="radialGradient3301"
       gradientUnits="userSpaceOnUse"
       gradientTransform="matrix(3.2075645,0,0,2.0079171,-11.917613,-24.402329)"
       cx="7.8185525"
       cy="8.5608768"
       fx="7.8185525"
       fy="8.5608768"
       r="11.268134" /><linearGradient
       inkscape:collect="always"
       xlink:href="#linearGradient3390-2"
       id="linearGradient3303"
       gradientUnits="userSpaceOnUse"
       gradientTransform="matrix(1.887725,0,0,1.9135761,-2.2192854,-22.947734)"
       x1="9.7045717"
       y1="20.882006"
       x2="9.7045717"
       y2="4.3030405" /><linearGradient
       inkscape:collect="always"
       xlink:href="#linearGradient11111-3"
       id="linearGradient3306"
       gradientUnits="userSpaceOnUse"
       gradientTransform="matrix(1.9111661,0,0,1.9298341,64.120558,-54.252691)"
       x1="-28.531403"
       y1="17.955765"
       x2="-28.531403"
       y2="36.607079" /><linearGradient
       inkscape:collect="always"
       xlink:href="#linearGradient5157-7"
       id="linearGradient3308"
       gradientUnits="userSpaceOnUse"
       gradientTransform="matrix(1.9111661,0,0,1.9298341,-1.5815165,-26.267543)"
       x1="9.8763561"
       y1="2.6014566"
       x2="9.8763561"
       y2="22.113136" /><linearGradient
       y2="11.02436"
       y1="3.0069399"
       x2="0"
       id="linearGradient1022-8-8-3-0-06-59-9-0"
       gradientUnits="userSpaceOnUse"><stop
         id="stop3001-0-9-4-9-02-6-1"
         offset="0" /><stop
         id="stop3003-5-6-6-5-70-0-7"
         stop-color="#363636"
         offset="1" /></linearGradient><inkscape:path-effect
       effect="fillet_chamfer"
       id="path-effect1-3"
       is_visible="true"
       lpeversion="1"
       nodesatellites_param="F,0,0,1,0,0,0,1 @ F,0,1,1,0,14,0,1 @ F,0,1,1,0,14,0,1 @ F,0,0,1,0,0,0,1 @ F,0,1,1,0,14,0,1 @ F,0,1,1,0,14,0,1 @ F,0,1,1,0,14,0,1"
       radius="15"
       unit="px"
       method="auto"
       mode="F"
       chamfer_steps="1"
       flexible="false"
       use_knot_distance="true"
       apply_no_radius="true"
       apply_with_radius="true"
       only_selected="true"
       hide_knots="false" /><linearGradient
       y2="11.02436"
       y1="3.0069399"
       x2="0"
       id="linearGradient1022-8-8-3-0-06-59-9-5"
       gradientUnits="userSpaceOnUse"><stop
         id="stop3001-0-9-4-9-02-6-6"
         offset="0" /><stop
         id="stop3003-5-6-6-5-70-0-2"
         stop-color="#363636"
         offset="1" /></linearGradient><linearGradient
       inkscape:collect="always"
       xlink:href="#linearGradient1022-8-8-3-0-06-59-9-5"
       id="linearGradient3075"
       gradientUnits="userSpaceOnUse"
       gradientTransform="matrix(1.3439926,0,0,1.2077771,-278.98001,-832.20823)"
       x1="213.08154"
       y1="7.8809905"
       x2="213.08154"
       y2="21.128468" /><linearGradient
       inkscape:collect="always"
       xlink:href="#linearGradient1022-8-8-3-0-06-59-9-3"
       id="linearGradient3058-5-0"
       gradientUnits="userSpaceOnUse"
       gradientTransform="matrix(0.89599507,0,0,0.80518473,-196.32001,-552.80544)"
       x1="213.08154"
       y1="7.8809905"
       x2="213.08154"
       y2="21.128468" /><linearGradient
       y2="11.02436"
       y1="3.0069399"
       x2="0"
       id="linearGradient1022-8-8-3-0-06-59-9-3"
       gradientUnits="userSpaceOnUse"><stop
         id="stop3001-0-9-4-9-02-6-0"
         offset="0" /><stop
         id="stop3003-5-6-6-5-70-0-4"
         stop-color="#363636"
         offset="1" /></linearGradient><linearGradient
       inkscape:collect="always"
       xlink:href="#linearGradient1022-8-8-3-0-06-59-9-5"
       id="linearGradient3116"
       gradientUnits="userSpaceOnUse"
       gradientTransform="matrix(1.3439926,0,0,1.2077771,-297.93582,-832.05918)"
       x1="213.08154"
       y1="7.8809905"
       x2="213.08154"
       y2="21.128468" /><linearGradient
       inkscape:collect="always"
       xlink:href="#linearGradient1022-8-8-3-0-06-59-9-3"
       id="linearGradient3124"
       gradientUnits="userSpaceOnUse"
       gradientTransform="matrix(0.89599507,0,0,0.80518473,-196.32001,-556.80544)"
       x1="213.08154"
       y1="7.8809905"
       x2="213.08154"
       y2="21.128468" /><linearGradient
       inkscape:collect="always"
       xlink:href="#linearGradient1022-8-8-3-0-06-59-9-3"
       id="linearGradient3144"
       gradientUnits="userSpaceOnUse"
       gradientTransform="matrix(1.3439926,0,0,1.2077771,-297.98001,-837.20816)"
       x1="213.08154"
       y1="7.8809905"
       x2="213.08154"
       y2="21.128468" /><linearGradient
       y2="11.02436"
       y1="3.0069399"
       x2="0"
       id="linearGradient1022-8-8-3-0-06-59-9-7"
       gradientUnits="userSpaceOnUse"><stop
         id="stop3001-0-9-4-9-02-6-2"
         offset="0" /><stop
         id="stop3003-5-6-6-5-70-0-3"
         stop-color="#363636"
         offset="1" /></linearGradient><inkscape:path-effect
       effect="fillet_chamfer"
       id="path-effect19301"
       is_visible="true"
       lpeversion="1"
       nodesatellites_param="F,0,0,1,0,0,0,1 @ F,0,1,1,0,0.5,0,1 @ F,0,0,1,0,0,0,1 @ F,0,1,1,0,0.5,0,1 @ F,0,0,1,0,0,0,1 | F,0,0,1,0,0,0,1 @ F,0,0,1,0,0,0,1 @ F,0,0,1,0,0,0,1 @ F,0,0,1,0,0,0,1"
       unit="px"
       method="auto"
       mode="F"
       radius="0.5"
       chamfer_steps="1"
       flexible="false"
       use_knot_distance="true"
       apply_no_radius="true"
       apply_with_radius="true"
       only_selected="true"
       hide_knots="false" /><style
       id="current-color-scheme"
       type="text/css">.ColorScheme-Text { color:#dedede; } .ColorScheme-Text { color:#dedede; }</style><filter
       inkscape:collect="always"
       style="color-interpolation-filters:sRGB"
       id="filter12"
       x="-0.017995653"
       y="-0.033029687"
       width="1.0359913"
       height="1.0660594"><feGaussianBlur
         inkscape:collect="always"
         stdDeviation="0.23976628"
         id="feGaussianBlur12" /></filter><linearGradient
       inkscape:collect="always"
       xlink:href="#linearGradient6"
       id="linearGradient8"
       x1="0"
       y1="0"
       x2="64"
       y2="64"
       gradientUnits="userSpaceOnUse"
       gradientTransform="translate(0.15544,-0.011018)" /><linearGradient
       id="linearGradient6"
       inkscape:collect="always"><stop
         style="stop-color:#9477bb;stop-opacity:1;"
         offset="0"
         id="stop7" /><stop
         style="stop-color:#9274ba;stop-opacity:1;"
         offset="1"
         id="stop9" /></linearGradient><linearGradient
       inkscape:collect="always"
       xlink:href="#linearGradient12"
       id="linearGradient13"
       x1="-63.829453"
       y1="32.006756"
       x2="-6.9064422"
       y2="32.006756"
       gradientUnits="userSpaceOnUse"
       gradientTransform="translate(67.52389,-0.013265)" /><linearGradient
       id="linearGradient12"
       inkscape:collect="always"><stop
         style="stop-color:#ffffff;stop-opacity:0;"
         offset="0"
         id="stop12" /><stop
         style="stop-color:#ffffff;stop-opacity:0.3"
         offset="0.09748957"
         id="stop14" /><stop
         style="stop-color:#ffffff;stop-opacity:0;"
         offset="0.1993918"
         id="stop15" /><stop
         style="stop-color:#ffffff;stop-opacity:0;"
         offset="0.50489056"
         id="stop16" /><stop
         style="stop-color:#ffffff;stop-opacity:0;"
         offset="0.80300045"
         id="stop19" /><stop
         style="stop-color:#ffffff;stop-opacity:0.302"
         offset="0.89696491"
         id="stop18" /><stop
         style="stop-color:#ffffff;stop-opacity:0;"
         offset="1"
         id="stop13" /></linearGradient><linearGradient
       inkscape:collect="always"
       xlink:href="#linearGradient3"
       id="linearGradient5"
       x1="12.78446"
       y1="18.196804"
       x2="35.266891"
       y2="18.196804"
       gradientUnits="userSpaceOnUse"
       gradientTransform="translate(0.15544,-0.011018)" /><linearGradient
       id="linearGradient3"
       inkscape:collect="always"><stop
         style="stop-color:#ffffff;stop-opacity:0;"
         offset="0"
         id="stop4" /><stop
         style="stop-color:#ffffff;stop-opacity:0.30240488;"
         offset="0.69896251"
         id="stop6" /><stop
         style="stop-color:#ffffff;stop-opacity:0;"
         offset="1"
         id="stop5" /></linearGradient></defs><g
     inkscape:label="Layer 1"
     inkscape:groupmode="layer"
     id="layer1"><path
       fill="url(#_lgradient_1)"
       fill-rule="evenodd"
       d="m 35.7757,13.888884 h 5.15436 c 1.02465,-0.0022 2.04929,0.0089 3.07395,0.03063 0.9174,0.01731 1.83505,0.05016 2.75245,0.100322 0.8175,0.0435 1.63475,0.10676 2.44988,0.189548 0.72421,0.07435 1.44844,0.174455 2.16579,0.298749 0.64277,0.11142 1.27845,0.253026 1.90488,0.425262 0.5682,0.154923 1.12481,0.34669 1.6627,0.573526 0.50072,0.209302 0.98037,0.457889 1.43447,0.743542 0.43562,0.274778 0.84305,0.588841 1.21569,0.935532 0.37029,0.348909 0.70552,0.728449 0.99885,1.136177 0.30518,0.425261 0.57057,0.874494 0.79643,1.341039 0.24219,0.506052 0.44722,1.024979 0.61485,1.55478 0.18395,0.586622 0.33546,1.181899 0.45408,1.783835 0.13281,0.67163 0.23982,1.347698 0.31913,2.025765 0.0886,0.763296 0.15603,1.526592 0.20266,2.291886 0.0535,0.85696 0.0883,1.716139 0.10938,2.5731 0.0208,0.959502 0.0326,1.919005 0.0302,2.876287 v 5.680262 c 0.003,0.959503 -0.009,1.916786 -0.0302,2.876288 -0.0211,0.85918 -0.0559,1.71614 -0.10938,2.5731 -0.0467,0.765294 -0.11411,1.53081 -0.20266,2.291886 -0.0793,0.678066 -0.18632,1.356355 -0.31913,2.027985 C 60.33546,48.818101 60.18395,49.413379 60,50 c -0.16763,0.529801 -0.37266,1.050948 -0.61485,1.55478 -0.22586,0.468765 -0.49125,0.915779 -0.79643,1.34104 -0.29333,0.407728 -0.62856,0.789487 -0.99885,1.136177 -0.37264,0.346691 -0.78007,0.660754 -1.21569,0.935531 -0.4541,0.285653 -0.93375,0.534242 -1.43447,0.743543 -0.53789,0.226835 -1.0945,0.418603 -1.6627,0.575746 -0.62643,0.172235 -1.26211,0.313841 -1.90488,0.423042 -0.71735,0.126291 -1.44158,0.224394 -2.16579,0.298748 -0.81513,0.08279 -1.63238,0.146045 -2.44988,0.189549 -0.9174,0.05016 -1.83505,0.08301 -2.75245,0.102542 -1.02466,0.01953 -2.0493,0.03062 -3.07395,0.02841 h -17.5493 c -1.02465,0.0023 -2.0493,-0.0089 -3.07395,-0.02841 -0.91741,-0.01953 -1.83505,-0.05238 -2.75245,-0.102542 -0.8175,-0.0435 -1.63476,-0.106759 -2.44989,-0.189549 C 14.38026,56.934257 13.65604,56.83615 12.93869,56.709859 12.29591,56.600658 11.66024,56.459052 11.0338,56.286817 10.465605,56.129674 9.909005,55.937906 9.371112,55.711071 8.870386,55.50177 8.390733,55.253181 7.936647,54.967528 7.501027,54.692751 7.093582,54.378688 6.720938,54.031997 6.350661,53.685307 6.015424,53.303548 5.722092,52.89582 5.416922,52.470559 5.151526,52.023545 4.925667,51.55478 4.683472,51.050948 4.478446,50.529801 4.310828,50 4.126874,49.413379 3.975354,48.818101 3.856743,48.218385 3.723927,47.546755 3.616915,46.868466 3.537604,46.1904 3.449074,45.429324 3.381586,44.663808 3.334947,43.898514 c -0.0535,-0.85696 -0.0883,-1.71392 -0.109378,-2.5731 -0.02084,-0.959502 -0.03267,-1.916785 -0.03029,-2.876288 V 25.528803 c -0.0024,-0.957282 0.0095,-1.916785 0.03029,-2.876287 0.02107,-0.856961 0.05587,-1.71614 0.109378,-2.5731 0.04665,-0.765294 0.114113,-1.52859 0.202657,-2.291886 0.07931,-0.678067 0.186323,-1.354135 0.319139,-2.025765 C 3.975354,15.159829 4.126874,14.564552 4.310828,13.97793 4.478446,13.448129 4.683472,12.929202 4.925667,12.42315 5.151526,11.956605 5.416922,11.507372 5.722092,11.082111 6.015424,10.674383 6.350661,10.294843 6.720938,9.945934 7.093582,9.599243 7.501027,9.28518 7.936647,9.010402 8.390733,8.72475 8.870386,8.476161 9.371112,8.266856 c 0.537893,-0.22683 1.094493,-0.4186 1.662688,-0.573519 0.62644,-0.172241 1.26211,-0.313841 1.90489,-0.425261 0.71735,-0.124299 1.44157,-0.224399 2.16578,-0.298749 0.81513,-0.0828 1.63239,-0.146051 2.44989,-0.18955 0.9174,-0.0502 1.83504,-0.083 2.75245,-0.10032 1.02465,-0.0218 2.0493,-0.0329 3.07395,-0.0306 h 5.15494"
       id="path9"
       style="isolation:isolate;fill:#6a4b9f;fill-opacity:1;stroke-width:0.229232"
       sodipodi:nodetypes="cccccccccccccccccccccccccccccccccccccccccccccccccccccccccccccccccccccc" /><path
       id="path8"
       style="isolation:isolate;mix-blend-mode:normal;fill:#000000;fill-opacity:1;stroke:none;stroke-width:0.229232;stroke-opacity:1;filter:url(#filter12)"
       d="m 35.42233,14.242593 -6.88672,6.886719 h -5.1543 c -1.02465,-0.0022 -2.04956,0.0095 -3.07422,0.03125 -0.9174,0.01731 -1.83455,0.04945 -2.75195,0.09961 -0.8175,0.0435 -1.63409,0.106665 -2.44922,0.189453 -0.72421,0.07435 -1.44867,0.174534 -2.16602,0.298828 -0.64276,0.11142 -1.27982,0.253545 -1.90625,0.425781 C 10.465455,22.329157 9.909435,22.519664 9.371544,22.7465 8.870828,22.9558 8.39205,23.20499 7.93795,23.49064 7.502333,23.765418 7.093792,24.079497 6.721154,24.426187 6.350866,24.775096 6.016434,25.155179 5.723107,25.562906 5.417927,25.988165 5.152091,26.436205 4.926232,26.90275 4.684043,27.408799 4.478628,27.927639 4.310997,28.457437 4.12705,29.044059 3.976493,29.640659 3.857872,30.242593 3.797252,30.549179 3.74377,30.856349 3.69381,31.164468 v 0.5 C 3.74377,31.356349 3.797248,31.049179 3.857872,30.742593 3.976493,30.140659 4.12705,29.546012 4.310997,28.95939 4.478628,28.429592 4.684043,27.910752 4.926232,27.404703 5.152091,26.938158 5.417927,26.488165 5.723107,26.062906 6.016434,25.655179 6.350865,25.275096 6.721154,24.926187 7.093792,24.579497 7.502333,24.265418 7.93795,23.99064 8.39205,23.70499 8.870828,23.4558 9.371544,23.2465 c 0.53789,-0.226836 1.093911,-0.417343 1.662106,-0.572266 0.62643,-0.172236 1.26349,-0.314361 1.90625,-0.425781 0.71735,-0.124294 1.44181,-0.224478 2.16602,-0.298828 0.81513,-0.08279 1.63172,-0.145955 2.44922,-0.189453 0.9174,-0.05016 1.83455,-0.0823 2.75195,-0.09961 1.02466,-0.02173 2.04957,-0.03345 3.07422,-0.03125 h 5.1543 l 7.13476,-7.134766 z" /><path
       fill="url(#_lgradient_1)"
       fill-rule="evenodd"
       d="m 28.5357,21.128912 h -5.15436 c -1.02465,-0.0022 -2.04929,0.0089 -3.07395,0.03063 -0.9174,0.01731 -1.83505,0.05016 -2.75245,0.100322 -0.8175,0.0435 -1.63475,0.10676 -2.44988,0.189548 -0.72421,0.07435 -1.44844,0.174455 -2.16579,0.298749 -0.64277,0.11142 -1.27845,0.253026 -1.90488,0.425262 -0.568199,0.154923 -1.124809,0.34669 -1.662699,0.573526 -0.50072,0.209302 -0.98037,0.457889 -1.43447,0.743542 -0.43562,0.274778 -0.84305,0.588841 -1.21569,0.935532 -0.37029,0.348909 -0.70552,0.728449 -0.99885,1.136177 -0.30518,0.425261 -0.57057,0.874494 -0.79643,1.341039 -0.24219,0.506052 -0.44722,1.024979 -0.61485,1.55478 -0.18395,0.586622 -0.33546,1.181899 -0.45408,1.783835 -0.13281,0.67163 -0.23982,1.347698 -0.31913,2.025765 -0.0886,0.763296 -0.15603,1.526592 -0.20266,2.291886 -0.0535,0.85696 -0.0883,1.716139 -0.10938,2.5731 -0.0208,0.959502 -0.0326,1.919005 -0.0302,2.876287 v -1.559297 c -0.003,0.959503 0.009,1.916786 0.0302,2.876288 0.0211,0.85918 0.0559,1.71614 0.10938,2.5731 0.0467,0.765294 0.11411,1.53081 0.20266,2.291886 0.0793,0.678066 0.18632,1.356355 0.31913,2.027985 0.11862,0.599716 0.27013,1.194994 0.45408,1.781615 0.16763,0.529801 0.37266,1.050948 0.61485,1.55478 0.22586,0.468765 0.49125,0.915779 0.79643,1.34104 0.29333,0.407728 0.62856,0.789487 0.99885,1.136177 0.37264,0.346691 0.78007,0.660754 1.21569,0.935531 0.4541,0.285653 0.93375,0.534242 1.43447,0.743543 0.53789,0.226835 1.0945,0.418603 1.662699,0.575746 0.62643,0.172235 1.26211,0.313841 1.90488,0.423042 0.71735,0.126291 1.44158,0.224394 2.16579,0.298748 0.81513,0.08279 1.63238,0.146045 2.44988,0.189549 0.9174,0.05016 1.83505,0.08301 2.75245,0.102542 1.02466,0.01953 2.0493,0.03062 3.07395,0.02841 h 17.5493 c 1.02465,0.0023 2.0493,-0.0089 3.07395,-0.02841 0.91741,-0.01953 1.83505,-0.05238 2.75245,-0.102542 0.8175,-0.0435 1.63476,-0.106759 2.44989,-0.189549 0.72421,-0.07435 1.44843,-0.172457 2.16578,-0.298748 0.64278,-0.109201 1.27845,-0.250807 1.90489,-0.423042 0.5682,-0.157143 1.1248,-0.348911 1.66269,-0.575746 0.50073,-0.209301 0.98038,-0.45789 1.43446,-0.743543 0.43562,-0.274777 0.84307,-0.58884 1.21571,-0.935531 0.37028,-0.34669 0.70552,-0.728449 0.99885,-1.136177 0.30517,-0.425261 0.57057,-0.872275 0.79643,-1.34104 0.24219,-0.503832 0.44722,-1.024979 0.61483,-1.55478 0.18396,-0.586621 0.33548,-1.181899 0.45409,-1.781615 0.13282,-0.67163 0.23983,-1.349919 0.31914,-2.027985 0.0885,-0.761076 0.15602,-1.526592 0.20266,-2.291886 0.0535,-0.85696 0.0883,-1.71392 0.10937,-2.5731 0.0208,-0.959502 0.0327,-1.916785 0.0303,-2.876288 v -5.680764 c 0.002,-0.957282 -0.01,-1.916785 -0.0303,-2.876287 -0.0211,-0.856961 -0.0559,-1.71614 -0.10937,-2.5731 -0.0466,-0.765294 -0.11412,-1.52859 -0.20266,-2.291886 -0.0793,-0.678067 -0.18632,-1.354135 -0.31914,-2.025765 -0.11861,-0.601936 -0.27013,-1.197213 -0.45409,-1.783835 -0.16761,-0.529801 -0.37264,-1.048728 -0.61483,-1.55478 -0.22586,-0.466545 -0.49126,-0.915778 -0.79643,-1.341039 -0.29333,-0.407728 -0.62857,-0.787268 -0.99885,-1.136177 -0.37264,-0.346691 -0.78009,-0.660754 -1.21571,-0.935532 -0.45408,-0.285653 -0.93373,-0.534241 -1.43446,-0.743546 -0.53789,-0.22683 -1.09449,-0.4186 -1.66269,-0.57352 -0.62644,-0.17224 -1.26211,-0.31384 -1.90489,-0.42526 -0.71735,-0.1243 -1.44157,-0.2244 -2.16578,-0.29875 -0.81513,-0.0828 -1.63239,-0.14605 -2.44989,-0.18955 -0.9174,-0.0502 -1.83504,-0.083 -2.75245,-0.10032 -1.02465,-0.0218 -2.0493,-0.0329 -3.07395,-0.0306 H 35.7757"
       id="path10"
       style="isolation:isolate;fill:url(#linearGradient8);fill-opacity:1;stroke-width:0.229232"
       sodipodi:nodetypes="cccccccccccccccccccccccccccccccccccccccccccccccccccccccccccccccccccccc" /><path
       fill="url(#_lgradient_1)"
       fill-rule="evenodd"
       d="m 35.7757,13.888884 h 5.15436 c 1.02465,-0.0022 2.04929,0.0089 3.07395,0.03063 0.9174,0.01731 1.83505,0.05016 2.75245,0.100322 0.8175,0.0435 1.63475,0.10676 2.44988,0.189548 0.72421,0.07435 1.44844,0.174455 2.16579,0.298749 0.64277,0.11142 1.27845,0.253026 1.90488,0.425262 0.5682,0.154923 1.12481,0.34669 1.6627,0.573526 0.50072,0.209302 0.98037,0.457889 1.43447,0.743542 0.43562,0.274778 0.84305,0.588841 1.21569,0.935532 0.37029,0.348909 0.70552,0.728449 0.99885,1.136177 0.30518,0.425261 0.57057,0.874494 0.79643,1.341039 0.24219,0.506052 0.44722,1.024979 0.61485,1.55478 0.18395,0.586622 0.33546,1.181899 0.45408,1.783835 0.13281,0.67163 0.23982,1.347698 0.31913,2.025765 0.0886,0.763296 0.15603,1.526592 0.20266,2.291886 0.0535,0.85696 0.0883,1.716139 0.10938,2.5731 0.0208,0.959502 0.0326,1.919005 0.0302,2.876287 v 5.680262 c 0.003,0.959503 -0.009,1.916786 -0.0302,2.876288 -0.0211,0.85918 -0.0559,1.71614 -0.10938,2.5731 -0.0467,0.765294 -0.11411,1.53081 -0.20266,2.291886 -0.0793,0.678066 -0.18632,1.356355 -0.31913,2.027985 C 60.33546,48.818101 60.18395,49.413379 60,50 c -0.16763,0.529801 -0.37266,1.050948 -0.61485,1.55478 -0.22586,0.468765 -0.49125,0.915779 -0.79643,1.34104 -0.29333,0.407728 -0.62856,0.789487 -0.99885,1.136177 -0.37264,0.346691 -0.78007,0.660754 -1.21569,0.935531 -0.4541,0.285653 -0.93375,0.534242 -1.43447,0.743543 -0.53789,0.226835 -1.0945,0.418603 -1.6627,0.575746 -0.62643,0.172235 -1.26211,0.313841 -1.90488,0.423042 -0.71735,0.126291 -1.44158,0.224394 -2.16579,0.298748 -0.81513,0.08279 -1.63238,0.146045 -2.44988,0.189549 -0.9174,0.05016 -1.83505,0.08301 -2.75245,0.102542 -1.02466,0.01953 -2.0493,0.03062 -3.07395,0.02841 h -17.5493 c -1.02465,0.0023 -2.0493,-0.0089 -3.07395,-0.02841 -0.91741,-0.01953 -1.83505,-0.05238 -2.75245,-0.102542 -0.8175,-0.0435 -1.63476,-0.106759 -2.44989,-0.189549 C 14.38026,56.934257 13.65604,56.83615 12.93869,56.709859 12.29591,56.600658 11.66024,56.459052 11.0338,56.286817 10.465605,56.129674 9.909005,55.937906 9.371112,55.711071 8.870386,55.50177 8.390733,55.253181 7.936647,54.967528 7.501027,54.692751 7.093582,54.378688 6.720938,54.031997 6.350661,53.685307 6.015424,53.303548 5.722092,52.89582 5.416922,52.470559 5.151526,52.023545 4.925667,51.55478 4.683472,51.050948 4.478446,50.529801 4.310828,50 4.126874,49.413379 3.975354,48.818101 3.856743,48.218385 3.723927,47.546755 3.616915,46.868466 3.537604,46.1904 3.449074,45.429324 3.381586,44.663808 3.334947,43.898514 c -0.0535,-0.85696 -0.0883,-1.71392 -0.109378,-2.5731 -0.02084,-0.959502 -0.03267,-1.916785 -0.03029,-2.876288 V 25.528803 c -0.0024,-0.957282 0.0095,-1.916785 0.03029,-2.876287 0.02107,-0.856961 0.05587,-1.71614 0.109378,-2.5731 0.04665,-0.765294 0.114113,-1.52859 0.202657,-2.291886 0.07931,-0.678067 0.186323,-1.354135 0.319139,-2.025765 C 3.975354,15.159829 4.126874,14.564552 4.310828,13.97793 4.478446,13.448129 4.683472,12.929202 4.925667,12.42315 5.151526,11.956605 5.416922,11.507372 5.722092,11.082111 6.015424,10.674383 6.350661,10.294843 6.720938,9.945934 7.093582,9.599243 7.501027,9.28518 7.936647,9.010402 8.390733,8.72475 8.870386,8.476161 9.371112,8.266856 c 0.537893,-0.22683 1.094493,-0.4186 1.662688,-0.573519 0.62644,-0.172241 1.26211,-0.313841 1.90489,-0.425261 0.71735,-0.124299 1.44157,-0.224399 2.16578,-0.298749 0.81513,-0.0828 1.63239,-0.146051 2.44989,-0.18955 0.9174,-0.0502 1.83504,-0.083 2.75245,-0.10032 1.02465,-0.0218 2.0493,-0.0329 3.07395,-0.0306 h 5.15494 z"
       id="path6"
       style="isolation:isolate;fill:none;fill-opacity:1;stroke:#000000;stroke-width:1;stroke-dasharray:none;stroke-opacity:0.296232"
       sodipodi:nodetypes="cccccccccccccccccccccccccccccccccccccccccccccccccccccccccccccccccccccc" /><path
       style="isolation:isolate;fill:#000000;fill-opacity:1;stroke:none;stroke-width:0.229232;stroke-opacity:1"
       d="m 3.203576,39.228922 c -0.0013,-0.259666 -0.0086,-0.519395 -0.0078,-0.779297 v 0.5 c -5.52e-4,0.176527 0.0054,0.352892 0.0059,0.529297 2.31e-4,-0.0833 0.0015,-0.166672 0.002,-0.25 z"
       id="path11" /><path
       fill="url(#_lgradient_1)"
       fill-rule="evenodd"
       d="m 35.35889,14.866734 5.28459,-0.0043 c 0.98995,-0.0021 1.99949,0.0073 2.98945,0.02819 0.88633,0.01664 1.75064,0.04794 2.63697,0.09615 0.78982,0.04182 1.58534,0.06777 2.37287,0.147351 0.69968,0.07147 1.38452,0.138552 2.07758,0.258027 0.621,0.107102 1.19832,0.189182 1.80354,0.354741 0.54895,0.148917 1.07188,0.273878 1.59156,0.491922 0.48376,0.201187 1.03961,0.422885 1.45636,0.655559 0.42086,0.264127 0.83141,0.543431 1.19143,0.876683 0.35775,0.335387 0.69475,0.678706 0.97815,1.070628 0.29485,0.408778 0.56429,0.853076 0.7825,1.301536 0.23399,0.486437 0.41611,0.996211 0.57806,1.505476 0.17772,0.563883 0.30734,1.126772 0.42194,1.705376 0.12831,0.645596 0.2065,1.267856 0.28312,1.919638 0.0856,0.733708 0.14825,1.500675 0.1933,2.236304 0.0517,0.823742 0.0853,1.649615 0.10568,2.473358 0.0201,0.922309 0.0315,1.84462 0.0292,2.764795 v 5.46008 c 0.003,0.922309 -0.009,1.842485 -0.0292,2.764794 -0.0204,0.825875 -0.0324,1.647453 -0.0841,2.471197 -0.0451,0.735628 -0.0865,1.482966 -0.17208,2.21454 -0.0766,0.651783 -0.15012,1.324022 -0.27844,1.969618 -0.1146,0.576467 -0.22283,1.156078 -0.40055,1.71996 -0.16195,0.509263 -0.32507,1.070831 -0.55905,1.555133 -0.21821,0.450595 -0.45383,0.912045 -0.74867,1.320823 -0.2834,0.391922 -0.61924,0.790997 -0.97699,1.124248 -0.35999,0.333252 -0.82586,0.639622 -1.24673,0.903747 -0.43872,0.274581 -0.94817,0.486801 -1.43193,0.687989 -0.51968,0.218043 -1.05147,0.347538 -1.60042,0.49859 -0.60522,0.165559 -1.2191,0.269341 -1.8401,0.374309 -0.69306,0.121395 -1.41954,0.182572 -2.11923,0.254044 -0.78752,0.07958 -1.59541,0.121454 -2.38523,0.163273 -0.88633,0.04822 -1.7729,0.0798 -2.65923,0.09857 -0.98996,0.01877 -1.97989,0.02943 -2.96984,0.0273 H 23.67844 c -0.98995,0.0022 -1.9799,-0.0086 -2.96985,-0.0273 -0.88634,-0.01877 -1.79033,-0.04465 -2.67666,-0.09286 -0.78981,-0.04182 -1.60126,-0.0786 -2.38878,-0.158186 C 14.94346,56.006567 14.2606,55.936705 13.56754,55.81531 12.94653,55.710342 12.2752,55.620587 11.66998,55.455028 11.12102,55.303976 10.505819,55.115631 9.986142,54.897588 9.502374,54.6964 9.003905,54.468765 8.565198,54.194184 8.144332,53.930059 7.723053,53.614837 7.363029,53.281585 7.005292,52.948334 6.668046,52.51907 6.384648,52.127148 6.089813,51.71837 5.907044,51.322876 5.688835,50.872281 5.454842,50.387979 5.307814,49.879482 5.145873,49.370219 4.968149,48.806337 4.869701,48.215492 4.755108,47.639025 4.62679,46.993429 4.546291,46.299365 4.469667,45.647582 4.384137,44.916008 4.340758,44.183912 4.295699,43.448284 4.244009,42.62454 4.226209,41.798921 4.205839,40.973046 4.185709,40.050737 4.174279,39.130561 4.176569,38.208252 v -12.4195 c -0.0023,-0.920176 0.0092,-1.842485 0.02927,-2.764794 0.02035,-0.823742 0.03471,-1.655073 0.0864,-2.478815 0.04507,-0.735629 0.0837,-1.470097 0.169247,-2.203807 0.07663,-0.651783 0.155989,-1.311538 0.284307,-1.957135 C 4.860386,15.8056 4.947144,15.225202 5.124868,14.661318 5.286809,14.152056 5.439919,13.634928 5.673912,13.148493 5.892121,12.700031 6.126844,12.215338 6.421679,11.806561 6.705077,11.414639 7.019618,11.025981 7.377355,10.690598 7.737379,10.357345 8.175731,10.034643 8.596597,9.770517 9.035304,9.495937 9.535126,9.271382 10.018894,9.07019 10.538571,8.852153 11.1258,8.689931 11.67475,8.541016 c 0.60522,-0.165564 1.22813,-0.257104 1.84914,-0.364205 0.69305,-0.119482 1.41239,-0.191539 2.11208,-0.263006 0.78752,-0.07959 1.57828,-0.123255 2.36809,-0.165069 0.88634,-0.04825 1.81819,-0.06203 2.70453,-0.07868 0.98995,-0.02096 1.9799,-0.03162 2.96985,-0.02941 l 4.45676,-0.0099 z"
       id="path12"
       style="isolation:isolate;fill:none;fill-opacity:1;stroke:url(#linearGradient13);stroke-width:0.963682;stroke-dasharray:none;opacity:0.5"
       sodipodi:nodetypes="ccccccccccccccccccccccccccccccccccccccccccccccccccccccccccccccccccccccc" /><path
       id="path2"
       style="isolation:isolate;mix-blend-mode:normal;fill:url(#linearGradient5);fill-opacity:1;stroke:none;stroke-width:0.229232;stroke-opacity:1;opacity:0.5"
       d="m 35.42233,14.242593 -6.88672,6.886719 c -5.1543,0 -11.862364,-0.14033 -15.59571,0.619141 v 0 c 6.21554,-0.759471 15.89554,0.380529 15.89554,0.380529 z"
       sodipodi:nodetypes="cccccc" /><g
       id="g40"
       transform="matrix(0.64781955,0,0,0.63133496,9.59458,18.060181)"
       style="fill:#6b4ba0;fill-opacity:1"><path
         style="color:#dedede;fill:#6b4ba0;fill-opacity:1;stroke-width:3.02747"
         d="m 22.086005,37.873528 c -0.484038,-0.140863 -1.005152,0.02517 -1.31861,0.419844 L 9.6035862,52.248124 33.711024,52.242183 22.68913,38.269682 c -0.157341,-0.188887 -0.36732,-0.326775 -0.603159,-0.396119 z"
         id="path38" /><path
         style="color:#dedede;fill:#6b4ba0;fill-opacity:1;stroke-width:3.02747"
         d="m 42.539195,28.86798 c -0.2149,0.06293 -0.403709,0.1935 -0.538049,0.372469 l -10.678422,14.711638 6.291101,8.295981 H 58.043212 L 43.710018,29.311407 c -0.246596,-0.393753 -0.725257,-0.57501 -1.170777,-0.443531 z"
         id="path39" /><path
         style="color:#dedede;fill:#6b4ba0;fill-opacity:1;stroke-width:3.58303"
         d="m 18.300201,18.076336 c -2.968292,0 -5.374557,2.406251 -5.374557,5.374544 0,2.968292 2.406265,5.374558 5.374557,5.374558 2.968292,0 5.374544,-2.406266 5.374544,-5.374558 0,-2.968293 -2.406252,-5.374544 -5.374544,-5.374544 z"
         id="path40" /></g><g
       id="g16"
       transform="matrix(0.64781955,0,0,0.63133496,10.89444,16.75999)"
       style="fill:#bfafda;fill-opacity:1"><path
         style="color:#dedede;fill:#bfafda;fill-opacity:1;stroke-width:3.02747"
         d="m 22.086005,37.873528 c -0.484038,-0.140863 -1.005152,0.02517 -1.31861,0.419844 L 9.6035862,52.248124 33.711024,52.242183 22.68913,38.269682 c -0.157341,-0.188887 -0.36732,-0.326775 -0.603159,-0.396119 z"
         id="path16" /><path
         style="color:#dedede;fill:#bfafda;fill-opacity:1;stroke-width:3.02747"
         d="m 42.539195,28.86798 c -0.2149,0.06293 -0.403709,0.1935 -0.538049,0.372469 l -10.678422,14.711638 6.291101,8.295981 H 58.043212 L 43.710018,29.311407 c -0.246596,-0.393753 -0.725257,-0.57501 -1.170777,-0.443531 z"
         id="path15" /><path
         style="color:#dedede;fill:#bfafda;fill-opacity:1;stroke-width:3.58303"
         d="m 18.300201,18.076336 c -2.968292,0 -5.374557,2.406251 -5.374557,5.374544 0,2.968292 2.406265,5.374558 5.374557,5.374558 2.968292,0 5.374544,-2.406266 5.374544,-5.374558 0,-2.968293 -2.406252,-5.374544 -5.374544,-5.374544 z"
         id="path2228-3" /></g></g></svg>
