<?xml version="1.0" encoding="UTF-8" standalone="no"?>
<svg
   version="1.1"
   width="512"
   height="512"
   x="0"
   y="0"
   viewBox="0 0 512 512"
   style="enable-background:new 0 0 512 512"
   xml:space="preserve"
   class=""
   id="svg1087"
   sodipodi:docname="folder-download.svg"
   inkscape:version="1.2.2 (b0a8486541, 2022-12-01)"
   xmlns:inkscape="http://www.inkscape.org/namespaces/inkscape"
   xmlns:sodipodi="http://sodipodi.sourceforge.net/DTD/sodipodi-0.dtd"
   xmlns="http://www.w3.org/2000/svg"
   xmlns:svg="http://www.w3.org/2000/svg"><path
     fill="#fd4755"
     fill-rule="evenodd"
     d="m 294.80532,287.92271 -20.24649,0.0466 c 2.98344,-49.21584 20.84738,-94.3717 49.14695,-131.02088 38.04741,-39.63704 80.65454,-65.152474 128.68133,-83.248617 6.92522,-1.794254 12.53544,-12.023258 10.50637,-19.854805 -1.40263,-5.413927 -5.65735,-9.332456 -10.73692,-10.566067 -10.95021,-2.837357 -22.06959,-4.97637 -33.29096,-6.404122 -11.47727,-1.464167 -22.88565,-2.220132 -34.16543,-2.220132 -74.00747,0 -141.00918,29.998884 -189.50947,78.499173 -45.26884,45.26881 -74.41531,106.65654 -78.09869,174.81286 H 63.330271 c -8.116298,0 -14.696781,6.58048 -14.696781,14.69678 0,4.00763 1.601949,7.63681 4.198687,10.28774 L 184.09188,468.20245 c 5.13652,6.24613 14.36426,7.14539 20.61039,2.00978 0.79139,-0.6506 1.51269,-1.38206 2.15216,-2.18247 L 338.78284,311.96748 c 5.13652,-6.24613 4.23635,-14.47413 -2.00979,-19.61066 -2.61789,-2.15928 -5.90681,-3.33809 -9.3003,-3.33341 v -0.0542 l -23.90142,-0.81243"
     clip-rule="evenodd"
     data-original="#fd4755"
     class=""
     id="path1081"
     style="fill:#f7cc6d;fill-opacity:1;stroke-width:0.918549"
     sodipodi:nodetypes="ccccsccsscssccscccccc" /><path
     id="path2003"
     style="opacity:0.590006;fill:#a2690c;fill-opacity:1;stroke-width:0.918549"
     class=""
     d="m 412.66226,36.15425 6.89073,1.506874 c 4.91378,1.763105 13.79694,7.152082 14.94089,16.184441 1.09465,8.643076 -7.79679,10.814363 -15.62833,12.843435 -51.84835,13.501741 -95.52527,49.03474 -127.35938,90.26008 -28.29954,36.64914 -46.16305,81.80569 -49.14648,131.02148 l 20.24609,-0.0469 h 11.95474 c 3.11085,-48.94138 20.98276,-94.50093 49.14682,-130.97461 37.41476,-38.60913 77.48379,-63.330954 128.67969,-83.25005 7.09138,-1.900129 12.53688,-12.021926 10.50781,-19.853465 -1.40263,-5.413922 -5.65871,-9.332797 -10.73828,-10.566407 -10.9502,-2.837354 -22.06966,-4.976546 -33.29101,-6.404296 z M 303.57258,288.15819 c -5.68198,-0.15545 -5.97503,-0.17386 -9.56836,-0.2325 4.20987,0.0719 8.02087,1.385 10.57031,3.43168 6.24613,5.13652 7.14628,14.36325 2.00976,20.60937 L 198.33225,444.81263 c 0,0 -12.51969,17.70524 -19.0292,17.73737 -0.002,10e-6 4.78906,5.65159 4.78906,5.65159 5.13651,6.24612 14.3652,7.14537 20.61133,2.00977 0.79138,-0.6506 1.51287,-1.38124 2.15234,-2.18164 L 338.78351,311.96665 c 5.13652,-6.24612 4.23637,-14.47272 -2.00976,-19.60924 -2.61789,-2.15928 -5.9073,-3.33866 -9.30078,-3.33398 v -0.0547 z"
     sodipodi:nodetypes="ccscccccccsccccccccscscccccc" /><defs
     id="defs1091"><inkscape:path-effect
       effect="fillet_chamfer"
       id="path-effect1999"
       is_visible="true"
       lpeversion="1"
       nodesatellites_param="F,0,0,1,0,0,0,1 @ F,0,0,1,0,0,0,1 @ F,0,0,1,0,0,0,1 @ F,0,0,1,0,0,0,1 @ F,0,0,1,0,0,0,1 @ F,0,0,1,0,0,0,1 @ F,0,0,1,0,0,0,1 @ F,0,0,1,0,0,0,1 @ F,0,1,1,0,0,0,1 @ F,0,0,1,0,0,0,1 @ F,0,0,1,0,0,0,1 @ F,0,0,1,0,0,0,1 @ F,0,0,1,0,0,0,1 @ F,0,0,1,0,0,0,1 @ F,0,0,1,0,0,0,1 @ F,0,0,1,0,0,0,1 @ F,0,0,1,0,0,0,1 @ F,0,0,1,0,0,0,1 @ F,0,0,1,0,0,0,1 @ F,0,0,1,0,0,0,1"
       unit="px"
       method="auto"
       mode="F"
       radius="0"
       chamfer_steps="1"
       flexible="false"
       use_knot_distance="true"
       apply_no_radius="true"
       apply_with_radius="true"
       only_selected="true"
       hide_knots="false" /><inkscape:path-effect
       effect="fillet_chamfer"
       id="path-effect1997"
       is_visible="true"
       lpeversion="1"
       nodesatellites_param="F,0,0,1,0,0,0,1 @ F,0,0,1,0,0,0,1 @ F,0,0,1,0,0,0,1 @ F,0,0,1,0,0,0,1 @ F,0,0,1,0,0,0,1 @ F,0,0,1,0,0,0,1 @ F,0,0,1,0,0,0,1 @ F,0,0,1,0,0,0,1 @ F,0,1,1,0,0,0,1 @ F,0,0,1,0,0,0,1 @ F,0,0,1,0,0,0,1 @ F,0,0,1,0,0,0,1 @ F,0,0,1,0,0,0,1 @ F,0,0,1,0,0,0,1 @ F,0,0,1,0,0,0,1 @ F,0,0,1,0,0,0,1 @ F,0,0,1,0,0,0,1 @ F,0,0,1,0,0,0,1 @ F,0,0,1,0,0,0,1 @ F,0,0,1,0,0,0,1"
       unit="px"
       method="auto"
       mode="F"
       radius="0"
       chamfer_steps="1"
       flexible="false"
       use_knot_distance="true"
       apply_no_radius="true"
       apply_with_radius="true"
       only_selected="true"
       hide_knots="false" /><inkscape:path-effect
       effect="fillet_chamfer"
       id="path-effect1995"
       is_visible="true"
       lpeversion="1"
       nodesatellites_param="F,0,0,1,0,0,0,1 @ F,0,0,1,0,0,0,1 @ F,0,0,1,0,0,0,1 @ F,0,0,1,0,0,0,1 @ F,0,0,1,0,0,0,1 @ F,0,0,1,0,0,0,1 @ F,0,0,1,0,0,0,1 @ F,0,0,1,0,0,0,1 | F,0,0,1,0,0,0,1 @ F,0,1,1,0,1e+10,0,1 @ F,0,0,1,0,0,0,1 @ F,0,0,1,0,0,0,1 @ F,0,0,1,0,0,0,1 @ F,0,0,1,0,0,0,1 @ F,0,0,1,0,0,0,1 @ F,0,0,1,0,0,0,1 @ F,0,0,1,0,0,0,1 @ F,0,0,1,0,0,0,1"
       unit="px"
       method="bezier"
       mode="F"
       radius="1e+10"
       chamfer_steps="1"
       flexible="false"
       use_knot_distance="true"
       apply_no_radius="true"
       apply_with_radius="true"
       only_selected="true"
       hide_knots="false" /></defs><sodipodi:namedview
     id="namedview1089"
     pagecolor="#cbcbcb"
     bordercolor="#eeeeee"
     borderopacity="1"
     inkscape:showpageshadow="0"
     inkscape:pageopacity="0"
     inkscape:pagecheckerboard="0"
     inkscape:deskcolor="#d7d7d7"
     showgrid="true"
     inkscape:zoom="1.4768257"
     inkscape:cx="298.61343"
     inkscape:cy="252.90729"
     inkscape:current-layer="svg1087"
     inkscape:window-width="1920"
     inkscape:window-height="1020"
     inkscape:window-x="1920"
     inkscape:window-y="26"
     inkscape:window-maximized="1"><inkscape:grid
       type="xygrid"
       id="grid9580" /></sodipodi:namedview></svg>
