<?xml version="1.0" encoding="UTF-8" standalone="no"?>
<svg
   version="1.1"
   width="512"
   height="512"
   x="0"
   y="0"
   viewBox="0 0 512 512"
   xml:space="preserve"
   class=""
   id="svg9518"
   sodipodi:docname="folder-music.svg"
   inkscape:version="1.2.2 (b0a8486541, 2022-12-01)"
   xmlns:inkscape="http://www.inkscape.org/namespaces/inkscape"
   xmlns:sodipodi="http://sodipodi.sourceforge.net/DTD/sodipodi-0.dtd"
   xmlns="http://www.w3.org/2000/svg"
   xmlns:svg="http://www.w3.org/2000/svg"><defs
     id="defs9522"><filter
       inkscape:collect="always"
       style="color-interpolation-filters:sRGB"
       id="filter1729"
       x="-0.046816086"
       y="-0.049245345"
       width="1.0936322"
       height="1.0984907"><feGaussianBlur
         inkscape:collect="always"
         stdDeviation="0.3639969"
         id="feGaussianBlur1731" /></filter><filter
       inkscape:collect="always"
       style="color-interpolation-filters:sRGB"
       id="filter1733"
       x="-0.06808875"
       y="-0.037064556"
       width="1.1361775"
       height="1.0741291"><feGaussianBlur
         inkscape:collect="always"
         stdDeviation="1.1320123"
         id="feGaussianBlur1735" /></filter><filter
       inkscape:collect="always"
       style="color-interpolation-filters:sRGB"
       id="filter1737"
       x="-0.069470247"
       y="-0.036667623"
       width="1.1389405"
       height="1.0733352"><feGaussianBlur
         inkscape:collect="always"
         stdDeviation="0.62723072"
         id="feGaussianBlur1739" /></filter><filter
       inkscape:collect="always"
       style="color-interpolation-filters:sRGB"
       id="filter1741"
       x="-0.073056023"
       y="-0.035741679"
       width="1.146112"
       height="1.0714834"><feGaussianBlur
         inkscape:collect="always"
         stdDeviation="1.4604127"
         id="feGaussianBlur1743" /></filter><filter
       inkscape:collect="always"
       style="color-interpolation-filters:sRGB"
       id="filter1745"
       x="-0.071520721"
       y="-0.03612103"
       width="1.1430414"
       height="1.0722421"><feGaussianBlur
         inkscape:collect="always"
         stdDeviation="1.4351734"
         id="feGaussianBlur1747" /></filter></defs><sodipodi:namedview
     id="namedview9520"
     pagecolor="#505050"
     bordercolor="#eeeeee"
     borderopacity="1"
     inkscape:showpageshadow="0"
     inkscape:pageopacity="0"
     inkscape:pagecheckerboard="0"
     inkscape:deskcolor="#505050"
     showgrid="true"
     inkscape:zoom="0.95574692"
     inkscape:cx="230.18646"
     inkscape:cy="274.13115"
     inkscape:current-layer="svg9518"
     inkscape:window-width="1920"
     inkscape:window-height="1021"
     inkscape:window-x="1920"
     inkscape:window-y="26"
     inkscape:window-maximized="1"><inkscape:grid
       type="xygrid"
       id="grid9641" /></sodipodi:namedview><path
     style="fill:#ff6d7a;fill-opacity:1;fill-rule:nonzero;stroke:none;stroke-width:17.1962"
     d="m 456.94588,118.58861 c -0.40268,-0.0683 -0.80536,-0.0683 -1.20803,0 -1.41049,0 -2.82122,0.20475 -4.23195,0.47092 l -204.73719,45.5443 c -10.34418,2.28388 -17.73315,11.48668 -17.73315,22.10023 v 187.55005 c -10.34418,-3.49303 -21.96486,-5.44111 -34.25712,-5.44111 -44.06419,0 -79.59762,25.39192 -79.59762,56.89654 0,31.5046 35.53343,56.82918 79.59762,56.82918 44.1313,0 79.66469,-25.32458 79.66469,-56.82918 0,-1.00784 -0.0683,-2.01566 -0.1365,-3.0228 V 204.84101 l 159.46362,-35.40076 v 136.56487 c -10.34441,-3.49303 -21.96487,-5.44111 -34.25735,-5.44111 -44.06396,0 -79.59736,25.39192 -79.59736,56.89654 0,31.5046 35.5334,56.82941 79.59736,56.82941 44.13152,0 79.66493,-25.32481 79.66493,-56.82941 0,-1.00783 -0.0683,-2.01566 -0.1365,-3.0228 V 141.2271 c 0,-12.42716 -9.87417,-22.3689 -22.09932,-22.63757 z m 0,0"
     id="path905-3" /><path
     d="m 1137.8715,-390.06222 178.7447,-41.77049 v 0 25.53556 0 l -178.7447,41.76943 v 0 z"
     style="fill:#ff6d7a;fill-opacity:1;stroke-width:78.4689px"
     id="path3767"
     sodipodi:nodetypes="ccccsccc" /><path
     d="m -251.70291,-353.90334 c -7.1078,0 -12.87063,-5.76283 -12.87063,-12.87065 v -241.06709 c 0,-13.06691 17.34318,-17.79849 23.96995,-6.51575 16.06095,27.36297 40.87072,47.41221 71.54306,56.14172 6.83753,1.94348 10.8033,9.06256 8.85823,15.90007 -1.94346,6.83753 -9.06095,10.81617 -15.90006,8.85822 -23.08189,-6.56404 -44.55013,-18.70265 -62.72991,-36.839 v 203.52345 c 0,7.1062 -5.76282,12.86903 -12.87064,12.86903 z"
     fill="#fe4f60"
     data-original="#fe4f60"
     class=""
     id="path9652"
     style="fill:#ff6d7a;fill-opacity:1;stroke-width:1.60883" /><path
     d="m -301.06692,-426.71272 c 34.35858,0 62.19938,27.84082 62.19938,62.18502 0,34.34418 -27.8408,62.18498 -62.185,62.18498 -34.35857,0 -62.19938,-27.8408 -62.19938,-62.18498 0,-34.3442 27.84081,-62.18502 62.185,-62.18502 z"
     fill="#fe4f60"
     data-original="#fe4f60"
     class=""
     id="path9654"
     style="fill:#ff6d7a;fill-opacity:1;stroke-width:1.4388" /><path
     style="fill:#ff6d7a;fill-opacity:1;fill-rule:nonzero;stroke:none;stroke-width:17.2582"
     d="m 1332.6309,-511.3053 c -0.4041,-0.0662 -0.8082,-0.0662 -1.2124,0 -1.4155,0 -2.8314,0.2032 -4.2472,0.47194 l -205.4752,45.70826 c -10.3814,2.29215 -17.797,11.52819 -17.797,22.17997 v 188.22615 c -10.3815,-3.50567 -22.0441,-5.46073 -34.3806,-5.46073 -44.2231,0 -79.88455,25.48335 -79.88455,57.10154 0,31.6182 35.66145,57.03412 79.88455,57.03412 44.2903,0 79.9518,-25.41592 79.9518,-57.03412 0,-1.01123 -0.068,-2.02245 -0.1371,-3.03373 v -218.63086 l 160.0384,-35.52838 v 137.05723 c -10.3817,-3.50566 -22.044,-5.46071 -34.3806,-5.46071 -44.223,0 -79.8845,25.48332 -79.8845,57.10156 0,31.61821 35.6615,57.03411 79.8845,57.03411 44.2904,0 79.9519,-25.4159 79.9519,-57.03411 0,-1.01125 -0.068,-2.02246 -0.1371,-3.03374 v -213.97916 c 0,-12.472 -9.9098,-22.44958 -22.179,-22.71925 z m 0,0"
     id="path905" /><path
     id="path7626"
     style="mix-blend-mode:normal;fill:#ffffff;fill-opacity:0.60000002;stroke-width:7.47973;filter:url(#filter1745)"
     class=""
     d="m 117.62333,429.27379 c 3.21788,20.87482 19.40322,36.5376 40.06907,43.389 -18.40873,-6.14208 -32.84293,-27.58685 -35.72837,-46.26824 2.5129,-28.91721 20.07933,-41.58973 43.61515,-49.0894 -29.33124,1.7801 -50.47711,31.09037 -47.95585,51.96864 z"
     sodipodi:nodetypes="ccccc" /><path
     id="path7628"
     style="mix-blend-mode:normal;fill:#ffffff;fill-opacity:0.60000002;stroke-width:7.35457;filter:url(#filter1741)"
     class=""
     d="m 322.84531,363.86857 c 3.16403,20.52555 18.8269,33.06293 38.00676,41.32895 -15.06658,-11.37464 -28.58178,-23.98688 -31.41893,-42.35569 -3.51134,-22.784 16.11271,-47.25987 41.20653,-55.70883 -42.10254,9.30595 -49.30679,41.72026 -47.79436,56.73557 z"
     sodipodi:nodetypes="ccccc" /><path
     id="path7638"
     style="mix-blend-mode:normal;fill:#ffffff;fill-opacity:0.60000002;stroke-width:2.58414;filter:url(#filter1737)"
     class=""
     d="m 232.75322,179.48476 c -1.93725,5.6962 -2.33924,18.59389 -1.60229,26.41588 0.62398,-6.67574 3.51837,-19.1328 5.25001,-24.23176 2.78988,-9.0296 8.70869,-12.85452 16.0738,-16.82227 -5.29086,0.88206 -16.8343,2.58906 -19.72152,14.63815 z"
     sodipodi:nodetypes="ccccc" /><path
     style="fill:#ff6d7a;fill-opacity:1;stroke-width:17.3032"
     d="m 116.38739,24.784828 c -7.46209,0 -9.76543,10.120968 -9.76543,16.130478 0,56.099229 0.27582,106.150694 0,162.217634 -6.834027,-0.16233 -13.061707,-0.0317 -16.221897,0 -28.452995,-1.56213 -64.887172,16.2377 -64.887172,48.66532 0,31.22382 31.908449,32.03898 48.574834,32.03898 16.830068,0 48.756145,-16.27694 48.756145,-48.26075 V 97.088325 c 1.26516,-2.86862 7.19396,1.16474 9.41319,2.43849 22.60196,12.048855 42.59358,31.918125 43.9433,56.661635 1.47631,19.33457 -5.01271,38.25355 -12.32378,56.17759 24.49654,-27.16802 32.33801,-66.80086 15.31667,-98.89064 C 170.48724,94.847945 150.84877,83.368485 139.86204,66.066681 132.44698,54.375476 127.52876,41.234719 123.64195,27.946782 121.79575,24.749018 118.258,24.765883 116.38739,24.78438 Z"
     id="path2382"
     sodipodi:nodetypes="cccccccccccccccc" /><path
     id="path2207"
     style="mix-blend-mode:normal;fill:#ffffff;fill-opacity:0.60000002;stroke-width:6.1014;filter:url(#filter1733)"
     class=""
     d="m 27.313974,253.51616 c 2.624901,17.02811 9.721295,24.60579 29.000183,27.9778 C 39.736988,277.68047 33.619918,268.39728 31.266193,253.1584 33.31603,229.5699 48.381982,216.28605 67.064156,208.19403 44.486066,211.34117 25.25741,236.486 27.313974,253.51616 Z"
     sodipodi:nodetypes="ccccc" /><path
     id="path2209"
     style="mix-blend-mode:normal;fill:#ffffff;fill-opacity:0.60000002;stroke-width:2.00121;filter:url(#filter1729)"
     class=""
     d="m 126.22257,41.131359 c -0.0315,-0.71195 -0.0945,-1.422982 -0.18877,-2.127669 -1.09257,-8.173098 -4.23289,-14.753664 -10.84354,-13.361922 -4.53726,1.059763 -7.91496,8.063832 -7.58344,15.502546 0.28064,-6.593924 3.26864,-11.786591 7.32915,-12.736871 5.0365,-1.176094 10.00514,4.495916 11.09783,12.668863 0.0937,0.701628 0.15646,1.409533 0.18791,2.118357 0.0301,-0.683541 0.0303,-1.372958 7.7e-4,-2.063304 z"
     sodipodi:nodetypes="ccccccccc" /></svg>
