<?xml version="1.0" encoding="UTF-8" standalone="no"?>
<svg
   version="1.1"
   width="512"
   height="512"
   x="0"
   y="0"
   viewBox="0 0 504.502 504.502"
   style="enable-background:new 0 0 512 512"
   xml:space="preserve"
   class=""
   id="svg2910"
   sodipodi:docname="folder-templates.svg"
   inkscape:version="1.2.2 (b0a8486541, 2022-12-01)"
   xmlns:inkscape="http://www.inkscape.org/namespaces/inkscape"
   xmlns:sodipodi="http://sodipodi.sourceforge.net/DTD/sodipodi-0.dtd"
   xmlns="http://www.w3.org/2000/svg"
   xmlns:svg="http://www.w3.org/2000/svg"><defs
     id="defs2914" /><sodipodi:namedview
     id="namedview2912"
     pagecolor="#505050"
     bordercolor="#eeeeee"
     borderopacity="1"
     inkscape:showpageshadow="0"
     inkscape:pageopacity="0"
     inkscape:pagecheckerboard="0"
     inkscape:deskcolor="#505050"
     showgrid="false"
     inkscape:zoom="0.69875246"
     inkscape:cx="-208.94381"
     inkscape:cy="402.14528"
     inkscape:current-layer="svg2910" /><path
     fill="#ef5227"
     d="M 392.26223,87.722185 H 359.9845 l 1.78725,-50.165409 c 0,-4.935489 4.00076,-8.936247 8.93624,-8.936247 l 2.68356,-1.78725 h 9.93532 c 4.93549,0 8.93625,4.000758 8.93625,8.936247 V 71.639621 L 390.626,79.0156 Z"
     data-original="#ef5227"
     id="path2862"
     style="stroke-width:0.893624;fill:#ff6360;fill-opacity:1" /><path
     fill="#d83724"
     d="m 392.26401,71.639621 v 16.085245 h -32.27772 v -51.95534 c 0,-4.932808 3.9945,-8.936247 8.93624,-8.936247 h 4.46813 v 41.231844 a 3.5744988,3.5744988 0 0 0 3.5745,3.574498 z"
     data-original="#d83724"
     class=""
     id="path2864"
     style="stroke-width:0.893624;fill:#ff6360;fill-opacity:1" /><path
     fill="#f1f2f2"
     d="M 441.11311,325.23245 H 320.96617 V 303.9901 h 29.24386 l 25.54873,4.09726 26.2815,-4.09726 h 39.07285 z"
     data-original="#f1f2f2"
     id="path2866"
     style="stroke-width:0.893624" /><path
     fill="#dee1e1"
     d="m 402.04026,314.7681 v -10.77711 h -51.83023 v 10.77711 a 3.5744988,3.5744988 0 0 1 -3.5745,3.5745 h -25.6649 v 12.51074 H 441.10954 V 318.3426 h -35.49478 a 3.5744988,3.5744988 0 0 1 -3.5745,-3.5745 z"
     data-original="#dee1e1"
     id="path2868"
     style="stroke-width:0.893624;fill:#ffffff;fill-opacity:1" /><path
     fill="#ef5227"
     d="m 320.60604,365.91023 5.83,-38.04874 5.06775,-7.56275 32.77547,-137.17855 -1.55848,-10.44736 13.03977,-37.6073 -26.15908,-6.2527 -18.29428,103.83026 -33.3885,111.83892 z"
     data-original="#ef5227"
     id="path2870"
     style="stroke-width:0.893624;fill:#ff6360;fill-opacity:1" /><path
     fill="#dee1e1"
     d="m 470.06566,477.66872 a 6.7066534,6.7066534 0 0 1 -6.51988,-5.17676 l -16.03252,-68.50527 a 6.7039725,6.7039725 0 0 1 4.99893,-8.05335 c 3.59416,-0.84537 7.20887,1.39405 8.05334,4.99894 l 16.03252,68.50527 a 6.7039725,6.7039725 0 0 1 -6.53239,8.23117 z"
     data-original="#dee1e1"
     id="path2872"
     style="stroke-width:0.893624;fill:#ffffff;fill-opacity:1" /><path
     fill="#b4e3f5"
     d="M 113.59519,469.1775 H 42.919305 c -7.402788,0 -13.404371,-6.00158 -13.404371,-13.40437 V 42.024899 c 0,-7.402787 6.001583,-13.40437 13.404371,-13.40437 l 0.893624,-1.78725 h 71.569521 c 7.40278,0 13.40436,6.001584 13.40436,13.404371 v 414.64187 l -1.78724,0.89362 c 0,7.40278 -6.00159,13.40437 -13.40438,13.40436 z"
     data-original="#b4e3f5"
     id="path2874"
     style="stroke-width:0.893624;fill:#63affa;fill-opacity:1" /><path
     fill="#83d3f0"
     d="m 128.7877,454.87952 v 2.68087 c 0,7.40279 -6.00158,13.40437 -13.40436,13.40437 H 41.132055 c -7.402786,0 -13.40437,-6.00158 -13.40437,-13.40437 v -14.298 l 4.990894,-5.4377 -4.990894,-7.96666 v -13.40438 l 4.990894,-6.40728 -4.990894,-6.99708 v -13.40438 l 4.990894,-6.74955 -4.990894,-6.65482 v -13.40437 l 4.990894,-6.86304 -4.990894,-5.64771 v -14.29798 l 4.990894,-5.43772 -4.990894,-7.96666 v -13.40437 l 4.990894,-6.86304 -4.990894,-6.54133 v -13.40437 l 6.359927,-8.2419 -6.359927,-5.16247 v -13.40437 l 6.359927,-5.5226 -6.359927,-6.70219 v -14.58395 l 6.359927,-6.70219 -6.359927,-6.70218 v -13.40437 l 6.359927,-6.70219 -6.359927,-6.70218 v -13.40438 l 6.359927,-6.70218 -6.359927,-6.70218 v -13.40438 l 6.359927,-6.70218 -6.359927,-6.70218 v -13.40439 l 4.76302,-6.70218 -4.76302,-6.70218 V 94.748757 l 4.76302,-8.128411 -4.76302,-5.27596 v -13.40437 l 4.76302,-6.702185 -4.76302,-6.702186 V 40.23765 c 0,-7.402787 6.001584,-13.404371 13.40437,-13.404371 h 2.680874 V 448.62414 a 6.2553729,6.2553729 0 0 0 6.255373,6.25538 z"
     data-original="#83d3f0"
     id="path2876"
     style="stroke-width:0.893624;fill:#63affa;fill-opacity:1" /><path
     fill="#4cb8e9"
     d="M 27.727685,54.535645 H 43.812929 V 67.940016 H 27.727685 Z m 0,53.617485 h 16.085244 v 13.40436 H 27.727685 Z m 0,53.61748 h 16.085244 v 13.40436 H 27.727685 Z m 0,53.61748 h 16.085244 v 13.40437 H 27.727685 Z m 0,53.61748 h 16.085244 v 13.40438 H 27.727685 Z m 0,53.61749 h 16.085244 v 13.40438 H 27.727685 Z m 0,53.61748 h 16.085244 v 13.40437 H 27.727685 Z m 0,53.61748 h 16.085244 v 13.40436 H 27.727685 Z m 0,-26.80874 h 16.085244 v 13.40436 H 27.727685 Z m 0,-53.61748 h 16.085244 v 13.40436 H 27.727685 Z m 0,-53.61748 h 16.085244 v 13.40436 H 27.727685 Z m 0,-53.6175 H 43.812929 V 255.6012 H 27.727685 Z m 0,-53.61747 h 16.085244 v 13.40437 H 27.727685 Z m 0,-53.61748 h 16.085244 v 13.40436 H 27.727685 Z m 0,-53.617484 H 43.812929 V 94.748757 H 27.727685 Z"
     data-original="#4cb8e9"
     id="path2880"
     style="stroke-width:0.893624" /><path
     fill="#ef5227"
     d="M 445.23093,415.74054 418.00398,286.32046 379.61118,148.14908 c -1.72649,-7.22585 2.73092,-14.48297 9.95677,-16.21034 7.22316,-1.72649 14.4794,2.72644 16.20945,9.94872 l 1.45393,20.7857 5.92295,9.99699 57.22862,238.81226 c 1.79171,7.47785 -3.01152,14.69834 -10.15962,16.27202 -0.93742,0.20643 -2.23406,-1.86142 -3.24207,-1.86142 -6.22499,8.9e-4 -10.3035,-4.09727 -11.75028,-10.15247 z"
     data-original="#ef5227"
     id="path2882"
     style="stroke-width:0.893624;fill:#ff6360;fill-opacity:1" /><path
     d="m 362.2829,131.84312 -12.68053,-3.02939 -51.68726,215.66738 22.68913,21.42913 10.90223,-45.61061 -10.0792,-11.53312 a 3.5744988,3.5744988 0 0 1 -0.7846,-3.18577 l 29.25012,-122.04322 c 0.35745,-1.48967 1.89717,-2.40921 3.35825,-1.949 a 33.090923,33.090923 0 0 0 9.96123,1.52989 h 1.06341 l 11.48308,-48.0502 -13.47675,-3.22331 z M 460.22417,427.758 c -0.93831,0.20553 -1.91236,0.31277 -2.92216,0.31277 h -0.19659 c -6.21963,0 -11.635,-4.27153 -13.08267,-10.3303 l -64.41247,-269.5887 c -1.72469,-7.22943 2.73449,-14.48566 9.95498,-16.21035 1.05448,-0.25022 2.10896,-0.37533 3.14556,-0.37533 6.08559,0 11.59031,4.15536 13.06479,10.32137 l 7.37241,30.78537 a 32.574408,32.574408 0 0 1 -10.12477,7.35453 c -1.16171,0.54511 -1.79619,1.81406 -1.50129,3.06513 l 57.71922,240.55484 z"
     fill="#d83724"
     data-original="#d83724"
     class=""
     id="path2884"
     style="stroke-width:0.893625;fill:#ff6360;fill-opacity:1" /><path
     d="m 413.15695,172.66389 -0.009,0.009 -7.37241,-30.78537 z"
     fill="#d83724"
     data-original="#d83724"
     class=""
     id="path2886"
     style="stroke-width:0.893625" /><path
     fill="#f1f2f2"
     d="m 388.03896,168.1493 -24.18507,-0.38069 c -8.1302,0 -15.10672,-4.88543 -17.56865,-12.62513 L 334.11675,115.2914 c -2.85424,-8.97557 -1.31989,-17.550788 5.01949,-23.195815 0.33063,-0.294897 0.44591,-1.55312 0.79353,-1.828356 3.79791,-3.00258 8.61901,-4.830935 13.98344,-4.830935 h 44.41762 c 15.28545,0 26.15818,14.843996 21.53099,29.393996 l -12.62423,39.69392 -1.25108,1.45571 c -2.46014,7.74058 -9.81736,12.16938 -17.94755,12.16938 z"
     data-original="#f1f2f2"
     id="path2890"
     style="stroke-width:0.893624;fill:#ffffff;fill-opacity:1" /><path
     fill="#dee1e1"
     d="m 407.23222,154.52331 -0.41106,1.30469 c -2.45747,7.73879 -9.65115,12.9933 -17.78314,12.9933 h -25.82575 c -8.13198,0 -15.32566,-5.25451 -17.79206,-12.9933 l -13.03799,-40.9995 c -3.00257,-9.44561 0.5183,-19.007394 7.55113,-24.556803 l 18.19062,57.392153 a 9.8298714,9.8298714 0 0 0 9.37055,6.85946 z"
     data-original="#dee1e1"
     id="path2892"
     style="stroke-width:0.893624;fill:#ffffff;fill-opacity:1" /><path
     fill="#ef5227"
     d="m 376.18234,353.61486 h -0.11795 c -0.27971,0 -0.55674,-0.009 -0.83287,-0.0259 -6.98278,-0.42983 -10.46434,-8.59756 -10.46434,-15.68848 l -0.30383,-41.67686 c 0,-7.09091 3.78628,-14.53661 10.76907,-14.96643 0.27523,-0.017 0.55315,-0.0259 0.83197,-0.0259 h 0.11795 c 7.37062,0 13.3454,5.97478 13.3454,13.3454 v 45.69281 c 0,7.36973 -5.97478,13.3454 -13.3454,13.3454 z"
     data-original="#ef5227"
     id="path2894"
     style="stroke-width:0.893624;fill:#ff6360;fill-opacity:1" /><path
     fill="#d83724"
     d="m 375.23152,281.25717 v 72.32998 c -6.98814,-0.42894 -12.51074,-6.22857 -12.51074,-13.315 v -45.69997 c 0,-7.08644 5.5226,-12.88608 12.51074,-13.31501 z"
     data-original="#d83724"
     class=""
     id="path2896"
     style="stroke-width:0.893624;fill:#ff6360;fill-opacity:1" /><path
     fill="#b7e546"
     d="M 430.02859,456.14845 171.57445,160.35868 a 9.3794849,9.3794849 0 0 0 -1.36366,-1.28146 c -5.61554,-4.29653 -12.61263,1.79708 -12.61263,9.39557 l -0.41821,292.51912 c 0,4.93281 3.9945,8.93624 8.93625,8.93624 l 255.69104,-1.21711 c 7.44211,0 13.02637,-6.25896 8.64314,-12.04606 a 10.160513,10.160513 0 0 0 -0.42179,-0.51653 z M 318.5221,413.08469 H 212.44885 c -1.48342,0 -2.68088,-1.19745 -2.68088,-2.68088 V 289.0049 c 0,-2.47534 3.06514,-3.62813 4.70047,-1.76044 l 106.07325,121.39891 c 1.51916,1.73363 0.28596,4.44132 -2.01959,4.44132 z"
     data-original="#b7e546"
     class=""
     id="path2898"
     style="stroke-width:0.893624;fill:#58b44f;fill-opacity:1" /><path
     fill="#abd641"
     d="M 423.2996,470.96476 H 164.84547 c -4.94175,0 -8.93626,-4.00345 -8.93626,-8.93624 v -14.27119 l 2.75326,-5.66469 -2.75326,-7.73969 V 420.4839 l 2.75326,-7.39921 -2.75326,-6.00515 V 393.1926 l 2.75326,-6.70218 -2.75326,-6.70219 v -13.87799 l 3.5745,-7.47517 -3.5745,-5.9292 v -13.86906 l 3.5745,-7.5815 -3.5745,-5.82286 v -13.88693 l 3.5745,-6.8541 -3.5745,-6.55027 v -13.878 l 3.5745,-7.61369 -3.5745,-5.79069 v -13.87798 l 3.5745,-6.70219 -3.5745,-6.70219 v -14.34268 l 3.5745,-6.70218 -3.5745,-6.70218 v -49.39064 c 0,-7.59582 8.68604,-11.45627 14.298,-7.15793 v 293.11784 a 4.4681235,4.4681235 0 0 0 4.46812,4.46812 H 430.4486 c 4.38769,5.79068 0.29489,14.298 -7.149,14.298 z"
     data-original="#abd641"
     id="path2900"
     style="stroke-width:0.893624;fill:#58b44f;fill-opacity:1" /><path
     fill="#abd641"
     d="m 180.68942,222.33155 c 0,3.70854 -3.00257,6.70218 -6.70218,6.70218 h -14.50353 v -13.40436 h 14.50353 c 3.69961,0 6.70218,3.00258 6.70218,6.70218 z m -0.0358,218.7236 c 0,3.70853 -3.00258,6.70218 -6.70218,6.70218 H 159.4837 v -13.40438 h 14.46779 c 3.6996,0 6.70218,3.00259 6.70218,6.70219 z m 8.86476,-27.27343 c 0,3.69959 -3.00258,6.70218 -6.70218,6.70218 h -23.33255 v -13.40436 h 23.33255 c 3.6996,0 6.70218,3.00256 6.70218,6.70218 z m -8.93624,-27.2913 c 0,3.69961 -3.00258,6.70218 -6.7022,6.70218 H 159.4837 v -13.40438 h 14.39629 c 3.69962,0 6.7022,3.00259 6.7022,6.70219 z m -0.0358,-27.28236 c 0,3.6996 -2.99364,6.70218 -6.70219,6.70218 h -14.36046 v -13.40437 h 14.36055 c 3.70855,0 6.70219,3.00258 6.70219,6.70218 z m 8.87369,-27.27343 c 0,3.6996 -3.00258,6.70218 -6.70218,6.70218 h -23.23416 v -13.40436 h 23.23425 c 3.6996,0 6.70218,2.99364 6.70218,6.70218 z M 189.3128,250.0786 c 0,3.70854 -2.99364,6.70219 -6.70219,6.70219 h -23.12692 v -13.40438 h 23.12701 c 3.70855,0 6.70219,3.00258 6.70219,6.70219 z m -8.82902,54.56474 c 0,3.69959 -3.00257,6.70218 -6.70218,6.70218 h -14.298 v -13.40437 h 14.298 c 3.69961,0 6.70218,3.00258 6.70218,6.70219 z m -0.0358,-27.28238 c 0,3.69961 -3.00258,6.70219 -6.70218,6.70219 h -14.26226 v -13.40438 h 14.26226 c 3.6996,0 6.70218,3.00258 6.70218,6.70219 z"
     data-original="#abd641"
     id="path2902"
     style="stroke-width:0.893624;fill:#45933e;fill-opacity:1" /><path
     fill="#9ec63d"
     d="m 155.90921,215.62937 h 14.298 v 13.40436 h -14.298 z m 0,218.72358 h 14.298 v 13.40437 h -14.298 z m 0,-27.27341 h 14.298 v 13.40436 h -14.298 z m 0,-27.29132 h 14.298 v 13.40438 h -14.298 z m 0,-27.28235 h 14.298 v 13.40436 h -14.298 z m 0,-27.27342 h 14.298 v 13.40436 h -14.298 z m 0,-81.85604 h 14.298 v 13.40438 h -14.298 z m 0,54.56474 h 14.298 v 13.40437 h -14.298 z m 0,-27.28237 h 14.298 v 13.40438 h -14.298 z"
     data-original="#9ec63d"
     id="path2904"
     style="stroke-width:0.893624;fill:#45933e;fill-opacity:1" /><ellipse
     cx="376.12338"
     cy="127.13012"
     fill="#ef5227"
     rx="13.442797"
     ry="13.432966"
     data-original="#ef5227"
     id="ellipse2906"
     style="stroke-width:0.893624;fill:#ff6360;fill-opacity:1" /><path
     fill="#83d3f0"
     d="m 76.896051,61.237831 c 0,3.699605 -3.002579,6.702185 -6.702185,6.702185 H 27.737756 V 54.535645 h 42.45611 c 3.699606,0 6.702185,3.002579 6.702185,6.702186 z m -9.025609,53.617479 c 0,3.6996 -3.002579,6.70218 -6.702186,6.70218 h -33.4305 v -13.40436 h 33.4305 c 3.699607,0 6.702186,3.00257 6.702186,6.70218 z m 9.025609,53.61748 c 0,3.69961 -3.002579,6.70218 -6.702185,6.70218 h -42.45611 v -13.40436 h 42.45611 c 3.699606,0 6.702185,3.00258 6.702185,6.70218 z m -9.025609,53.61748 c 0,3.69961 -3.002579,6.70219 -6.702186,6.70219 h -33.4305 v -13.40437 h 33.4305 c 3.699607,0 6.702186,3.00258 6.702186,6.70218 z m 9.025609,53.61749 c 0,3.6996 -3.002579,6.70218 -6.702185,6.70218 h -42.45611 v -13.40437 h 42.45611 c 3.699606,0 6.702185,3.00257 6.702185,6.70219 z m -9.025609,53.61747 c 0,3.69962 -3.002579,6.7022 -6.702186,6.7022 h -33.4305 v -13.40437 h 33.4305 c 3.699607,0 6.702186,3.00258 6.702186,6.70217 z m 9.025609,53.61749 c 0,3.6996 -3.002579,6.70218 -6.702185,6.70218 h -42.45611 v -13.40437 h 42.45611 c 3.699606,0 6.702185,3.00258 6.702185,6.70219 z m -9.025609,53.61748 c 0,3.69961 -3.002579,6.70218 -6.702186,6.70218 h -33.4305 v -13.40436 h 33.4305 c 3.699607,0 6.702186,3.00258 6.702186,6.70218 z m -9.02561,-26.80874 c 0,3.6996 -3.002579,6.70218 -6.702185,6.70218 H 27.737756 v -13.40436 h 24.404891 c 3.699606,0 6.702185,3.00257 6.702185,6.70218 z m 0,-53.61748 c 0,3.6996 -3.002579,6.70218 -6.702185,6.70218 H 27.737756 v -13.40437 h 24.404891 c 3.699606,0 6.702185,3.00258 6.702185,6.70219 z m 0,-53.61749 c 0,3.69962 -3.002579,6.70219 -6.702185,6.70219 H 27.737756 v -13.40437 h 24.404891 c 3.699606,0 6.702185,3.00258 6.702185,6.70218 z m 0,-53.61747 c 0,3.6996 -3.002579,6.70218 -6.702185,6.70218 H 27.737756 v -13.40438 h 24.404891 c 3.699606,0 6.702185,3.00258 6.702185,6.7022 z m 0,-53.61749 c 0,3.69961 -3.002579,6.70219 -6.702185,6.70219 H 27.737756 v -13.40437 h 24.404891 c 3.699606,0 6.702185,3.00258 6.702185,6.70218 z m 0,-53.61748 c 0,3.6996 -3.002579,6.70218 -6.702185,6.70218 H 27.737756 v -13.40436 h 24.404891 c 3.699606,0 6.702185,3.00257 6.702185,6.70218 z m 0,-53.617479 c 0,3.699606 -3.002579,6.702186 -6.702185,6.702186 H 27.737756 V 81.344386 h 24.404891 c 3.699606,0 6.702185,3.002579 6.702185,6.702185 z"
     data-original="#83d3f0"
     id="path2878"
     style="fill:#2e92fa;fill-opacity:1;stroke-width:0.893624" /></svg>
