<?xml version="1.0" encoding="UTF-8" standalone="no"?>
<svg
   width="512"
   height="512"
   version="1.1"
   viewBox="0 0 512 512"
   id="svg41"
   sodipodi:docname="folder-desktop.svg"
   xml:space="preserve"
   inkscape:version="1.2.2 (b0a8486541, 2022-12-01)"
   xmlns:inkscape="http://www.inkscape.org/namespaces/inkscape"
   xmlns:sodipodi="http://sodipodi.sourceforge.net/DTD/sodipodi-0.dtd"
   xmlns:xlink="http://www.w3.org/1999/xlink"
   xmlns="http://www.w3.org/2000/svg"
   xmlns:svg="http://www.w3.org/2000/svg"
   xmlns:rdf="http://www.w3.org/1999/02/22-rdf-syntax-ns#"
   xmlns:cc="http://creativecommons.org/ns#"
   xmlns:dc="http://purl.org/dc/elements/1.1/"><sodipodi:namedview
     id="namedview43"
     pagecolor="#505050"
     bordercolor="#eeeeee"
     borderopacity="1"
     inkscape:showpageshadow="0"
     inkscape:pageopacity="0"
     inkscape:pagecheckerboard="0"
     inkscape:deskcolor="#505050"
     showgrid="true"
     inkscape:zoom="1"
     inkscape:cx="604"
     inkscape:cy="261"
     inkscape:current-layer="svg41"
     inkscape:window-width="1920"
     inkscape:window-height="1025"
     inkscape:window-x="1920"
     inkscape:window-y="26"
     inkscape:window-maximized="1"
     showguides="false"><inkscape:grid
       type="xygrid"
       id="grid274" /></sodipodi:namedview><title
     id="title2">Canvas icon theme</title><defs
     id="defs9"><linearGradient
       inkscape:collect="always"
       id="linearGradient928"><stop
         style="stop-color:#7e7e7e;stop-opacity:0;"
         offset="0"
         id="stop924" /><stop
         style="stop-color:#ffffff;stop-opacity:0.5;"
         offset="0.04993822"
         id="stop932" /><stop
         style="stop-color:#ffffff;stop-opacity:0.29605946;"
         offset="0.10320921"
         id="stop940" /><stop
         style="stop-color:#7f7f7f;stop-opacity:0;"
         offset="0.51680118"
         id="stop934" /><stop
         style="stop-color:#ffffff;stop-opacity:0.30004191;"
         offset="0.899064"
         id="stop936" /><stop
         style="stop-color:#ffffff;stop-opacity:0.5;"
         offset="0.94683141"
         id="stop926" /><stop
         style="stop-color:#808080;stop-opacity:0;"
         offset="1"
         id="stop938" /></linearGradient><linearGradient
       id="a"
       x1="0.086597763"
       x2="16.847181"
       y1="281.43524"
       y2="295.90347"
       gradientTransform="matrix(32.485426,0,0,30.32054,-19.050639,-8492.5582)"
       gradientUnits="userSpaceOnUse"><stop
         stop-color="#ff9fa7"
         offset="0"
         id="stop4"
         style="stop-color:#9976c2;stop-opacity:1;" /><stop
         stop-color="#966fff"
         offset="1"
         id="stop6"
         style="stop-color:#9976c2;stop-opacity:1;" /></linearGradient><linearGradient
       y2="21.386522"
       x2="27.557428"
       y1="7.162672"
       x1="27.557428"
       gradientTransform="matrix(0.62762637,0,0,0.79043346,1.97277,-3.8155921)"
       gradientUnits="userSpaceOnUse"
       id="linearGradient4440-9"
       xlink:href="#linearGradient3454-2-5-0-3-4-1" /><linearGradient
       id="linearGradient3454-2-5-0-3-4-1"><stop
         id="stop3456-4-9-38-1-8-8"
         style="stop-color:#ffffff;stop-opacity:1"
         offset="0" /><stop
         id="stop3458-39-80-3-5-5-8"
         style="stop-color:#ffffff;stop-opacity:0.23529412"
         offset="0.0097359" /><stop
         id="stop3460-7-0-2-4-2-7"
         style="stop-color:#ffffff;stop-opacity:0.15686275"
         offset="0.99001008" /><stop
         id="stop3462-0-9-8-7-2-3"
         style="stop-color:#ffffff;stop-opacity:0.39215687"
         offset="1" /></linearGradient><linearGradient
       y2="36.657963"
       x2="22.809399"
       y1="49.629246"
       x1="22.934725"
       gradientTransform="matrix(0.54761895,0,0,0.48299421,-2.10685,-7.2449071)"
       gradientUnits="userSpaceOnUse"
       id="linearGradient4436-4"
       xlink:href="#linearGradient6129-963-697-142-998-580-273-5-3" /><linearGradient
       id="linearGradient6129-963-697-142-998-580-273-5-3"><stop
         offset="0"
         style="stop-color:#0a0a0a;stop-opacity:0.498"
         id="stop2661-1-2" /><stop
         offset="1"
         style="stop-color:#0a0a0a;stop-opacity:0"
         id="stop2663-85-8" /></linearGradient><linearGradient
       y2="43.761127"
       x2="35.792694"
       y1="17.118193"
       x1="35.792694"
       gradientTransform="matrix(0.4666607,0,0,0.4821427,-0.16384998,-7.4553496)"
       gradientUnits="userSpaceOnUse"
       id="linearGradient4430-9"
       xlink:href="#linearGradient4632-0-6-4-7" /><linearGradient
       id="linearGradient4632-0-6-4-3-4-0"><stop
         id="stop4634-4-4-7-7-4-8"
         offset="0"
         style="stop-color:#bababa;stop-opacity:1;" /><stop
         id="stop4636-3-1-5-1-3-9"
         offset="1"
         style="stop-color:#838383;stop-opacity:1;" /></linearGradient><linearGradient
       y2="34.143417"
       x2="21.37039"
       y1="4.73244"
       x1="21.37039"
       gradientTransform="matrix(0.43131243,0,0,0.48638011,0.98956,-4.8145871)"
       gradientUnits="userSpaceOnUse"
       id="linearGradient4418-4"
       xlink:href="#linearGradient4325-0" /><linearGradient
       id="linearGradient4325-0"><stop
         id="stop4327-4"
         style="stop-color:#ffffff;stop-opacity:1"
         offset="0" /><stop
         id="stop4329-5"
         style="stop-color:#ffffff;stop-opacity:0.23529412"
         offset="0.1106325" /><stop
         id="stop4331-6"
         style="stop-color:#ffffff;stop-opacity:0.15686275"
         offset="0.99001008" /><stop
         id="stop4333-7"
         style="stop-color:#ffffff;stop-opacity:0.39215687"
         offset="1" /></linearGradient><linearGradient
       id="linearGradient4646-7-4-3-5-6"><stop
         id="stop4648-8-0-3-6-5"
         style="stop-color:#f9f9f9;stop-opacity:1"
         offset="0" /><stop
         id="stop4650-1-7-3-4-8"
         style="stop-color:#d8d8d8;stop-opacity:1"
         offset="1" /></linearGradient><linearGradient
       id="linearGradient3104-8-8-97-4-6-11-5-5-0-5"><stop
         id="stop3106-5-4-3-5-0-2-1-0-6-6"
         style="stop-color:#000000;stop-opacity:0.32173914"
         offset="0" /><stop
         id="stop3108-4-3-7-8-2-0-7-9-1-4"
         style="stop-color:#000000;stop-opacity:0.27826086"
         offset="1" /></linearGradient><linearGradient
       xlink:href="#linearGradient3104-8-8-97-4-6-11-5-5-0-5"
       id="linearGradient10992"
       gradientUnits="userSpaceOnUse"
       gradientTransform="matrix(0.40212523,0,0,0.398023,52.35056,-7.7909371)"
       x1="-51.786404"
       y1="53.514328"
       x2="-51.786404"
       y2="3.6336823" /><linearGradient
       id="linearGradient4632-0-6-4-7"><stop
         id="stop4634-4-4-7-5"
         offset="0"
         style="stop-color:#55a7f3;stop-opacity:1;" /><stop
         id="stop4636-3-1-5-3"
         offset="1"
         style="stop-color:#1374cf;stop-opacity:1;" /></linearGradient><linearGradient
       inkscape:collect="always"
       id="linearGradient47707"><stop
         style="stop-color:#916cbc;stop-opacity:1;"
         offset="0"
         id="stop47703" /><stop
         style="stop-color:#916cbc;stop-opacity:1;"
         offset="0.50168061"
         id="stop48280" /><stop
         style="stop-color:#916cbb;stop-opacity:1;"
         offset="1"
         id="stop47705" /></linearGradient><linearGradient
       inkscape:collect="always"
       xlink:href="#linearGradient928"
       id="linearGradient3508"
       gradientUnits="userSpaceOnUse"
       x1="8.4444284"
       y1="255.99419"
       x2="506.96872"
       y2="255.99419"
       gradientTransform="matrix(0.97825454,0,0,0.97825454,3.7463471,3.0847214)" /><radialGradient
       inkscape:collect="always"
       xlink:href="#linearGradient47707"
       id="radialGradient5624"
       cx="256.0174"
       cy="256"
       fx="256.0174"
       fy="256"
       r="249.39642"
       gradientTransform="matrix(1,0,0,0.75000355,0,63.99909)"
       gradientUnits="userSpaceOnUse" /></defs><metadata
     id="metadata272"><rdf:RDF><cc:Work
         rdf:about=""><dc:title>Canvas icon theme</dc:title></cc:Work></rdf:RDF></metadata><path
     id="path3497"
     style="color:#e0def4;fill:url(#radialGradient5624);fill-opacity:1;stroke-width:28.862"
     class="ColorScheme-Text"
     d="M 131.00793,68.952427 C 92.0398,69.353228 63.04822,68.151997 39.66735,79.241207 28.13277,84.772467 18.77983,94.205357 13.48016,105.90915 8.4922393,117.61297 6.6209793,131.5601 6.6209793,149.11581 v 48.67893 116.41115 48.67893 c 0,17.55571 1.87126,31.50505 6.8591807,43.20888 5.29967,11.70379 14.65261,21.13669 26.18719,26.66794 23.38087,11.08921 52.37245,9.88576 91.34058,10.28656 h 124.05018 125.97104 c 38.96812,-0.4008 67.95968,0.82936 91.34055,-10.28656 2.99769,-1.44445 5.83957,-3.15861 8.50974,-5.09342 7.96927,-5.6699 14.09091,-13.08865 17.65752,-21.53464 0.006,-0.0137 0.0142,-0.0262 0.0199,-0.0399 2.7e-4,-6.4e-4 -2.6e-4,-0.001 0,-0.002 0.62322,-1.46235 1.19758,-2.95795 1.72588,-4.49303 2.2e-4,-6.6e-4 -2.3e-4,-0.001 0,-0.002 0.23399,-0.68001 0.42643,-1.3964 0.64248,-2.09144 0.27197,-0.87461 0.56436,-1.73285 0.80866,-2.63201 0.31414,-1.15662 0.48992,-2.45206 0.75993,-3.65114 0.48359,-2.14698 1.01253,-4.24547 1.36253,-6.53794 0.54524,-3.57127 0.93448,-7.32661 1.1875,-11.28796 0.2532,-3.95931 0.36998,-8.122 0.36998,-12.51092 v -213.76681 -0.002 c 0,-4.39173 -0.11717,-8.55352 -0.36998,-12.51093 -2.4e-4,-0.003 2.5e-4,-0.007 0,-0.0113 -0.25303,-3.95671 -0.64284,-7.70719 -1.1875,-11.27467 -0.40139,-2.62904 -0.98386,-5.0606 -1.56194,-7.49946 -0.20734,-0.87478 -0.32908,-1.83773 -0.56052,-2.68962 -6.1e-4,-0.002 -0.002,-0.005 -0.002,-0.007 -0.0891,-0.32788 -0.20191,-0.63473 -0.29467,-0.95931 -0.36323,-1.27149 -0.7336,-2.53737 -1.15426,-3.75971 -0.52842,-1.53509 -1.10251,-3.03226 -1.72588,-4.49524 -3.56421,-8.464283 -9.69619,-15.897103 -17.67968,-21.576733 -2.66973,-1.93437 -5.51039,-3.64703 -8.50752,-5.09122 -23.3811,-11.11659 -52.37265,-9.888639 -91.34078,-10.28944 H 255.05806 Z" /><rect
     style="opacity:0.5;fill:#000000;fill-opacity:0.3;stroke-width:13.1096;stroke-linecap:round;stroke-opacity:0.401604;paint-order:markers fill stroke"
     id="rect1822"
     width="338.21915"
     height="75.979576"
     x="86.907829"
     y="364.38092"
     ry="16.48439" /><rect
     x="111.64147"
     y="379.01196"
     width="46.717487"
     height="46.717487"
     ry="4.6717486"
     style="fill:#000000;fill-opacity:0.599107;stroke-width:35.3144;paint-order:stroke markers fill"
     id="rect27" /><rect
     x="192.3196"
     y="379.01196"
     width="46.717487"
     height="46.717487"
     ry="4.6717486"
     style="fill:#000000;fill-opacity:0.599107;stroke-width:35.3144;paint-order:stroke markers fill"
     id="rect29" /><rect
     x="272.99771"
     y="379.01196"
     width="46.717487"
     height="46.717487"
     ry="4.6717486"
     style="fill:#000000;fill-opacity:0.599107;stroke-width:35.3144;paint-order:stroke markers fill"
     id="rect31" /><rect
     x="353.67584"
     y="379.01196"
     width="46.717487"
     height="46.717487"
     ry="4.6717486"
     style="fill:#000000;fill-opacity:0.599107;stroke-width:35.3144;paint-order:stroke markers fill"
     id="rect33" /><path
     id="path3506"
     style="opacity:0.49;fill:url(#linearGradient3508);fill-opacity:1;stroke-width:29.6612;paint-order:stroke markers fill"
     d="M 98.936423,74.238998 C 39.303261,74.264654 11.614399,88.132761 11.637085,152.23609 l 0.07548,213.26829 c 0.01478,41.77222 -0.397833,72.02188 81.322923,72.07497 l 323.886972,0.2104 c 56.91328,0.037 83.37194,-20.03568 83.27971,-65.89672 l -0.453,-225.26307 c -0.1014,-50.421599 -13.53339,-72.557583 -98.8316,-72.520885 z m 6.293687,5.890556 289.39378,-0.12992 c 69.90498,-0.03138 97.30333,5.591319 97.44062,71.131826 l 0.453,216.26199 c 0.13119,62.63107 -52.49311,64.52371 -81.88872,64.50384 L 99.329189,431.68689 C 37.466859,431.64508 19.41438,407.42748 19.397227,361.0048 l -0.07548,-204.26721 c -0.0282,-76.3255 38.662095,-76.608036 85.908383,-76.608036 z"
     sodipodi:nodetypes="sssssssssssssssssss" /><path
     id="path2540"
     style="color:#e0def4;fill:none;fill-opacity:0.59910703;stroke-width:10;stroke-dasharray:none;stroke:#000000;stroke-opacity:0.40000001"
     class="ColorScheme-Text"
     d="M 131.00793,68.952427 C 92.0398,69.353228 63.04822,68.151997 39.66735,79.241207 28.13277,84.772467 18.77983,94.205357 13.48016,105.90915 8.4922393,117.61297 6.6209793,131.5601 6.6209793,149.11581 v 48.67893 116.41115 48.67893 c 0,17.55571 1.87126,31.50505 6.8591807,43.20888 5.29967,11.70379 14.65261,21.13669 26.18719,26.66794 23.38087,11.08921 52.37245,9.88576 91.34058,10.28656 h 124.05018 125.97104 c 38.96812,-0.4008 67.95968,0.82936 91.34055,-10.28656 2.99769,-1.44445 5.83957,-3.15861 8.50974,-5.09342 7.96927,-5.6699 14.09091,-13.08865 17.65752,-21.53464 0.006,-0.0137 0.0142,-0.0262 0.0199,-0.0399 2.7e-4,-6.4e-4 -2.6e-4,-0.001 0,-0.002 0.62322,-1.46235 1.19758,-2.95795 1.72588,-4.49303 2.2e-4,-6.6e-4 -2.3e-4,-0.001 0,-0.002 0.23399,-0.68001 0.42643,-1.3964 0.64248,-2.09144 0.27197,-0.87461 0.56436,-1.73285 0.80866,-2.63201 0.31414,-1.15662 0.48992,-2.45206 0.75993,-3.65114 0.48359,-2.14698 1.01253,-4.24547 1.36253,-6.53794 0.54524,-3.57127 0.93448,-7.32661 1.1875,-11.28796 0.2532,-3.95931 0.36998,-8.122 0.36998,-12.51092 v -213.76681 -0.002 c 0,-4.39173 -0.11717,-8.55352 -0.36998,-12.51093 -2.4e-4,-0.003 2.5e-4,-0.007 0,-0.0113 -0.25303,-3.95671 -0.64284,-7.70719 -1.1875,-11.27467 -0.40139,-2.62904 -0.98386,-5.0606 -1.56194,-7.49946 -0.20734,-0.87478 -0.32908,-1.83773 -0.56052,-2.68962 -6.1e-4,-0.002 -0.002,-0.005 -0.002,-0.007 -0.0891,-0.32788 -0.20191,-0.63473 -0.29467,-0.95931 -0.36323,-1.27149 -0.7336,-2.53737 -1.15426,-3.75971 -0.52842,-1.53509 -1.10251,-3.03226 -1.72588,-4.49524 -3.56421,-8.464283 -9.69619,-15.897103 -17.67968,-21.576733 -2.66973,-1.93437 -5.51039,-3.64703 -8.50752,-5.09122 -23.3811,-11.11659 -52.37265,-9.888639 -91.34078,-10.28944 H 255.05806 Z" /></svg>
