<?xml version="1.0" encoding="UTF-8" standalone="no"?>
<!-- Created with Inkscape (http://www.inkscape.org/) -->

<svg
   width="64"
   height="64"
   viewBox="0 0 64 64"
   version="1.1"
   id="svg5"
   inkscape:version="1.3.2 (091e20ef0f, 2023-11-25, custom)"
   sodipodi:docname="user-home.svg"
   xml:space="preserve"
   xmlns:inkscape="http://www.inkscape.org/namespaces/inkscape"
   xmlns:sodipodi="http://sodipodi.sourceforge.net/DTD/sodipodi-0.dtd"
   xmlns:xlink="http://www.w3.org/1999/xlink"
   xmlns="http://www.w3.org/2000/svg"
   xmlns:svg="http://www.w3.org/2000/svg"><sodipodi:namedview
     id="namedview7"
     pagecolor="#ffffff"
     bordercolor="#000000"
     borderopacity="0.25"
     inkscape:showpageshadow="2"
     inkscape:pageopacity="0.0"
     inkscape:pagecheckerboard="0"
     inkscape:deskcolor="#d1d1d1"
     inkscape:document-units="px"
     showgrid="true"
     inkscape:zoom="6.4948135"
     inkscape:cx="29.946972"
     inkscape:cy="42.649416"
     inkscape:window-width="1920"
     inkscape:window-height="1013"
     inkscape:window-x="1920"
     inkscape:window-y="36"
     inkscape:window-maximized="1"
     inkscape:current-layer="layer1"><inkscape:grid
       id="grid1"
       units="px"
       originx="0"
       originy="0"
       spacingx="1"
       spacingy="1"
       empcolor="#0099e5"
       empopacity="0.30196078"
       color="#0099e5"
       opacity="0.14902"
       empspacing="5"
       dotted="false"
       gridanglex="30"
       gridanglez="30"
       visible="true" /></sodipodi:namedview><defs
     id="defs2"><inkscape:path-effect
       effect="fillet_chamfer"
       id="path-effect15"
       is_visible="true"
       lpeversion="1"
       nodesatellites_param="F,0,0,1,0,0,0,1 @ F,0,0,1,0,0,0,1 @ F,0,0,1,0,0,0,1 @ F,0,1,1,0,5,0,1 @ F,0,1,1,0,5,0,1 @ F,0,0,1,0,0,0,1 @ F,0,0,1,0,0,0,1"
       radius="5"
       unit="px"
       method="auto"
       mode="F"
       chamfer_steps="1"
       flexible="false"
       use_knot_distance="true"
       apply_no_radius="true"
       apply_with_radius="true"
       only_selected="true"
       hide_knots="false" /><inkscape:path-effect
       effect="fillet_chamfer"
       id="path-effect14"
       is_visible="true"
       lpeversion="1"
       nodesatellites_param="F,0,0,1,0,0,0,1 @ F,0,0,1,0,0,0,1 @ F,0,0,1,0,0,0,1 @ F,0,0,1,0,0,0,1 @ F,0,0,1,0,0,0,1 @ F,0,0,1,0,0,0,1 @ F,0,0,1,0,0,0,1 @ F,0,0,1,0,0,0,1 @ F,0,0,1,0,0,0,1 @ F,0,0,1,0,0,0,1 @ F,0,0,1,0,0,0,1 @ F,0,1,1,0,5,0,1 @ F,0,0,1,0,0,0,1 @ F,0,0,1,0,0,0,1 @ F,0,0,1,0,0,0,1 @ F,0,0,1,0,0,0,1"
       radius="5"
       unit="px"
       method="auto"
       mode="F"
       chamfer_steps="1"
       flexible="false"
       use_knot_distance="true"
       apply_no_radius="true"
       apply_with_radius="true"
       only_selected="true"
       hide_knots="false" /><inkscape:path-effect
       effect="fillet_chamfer"
       id="path-effect1"
       is_visible="true"
       lpeversion="1"
       nodesatellites_param="F,0,1,1,0,40,0,1 @ F,0,0,1,0,0,0,1 @ F,0,0,1,0,0,0,1 @ F,0,0,1,0,0,0,1 @ F,0,0,1,0,0,0,1 @ F,0,0,1,0,0,0,1 @ F,0,0,1,0,0,0,1 @ F,0,0,1,0,0,0,1 @ F,0,0,1,0,0,0,1 @ F,0,0,1,0,0,0,1 @ F,0,0,1,0,0,0,1 @ F,0,0,1,0,0,0,1 @ F,0,0,1,0,0,0,1 @ F,0,0,1,0,0,0,1"
       radius="40"
       unit="px"
       method="auto"
       mode="F"
       chamfer_steps="1"
       flexible="false"
       use_knot_distance="true"
       apply_no_radius="true"
       apply_with_radius="true"
       only_selected="true"
       hide_knots="false" /><style
       id="current-color-scheme"
       type="text/css">
   .ColorScheme-Text { color:#dfdfdf; } .ColorScheme-Highlight { color:#4285f4; } .ColorScheme-NeutralText { color:#ff9800; } .ColorScheme-PositiveText { color:#4caf50; } .ColorScheme-NegativeText { color:#f44336; }
  </style><filter
       inkscape:collect="always"
       style="color-interpolation-filters:sRGB"
       id="filter12"
       x="-0.017995653"
       y="-0.033029687"
       width="1.0359913"
       height="1.0660594"><feGaussianBlur
         inkscape:collect="always"
         stdDeviation="0.23976628"
         id="feGaussianBlur12" /></filter><linearGradient
       inkscape:collect="always"
       xlink:href="#linearGradient6-4"
       id="linearGradient8"
       x1="0"
       y1="0"
       x2="64"
       y2="64"
       gradientUnits="userSpaceOnUse" /><linearGradient
       id="linearGradient6-4"
       inkscape:collect="always"><stop
         style="stop-color:#9477bb;stop-opacity:1;"
         offset="0"
         id="stop7" /><stop
         style="stop-color:#9274ba;stop-opacity:1;"
         offset="1"
         id="stop9" /></linearGradient><linearGradient
       inkscape:collect="always"
       xlink:href="#linearGradient12"
       id="linearGradient13"
       x1="-63.829453"
       y1="32.006756"
       x2="-6.9064422"
       y2="32.006756"
       gradientUnits="userSpaceOnUse"
       gradientTransform="translate(67.36845,-0.00224755)" /><linearGradient
       id="linearGradient12"
       inkscape:collect="always"><stop
         style="stop-color:#ffffff;stop-opacity:0;"
         offset="0"
         id="stop12" /><stop
         style="stop-color:#ffffff;stop-opacity:0.3"
         offset="0.09748957"
         id="stop14" /><stop
         style="stop-color:#ffffff;stop-opacity:0;"
         offset="0.1993918"
         id="stop15" /><stop
         style="stop-color:#ffffff;stop-opacity:0;"
         offset="0.50489056"
         id="stop16" /><stop
         style="stop-color:#ffffff;stop-opacity:0;"
         offset="0.80300045"
         id="stop19" /><stop
         style="stop-color:#ffffff;stop-opacity:0.302"
         offset="0.89696491"
         id="stop18" /><stop
         style="stop-color:#ffffff;stop-opacity:0;"
         offset="1"
         id="stop13" /></linearGradient><linearGradient
       inkscape:collect="always"
       xlink:href="#linearGradient3"
       id="linearGradient5"
       x1="12.78446"
       y1="18.196804"
       x2="35.266891"
       y2="18.196804"
       gradientUnits="userSpaceOnUse" /><linearGradient
       id="linearGradient3"
       inkscape:collect="always"><stop
         style="stop-color:#ffffff;stop-opacity:0;"
         offset="0"
         id="stop4-7" /><stop
         style="stop-color:#ffffff;stop-opacity:0.30240488;"
         offset="0.69896251"
         id="stop6" /><stop
         style="stop-color:#ffffff;stop-opacity:0;"
         offset="1"
         id="stop5-6" /></linearGradient></defs><g
     inkscape:label="Layer 1"
     inkscape:groupmode="layer"
     id="layer1"><path
       fill="url(#_lgradient_1)"
       fill-rule="evenodd"
       d="m 35.62026,13.899902 h 5.15436 c 1.02465,-0.0022 2.04929,0.0089 3.07395,0.03063 0.9174,0.01731 1.83505,0.05016 2.75245,0.100322 0.8175,0.0435 1.63475,0.10676 2.44988,0.189548 0.72421,0.07435 1.44844,0.174455 2.16579,0.298749 0.64277,0.11142 1.27845,0.253026 1.90488,0.425262 0.5682,0.154923 1.12481,0.34669 1.6627,0.573526 0.50072,0.209302 0.98037,0.457889 1.43447,0.743542 0.43562,0.274778 0.84305,0.588841 1.21569,0.935532 0.37029,0.348909 0.70552,0.728449 0.99885,1.136177 0.30518,0.425261 0.57057,0.874494 0.79643,1.341039 0.24219,0.506052 0.44722,1.024979 0.61485,1.55478 0.18395,0.586622 0.33546,1.181899 0.45408,1.783835 0.13281,0.67163 0.23982,1.347698 0.31913,2.025765 0.0886,0.763296 0.15603,1.526592 0.20266,2.291886 0.0535,0.85696 0.0883,1.716139 0.10938,2.5731 0.0208,0.959502 0.0326,1.919005 0.0302,2.876287 v 5.680262 c 0.003,0.959503 -0.009,1.916786 -0.0302,2.876288 -0.0211,0.85918 -0.0559,1.71614 -0.10938,2.5731 -0.0467,0.765294 -0.11411,1.53081 -0.20266,2.291886 -0.0793,0.678066 -0.18632,1.356355 -0.31913,2.027985 -0.11862,0.599716 -0.27013,1.194994 -0.45408,1.781615 -0.16763,0.529801 -0.37266,1.050948 -0.61485,1.55478 -0.22586,0.468765 -0.49125,0.915779 -0.79643,1.34104 -0.29333,0.407728 -0.62856,0.789487 -0.99885,1.136177 -0.37264,0.346691 -0.78007,0.660754 -1.21569,0.935531 -0.4541,0.285653 -0.93375,0.534242 -1.43447,0.743543 -0.53789,0.226835 -1.0945,0.418603 -1.6627,0.575746 -0.62643,0.172235 -1.26211,0.313841 -1.90488,0.423042 -0.71735,0.126291 -1.44158,0.224394 -2.16579,0.298748 -0.81513,0.08279 -1.63238,0.146045 -2.44988,0.189549 -0.9174,0.05016 -1.83505,0.08301 -2.75245,0.102542 -1.02466,0.01953 -2.0493,0.03062 -3.07395,0.02841 h -17.5493 c -1.02465,0.0023 -2.0493,-0.0089 -3.07395,-0.02841 -0.91741,-0.01953 -1.83505,-0.05238 -2.75245,-0.102542 -0.8175,-0.0435 -1.63476,-0.106759 -2.44989,-0.189549 -0.72421,-0.07435 -1.44843,-0.172457 -2.16578,-0.298748 -0.64278,-0.109201 -1.27845,-0.250807 -1.90489,-0.423042 -0.568195,-0.157143 -1.1247947,-0.348911 -1.6626877,-0.575746 -0.500726,-0.209301 -0.980379,-0.45789 -1.434465,-0.743543 -0.43562,-0.274777 -0.843065,-0.58884 -1.215709,-0.935531 -0.370277,-0.34669 -0.705514,-0.728449 -0.998846,-1.136177 -0.30517,-0.425261 -0.570566,-0.872275 -0.796425,-1.34104 -0.242195,-0.503832 -0.447221,-1.024979 -0.614839,-1.55478 -0.183954,-0.586621 -0.335474,-1.181899 -0.454085,-1.781615 -0.132816,-0.67163 -0.239828,-1.349919 -0.319139,-2.027985 -0.08853,-0.761076 -0.156018,-1.526592 -0.202657,-2.291886 -0.0535,-0.85696 -0.0883,-1.71392 -0.109378,-2.5731 -0.02084,-0.959502 -0.03267,-1.916785 -0.03029,-2.876288 V 25.539821 c -0.0024,-0.957282 0.0095,-1.916785 0.03029,-2.876287 0.02107,-0.856961 0.05587,-1.71614 0.109378,-2.5731 0.04665,-0.765294 0.114113,-1.52859 0.202657,-2.291886 0.07931,-0.678067 0.186323,-1.354135 0.319139,-2.025765 0.118611,-0.601936 0.270131,-1.197213 0.454085,-1.783835 0.167618,-0.529801 0.372644,-1.048728 0.614839,-1.55478 0.225859,-0.466545 0.491255,-0.915778 0.796425,-1.341039 0.293332,-0.407728 0.628569,-0.787268 0.998846,-1.1361771 0.372644,-0.346691 0.780089,-0.660754 1.215709,-0.935532 0.454086,-0.285652 0.933739,-0.5342413 1.434465,-0.7435463 0.537893,-0.22683 1.0944927,-0.4186 1.6626877,-0.573519 0.62644,-0.172241 1.26211,-0.313841 1.90489,-0.425261 0.71735,-0.124299 1.44157,-0.224399 2.16578,-0.298749 0.81513,-0.0828 1.63239,-0.146051 2.44989,-0.18955 0.9174,-0.0502 1.83504,-0.083 2.75245,-0.10032 1.02465,-0.0218 2.0493,-0.0329 3.07395,-0.0306 h 5.15494"
       id="path9"
       style="isolation:isolate;fill:#6a4b9f;fill-opacity:1;stroke-width:0.229232"
       sodipodi:nodetypes="cccccccccccccccccccccccccccccccccccccccccccccccccccccccccccccccccccccc" /><path
       id="path8"
       style="isolation:isolate;mix-blend-mode:normal;fill:#000000;fill-opacity:1;stroke:none;stroke-width:0.229232;stroke-opacity:1;filter:url(#filter12)"
       d="m 35.26689,14.253611 -6.88672,6.886719 h -5.1543 c -1.02465,-0.0022 -2.04956,0.0095 -3.07422,0.03125 -0.9174,0.01731 -1.83455,0.04945 -2.75195,0.09961 -0.8175,0.0435 -1.63409,0.106665 -2.44922,0.189453 -0.72421,0.07435 -1.44867,0.174534 -2.16602,0.298828 -0.64276,0.11142 -1.27982,0.253545 -1.90625,0.425781 -0.568195,0.154923 -1.1242147,0.34543 -1.6621057,0.572266 -0.500716,0.2093 -0.979494,0.45849 -1.433594,0.74414 -0.435617,0.274778 -0.844158,0.588857 -1.216796,0.935547 -0.370288,0.348909 -0.70472,0.728992 -0.998047,1.136719 -0.30518,0.425259 -0.571016,0.873299 -0.796875,1.339844 -0.242189,0.506049 -0.447604,1.024889 -0.615235,1.554687 -0.183947,0.586622 -0.334504,1.183222 -0.453125,1.785156 -0.06062,0.306586 -0.114102,0.613756 -0.164062,0.921875 v 0.5 c 0.04996,-0.308119 0.103438,-0.615289 0.164062,-0.921875 0.118621,-0.601934 0.269178,-1.196581 0.453125,-1.783203 0.167631,-0.529798 0.373046,-1.048638 0.615235,-1.554687 0.225859,-0.466545 0.491695,-0.916538 0.796875,-1.341797 0.293327,-0.407727 0.627758,-0.78781 0.998047,-1.136719 0.372638,-0.34669 0.781179,-0.660769 1.216796,-0.935547 0.4541,-0.28565 0.932878,-0.53484 1.433594,-0.74414 0.53789,-0.226836 1.0939107,-0.417343 1.6621057,-0.572266 0.62643,-0.172236 1.26349,-0.314361 1.90625,-0.425781 0.71735,-0.124294 1.44181,-0.224478 2.16602,-0.298828 0.81513,-0.08279 1.63172,-0.145955 2.44922,-0.189453 0.9174,-0.05016 1.83455,-0.0823 2.75195,-0.09961 1.02466,-0.02173 2.04957,-0.03345 3.07422,-0.03125 h 5.1543 l 7.13476,-7.134766 z" /><path
       fill="url(#_lgradient_1)"
       fill-rule="evenodd"
       d="M 28.38026,21.13993 H 23.2259 c -1.02465,-0.0022 -2.04929,0.0089 -3.07395,0.03063 -0.9174,0.01731 -1.83505,0.05016 -2.75245,0.100322 -0.8175,0.0435 -1.63475,0.10676 -2.44988,0.189548 -0.72421,0.07435 -1.44844,0.174455 -2.16579,0.298749 -0.64277,0.11142 -1.27845,0.253026 -1.90488,0.425262 -0.568199,0.154923 -1.1248087,0.34669 -1.6626987,0.573526 -0.50072,0.209302 -0.98037,0.457889 -1.43447,0.743542 -0.43562,0.274778 -0.84305,0.588841 -1.21569,0.935532 -0.37029,0.348909 -0.70552,0.728449 -0.99885,1.136177 -0.30518,0.425261 -0.57057,0.874494 -0.79643,1.341039 -0.24219,0.506052 -0.44722,1.024979 -0.61485,1.55478 -0.18395,0.586622 -0.33546,1.181899 -0.45408,1.783835 -0.13281,0.67163 -0.23982,1.347698 -0.31913,2.025765 -0.0886,0.763296 -0.15603,1.526592 -0.20266,2.291886 -0.0535,0.85696 -0.0883,1.716139 -0.10938,2.5731 -0.0208,0.959502 -0.0326,1.919005 -0.0302,2.876287 v -1.559297 c -0.003,0.959503 0.009,1.916786 0.0302,2.876288 0.0211,0.85918 0.0559,1.71614 0.10938,2.5731 0.0467,0.765294 0.11411,1.53081 0.20266,2.291886 0.0793,0.678066 0.18632,1.356355 0.31913,2.027985 0.11862,0.599716 0.27013,1.194994 0.45408,1.781615 0.16763,0.529801 0.37266,1.050948 0.61485,1.55478 0.22586,0.468765 0.49125,0.915779 0.79643,1.34104 0.29333,0.407728 0.62856,0.789487 0.99885,1.136177 0.37264,0.346691 0.78007,0.660754 1.21569,0.935531 0.4541,0.285653 0.93375,0.534242 1.43447,0.743543 0.53789,0.226835 1.0944997,0.418603 1.6626987,0.575746 0.62643,0.172235 1.26211,0.313841 1.90488,0.423042 0.71735,0.126291 1.44158,0.224394 2.16579,0.298748 0.81513,0.08279 1.63238,0.146045 2.44988,0.189549 0.9174,0.05016 1.83505,0.08301 2.75245,0.102542 1.02466,0.01953 2.0493,0.03062 3.07395,0.02841 h 17.5493 c 1.02465,0.0023 2.0493,-0.0089 3.07395,-0.02841 0.91741,-0.01953 1.83505,-0.05238 2.75245,-0.102542 0.8175,-0.0435 1.63476,-0.106759 2.44989,-0.189549 0.72421,-0.07435 1.44843,-0.172457 2.16578,-0.298748 0.64278,-0.109201 1.27845,-0.250807 1.90489,-0.423042 0.5682,-0.157143 1.1248,-0.348911 1.66269,-0.575746 0.50073,-0.209301 0.98038,-0.45789 1.43446,-0.743543 0.43562,-0.274777 0.84307,-0.58884 1.21571,-0.935531 0.37028,-0.34669 0.70552,-0.728449 0.99885,-1.136177 0.30517,-0.425261 0.57057,-0.872275 0.79643,-1.34104 0.24219,-0.503832 0.44722,-1.024979 0.61483,-1.55478 0.18396,-0.586621 0.33548,-1.181899 0.45409,-1.781615 0.13282,-0.67163 0.23983,-1.349919 0.31914,-2.027985 0.0885,-0.761076 0.15602,-1.526592 0.20266,-2.291886 0.0535,-0.85696 0.0883,-1.71392 0.10937,-2.5731 0.0208,-0.959502 0.0327,-1.916785 0.0303,-2.876288 v -5.680764 c 0.002,-0.957282 -0.01,-1.916785 -0.0303,-2.876287 -0.0211,-0.856961 -0.0559,-1.71614 -0.10937,-2.5731 -0.0466,-0.765294 -0.11412,-1.52859 -0.20266,-2.291886 -0.0793,-0.678067 -0.18632,-1.354135 -0.31914,-2.025765 -0.11861,-0.601936 -0.27013,-1.197213 -0.45409,-1.783835 -0.16761,-0.529801 -0.37264,-1.048728 -0.61483,-1.55478 -0.22586,-0.466545 -0.49126,-0.915778 -0.79643,-1.341039 -0.29333,-0.407728 -0.62857,-0.787268 -0.99885,-1.136177 -0.37264,-0.346691 -0.78009,-0.660754 -1.21571,-0.935532 -0.45408,-0.285653 -0.93373,-0.534241 -1.43446,-0.743546 -0.53789,-0.22683 -1.09449,-0.4186 -1.66269,-0.57352 -0.62644,-0.17224 -1.26211,-0.31384 -1.90489,-0.42526 -0.71735,-0.1243 -1.44157,-0.2244 -2.16578,-0.29875 -0.81513,-0.0828 -1.63239,-0.14605 -2.44989,-0.18955 -0.9174,-0.0502 -1.83504,-0.083 -2.75245,-0.10032 -1.02465,-0.0218 -2.0493,-0.0329 -3.07395,-0.0306 h -5.15494"
       id="path10"
       style="isolation:isolate;fill:url(#linearGradient8);fill-opacity:1;stroke-width:0.229232"
       sodipodi:nodetypes="cccccccccccccccccccccccccccccccccccccccccccccccccccccccccccccccccccccc" /><path
       fill="url(#_lgradient_1)"
       fill-rule="evenodd"
       d="m 35.62026,13.899902 h 5.15436 c 1.02465,-0.0022 2.04929,0.0089 3.07395,0.03063 0.9174,0.01731 1.83505,0.05016 2.75245,0.100322 0.8175,0.0435 1.63475,0.10676 2.44988,0.189548 0.72421,0.07435 1.44844,0.174455 2.16579,0.298749 0.64277,0.11142 1.27845,0.253026 1.90488,0.425262 0.5682,0.154923 1.12481,0.34669 1.6627,0.573526 0.50072,0.209302 0.98037,0.457889 1.43447,0.743542 0.43562,0.274778 0.84305,0.588841 1.21569,0.935532 0.37029,0.348909 0.70552,0.728449 0.99885,1.136177 0.30518,0.425261 0.57057,0.874494 0.79643,1.341039 0.24219,0.506052 0.44722,1.024979 0.61485,1.55478 0.18395,0.586622 0.33546,1.181899 0.45408,1.783835 0.13281,0.67163 0.23982,1.347698 0.31913,2.025765 0.0886,0.763296 0.15603,1.526592 0.20266,2.291886 0.0535,0.85696 0.0883,1.716139 0.10938,2.5731 0.0208,0.959502 0.0326,1.919005 0.0302,2.876287 v 5.680262 c 0.003,0.959503 -0.009,1.916786 -0.0302,2.876288 -0.0211,0.85918 -0.0559,1.71614 -0.10938,2.5731 -0.0467,0.765294 -0.11411,1.53081 -0.20266,2.291886 -0.0793,0.678066 -0.18632,1.356355 -0.31913,2.027985 -0.11862,0.599716 -0.27013,1.194994 -0.45408,1.781615 -0.16763,0.529801 -0.37266,1.050948 -0.61485,1.55478 -0.22586,0.468765 -0.49125,0.915779 -0.79643,1.34104 -0.29333,0.407728 -0.62856,0.789487 -0.99885,1.136177 -0.37264,0.346691 -0.78007,0.660754 -1.21569,0.935531 -0.4541,0.285653 -0.93375,0.534242 -1.43447,0.743543 -0.53789,0.226835 -1.0945,0.418603 -1.6627,0.575746 -0.62643,0.172235 -1.26211,0.313841 -1.90488,0.423042 -0.71735,0.126291 -1.44158,0.224394 -2.16579,0.298748 -0.81513,0.08279 -1.63238,0.146045 -2.44988,0.189549 -0.9174,0.05016 -1.83505,0.08301 -2.75245,0.102542 -1.02466,0.01953 -2.0493,0.03062 -3.07395,0.02841 h -17.5493 c -1.02465,0.0023 -2.0493,-0.0089 -3.07395,-0.02841 -0.91741,-0.01953 -1.83505,-0.05238 -2.75245,-0.102542 -0.8175,-0.0435 -1.63476,-0.106759 -2.44989,-0.189549 -0.72421,-0.07435 -1.44843,-0.172457 -2.16578,-0.298748 -0.64278,-0.109201 -1.27845,-0.250807 -1.90489,-0.423042 -0.568195,-0.157143 -1.1247947,-0.348911 -1.6626877,-0.575746 -0.500726,-0.209301 -0.980379,-0.45789 -1.434465,-0.743543 -0.43562,-0.274777 -0.843065,-0.58884 -1.215709,-0.935531 -0.370277,-0.34669 -0.705514,-0.728449 -0.998846,-1.136177 -0.30517,-0.425261 -0.570566,-0.872275 -0.796425,-1.34104 -0.242195,-0.503832 -0.447221,-1.024979 -0.614839,-1.55478 -0.183954,-0.586621 -0.335474,-1.181899 -0.454085,-1.781615 -0.132816,-0.67163 -0.239828,-1.349919 -0.319139,-2.027985 -0.08853,-0.761076 -0.156018,-1.526592 -0.202657,-2.291886 -0.0535,-0.85696 -0.0883,-1.71392 -0.109378,-2.5731 -0.02084,-0.959502 -0.03267,-1.916785 -0.03029,-2.876288 V 25.539821 c -0.0024,-0.957282 0.0095,-1.916785 0.03029,-2.876287 0.02107,-0.856961 0.05587,-1.71614 0.109378,-2.5731 0.04665,-0.765294 0.114113,-1.52859 0.202657,-2.291886 0.07931,-0.678067 0.186323,-1.354135 0.319139,-2.025765 0.118611,-0.601936 0.270131,-1.197213 0.454085,-1.783835 0.167618,-0.529801 0.372644,-1.048728 0.614839,-1.55478 0.225859,-0.466545 0.491255,-0.915778 0.796425,-1.341039 0.293332,-0.407728 0.628569,-0.787268 0.998846,-1.1361771 0.372644,-0.346691 0.780089,-0.660754 1.215709,-0.935532 0.454086,-0.285652 0.933739,-0.5342413 1.434465,-0.7435463 0.537893,-0.22683 1.0944927,-0.4186 1.6626877,-0.573519 0.62644,-0.172241 1.26211,-0.313841 1.90489,-0.425261 0.71735,-0.124299 1.44157,-0.224399 2.16578,-0.298749 0.81513,-0.0828 1.63239,-0.146051 2.44989,-0.18955 0.9174,-0.0502 1.83504,-0.083 2.75245,-0.10032 1.02465,-0.0218 2.0493,-0.0329 3.07395,-0.0306 h 5.15494 z"
       id="path6-5"
       style="isolation:isolate;fill:none;fill-opacity:1;stroke:#000000;stroke-width:1;stroke-dasharray:none;stroke-opacity:0.296232"
       sodipodi:nodetypes="cccccccccccccccccccccccccccccccccccccccccccccccccccccccccccccccccccccc" /><path
       style="isolation:isolate;fill:#000000;fill-opacity:1;stroke:none;stroke-width:0.229232;stroke-opacity:1"
       d="m 3.0481363,39.23994 c -0.0013,-0.259666 -0.0086,-0.519395 -0.0078,-0.779297 v 0.5 c -5.52e-4,0.176527 0.0054,0.352892 0.0059,0.529297 2.31e-4,-0.0833 0.0015,-0.166672 0.002,-0.25 z"
       id="path11" /><path
       fill="url(#_lgradient_1)"
       fill-rule="evenodd"
       d="m 35.20345,14.877752 5.28459,-0.0043 c 0.98995,-0.0021 1.99949,0.0073 2.98945,0.02819 0.88633,0.01664 1.75064,0.04794 2.63697,0.09615 0.78982,0.04182 1.58534,0.06777 2.37287,0.147351 0.69968,0.07147 1.38452,0.138552 2.07758,0.258027 0.621,0.107102 1.19832,0.189182 1.80354,0.354741 0.54895,0.148917 1.07188,0.273878 1.59156,0.491922 0.48376,0.201187 1.03961,0.422885 1.45636,0.655559 0.42086,0.264127 0.83141,0.543431 1.19143,0.876683 0.35775,0.335387 0.69475,0.678706 0.97815,1.070628 0.29485,0.408778 0.56429,0.853076 0.7825,1.301536 0.23399,0.486437 0.41611,0.996211 0.57806,1.505476 0.17772,0.563883 0.30734,1.126772 0.42194,1.705376 0.12831,0.645596 0.2065,1.267856 0.28312,1.919638 0.0856,0.733708 0.14825,1.500675 0.1933,2.236304 0.0517,0.823742 0.0853,1.649615 0.10568,2.473358 0.0201,0.922309 0.0315,1.84462 0.0292,2.764795 v 5.46008 c 0.003,0.922309 -0.009,1.842485 -0.0292,2.764794 -0.0204,0.825875 -0.0324,1.647453 -0.0841,2.471197 -0.0451,0.735628 -0.0865,1.482966 -0.17208,2.21454 -0.0766,0.651783 -0.15012,1.324022 -0.27844,1.969618 -0.1146,0.576467 -0.22283,1.156078 -0.40055,1.71996 -0.16195,0.509263 -0.32507,1.070831 -0.55905,1.555133 -0.21821,0.450595 -0.45383,0.912045 -0.74867,1.320823 -0.2834,0.391922 -0.61924,0.790997 -0.97699,1.124248 -0.35999,0.333252 -0.82586,0.639622 -1.24673,0.903747 -0.43872,0.274581 -0.94817,0.486801 -1.43193,0.687989 -0.51968,0.218043 -1.05147,0.347538 -1.60042,0.49859 -0.60522,0.165559 -1.2191,0.269341 -1.8401,0.374309 -0.69306,0.121395 -1.41954,0.182572 -2.11923,0.254044 -0.78752,0.07958 -1.59541,0.121454 -2.38523,0.163273 -0.88633,0.04822 -1.7729,0.0798 -2.65923,0.09857 -0.98996,0.01877 -1.97989,0.02943 -2.96984,0.0273 H 23.523 c -0.98995,0.0022 -1.9799,-0.0086 -2.96985,-0.0273 -0.88634,-0.01877 -1.79033,-0.04465 -2.67666,-0.09286 -0.78981,-0.04182 -1.60126,-0.0786 -2.38878,-0.158186 C 14.78802,56.017585 14.10516,55.947723 13.4121,55.826328 12.79109,55.72136 12.11976,55.631605 11.51454,55.466046 10.96558,55.314994 10.350379,55.126649 9.8307023,54.908606 9.3469343,54.707418 8.8484653,54.479783 8.4097583,54.205202 7.9888923,53.941077 7.5676133,53.625855 7.2075893,53.292603 6.8498523,52.959352 6.5126063,52.530088 6.2292083,52.138166 5.9343733,51.729388 5.7516043,51.333894 5.5333953,50.883299 5.2994023,50.398997 5.1523743,49.8905 4.9904333,49.381237 4.8127093,48.817355 4.7142613,48.22651 4.5996683,47.650043 4.4713503,47.004447 4.3908513,46.310383 4.3142273,45.6586 c -0.08553,-0.731574 -0.128909,-1.46367 -0.173968,-2.199298 -0.05169,-0.823744 -0.06949,-1.649363 -0.08986,-2.475238 -0.02013,-0.922309 -0.03156,-1.842485 -0.02927,-2.764794 v -12.4195 c -0.0023,-0.920176 0.0092,-1.842485 0.02927,-2.764794 0.02035,-0.823742 0.03471,-1.655073 0.0864,-2.478815 0.04507,-0.735629 0.0837,-1.470097 0.169247,-2.203807 0.07663,-0.651783 0.155989,-1.311538 0.284307,-1.957135 0.114593,-0.578601 0.201351,-1.158999 0.379075,-1.722883 0.161941,-0.509262 0.315051,-1.02639 0.549044,-1.512825 0.218209,-0.448462 0.452932,-0.933155 0.747767,-1.341932 0.283398,-0.391922 0.597939,-0.78058 0.955676,-1.115963 0.360024,-0.333253 0.798376,-0.655955 1.219242,-0.9200811 C 8.8798643,9.5069549 9.3796863,9.2824 9.8634543,9.081208 10.383131,8.8631709 10.97036,8.7009489 11.51931,8.552034 c 0.60522,-0.1655643 1.22813,-0.2571043 1.84914,-0.3642053 0.69305,-0.119482 1.41239,-0.1915391 2.11208,-0.2630061 0.78752,-0.07959 1.57828,-0.123255 2.36809,-0.1650689 0.88634,-0.04825 1.81819,-0.06203 2.70453,-0.07868 0.98995,-0.02096 1.9799,-0.03162 2.96985,-0.02941 l 4.45676,-0.0099 z"
       id="path12"
       style="isolation:isolate;fill:none;fill-opacity:1;stroke:url(#linearGradient13);stroke-width:0.963682;stroke-dasharray:none;opacity:0.5"
       sodipodi:nodetypes="ccccccccccccccccccccccccccccccccccccccccccccccccccccccccccccccccccccccc" /><path
       id="path2-6"
       style="isolation:isolate;mix-blend-mode:normal;fill:url(#linearGradient5);fill-opacity:1;stroke:none;stroke-width:0.229232;stroke-opacity:1;opacity:0.5"
       d="m 35.26689,14.253611 -6.88672,6.886719 c -5.1543,0 -11.862364,-0.14033 -15.59571,0.619141 v 0 C 19,21 28.68,22.14 28.68,22.14 Z"
       sodipodi:nodetypes="cccccc" /><g
       id="g35"
       style="fill:#6b4ba0;fill-opacity:1"
       transform="matrix(0.91006909,0,0,0.89973409,19.055338,28.126486)">
<g
   id="g5"
   style="fill:#6b4ba0;fill-opacity:1">
	<path
   style="fill:#6b4ba0;fill-opacity:1"
   d="M 3.3774998,25.454075 H 10.1325 v -8.540741 h 6.755 v 8.540741 h 6.755 V 15.205186 L 13.51,6.6644447 3.3774998,15.205186 Z"
   fill="#ffffff"
   data-original="#030104"
   class=""
   id="path1"
   sodipodi:nodetypes="cccccccccc" />
	<path
   style="fill:#6b4ba0;fill-opacity:1"
   d="m 0,13.497038 c 0,0 1.1083123,1.561 2.9553123,0 L 13.51,4.297 24.064688,13.497038 c 2.138,1.542 2.955312,0 2.955312,0 L 13.51,1.54 Z"
   fill="#ffffff"
   data-original="#030104"
   class=""
   id="path3"
   sodipodi:nodetypes="ccccccc" />
	<path
   id="path5"
   class=""
   d="M 23.6425,8.372593 V 1.54 h -5.06625 v 2.3760342 z"
   sodipodi:nodetypes="ccccc"
   style="fill:#6b4ba0;fill-opacity:1" />
</g>
<g
   id="g6"
   style="fill:#6b4ba0;fill-opacity:1">
</g>
<g
   id="g7"
   style="fill:#6b4ba0;fill-opacity:1">
</g>
<g
   id="g9"
   style="fill:#6b4ba0;fill-opacity:1">
</g>
<g
   id="g11"
   style="fill:#6b4ba0;fill-opacity:1">
</g>
<g
   id="g13"
   style="fill:#6b4ba0;fill-opacity:1">
</g>
<g
   id="g15"
   style="fill:#6b4ba0;fill-opacity:1">
</g>
<g
   id="g17"
   style="fill:#6b4ba0;fill-opacity:1">
</g>
<g
   id="g19"
   style="fill:#6b4ba0;fill-opacity:1">
</g>
<g
   id="g21"
   style="fill:#6b4ba0;fill-opacity:1">
</g>
<g
   id="g23"
   style="fill:#6b4ba0;fill-opacity:1">
</g>
<g
   id="g25"
   style="fill:#6b4ba0;fill-opacity:1">
</g>
<g
   id="g27"
   style="fill:#6b4ba0;fill-opacity:1">
</g>
<g
   id="g29"
   style="fill:#6b4ba0;fill-opacity:1">
</g>
<g
   id="g31"
   style="fill:#6b4ba0;fill-opacity:1">
</g>
<g
   id="g33"
   style="fill:#6b4ba0;fill-opacity:1">
</g>
</g><g
       id="g40"
       style="fill:#bfafda;fill-opacity:1"
       transform="matrix(0.91006909,0,0,0.89973409,20.355646,26.82652)">
<g
   id="g8"
   style="fill:#bfafda;fill-opacity:1">
	<path
   style="fill:#bfafda;fill-opacity:1"
   d="M 3.3774998,25.454075 H 10.1325 v -8.540741 h 6.755 v 8.540741 h 6.755 V 15.205186 L 13.51,6.6644447 3.3774998,15.205186 Z"
   fill="#ffffff"
   data-original="#030104"
   class=""
   id="path2"
   sodipodi:nodetypes="cccccccccc" />
	<path
   style="fill:#bfafda;fill-opacity:1"
   d="m 0,13.497038 c 0,0 1.1083123,1.561 2.9553123,0 L 13.51,4.297 24.064688,13.497038 c 2.138,1.542 2.955312,0 2.955312,0 L 13.51,1.54 Z"
   fill="#ffffff"
   data-original="#030104"
   class=""
   id="path4"
   sodipodi:nodetypes="ccccccc" />
	<path
   id="polygon6"
   class=""
   d="M 23.6425,8.372593 V 1.54 h -5.06625 v 2.3760342 z"
   sodipodi:nodetypes="ccccc"
   style="fill:#bfafda;fill-opacity:1" />
</g>
<g
   id="g10"
   style="fill:#bfafda;fill-opacity:1">
</g>
<g
   id="g12"
   style="fill:#bfafda;fill-opacity:1">
</g>
<g
   id="g14"
   style="fill:#bfafda;fill-opacity:1">
</g>
<g
   id="g16"
   style="fill:#bfafda;fill-opacity:1">
</g>
<g
   id="g18"
   style="fill:#bfafda;fill-opacity:1">
</g>
<g
   id="g20"
   style="fill:#bfafda;fill-opacity:1">
</g>
<g
   id="g22"
   style="fill:#bfafda;fill-opacity:1">
</g>
<g
   id="g24"
   style="fill:#bfafda;fill-opacity:1">
</g>
<g
   id="g26"
   style="fill:#bfafda;fill-opacity:1">
</g>
<g
   id="g28"
   style="fill:#bfafda;fill-opacity:1">
</g>
<g
   id="g30"
   style="fill:#bfafda;fill-opacity:1">
</g>
<g
   id="g32"
   style="fill:#bfafda;fill-opacity:1">
</g>
<g
   id="g34"
   style="fill:#bfafda;fill-opacity:1">
</g>
<g
   id="g36"
   style="fill:#bfafda;fill-opacity:1">
</g>
<g
   id="g38"
   style="fill:#bfafda;fill-opacity:1">
</g>
</g></g></svg>
