<?xml version="1.0" encoding="UTF-8" standalone="no"?>
<svg
   width="64"
   height="64"
   version="1.1"
   viewBox="0 0 64 64"
   id="svg165"
   sodipodi:docname="user-trash.svg"
   inkscape:version="1.3.2 (091e20ef0f, 2023-11-25, custom)"
   xmlns:inkscape="http://www.inkscape.org/namespaces/inkscape"
   xmlns:sodipodi="http://sodipodi.sourceforge.net/DTD/sodipodi-0.dtd"
   xmlns:xlink="http://www.w3.org/1999/xlink"
   xmlns="http://www.w3.org/2000/svg"
   xmlns:svg="http://www.w3.org/2000/svg"
   xmlns:rdf="http://www.w3.org/1999/02/22-rdf-syntax-ns#"
   xmlns:cc="http://creativecommons.org/ns#"
   xmlns:dc="http://purl.org/dc/elements/1.1/">
  <sodipodi:namedview
     pagecolor="#ffffff"
     bordercolor="#666666"
     borderopacity="1"
     objecttolerance="10"
     gridtolerance="10"
     guidetolerance="10"
     inkscape:pageopacity="0"
     inkscape:pageshadow="2"
     inkscape:window-width="1920"
     inkscape:window-height="1013"
     id="namedview167"
     showgrid="true"
     inkscape:zoom="4.054679"
     inkscape:cx="14.427776"
     inkscape:cy="33.048239"
     inkscape:window-x="1920"
     inkscape:window-y="36"
     inkscape:window-maximized="1"
     inkscape:current-layer="svg165"
     inkscape:document-rotation="0"
     inkscape:snap-bbox="true"
     inkscape:object-paths="true"
     inkscape:snap-intersection-paths="true"
     inkscape:snap-smooth-nodes="true"
     inkscape:snap-midpoints="true"
     inkscape:showpageshadow="0"
     inkscape:pagecheckerboard="0"
     inkscape:deskcolor="#d1d1d1">
    <inkscape:grid
       type="xygrid"
       id="grid1832"
       originx="0"
       originy="0"
       spacingy="1"
       spacingx="1"
       units="px"
       visible="true" />
  </sodipodi:namedview>
  <metadata
     id="metadata2">
    <rdf:RDF>
      <cc:Work
         rdf:about="">
        <dc:format>image/svg+xml</dc:format>
        <dc:type
           rdf:resource="http://purl.org/dc/dcmitype/StillImage" />
      </cc:Work>
    </rdf:RDF>
  </metadata>
  <defs
     id="defs87">
    <linearGradient
       id="linearGradient1260-3"
       x1="-30.796"
       x2="-17.736"
       y1="87.688004"
       y2="87.688004"
       gradientTransform="matrix(1.0427,0,0,1.0427,33.769,-88.388)"
       gradientUnits="userSpaceOnUse">
      <stop
         stop-color="#e2e9ed"
         offset="0"
         id="stop4" />
      <stop
         stop-color="#dee2e3"
         stop-opacity=".78431"
         offset="1"
         id="stop6" />
    </linearGradient>
    <filter
       id="c-3-6"
       x="-0.085574001"
       y="-0.069657996"
       width="1.1711"
       height="1.1393"
       color-interpolation-filters="sRGB">
      <feGaussianBlur
         stdDeviation="0.93845522"
         id="feGaussianBlur9" />
    </filter>
    <filter
       id="ac-2"
       x="-0.37641999"
       y="-0.28625"
       width="1.7528"
       height="1.5725"
       color-interpolation-filters="sRGB">
      <feGaussianBlur
         stdDeviation="0.46610163"
         id="feGaussianBlur12" />
    </filter>
    <filter
       id="ag-9"
       x="-0.080085002"
       y="-0.1059"
       width="1.1602"
       height="1.2118"
       color-interpolation-filters="sRGB">
      <feGaussianBlur
         stdDeviation="0.20389857"
         id="feGaussianBlur15" />
    </filter>
    <filter
       id="ab-1"
       x="-0.37641999"
       y="-0.28625"
       width="1.7528"
       height="1.5725"
       color-interpolation-filters="sRGB">
      <feGaussianBlur
         stdDeviation="0.46610163"
         id="feGaussianBlur18" />
    </filter>
    <filter
       id="af-2"
       x="-0.080085002"
       y="-0.1059"
       width="1.1602"
       height="1.2118"
       color-interpolation-filters="sRGB">
      <feGaussianBlur
         stdDeviation="0.20389857"
         id="feGaussianBlur21" />
    </filter>
    <filter
       id="z-7"
       x="-0.24315999"
       y="-0.78397"
       width="1.4863"
       height="2.5678999"
       color-interpolation-filters="sRGB">
      <feGaussianBlur
         stdDeviation="0.89514091"
         id="feGaussianBlur24" />
    </filter>
    <filter
       id="v-0"
       x="-0.24315999"
       y="-0.78397"
       width="1.4863"
       height="2.5678999"
       color-interpolation-filters="sRGB">
      <feGaussianBlur
         stdDeviation="0.89514091"
         id="feGaussianBlur27" />
    </filter>
    <filter
       id="y-9"
       x="-0.24315999"
       y="-0.78397"
       width="1.4863"
       height="2.5678999"
       color-interpolation-filters="sRGB">
      <feGaussianBlur
         stdDeviation="0.89514091"
         id="feGaussianBlur30" />
    </filter>
    <filter
       id="u-3"
       x="-0.24315999"
       y="-0.78397"
       width="1.4863"
       height="2.5678999"
       color-interpolation-filters="sRGB">
      <feGaussianBlur
         stdDeviation="0.89514091"
         id="feGaussianBlur33" />
    </filter>
    <filter
       id="t-6"
       x="-0.16005"
       y="-0.24367"
       width="1.3200999"
       height="1.4873"
       color-interpolation-filters="sRGB">
      <feGaussianBlur
         stdDeviation="0.5727377"
         id="feGaussianBlur36" />
    </filter>
    <filter
       id="x-0"
       x="-0.24315999"
       y="-0.78397"
       width="1.4863"
       height="2.5678999"
       color-interpolation-filters="sRGB">
      <feGaussianBlur
         stdDeviation="0.89514091"
         id="feGaussianBlur39" />
    </filter>
    <filter
       id="w-6"
       x="-0.24315999"
       y="-0.78397"
       width="1.4863"
       height="2.5678999"
       color-interpolation-filters="sRGB">
      <feGaussianBlur
         stdDeviation="0.89514091"
         id="feGaussianBlur42" />
    </filter>
    <filter
       id="ah-6"
       x="-0.080085002"
       y="-0.1059"
       width="1.1602"
       height="1.2118"
       color-interpolation-filters="sRGB">
      <feGaussianBlur
         stdDeviation="0.20389857"
         id="feGaussianBlur45" />
    </filter>
    <filter
       id="aj-7"
       x="-0.080085002"
       y="-0.1059"
       width="1.1602"
       height="1.2118"
       color-interpolation-filters="sRGB">
      <feGaussianBlur
         stdDeviation="0.20389857"
         id="feGaussianBlur48" />
    </filter>
    <filter
       id="ae-5"
       x="-0.37641999"
       y="-0.28625"
       width="1.7528"
       height="1.5725"
       color-interpolation-filters="sRGB">
      <feGaussianBlur
         stdDeviation="0.46610163"
         id="feGaussianBlur51" />
    </filter>
    <filter
       id="ad-3"
       x="-0.37641999"
       y="-0.28625"
       width="1.7528"
       height="1.5725"
       color-interpolation-filters="sRGB">
      <feGaussianBlur
         stdDeviation="0.46610163"
         id="feGaussianBlur54" />
    </filter>
    <filter
       id="ai-5"
       x="-0.080085002"
       y="-0.1059"
       width="1.1602"
       height="1.2118"
       color-interpolation-filters="sRGB">
      <feGaussianBlur
         stdDeviation="0.20389857"
         id="feGaussianBlur57" />
    </filter>
    <linearGradient
       id="l"
       x1="-0.68507999"
       x2="-3.3545001"
       y1="217.78999"
       y2="211.60001"
       gradientUnits="userSpaceOnUse"
       xlink:href="#a" />
    <linearGradient
       id="a">
      <stop
         stop-color="#fff"
         offset="0"
         id="stop61" />
      <stop
         stop-color="#fff"
         stop-opacity="0"
         offset="1"
         id="stop63" />
    </linearGradient>
    <radialGradient
       id="radialGradient1591"
       cx="1.4014"
       cy="209.31"
       r="1.1949"
       gradientTransform="matrix(1.5723,1.7816,-0.76333,0.67366,158.91,65.624)"
       gradientUnits="userSpaceOnUse"
       xlink:href="#a" />
    <filter
       id="aa-6"
       x="-0.054221999"
       y="-0.070239998"
       width="1.1084"
       height="1.1404999"
       color-interpolation-filters="sRGB">
      <feGaussianBlur
         stdDeviation="0.053991352"
         id="feGaussianBlur67" />
    </filter>
    <linearGradient
       id="linearGradient1168-2"
       x1="1.6576"
       x2="9.1598997"
       y1="2.7155001"
       y2="15.845"
       gradientTransform="translate(-1.0053e-4,-19.072)"
       gradientUnits="userSpaceOnUse">
      <stop
         stop-color="#d3d7d9"
         offset="0"
         id="stop70" />
      <stop
         stop-color="#cfd1d3"
         offset="1"
         id="stop72" />
    </linearGradient>
    <linearGradient
       id="linearGradient2093"
       x1="11.527"
       x2="51.715"
       y1="57.103001"
       y2="57.103001"
       gradientTransform="matrix(0.26458,0,0,0.26458,4.977e-5,-19.072)"
       gradientUnits="userSpaceOnUse">
      <stop
         stop-color="#aeaeae"
         offset="0"
         id="stop75" />
      <stop
         stop-color="#a2a2a2"
         offset=".57164"
         id="stop77" />
      <stop
         stop-color="#828282"
         offset="1"
         id="stop79" />
    </linearGradient>
    <linearGradient
       id="linearGradient1252-9"
       x1="-23.601"
       x2="-17.976999"
       y1="99.967003"
       y2="88.086998"
       gradientTransform="matrix(1.0427,0,0,1.0427,33.769,-88.388)"
       gradientUnits="userSpaceOnUse">
      <stop
         stop-color="#afb4b8"
         offset="0"
         id="stop82" />
      <stop
         stop-color="#aeb4ba"
         offset="1"
         id="stop84" />
    </linearGradient>
    <linearGradient
       inkscape:collect="always"
       xlink:href="#linearGradient3045"
       id="linearGradient2193"
       x1="8.4665003"
       y1="4.3382287"
       x2="8.4665003"
       y2="15.462834"
       gradientUnits="userSpaceOnUse"
       gradientTransform="matrix(4.5335376,0,0,4.5499964,-6.1684251,-6.5775471)" />
    <linearGradient
       inkscape:collect="always"
       id="linearGradient3045">
      <stop
         style="stop-color:#f0f5fa;stop-opacity:1"
         offset="0"
         id="stop3041" />
      <stop
         style="stop-color:#e6ebf0;stop-opacity:1"
         offset="1"
         id="stop3043" />
    </linearGradient>
    <linearGradient
       id="linearGradient1593"
       x1="-8.6402998"
       x2="-5.0416999"
       y1="207.17999"
       y2="207.17999"
       gradientTransform="matrix(0.37156764,0.00251724,-0.00251724,0.37156764,11.175156,-72.411836)"
       gradientUnits="userSpaceOnUse">
      <stop
         stop-color="#99662e"
         offset="0"
         id="stop129" />
      <stop
         stop-color="#b67937"
         offset="1"
         id="stop131" />
    </linearGradient>
    <clipPath
       id="ax-2">
      <path
         d="m -16.962,206.64 c -1.1694,-0.69689 -2.6576,-1.9844 -2.6576,-3.9333 0,-1.1694 0.75595,-1.7127 0.75595,-1.7127 -0.05906,0.61421 -0.7087,1.7954 0.12993,2.4805 0.2008,0.3071 0.43703,0.33073 1.1103,0.3071 0.67327,-0.0236 0.53153,0.17718 0.53153,0.17718 0,0 0.16536,-0.74414 0.33073,-0.93313 0.16536,-0.18899 0.86226,-1.7009 0.86226,-1.7009 0,0 3.3191,-1.6891 3.5553,-1.7954 0.23624,-0.1063 1.193,-0.24805 1.193,-0.24805 0,0 3.39,1.193 3.5553,1.3584 0.16536,0.16536 0.37798,1.2638 0.37798,1.2638 l -0.42522,1.6418 -3.0829,1.1576 1.571,3.3782 -3.3545,0.22443 c 0,0 -3.6616,-0.29529 -4.453,-1.6655 z"
         fill="#b0afad"
         fill-rule="evenodd"
         id="path64" />
    </clipPath>
    <clipPath
       id="az-6">
      <path
         d="m -16.962,206.64 c -1.1694,-0.69689 -2.6576,-1.9844 -2.6576,-3.9333 0,-1.1694 0.75595,-1.7127 0.75595,-1.7127 -0.05906,0.61421 -0.7087,1.7954 0.12993,2.4805 0.2008,0.3071 0.43703,0.33073 1.1103,0.3071 0.67327,-0.0236 0.53153,0.17718 0.53153,0.17718 0,0 0.16536,-0.74414 0.33073,-0.93313 0.16536,-0.18899 0.86226,-1.7009 0.86226,-1.7009 0,0 3.3191,-1.6891 3.5553,-1.7954 0.23624,-0.1063 1.193,-0.24805 1.193,-0.24805 0,0 3.39,1.193 3.5553,1.3584 0.16536,0.16536 0.37798,1.2638 0.37798,1.2638 l -0.42522,1.6418 -3.0829,1.1576 1.571,3.3782 -3.3545,0.22443 c 0,0 -3.6616,-0.29529 -4.453,-1.6655 z"
         fill="#b0afad"
         fill-rule="evenodd"
         id="path67" />
    </clipPath>
    <clipPath
       id="ay-1">
      <path
         d="m -16.962,206.64 c -1.1694,-0.69689 -2.6576,-1.9844 -2.6576,-3.9333 0,-1.1694 0.75595,-1.7127 0.75595,-1.7127 -0.05906,0.61421 -0.7087,1.7954 0.12993,2.4805 0.2008,0.3071 0.43703,0.33073 1.1103,0.3071 0.67327,-0.0236 0.53153,0.17718 0.53153,0.17718 0,0 0.16536,-0.74414 0.33073,-0.93313 0.16536,-0.18899 0.86226,-1.7009 0.86226,-1.7009 0,0 3.3191,-1.6891 3.5553,-1.7954 0.23624,-0.1063 1.193,-0.24805 1.193,-0.24805 0,0 3.39,1.193 3.5553,1.3584 0.16536,0.16536 0.37798,1.2638 0.37798,1.2638 l -0.42522,1.6418 -3.0829,1.1576 1.571,3.3782 -3.3545,0.22443 c 0,0 -3.6616,-0.29529 -4.453,-1.6655 z"
         fill="#b0afad"
         fill-rule="evenodd"
         id="path70" />
    </clipPath>
    <linearGradient
       id="linearGradient1595"
       x1="-7.6834998"
       x2="-4.1513"
       y1="202.91"
       y2="205.25999"
       gradientTransform="matrix(0.37156764,0.00251724,-0.00251724,0.37156764,11.175156,-72.411836)"
       gradientUnits="userSpaceOnUse">
      <stop
         stop-color="#77d743"
         offset="0"
         id="stop134" />
      <stop
         stop-color="#254a12"
         offset="1"
         id="stop136" />
    </linearGradient>
    <linearGradient
       id="linearGradient1597"
       x1="-9.8639002"
       x2="-9.9160004"
       y1="203.74001"
       y2="204.85001"
       gradientTransform="matrix(0.37156764,0.00251724,-0.00251724,0.37156764,11.175156,-72.411836)"
       gradientUnits="userSpaceOnUse">
      <stop
         stop-color="#3cd0f2"
         offset="0"
         id="stop139" />
      <stop
         stop-color="#0eacd0"
         offset="1"
         id="stop141" />
    </linearGradient>
    <linearGradient
       id="linearGradient1599"
       x1="-7.6187"
       x2="-5.0416999"
       y1="205.46001"
       y2="205.46001"
       gradientTransform="matrix(0.37156764,0.00251724,-0.00251724,0.37156764,11.175156,-72.411836)"
       gradientUnits="userSpaceOnUse">
      <stop
         stop-color="#872c1f"
         offset="0"
         id="stop144" />
      <stop
         stop-color="#bf3f2d"
         offset="1"
         id="stop146" />
    </linearGradient>
    <linearGradient
       id="linearGradient1601"
       x1="-3.579"
       x2="-2.2384"
       y1="206.88"
       y2="205.53"
       gradientTransform="matrix(0.37156764,0.00251724,-0.00251724,0.37156764,11.175156,-72.411836)"
       gradientUnits="userSpaceOnUse">
      <stop
         stop-color="#3c4533"
         offset="0"
         id="stop149" />
      <stop
         stop-color="#3c4533"
         offset=".32423"
         id="stop151" />
      <stop
         stop-color="#414a37"
         offset=".5756"
         id="stop153" />
      <stop
         stop-color="#3c4533"
         offset=".80512"
         id="stop155" />
      <stop
         stop-color="#3c4533"
         offset="1"
         id="stop157" />
    </linearGradient>
    <clipPath
       id="bh-8">
      <path
         d="m -14.611,203.49 c 4.2995,1.6064 4.3704,4.3113 5.3035,4.3113 0.93313,0 0.83863,0.4961 1.3229,-0.16536 0.48428,-0.66146 1.6064,-1.8308 1.7245,-2.8939 0.11812,-1.0631 1.0276,-0.57878 1.0158,-0.14174 -0.011811,0.43703 -0.30711,3.3545 -0.2008,3.579 0.10631,0.2245 0.25986,0.34254 0.35435,-0.43704 0.094494,-0.77957 0.11812,-1.9844 0.31892,-2.1379 0.2008,-0.15356 1.4292,-0.8977 1.6655,-1.7481 0,0 0.03543,-0.42523 -0.68508,-0.67328 -0.72052,-0.24804 1.7127,-2.2915 1.7127,-2.2915 0,0 3.4845,1.6064 4.3704,2.5277 0,0 -0.33707,1.2262 0.08054,1.2262 0.41761,0 0.60136,1.0858 -0.31738,0.86862 -0.91874,-0.21718 -1.6203,-0.61806 -2.1883,0.0167 -0.568,0.63476 -0.81851,1.2361 -1.1192,1.353 -0.30069,0.1169 -0.70158,0.31738 -0.68488,-0.53454 0.0167,-0.85192 -0.11693,0.70158 -0.3675,0.66817 -0.25056,-0.0334 -0.15034,0.40091 -1.6871,0.45102 0,0 0.90204,0.3508 0.96885,0.88534 0.06682,0.53454 0.11693,0.55124 0.11693,0.55124 0,0 1.921,0.16705 2.0045,-0.3842 0.08352,-0.55124 0.55124,-1.3029 0.7517,-1.5535 0.20045,-0.25057 1.1025,-1.2862 1.9544,-1.1693 0,0 -1.5535,0.98555 -2.1716,2.3553 -0.61806,1.3698 4.3932,1.0023 4.3932,1.0023 0,0 2.6727,-0.70158 2.9734,-1.6537 0.3007,-0.95212 0.3675,-4.6271 -0.21716,-5.2285 -0.89971,-0.75589 -2.0809,-1.4646 -3.5219,-0.54328 -1.441,0.92131 -0.25986,1.3702 -2.2206,-0.35435 -1.9608,-1.7245 -3.7561,-2.5041 -3.7561,-2.5041 0,0 -2.2915,3.0947 -2.3387,2.764 -0.047247,-0.33073 -0.56696,-2.0552 -0.82682,-0.77957 0,0 -0.75595,-0.28348 -0.68508,0.37797 0.070871,0.66146 -1.0158,-0.7087 -1.0158,-0.7087 0,0 0.094494,1.8899 -0.37798,2.1261 0,0 1.9844,-0.51971 1.252,0.54335 -0.73233,1.063 -1.5592,1.1339 -2.8348,1.2048 -1.2757,0.0709 -2.1025,-0.66145 -2.7403,-0.85044 -0.6378,-0.18899 -1.1576,-0.75595 -2.3269,-0.0591 z"
         fill="#dedede"
         fill-rule="evenodd"
         id="path73" />
    </clipPath>
    <filter
       id="aq-7"
       x="-0.17321"
       y="-0.12147"
       width="1.3464"
       height="1.2429"
       color-interpolation-filters="sRGB">
      <feGaussianBlur
         stdDeviation="0.18354709"
         id="feGaussianBlur76" />
    </filter>
    <clipPath
       id="bg-9">
      <path
         d="m -14.611,203.49 c 4.2995,1.6064 4.3704,4.3113 5.3035,4.3113 0.93313,0 0.83863,0.4961 1.3229,-0.16536 0.48428,-0.66146 1.6064,-1.8308 1.7245,-2.8939 0.11812,-1.0631 1.0276,-0.57878 1.0158,-0.14174 -0.011811,0.43703 -0.30711,3.3545 -0.2008,3.579 0.10631,0.2245 0.25986,0.34254 0.35435,-0.43704 0.094494,-0.77957 0.11812,-1.9844 0.31892,-2.1379 0.2008,-0.15356 1.4292,-0.8977 1.6655,-1.7481 0,0 0.03543,-0.42523 -0.68508,-0.67328 -0.72052,-0.24804 1.7127,-2.2915 1.7127,-2.2915 0,0 3.4845,1.6064 4.3704,2.5277 0,0 -0.33707,1.2262 0.08054,1.2262 0.41761,0 0.60136,1.0858 -0.31738,0.86862 -0.91874,-0.21718 -1.6203,-0.61806 -2.1883,0.0167 -0.568,0.63476 -0.81851,1.2361 -1.1192,1.353 -0.30069,0.1169 -0.70158,0.31738 -0.68488,-0.53454 0.0167,-0.85192 -0.11693,0.70158 -0.3675,0.66817 -0.25056,-0.0334 -0.15034,0.40091 -1.6871,0.45102 0,0 0.90204,0.3508 0.96885,0.88534 0.06682,0.53454 0.11693,0.55124 0.11693,0.55124 0,0 1.921,0.16705 2.0045,-0.3842 0.08352,-0.55124 0.55124,-1.3029 0.7517,-1.5535 0.20045,-0.25057 1.1025,-1.2862 1.9544,-1.1693 0,0 -1.5535,0.98555 -2.1716,2.3553 -0.61806,1.3698 4.3932,1.0023 4.3932,1.0023 0,0 2.6727,-0.70158 2.9734,-1.6537 0.3007,-0.95212 0.3675,-4.6271 -0.21716,-5.2285 -0.89971,-0.75589 -2.0809,-1.4646 -3.5219,-0.54328 -1.441,0.92131 -0.25986,1.3702 -2.2206,-0.35435 -1.9608,-1.7245 -3.7561,-2.5041 -3.7561,-2.5041 0,0 -2.2915,3.0947 -2.3387,2.764 -0.047247,-0.33073 -0.56696,-2.0552 -0.82682,-0.77957 0,0 -0.75595,-0.28348 -0.68508,0.37797 0.070871,0.66146 -1.0158,-0.7087 -1.0158,-0.7087 0,0 0.094494,1.8899 -0.37798,2.1261 0,0 1.9844,-0.51971 1.252,0.54335 -0.73233,1.063 -1.5592,1.1339 -2.8348,1.2048 -1.2757,0.0709 -2.1025,-0.66145 -2.7403,-0.85044 -0.6378,-0.18899 -1.1576,-0.75595 -2.3269,-0.0591 z"
         fill="#dedede"
         fill-rule="evenodd"
         id="path79" />
    </clipPath>
    <filter
       id="ap-2"
       x="-0.053854"
       y="-0.032839999"
       width="1.1077"
       height="1.0657001"
       color-interpolation-filters="sRGB">
      <feGaussianBlur
         stdDeviation="0.097488778"
         id="feGaussianBlur82" />
    </filter>
    <clipPath
       id="bf-0">
      <path
         d="m -14.611,203.49 c 4.2995,1.6064 4.3704,4.3113 5.3035,4.3113 0.93313,0 0.83863,0.4961 1.3229,-0.16536 0.48428,-0.66146 1.6064,-1.8308 1.7245,-2.8939 0.11812,-1.0631 1.0276,-0.57878 1.0158,-0.14174 -0.011811,0.43703 -0.30711,3.3545 -0.2008,3.579 0.10631,0.2245 0.25986,0.34254 0.35435,-0.43704 0.094494,-0.77957 0.11812,-1.9844 0.31892,-2.1379 0.2008,-0.15356 1.4292,-0.8977 1.6655,-1.7481 0,0 0.03543,-0.42523 -0.68508,-0.67328 -0.72052,-0.24804 1.7127,-2.2915 1.7127,-2.2915 0,0 3.4845,1.6064 4.3704,2.5277 0,0 -0.33707,1.2262 0.08054,1.2262 0.41761,0 0.60136,1.0858 -0.31738,0.86862 -0.91874,-0.21718 -1.6203,-0.61806 -2.1883,0.0167 -0.568,0.63476 -0.81851,1.2361 -1.1192,1.353 -0.30069,0.1169 -0.70158,0.31738 -0.68488,-0.53454 0.0167,-0.85192 -0.11693,0.70158 -0.3675,0.66817 -0.25056,-0.0334 -0.15034,0.40091 -1.6871,0.45102 0,0 0.90204,0.3508 0.96885,0.88534 0.06682,0.53454 0.11693,0.55124 0.11693,0.55124 0,0 1.921,0.16705 2.0045,-0.3842 0.08352,-0.55124 0.55124,-1.3029 0.7517,-1.5535 0.20045,-0.25057 1.1025,-1.2862 1.9544,-1.1693 0,0 -1.5535,0.98555 -2.1716,2.3553 -0.61806,1.3698 4.3932,1.0023 4.3932,1.0023 0,0 2.6727,-0.70158 2.9734,-1.6537 0.3007,-0.95212 0.3675,-4.6271 -0.21716,-5.2285 -0.89971,-0.75589 -2.0809,-1.4646 -3.5219,-0.54328 -1.441,0.92131 -0.25986,1.3702 -2.2206,-0.35435 -1.9608,-1.7245 -3.7561,-2.5041 -3.7561,-2.5041 0,0 -2.2915,3.0947 -2.3387,2.764 -0.047247,-0.33073 -0.56696,-2.0552 -0.82682,-0.77957 0,0 -0.75595,-0.28348 -0.68508,0.37797 0.070871,0.66146 -1.0158,-0.7087 -1.0158,-0.7087 0,0 0.094494,1.8899 -0.37798,2.1261 0,0 1.9844,-0.51971 1.252,0.54335 -0.73233,1.063 -1.5592,1.1339 -2.8348,1.2048 -1.2757,0.0709 -2.1025,-0.66145 -2.7403,-0.85044 -0.6378,-0.18899 -1.1576,-0.75595 -2.3269,-0.0591 z"
         fill="#dedede"
         fill-rule="evenodd"
         id="path85" />
    </clipPath>
    <filter
       id="ao-2"
       x="-0.21517999"
       y="-0.1753"
       width="1.4304"
       height="1.3506"
       color-interpolation-filters="sRGB">
      <feGaussianBlur
         stdDeviation="0.13798654"
         id="feGaussianBlur88" />
    </filter>
    <clipPath
       id="be-3">
      <path
         d="m -14.611,203.49 c 4.2995,1.6064 4.3704,4.3113 5.3035,4.3113 0.93313,0 0.83863,0.4961 1.3229,-0.16536 0.48428,-0.66146 1.6064,-1.8308 1.7245,-2.8939 0.11812,-1.0631 1.0276,-0.57878 1.0158,-0.14174 -0.011811,0.43703 -0.30711,3.3545 -0.2008,3.579 0.10631,0.2245 0.25986,0.34254 0.35435,-0.43704 0.094494,-0.77957 0.11812,-1.9844 0.31892,-2.1379 0.2008,-0.15356 1.4292,-0.8977 1.6655,-1.7481 0,0 0.03543,-0.42523 -0.68508,-0.67328 -0.72052,-0.24804 1.7127,-2.2915 1.7127,-2.2915 0,0 3.4845,1.6064 4.3704,2.5277 0,0 -0.33707,1.2262 0.08054,1.2262 0.41761,0 0.60136,1.0858 -0.31738,0.86862 -0.91874,-0.21718 -1.6203,-0.61806 -2.1883,0.0167 -0.568,0.63476 -0.81851,1.2361 -1.1192,1.353 -0.30069,0.1169 -0.70158,0.31738 -0.68488,-0.53454 0.0167,-0.85192 -0.11693,0.70158 -0.3675,0.66817 -0.25056,-0.0334 -0.15034,0.40091 -1.6871,0.45102 0,0 0.90204,0.3508 0.96885,0.88534 0.06682,0.53454 0.11693,0.55124 0.11693,0.55124 0,0 1.921,0.16705 2.0045,-0.3842 0.08352,-0.55124 0.55124,-1.3029 0.7517,-1.5535 0.20045,-0.25057 1.1025,-1.2862 1.9544,-1.1693 0,0 -1.5535,0.98555 -2.1716,2.3553 -0.61806,1.3698 4.3932,1.0023 4.3932,1.0023 0,0 2.6727,-0.70158 2.9734,-1.6537 0.3007,-0.95212 0.3675,-4.6271 -0.21716,-5.2285 -0.89971,-0.75589 -2.0809,-1.4646 -3.5219,-0.54328 -1.441,0.92131 -0.25986,1.3702 -2.2206,-0.35435 -1.9608,-1.7245 -3.7561,-2.5041 -3.7561,-2.5041 0,0 -2.2915,3.0947 -2.3387,2.764 -0.047247,-0.33073 -0.56696,-2.0552 -0.82682,-0.77957 0,0 -0.75595,-0.28348 -0.68508,0.37797 0.070871,0.66146 -1.0158,-0.7087 -1.0158,-0.7087 0,0 0.094494,1.8899 -0.37798,2.1261 0,0 1.9844,-0.51971 1.252,0.54335 -0.73233,1.063 -1.5592,1.1339 -2.8348,1.2048 -1.2757,0.0709 -2.1025,-0.66145 -2.7403,-0.85044 -0.6378,-0.18899 -1.1576,-0.75595 -2.3269,-0.0591 z"
         fill="#dedede"
         fill-rule="evenodd"
         id="path91" />
    </clipPath>
    <filter
       id="an-7"
       x="-0.042908002"
       y="-0.082269996"
       width="1.0858001"
       height="1.1645"
       color-interpolation-filters="sRGB">
      <feGaussianBlur
         stdDeviation="0.17003381"
         id="feGaussianBlur94" />
    </filter>
    <clipPath
       id="bd-5">
      <path
         d="m -14.611,203.49 c 4.2995,1.6064 4.3704,4.3113 5.3035,4.3113 0.93313,0 0.83863,0.4961 1.3229,-0.16536 0.48428,-0.66146 1.6064,-1.8308 1.7245,-2.8939 0.11812,-1.0631 1.0276,-0.57878 1.0158,-0.14174 -0.011811,0.43703 -0.30711,3.3545 -0.2008,3.579 0.10631,0.2245 0.25986,0.34254 0.35435,-0.43704 0.094494,-0.77957 0.11812,-1.9844 0.31892,-2.1379 0.2008,-0.15356 1.4292,-0.8977 1.6655,-1.7481 0,0 0.03543,-0.42523 -0.68508,-0.67328 -0.72052,-0.24804 1.7127,-2.2915 1.7127,-2.2915 0,0 3.4845,1.6064 4.3704,2.5277 0,0 -0.33707,1.2262 0.08054,1.2262 0.41761,0 0.60136,1.0858 -0.31738,0.86862 -0.91874,-0.21718 -1.6203,-0.61806 -2.1883,0.0167 -0.568,0.63476 -0.81851,1.2361 -1.1192,1.353 -0.30069,0.1169 -0.70158,0.31738 -0.68488,-0.53454 0.0167,-0.85192 -0.11693,0.70158 -0.3675,0.66817 -0.25056,-0.0334 -0.15034,0.40091 -1.6871,0.45102 0,0 0.90204,0.3508 0.96885,0.88534 0.06682,0.53454 0.11693,0.55124 0.11693,0.55124 0,0 1.921,0.16705 2.0045,-0.3842 0.08352,-0.55124 0.55124,-1.3029 0.7517,-1.5535 0.20045,-0.25057 1.1025,-1.2862 1.9544,-1.1693 0,0 -1.5535,0.98555 -2.1716,2.3553 -0.61806,1.3698 4.3932,1.0023 4.3932,1.0023 0,0 2.6727,-0.70158 2.9734,-1.6537 0.3007,-0.95212 0.3675,-4.6271 -0.21716,-5.2285 -0.89971,-0.75589 -2.0809,-1.4646 -3.5219,-0.54328 -1.441,0.92131 -0.25986,1.3702 -2.2206,-0.35435 -1.9608,-1.7245 -3.7561,-2.5041 -3.7561,-2.5041 0,0 -2.2915,3.0947 -2.3387,2.764 -0.047247,-0.33073 -0.56696,-2.0552 -0.82682,-0.77957 0,0 -0.75595,-0.28348 -0.68508,0.37797 0.070871,0.66146 -1.0158,-0.7087 -1.0158,-0.7087 0,0 0.094494,1.8899 -0.37798,2.1261 0,0 1.9844,-0.51971 1.252,0.54335 -0.73233,1.063 -1.5592,1.1339 -2.8348,1.2048 -1.2757,0.0709 -2.1025,-0.66145 -2.7403,-0.85044 -0.6378,-0.18899 -1.1576,-0.75595 -2.3269,-0.0591 z"
         fill="#dedede"
         fill-rule="evenodd"
         id="path97" />
    </clipPath>
    <filter
       id="am-9"
       x="-0.076365001"
       y="-0.076177001"
       width="1.1526999"
       height="1.1524"
       color-interpolation-filters="sRGB">
      <feGaussianBlur
         stdDeviation="0.22924756"
         id="feGaussianBlur100" />
    </filter>
    <clipPath
       id="bc-2">
      <path
         d="m -55.223,402.47 c 16.25,6.0714 16.518,16.295 20.045,16.295 3.5268,0 3.1696,1.875 5,-0.62498 1.8304,-2.5 6.0714,-6.9196 6.5179,-10.938 0.44643,-4.0179 3.8839,-2.1875 3.8393,-0.53571 -0.04464,1.6518 -1.1607,12.679 -0.75893,13.527 0.40177,0.848 0.98214,1.2946 1.3393,-1.6518 0.35714,-2.9464 0.44643,-7.5 1.2054,-8.0803 0.75893,-0.58039 5.4018,-3.3929 6.2946,-6.6072 0,0 0.13391,-1.6072 -2.5893,-2.5447 -2.7232,-0.93747 6.4732,-8.6607 6.4732,-8.6607 0,0 13.17,6.0714 16.518,9.5536 0,0 -1.274,4.6345 0.3044,4.6345 1.5784,0 2.2728,4.1037 -1.1996,3.283 -3.4724,-0.82076 -6.124,-2.336 -8.2706,0.0631 -2.1466,2.3991 -3.0936,4.672 -4.23,5.1139 -1.1364,0.4419 -2.6517,1.1996 -2.5885,-2.0203 0.063118,-3.2198 -0.44194,2.6516 -1.389,2.5254 -0.94702,-0.12624 -0.56821,1.5152 -6.3766,1.7046 0,0 3.4093,1.3259 3.6618,3.3462 0.25255,2.0203 0.44194,2.0834 0.44194,2.0834 0,0 7.2605,0.63137 7.5761,-1.4521 0.31567,-2.0834 2.0834,-4.9245 2.8411,-5.8715 0.75761,-0.94703 4.1669,-4.8614 7.3867,-4.4194 0,0 -5.8715,3.7249 -8.2075,8.902 -2.336,5.177 16.604,3.7881 16.604,3.7881 0,0 10.102,-2.6516 11.238,-6.2503 1.1364,-3.5987 1.389,-17.488 -0.82075,-19.761 -3.4005,-2.8569 -7.8648,-5.5355 -13.311,-2.0533 -5.4464,3.4821 -0.98214,5.1786 -8.3929,-1.3393 -7.4107,-6.5179 -14.196,-9.4643 -14.196,-9.4643 0,0 -8.6607,11.696 -8.8393,10.446 -0.17857,-1.25 -2.1429,-7.7678 -3.125,-2.9464 0,0 -2.8571,-1.0714 -2.5893,1.4286 0.26786,2.5 -3.8393,-2.6786 -3.8393,-2.6786 0,0 0.35714,7.1428 -1.4286,8.0357 0,0 7.5,-1.9643 4.7321,2.0536 -2.7679,4.0178 -5.8929,4.2857 -10.714,4.5535 -4.8214,0.26797 -7.9464,-2.5 -10.357,-3.2143 -2.4106,-0.7143 -4.375,-2.8571 -8.7946,-0.22337 z"
         fill="#dedede"
         fill-rule="evenodd"
         id="path103" />
    </clipPath>
    <filter
       id="al-2"
       x="-0.19752"
       y="-0.12406"
       width="1.395"
       height="1.2481"
       color-interpolation-filters="sRGB">
      <feGaussianBlur
         stdDeviation="0.2430634"
         id="feGaussianBlur106" />
    </filter>
    <clipPath
       id="bb-8">
      <path
         d="m -14.611,203.49 c 4.2995,1.6064 4.3704,4.3113 5.3035,4.3113 0.93313,0 0.83863,0.4961 1.3229,-0.16536 0.48428,-0.66146 1.6064,-1.8308 1.7245,-2.8939 0.11812,-1.0631 1.0276,-0.57878 1.0158,-0.14174 -0.011811,0.43703 -0.30711,3.3545 -0.2008,3.579 0.10631,0.2245 0.25986,0.34254 0.35435,-0.43704 0.094494,-0.77957 0.11812,-1.9844 0.31892,-2.1379 0.2008,-0.15356 1.4292,-0.8977 1.6655,-1.7481 0,0 0.03543,-0.42523 -0.68508,-0.67328 -0.72052,-0.24804 1.7127,-2.2915 1.7127,-2.2915 0,0 3.4845,1.6064 4.3704,2.5277 0,0 -0.33707,1.2262 0.08054,1.2262 0.41761,0 0.60136,1.0858 -0.31738,0.86862 -0.91874,-0.21718 -1.6203,-0.61806 -2.1883,0.0167 -0.568,0.63476 -0.81851,1.2361 -1.1192,1.353 -0.30069,0.1169 -0.70158,0.31738 -0.68488,-0.53454 0.0167,-0.85192 -0.11693,0.70158 -0.3675,0.66817 -0.25056,-0.0334 -0.15034,0.40091 -1.6871,0.45102 0,0 0.90204,0.3508 0.96885,0.88534 0.06682,0.53454 0.11693,0.55124 0.11693,0.55124 0,0 1.921,0.16705 2.0045,-0.3842 0.08352,-0.55124 0.55124,-1.3029 0.7517,-1.5535 0.20045,-0.25057 1.1025,-1.2862 1.9544,-1.1693 0,0 -1.5535,0.98555 -2.1716,2.3553 -0.61806,1.3698 4.3932,1.0023 4.3932,1.0023 0,0 2.6727,-0.70158 2.9734,-1.6537 0.3007,-0.95212 0.3675,-4.6271 -0.21716,-5.2285 -0.89971,-0.75589 -2.0809,-1.4646 -3.5219,-0.54328 -1.441,0.92131 -0.25986,1.3702 -2.2206,-0.35435 -1.9608,-1.7245 -3.7561,-2.5041 -3.7561,-2.5041 0,0 -2.2915,3.0947 -2.3387,2.764 -0.047247,-0.33073 -0.56696,-2.0552 -0.82682,-0.77957 0,0 -0.75595,-0.28348 -0.68508,0.37797 0.070871,0.66146 -1.0158,-0.7087 -1.0158,-0.7087 0,0 0.094494,1.8899 -0.37798,2.1261 0,0 1.9844,-0.51971 1.252,0.54335 -0.73233,1.063 -1.5592,1.1339 -2.8348,1.2048 -1.2757,0.0709 -2.1025,-0.66145 -2.7403,-0.85044 -0.6378,-0.18899 -1.1576,-0.75595 -2.3269,-0.0591 z"
         fill="#dedede"
         fill-rule="evenodd"
         id="path109" />
    </clipPath>
    <filter
       id="ak-9"
       x="-0.11969"
       y="-0.14714"
       width="1.2394"
       height="1.2943"
       color-interpolation-filters="sRGB">
      <feGaussianBlur
         stdDeviation="0.12848643"
         id="feGaussianBlur112" />
    </filter>
    <clipPath
       id="ba-7">
      <path
         d="m -16.962,206.64 c -1.1694,-0.69689 -2.6576,-1.9844 -2.6576,-3.9333 0,-1.1694 0.75595,-1.7127 0.75595,-1.7127 -0.05906,0.61421 -0.7087,1.7954 0.12993,2.4805 0.2008,0.3071 0.43703,0.33073 1.1103,0.3071 0.67327,-0.0236 0.53153,0.17718 0.53153,0.17718 0,0 0.16536,-0.74414 0.33073,-0.93313 0.16536,-0.18899 0.86226,-1.7009 0.86226,-1.7009 0,0 3.3191,-1.6891 3.5553,-1.7954 0.23624,-0.1063 1.193,-0.24805 1.193,-0.24805 0,0 3.39,1.193 3.5553,1.3584 0.16536,0.16536 0.37798,1.2638 0.37798,1.2638 l -0.42522,1.6418 -3.0829,1.1576 1.571,3.3782 -3.3545,0.22443 c 0,0 -3.6616,-0.29529 -4.453,-1.6655 z"
         fill="#b0afad"
         fill-rule="evenodd"
         id="path115" />
    </clipPath>
  </defs>
  <g
     transform="matrix(0.37157,0,0,0.37157,10.189,-73.314)"
     fill-opacity="0.26812"
     filter="url(#c-3-6)"
     id="g115">
    <g
       fill-rule="evenodd"
       id="g99" />
  </g>
  <path
     id="path3036"
     style="fill:#afb4b9;fill-opacity:1;stroke-width:3.52984"
     d="m 10.134816,2.841204 v 1.4764618 a 23.785133,5.551508 0 0 1 0.08818,-0.047775 23.785133,5.551508 0 0 1 0.212197,-0.1108703 23.785133,5.551508 0 0 1 0.223556,-0.1086722 23.785133,5.551508 0 0 1 0.232288,-0.1086792 23.785133,5.551508 0 0 1 0.243637,-0.1064876 23.785133,5.551508 0 0 1 0.252805,-0.1042892 23.785133,5.551508 0 0 1 0.264156,-0.1042998 23.785133,5.551508 0 0 1 0.27071,-0.1042891 23.785133,5.551508 0 0 1 0.282062,-0.099477 23.785133,5.551508 0 0 1 0.291229,-0.099477 23.785133,5.551508 0 0 1 0.302144,-0.099477 23.785133,5.551508 0 0 1 0.309133,-0.095096 23.785133,5.551508 0 0 1 0.318302,-0.095086 23.785133,5.551508 0 0 1 0.327033,-0.095085 23.785133,5.551508 0 0 1 0.336202,-0.090716 23.785133,5.551508 0 0 1 0.345375,-0.090705 23.785133,5.551508 0 0 1 0.351916,-0.088515 23.785133,5.551508 0 0 1 0.361089,-0.085892 23.785133,5.551508 0 0 1 0.370267,-0.085893 23.785133,5.551508 0 0 1 0.374622,-0.081513 23.785133,5.551508 0 0 1 0.385982,-0.081513 23.785133,5.551508 0 0 1 0.390341,-0.079312 23.785133,5.551508 0 0 1 0.399512,-0.077123 23.785133,5.551508 0 0 1 0.406066,-0.074519 23.785133,5.551508 0 0 1 0.413044,-0.072299 23.785133,5.551508 0 0 1 0.419597,-0.070086 23.785133,5.551508 0 0 1 0.426589,-0.067949 23.785133,5.551508 0 0 1 0.433128,-0.065739 23.785133,5.551508 0 0 1 0.437724,-0.065737 23.785133,5.551508 0 0 1 0.444489,-0.061381 23.785133,5.551508 0 0 1 0.449025,-0.058693 23.785133,5.551508 0 0 1 0.455749,-0.058693 23.785133,5.551508 0 0 1 0.460289,-0.054345 23.785133,5.551508 0 0 1 0.467061,-0.052123 23.785133,5.551508 0 0 1 0.469292,-0.049997 23.785133,5.551508 0 0 1 0.476091,-0.047775 23.785133,5.551508 0 0 1 0.478323,-0.047775 23.785133,5.551508 0 0 1 0.485092,-0.039471 23.785133,5.551508 0 0 1 0.487363,-0.039472 23.785133,5.551508 0 0 1 0.489634,-0.039397 23.785133,5.551508 0 0 1 0.494086,-0.035038 23.785133,5.551508 0 0 1 0.498672,-0.03069 23.785133,5.551508 0 0 1 0.500897,-0.03069 23.785133,5.551508 0 0 1 0.503126,-0.026259 23.785133,5.551508 0 0 1 0.505444,-0.026259 23.785133,5.551508 0 0 1 0.507666,-0.02191 23.785133,5.551508 0 0 1 0.509889,-0.021909 23.785133,5.551508 0 0 1 0.512165,-0.017561 23.785133,5.551508 0 0 1 0.514477,-0.0175611 23.785133,5.551508 0 0 1 0.514389,-0.0131288 23.785133,5.551508 0 0 1 0.514437,-0.008777 23.785133,5.551508 0 0 1 0.516698,-0.008777 23.785133,5.551508 0 0 1 0.516707,-0.004759 23.785133,5.551508 0 0 1 0.516658,0 23.785133,5.551508 0 0 1 0.115271,0 23.785133,5.551508 0 0 1 0.516706,0 23.785133,5.551508 0 0 1 0.51666,0.004759 23.785133,5.551508 0 0 1 0.516698,0.008777 23.785133,5.551508 0 0 1 0.516706,0.008777 23.785133,5.551508 0 0 1 0.514438,0.0131288 23.785133,5.551508 0 0 1 0.514428,0.0131289 23.785133,5.551508 0 0 1 0.512167,0.017561 23.785133,5.551508 0 0 1 0.509936,0.02191 23.785133,5.551508 0 0 1 0.507667,0.02191 23.785133,5.551508 0 0 1 0.507665,0.026259 23.785133,5.551508 0 0 1 0.503127,0.026268 23.785133,5.551508 0 0 1 0.500895,0.03069 23.785133,5.551508 0 0 1 0.498627,0.03069 23.785133,5.551508 0 0 1 0.496402,0.035048 23.785133,5.551508 0 0 1 0.491856,0.039471 23.785133,5.551508 0 0 1 0.487372,0.039397 23.785133,5.551508 0 0 1 0.485085,0.043818 23.785133,5.551508 0 0 1 0.478369,0.045174 23.785133,5.551508 0 0 1 0.476054,0.047775 23.785133,5.551508 0 0 1 0.471559,0.049997 23.785133,5.551508 0 0 1 0.467061,0.052134 23.785133,5.551508 0 0 1 0.46252,0.054344 23.785133,5.551508 0 0 1 0.455789,0.056556 23.785133,5.551508 0 0 1 0.451256,0.058693 23.785133,5.551508 0 0 1 0.446758,0.061382 23.785133,5.551508 0 0 1 0.439946,0.063516 23.785133,5.551508 0 0 1 0.43313,0.065738 23.785133,5.551508 0 0 1 0.426587,0.067951 23.785133,5.551508 0 0 1 0.421779,0.070086 23.785133,5.551508 0 0 1 0.415231,0.072299 23.785133,5.551508 0 0 1 0.406062,0.074519 23.785133,5.551508 0 0 1 0.401699,0.077123 23.785133,5.551508 0 0 1 0.392531,0.077122 23.785133,5.551508 0 0 1 0.385973,0.081513 23.785133,5.551508 0 0 1 0.37899,0.081511 23.785133,5.551508 0 0 1 0.369822,0.083702 23.785133,5.551508 0 0 1 0.363275,0.085881 23.785133,5.551508 0 0 1 0.354107,0.088526 23.785133,5.551508 0 0 1 0.347552,0.090705 23.785133,5.551508 0 0 1 0.336208,0.090716 23.785133,5.551508 0 0 1 0.329217,0.092896 23.785133,5.551508 0 0 1 0.320483,0.095085 23.785133,5.551508 0 0 1 0.31131,0.097285 23.785133,5.551508 0 0 1 0.304769,0.097285 23.785133,5.551508 0 0 1 0.293411,0.099477 23.785133,5.551508 0 0 1 0.282061,0.1021099 23.785133,5.551508 0 0 1 0.275072,0.1020993 23.785133,5.551508 0 0 1 0.266344,0.1042997 23.785133,5.551508 0 0 1 0.254987,0.1042997 23.785133,5.551508 0 0 1 0.24364,0.1064802 23.785133,5.551508 0 0 1 0.237088,0.1064442 23.785133,5.551508 0 0 1 0.225739,0.1086793 23.785133,5.551508 0 0 1 0.214381,0.1108621 23.785133,5.551508 0 0 1 0.02183,0.013128 V 2.8116479 A 25.788708,6.0191469 0 0 0 32.00836,0.02409544 a 25.788708,6.0191469 0 0 0 -0.647558,0 25.788708,6.0191469 0 0 0 -21.222585,2.82834566 z" />
  <ellipse
     style="fill:#e0e3e7;fill-opacity:0.615686;stroke-width:3.25561"
     id="ellipse2260"
     cx="32.004955"
     cy="6.4985018"
     rx="23.785133"
     ry="5.5515084" />
  <path
     id="path2165"
     style="fill:url(#linearGradient2193);fill-opacity:1;stroke:none;stroke-width:1.20164px;stroke-linecap:butt;stroke-linejoin:miter;stroke-opacity:1"
     d="m 16.763766,1.1745547 a 25.788708,6.0191474 0 0 1 0.03058,-0.00476 25.788708,6.0191474 0 0 1 0.227922,-0.039472 c -0.09169,0.013129 -0.169417,0.026259 -0.259362,0.04382 z" />
  <path
     id="path3030"
     style="fill:#afb4b9;fill-opacity:1;stroke-width:3.52984"
     d="m 53.762379,4.2564961 a 23.785133,5.551508 0 0 1 0.185123,0.099477 23.785133,5.551508 0 0 1 0.193867,0.1108705 23.785133,5.551508 0 0 1 0.182942,0.1130539 23.785133,5.551508 0 0 1 0.173781,0.1130615 23.785133,5.551508 0 0 1 0.164609,0.1156881 23.785133,5.551508 0 0 1 0.151068,0.1156881 23.785133,5.551508 0 0 1 0.142344,0.1156883 23.785133,5.551508 0 0 1 0.128801,0.117878 23.785133,5.551508 0 0 1 0.119638,0.1178793 23.785133,5.551508 0 0 1 0.108286,0.1178788 23.785133,5.551508 0 0 1 0.09912,0.1178792 23.785133,5.551508 0 0 1 0.08558,0.1200702 23.785133,5.551508 0 0 1 0.07464,0.1178791 23.785133,5.551508 0 0 1 0.0655,0.1200701 23.785133,5.551508 0 0 1 0.05194,0.12007 23.785133,5.551508 0 0 1 0.04366,0.1222621 23.785133,5.551508 0 0 1 0.03059,0.1200701 23.785133,5.551508 0 0 1 0.02183,0.1200701 23.785133,5.551508 0 0 1 0.0087,0.12007 23.785133,5.551508 0 0 1 0,0.026259 23.785133,5.551508 0 0 1 -0.0087,0.1200701 23.785133,5.551508 0 0 1 -0.0175,0.122261 23.785133,5.551508 0 0 1 -0.03058,0.1200701 23.785133,5.551508 0 0 1 -0.03933,0.12007 23.785133,5.551508 0 0 1 -0.05195,0.1200702 23.785133,5.551508 0 0 1 -0.06116,0.1200711 23.785133,5.551508 0 0 1 -0.07204,0.1200701 23.785133,5.551508 0 0 1 -0.08341,0.12007 23.785133,5.551508 0 0 1 -0.09693,0.1178791 23.785133,5.551508 0 0 1 -0.106096,0.1178791 23.785133,5.551508 0 0 1 -0.117458,0.1178791 23.785133,5.551508 0 0 1 -0.126187,0.1178708 23.785133,5.551508 0 0 1 -0.139717,0.1156956 23.785133,5.551508 0 0 1 -0.148885,0.1156797 23.785133,5.551508 0 0 1 -0.160241,0.1156967 23.785133,5.551508 0 0 1 -0.171601,0.1130528 23.785133,5.551508 0 0 1 -0.182942,0.1130622 23.785133,5.551508 0 0 1 -0.191683,0.1130537 23.785133,5.551508 0 0 1 -0.203032,0.1108704 23.785133,5.551508 0 0 1 -0.212197,0.1086803 23.785133,5.551508 0 0 1 -0.223556,0.1086719 23.785133,5.551508 0 0 1 -0.23228,0.1086777 23.785133,5.551508 0 0 1 -0.243639,0.106489 23.785133,5.551508 0 0 1 -0.252812,0.10429 23.785133,5.551508 0 0 1 -0.264154,0.1042989 23.785133,5.551508 0 0 1 -0.270712,0.1043009 23.785133,5.551508 0 0 1 -0.282062,0.099479 23.785133,5.551508 0 0 1 -0.291227,0.1020979 23.785133,5.551508 0 0 1 -0.302584,0.097279 23.785133,5.551508 0 0 1 -0.309127,0.097279 23.785133,5.551508 0 0 1 -0.318303,0.095081 23.785133,5.551508 0 0 1 -0.327033,0.0929 23.785133,5.551508 0 0 1 -0.336201,0.0907 23.785133,5.551508 0 0 1 -0.345375,0.0907 23.785133,5.551508 0 0 1 -0.351923,0.08852 23.785133,5.551508 0 0 1 -0.361092,0.08589 23.785133,5.551508 0 0 1 -0.369816,0.0859 23.785133,5.551508 0 0 1 -0.37463,0.0815 23.785133,5.551508 0 0 1 -0.385973,0.0815 23.785133,5.551508 0 0 1 -0.390349,0.07933 23.785133,5.551508 0 0 1 -0.399514,0.07712 23.785133,5.551508 0 0 1 -0.406064,0.07453 23.785133,5.551508 0 0 1 -0.413047,0.0723 23.785133,5.551508 0 0 1 -0.419595,0.07009 23.785133,5.551508 0 0 1 -0.426587,0.06795 23.785133,5.551508 0 0 1 -0.433129,0.06796 23.785133,5.551508 0 0 1 -0.437726,0.06351 23.785133,5.551508 0 0 1 -0.444478,0.0609 23.785133,5.551508 0 0 1 -0.449035,0.06137 23.785133,5.551508 0 0 1 -0.455749,0.05655 23.785133,5.551508 0 0 1 -0.46029,0.05435 23.785133,5.551508 0 0 1 -0.467058,0.05214 23.785133,5.551508 0 0 1 -0.469285,0.05212 23.785133,5.551508 0 0 1 -0.476099,0.04777 23.785133,5.551508 0 0 1 -0.478324,0.04516 23.785133,5.551508 0 0 1 -0.485091,0.04382 23.785133,5.551508 0 0 1 -0.487364,0.03947 23.785133,5.551508 0 0 1 -0.489594,0.03504 23.785133,5.551508 0 0 1 -0.494125,0.03504 23.785133,5.551508 0 0 1 -0.498673,0.03504 23.785133,5.551508 0 0 1 -0.500897,0.03069 23.785133,5.551508 0 0 1 -0.503127,0.02626 23.785133,5.551508 0 0 1 -0.505435,0.02626 23.785133,5.551508 0 0 1 -0.507666,0.0219 23.785133,5.551508 0 0 1 -0.509897,0.01757 23.785133,5.551508 0 0 1 -0.512205,0.01757 23.785133,5.551508 0 0 1 -0.514436,0.01749 23.785133,5.551508 0 0 1 -0.51439,0.01312 23.785133,5.551508 0 0 1 -0.514476,0.01312 25.788708,6.0191469 0 0 0 24.124332,-6.0055183 25.788708,6.0191469 0 0 0 -4.031986,-3.2314142 z" />
  <path
     id="path3038"
     style="fill:#afb4b9;fill-opacity:1;stroke-width:3.52984"
     d="m 10.134816,2.841204 a 25.788708,6.0191469 0 0 0 -3.91916,3.1906601 25.788708,6.0191469 0 0 0 23.722579,5.9963189 23.785133,5.551508 0 0 1 -0.514436,-0.01312 23.785133,5.551508 0 0 1 -0.514428,-0.01312 23.785133,5.551508 0 0 1 -0.512167,-0.01756 23.785133,5.551508 0 0 1 -0.509936,-0.01757 23.785133,5.551508 0 0 1 -0.507666,-0.0219 23.785133,5.551508 0 0 1 -0.507667,-0.02626 23.785133,5.551508 0 0 1 -0.503125,-0.02626 23.785133,5.551508 0 0 1 -0.500897,-0.03069 23.785133,5.551508 0 0 1 -0.498673,-0.03504 23.785133,5.551508 0 0 1 -0.496355,-0.03504 23.785133,5.551508 0 0 1 -0.491857,-0.03947 23.785133,5.551508 0 0 1 -0.487363,-0.03947 23.785133,5.551508 0 0 1 -0.485094,-0.04382 23.785133,5.551508 0 0 1 -0.478369,-0.04516 23.785133,5.551508 0 0 1 -0.476053,-0.04777 23.785133,5.551508 0 0 1 -0.47156,-0.04999 23.785133,5.551508 0 0 1 -0.46706,-0.05212 23.785133,5.551508 0 0 1 -0.46256,-0.05435 23.785133,5.551508 0 0 1 -0.45575,-0.05656 23.785133,5.551508 0 0 1 -0.451257,-0.05869 23.785133,5.551508 0 0 1 -0.446756,-0.06137 23.785133,5.551508 0 0 1 -0.439986,-0.06351 23.785133,5.551508 0 0 1 -0.433138,-0.06574 23.785133,5.551508 0 0 1 -0.426579,-0.06795 23.785133,5.551508 0 0 1 -0.42178,-0.07009 23.785133,5.551508 0 0 1 -0.415236,-0.0723 23.785133,5.551508 0 0 1 -0.406057,-0.07451 23.785133,5.551508 0 0 1 -0.401697,-0.07714 23.785133,5.551508 0 0 1 -0.39253,-0.07712 23.785133,5.551508 0 0 1 -0.385981,-0.0815 23.785133,5.551508 0 0 1 -0.37899,-0.08151 23.785133,5.551508 0 0 1 -0.369825,-0.0837 23.785133,5.551508 0 0 1 -0.363274,-0.08588 23.785133,5.551508 0 0 1 -0.3541,-0.08853 23.785133,5.551508 0 0 1 -0.347558,-0.0907 23.785133,5.551508 0 0 1 -0.3362,-0.0907 A 23.785133,5.551508 0 0 1 13.497058,9.979056 23.785133,5.551508 0 0 1 13.176573,9.883976 23.785133,5.551508 0 0 1 12.865264,9.786707 23.785133,5.551508 0 0 1 12.560494,9.689428 23.785133,5.551508 0 0 1 12.267084,9.589961 23.785133,5.551508 0 0 1 11.985022,9.490482 23.785133,5.551508 0 0 1 11.709944,9.3861482 23.785133,5.551508 0 0 1 11.443598,9.2840382 23.785133,5.551508 0 0 1 11.188611,9.1775582 23.785133,5.551508 0 0 1 10.944973,9.0710689 23.785133,5.551508 0 0 1 10.707884,8.9645822 23.785133,5.551508 0 0 1 10.482152,8.8559092 23.785133,5.551508 0 0 1 10.267772,8.7450298 23.785133,5.551508 0 0 1 10.062549,8.6341594 23.785133,5.551508 0 0 1 9.8686917,8.5232972 23.785133,5.551508 0 0 1 9.6857415,8.4102347 23.785133,5.551508 0 0 1 9.5119667,8.2971733 23.785133,5.551508 0 0 1 9.3473586,8.1814935 23.785133,5.551508 0 0 1 9.1962819,8.0662403 23.785133,5.551508 0 0 1 9.0539466,7.9505531 23.785133,5.551508 0 0 1 8.9251378,7.8326741 23.785133,5.551508 0 0 1 8.8055021,7.7169858 23.785133,5.551508 0 0 1 8.6972227,7.5969158 23.785133,5.551508 0 0 1 8.5981074,7.4790366 23.785133,5.551508 0 0 1 8.5125362,7.3611575 23.785133,5.551508 0 0 1 8.4382862,7.2410875 23.785133,5.551508 0 0 1 8.3727852,7.1210173 23.785133,5.551508 0 0 1 8.3208504,7.0009473 23.785133,5.551508 0 0 1 8.2771901,6.8808761 23.785133,5.551508 0 0 1 8.246611,6.7586152 23.785133,5.551508 0 0 1 8.224781,6.638545 a 23.785133,5.551508 0 0 1 -0.00874,-0.12007 23.785133,5.551508 0 0 1 0,-0.026268 23.785133,5.551508 0 0 1 0.00874,-0.12007 23.785133,5.551508 0 0 1 0.017498,-0.1222612 23.785133,5.551508 0 0 1 0.03058,-0.12007 A 23.785133,5.551508 0 0 1 8.312188,6.009736 23.785133,5.551508 0 0 1 8.364133,5.8896659 23.785133,5.551508 0 0 1 8.425291,5.7695956 23.785133,5.551508 0 0 1 8.497327,5.6495244 23.785133,5.551508 0 0 1 8.580727,5.5316454 23.785133,5.551508 0 0 1 8.6776656,5.4115757 23.785133,5.551508 0 0 1 8.7837682,5.2936965 23.785133,5.551508 0 0 1 8.9012131,5.1758185 23.785133,5.551508 0 0 1 9.0273996,5.0579393 23.785133,5.551508 0 0 1 9.1671258,4.9422511 23.785133,5.551508 0 0 1 9.3160113,4.8265629 23.785133,5.551508 0 0 1 9.4762524,4.7108746 23.785133,5.551508 0 0 1 9.647852,4.5978218 23.785133,5.551508 0 0 1 9.8307942,4.4847593 23.785133,5.551508 0 0 1 10.022476,4.3738888 a 23.785133,5.551508 0 0 1 0.11527,-0.063517 z" />
  <path
     id="path3019"
     style="fill:#e4e5e7;fill-opacity:0.99932;stroke:none;stroke-width:1.20164px;stroke-linecap:butt;stroke-linejoin:miter;stroke-opacity:1"
     d="m 57.442394,5.0422958 a 25.788708,6.0191474 0 0 1 0.06115,0.085893 25.788708,6.0191474 0 0 1 0.07424,0.1244521 25.788708,6.0191474 0 0 1 0.06329,0.1244531 25.788708,6.0191474 0 0 1 0.05414,0.1266439 25.788708,6.0191474 0 0 1 0.03933,0.1244519 25.788708,6.0191474 0 0 1 0.03058,0.124453 25.788708,6.0191474 0 0 1 0.0175,0.1266429 25.788708,6.0191474 0 0 1 0.0087,0.1244529 25.788708,6.0191474 0 0 1 0,0.026259 25.788708,6.0191474 0 0 1 -0.0087,0.124453 25.788708,6.0191474 0 0 1 -0.0175,0.1266354 25.788708,6.0191474 0 0 1 -0.03058,0.1244531 25.788708,6.0191474 0 0 1 -0.03933,0.124452 25.788708,6.0191474 0 0 1 -0.05195,0.1266439 25.788708,6.0191474 0 0 1 -0.06109,0.124452 25.788708,6.0191474 0 0 1 -0.07203,0.124453 25.788708,6.0191474 0 0 1 -0.08341,0.1244519 A 25.788708,6.0191474 0 0 1 57.329814,7.152254 25.788708,6.0191474 0 0 1 57.223709,7.276706 25.788708,6.0191474 0 0 1 57.106256,7.398968 25.788708,6.0191474 0 0 1 56.980071,7.5212289 25.788708,6.0191474 0 0 1 56.840354,7.6434901 25.788708,6.0191474 0 0 1 56.689277,7.76356 25.788708,6.0191474 0 0 1 56.529036,7.8836302 25.788708,6.0191474 0 0 1 56.357443,8.0015093 25.788708,6.0191474 0 0 1 56.177119,8.1215793 25.788708,6.0191474 0 0 1 55.983253,8.2394585 25.788708,6.0191474 0 0 1 55.78022,8.3547118 25.788708,6.0191474 0 0 1 55.568022,8.4704 25.788708,6.0191474 0 0 1 55.344468,8.5860868 25.788708,6.0191474 0 0 1 55.110002,8.6991406 25.788708,6.0191474 0 0 1 54.866365,8.810012 a 25.788708,6.0191474 0 0 1 -0.254996,0.1108639 25.788708,6.0191474 0 0 1 -0.264153,0.1086779 25.788708,6.0191474 0 0 1 -0.272896,0.10868 25.788708,6.0191474 0 0 1 -0.282061,0.1064797 25.788708,6.0191474 0 0 1 -0.29341,0.106489 25.788708,6.0191474 0 0 1 -0.302584,0.1043 25.788708,6.0191474 0 0 1 -0.311312,0.1020989 25.788708,6.0191474 0 0 1 -0.320483,0.1021099 25.788708,6.0191474 0 0 1 -0.32966,0.099469 25.788708,6.0191474 0 0 1 -0.338383,0.097279 25.788708,6.0191474 0 0 1 -0.347551,0.097279 25.788708,6.0191474 0 0 1 -0.354108,0.092892 25.788708,6.0191474 0 0 1 -0.363273,0.0929 25.788708,6.0191474 0 0 1 -0.372441,0.0907 25.788708,6.0191474 0 0 1 -0.381173,0.0907 25.788708,6.0191474 0 0 1 -0.388165,0.0859 25.788708,6.0191474 0 0 1 -0.394712,0.08589 25.788708,6.0191474 0 0 1 -0.403882,0.0837 25.788708,6.0191474 0 0 1 -0.410863,0.08151 25.788708,6.0191474 0 0 1 -0.417414,0.07931 25.788708,6.0191474 0 0 1 -0.423964,0.07713 25.788708,6.0191474 0 0 1 -0.433137,0.07451 25.788708,6.0191474 0 0 1 -0.437755,0.0723 25.788708,6.0191474 0 0 1 -0.444494,0.0723 25.788708,6.0191474 0 0 1 -0.451251,0.06795 25.788708,6.0191474 0 0 1 -0.455747,0.06574 25.788708,6.0191474 0 0 1 -0.464791,0.06574 25.788708,6.0191474 0 0 1 -0.467061,0.06089 25.788708,6.0191474 0 0 1 -0.47383,0.06138 25.788708,6.0191474 0 0 1 -0.480592,0.05656 25.788708,6.0191474 0 0 1 -0.482822,0.05435 25.788708,6.0191474 0 0 1 -0.489633,0.05435 25.788708,6.0191474 0 0 1 -0.494125,0.04999 25.788708,6.0191474 0 0 1 -0.498635,0.04777 25.788708,6.0191474 0 0 1 -0.500896,0.04516 25.788708,6.0191474 0 0 1 -0.507666,0.04382 25.788708,6.0191474 0 0 1 -0.509936,0.03947 25.788708,6.0191474 0 0 1 -0.512159,0.03947 25.788708,6.0191474 0 0 1 -0.516706,0.03504 25.788708,6.0191474 0 0 1 -0.5212,0.03504 25.788708,6.0191474 0 0 1 -0.521207,0.03069 25.788708,6.0191474 0 0 1 -0.525692,0.03069 25.788708,6.0191474 0 0 1 -0.527969,0.02626 25.788708,6.0191474 0 0 1 -0.530239,0.0219 25.788708,6.0191474 0 0 1 -0.530238,0.0219 25.788708,6.0191474 0 0 1 -0.534739,0.01757 25.788708,6.0191474 0 0 1 -0.534742,0.01757 25.788708,6.0191474 0 0 1 -0.534731,0.01312 25.788708,6.0191474 0 0 1 -0.536963,0.01312 25.788708,6.0191474 0 0 1 -0.539278,0.0088 25.788708,6.0191474 0 0 1 -0.537011,0.0048 25.788708,6.0191474 0 0 1 -0.539232,0.0023 25.788708,6.0191474 0 0 1 -0.108286,0 25.788708,6.0191474 0 0 1 -0.53906,-0.0023 25.788708,6.0191474 0 0 1 -0.536962,-0.0048 25.788708,6.0191474 0 0 1 -0.53928,-0.0088 25.788708,6.0191474 0 0 1 -0.536962,-0.0088 25.788708,6.0191474 0 0 1 -0.537009,-0.01312 25.788708,6.0191474 0 0 1 -0.534733,-0.01312 25.788708,6.0191474 0 0 1 -0.532508,-0.01757 25.788708,6.0191474 0 0 1 -0.53247,-0.01757 25.788708,6.0191474 0 0 1 -0.530241,-0.0219 25.788708,6.0191474 0 0 1 -0.527968,-0.02626 25.788708,6.0191474 0 0 1 -0.525699,-0.02626 25.788708,6.0191474 0 0 1 -0.523469,-0.03069 25.788708,6.0191474 0 0 1 -0.521199,-0.03504 25.788708,6.0191474 0 0 1 -0.516707,-0.03504 25.788708,6.0191474 0 0 1 -0.514437,-0.03939 25.788708,6.0191474 0 0 1 -0.509889,-0.03947 25.788708,6.0191474 0 0 1 -0.507666,-0.04382 25.788708,6.0191474 0 0 1 -0.503165,-0.04516 25.788708,6.0191474 0 0 1 -0.498627,-0.04777 25.788708,6.0191474 0 0 1 -0.494133,-0.04999 25.788708,6.0191474 0 0 1 -0.489633,-0.05213 25.788708,6.0191474 0 0 1 -0.485093,-0.05435 25.788708,6.0191474 0 0 1 -0.480594,-0.05656 25.788708,6.0191474 0 0 1 -0.476052,-0.05869 25.788708,6.0191474 0 0 1 -0.469328,-0.06351 25.788708,6.0191474 0 0 1 -0.464792,-0.06351 25.788708,6.0191474 0 0 1 -0.458019,-0.06574 25.788708,6.0191474 0 0 1 -0.451256,-0.06794 25.788708,6.0191474 0 0 1 -0.446758,-0.07009 25.788708,6.0191474 0 0 1 -0.439946,-0.0723 25.788708,6.0191474 0 0 1 -0.433129,-0.07452 25.788708,6.0191474 0 0 1 -0.426586,-0.07714 25.788708,6.0191474 0 0 1 -0.417414,-0.07932 25.788708,6.0191474 0 0 1 -0.413046,-0.08151 25.788708,6.0191474 0 0 1 -0.403881,-0.0837 25.788708,6.0191474 0 0 1 -0.39733,-0.0837 25.788708,6.0191474 0 0 1 -0.390348,-0.08589 25.788708,6.0191474 0 0 1 -0.381173,-0.0907 25.788708,6.0191474 0 0 1 -0.374625,-0.09071 25.788708,6.0191474 0 0 1 -0.365455,-0.09067 25.788708,6.0191474 0 0 1 -0.356268,-0.095092 25.788708,6.0191474 0 0 1 -0.349735,-0.09508 A 25.788708,6.0191474 0 0 1 11.825081,9.7879022 25.788708,6.0191474 0 0 1 11.493247,9.6884237 25.788708,6.0191474 0 0 1 11.170592,9.5863583 25.788708,6.0191474 0 0 1 10.857099,9.4842293 25.788708,6.0191474 0 0 1 10.554513,9.3799404 25.788708,6.0191474 0 0 1 10.258919,9.2756405 25.788708,6.0191474 0 0 1 9.9746743,9.1691525 25.788708,6.0191474 0 0 1 9.6995952,9.0604836 25.788708,6.0191474 0 0 1 9.4332575,8.9518048 25.788708,6.0191474 0 0 1 9.176079,8.8409339 25.788708,6.0191474 0 0 1 8.9302583,8.730072 25.788708,6.0191474 0 0 1 8.6957948,8.6170088 25.788708,6.0191474 0 0 1 8.4700555,8.5013221 25.788708,6.0191474 0 0 1 8.253491,8.3856339 25.788708,6.0191474 0 0 1 8.0482762,8.2699457 25.788708,6.0191474 0 0 1 7.8544106,8.1520669 25.788708,6.0191474 0 0 1 7.6692854,8.0341876 25.788708,6.0191474 0 0 1 7.4976863,7.9141174 25.788708,6.0191474 0 0 1 7.3330853,7.7962384 25.788708,6.0191474 0 0 1 7.1820093,7.6739773 25.788708,6.0191474 0 0 1 7.0396665,7.5539073 25.788708,6.0191474 0 0 1 6.9112976,7.4316464 25.788708,6.0191474 0 0 1 6.7916618,7.3093843 25.788708,6.0191474 0 0 1 6.683384,7.1849324 25.788708,6.0191474 0 0 1 6.5864501,7.0626702 25.788708,6.0191474 0 0 1 6.4982547,6.9382183 25.788708,6.0191474 0 0 1 6.4236146,6.8137652 25.788708,6.0191474 0 0 1 6.3603272,6.6893133 25.788708,6.0191474 0 0 1 6.3061789,6.5648602 25.788708,6.0191474 0 0 1 6.2668508,6.4382249 25.788708,6.0191474 0 0 1 6.2362714,6.3137728 25.788708,6.0191474 0 0 1 6.2187743,6.1871289 a 25.788708,6.0191474 0 0 1 -0.00874,-0.124453 25.788708,6.0191474 0 0 1 0,-0.026259 25.788708,6.0191474 0 0 1 0.00475,-0.1266441 25.788708,6.0191474 0 0 1 0.017496,-0.1244519 25.788708,6.0191474 0 0 1 0.030578,-0.126644 A 25.788708,6.0191474 0 0 1 6.3021123,5.534224 25.788708,6.0191474 0 0 1 6.3540483,5.4075811 25.788708,6.0191474 0 0 1 6.4147313,5.283128 25.788708,6.0191474 0 0 1 6.4867673,5.158676 25.788708,6.0191474 0 0 1 6.5588033,5.050004 C 6.0853075,5.6283505 6.001517,6.0349712 6.001517,6.0349712 l 6.439419,47.6785708 c 2.250153,8.953941 11.417125,9.862137 19.347669,10.070155 h 0.0087 c 0.07511,-2.68e-4 0.13055,-0.0048 0.205214,-0.0048 0.07511,4.04e-4 0.13012,0.0048 0.205214,0.0048 h 0.0087 c 7.93055,-0.208149 17.097569,-1.116212 19.347723,-10.070153 L 58.003521,6.0349576 c 0,0 -0.08645,-0.4075384 -0.561813,-0.9872908 z" />
  <path
     id="path2227"
     style="fill:#969696;fill-opacity:1;stroke:none;stroke-width:1.20164px;stroke-linecap:butt;stroke-linejoin:miter;stroke-opacity:1"
     d="m 12.707985,54.623684 c 2.562914,8.258059 11.379625,9.183998 19.083815,9.386106 h 0.0087 c 0.07512,-2.7e-4 0.131426,-0.0048 0.206082,-0.0048 0.07512,4.04e-4 0.130992,0.0048 0.20609,0.0048 h 0.0087 c 7.70419,-0.202012 16.520909,-1.128047 19.083814,-9.386106 -0.287734,0.380811 -0.526564,0.823358 -0.850368,1.159157 -0.717729,0.744177 -1.518766,1.382297 -2.387255,1.928006 -0.86845,0.5457 -1.803751,0.998902 -2.787818,1.377821 -1.968186,0.757846 -4.131492,1.214507 -6.351127,1.495359 -2.219637,0.280895 -4.496382,0.386941 -6.686154,0.444432 h -0.0087 c -0.08297,-4.11e-4 -0.144526,-0.0039 -0.227489,-0.0048 -0.08252,4.02e-4 -0.144084,0.0048 -0.227039,0.0048 h -0.0087 c -2.189813,-0.05743 -4.464202,-0.163458 -6.683837,-0.444432 -2.219639,-0.280893 -4.382944,-0.737513 -6.35113,-1.495359 -0.984065,-0.379053 -1.919368,-0.832121 -2.787819,-1.377821 -0.868488,-0.545709 -1.669526,-1.183829 -2.387254,-1.928006 -0.323978,-0.335672 -0.562458,-0.778308 -0.850377,-1.159157 z" />
  <path
     id="rect3316"
     style="fill:#0078d7;fill-opacity:1;stroke:none;stroke-width:1.98791"
     d="m 30.06141,26.076246 c 0.591101,0.247148 1.083266,0.692641 1.451386,1.334133 l 2.631548,4.589831 -1.647126,0.939354 5.334747,0.07404 2.606356,-4.688994 -1.621936,0.962657 -1.499858,-2.567173 C 37.069396,26.299414 36.65233,26.07637 36.111223,26.07637 Z m -1.402977,0.22349 c -0.933284,0 -1.695455,0.445135 -2.162604,1.26025 l -2.238149,3.874101 4.69723,3.317874 2.902819,-5.614721 -0.837143,-1.40613 c -0.564162,-0.961741 -1.352975,-1.431422 -2.362153,-1.431374 z m 12.297241,7.341708 -4.695259,2.689702 2.900857,5.037159 h 1.623906 a 2.7459993,2.7559686 0 0 0 1.400998,-0.322962 c 0.785276,-0.443736 1.352581,-1.382165 1.352581,-2.269635 0,-0.444691 -0.124,-0.86279 -0.344932,-1.25832 z m -15.122558,1.135807 -5.361908,0.09904 1.647126,0.935445 -1.474659,2.592461 c -0.09911,0.171782 -0.172467,0.444259 -0.172467,0.66709 a 1.3715579,1.3765374 0 0 0 0.172467,0.64181 l 3.07337,5.305476 c -0.02183,-0.172659 -0.02183,-0.295364 -0.02183,-0.39308 0,-0.419806 0.195605,-1.088779 0.44182,-1.532515 l 2.631509,-4.564501 1.672325,0.960734 z m 9.737424,5.256872 -2.753589,4.615074 2.753589,4.615113 v -1.900083 h 2.877638 a 1.3283063,1.3331287 0 0 0 1.205303,-0.667089 l 3.04818,-5.328833 c -0.516138,0.394389 -1.130862,0.591191 -1.868067,0.591191 H 35.57054 Z m -10.082366,1.874802 -0.786757,1.406138 c -0.245812,0.419799 -0.418721,1.086455 -0.418721,1.481945 a 2.5710705,2.5804047 0 0 0 2.557894,2.567219 h 4.474368 v -5.455302 z" />
</svg>
