<?xml version="1.0" encoding="UTF-8" standalone="no"?>
<svg
   width="512"
   height="512"
   version="1.1"
   viewBox="0 0 512 512"
   id="svg165"
   sodipodi:docname="user-trash.svg"
   inkscape:version="1.2.2 (b0a8486541, 2022-12-01)"
   xmlns:inkscape="http://www.inkscape.org/namespaces/inkscape"
   xmlns:sodipodi="http://sodipodi.sourceforge.net/DTD/sodipodi-0.dtd"
   xmlns:xlink="http://www.w3.org/1999/xlink"
   xmlns="http://www.w3.org/2000/svg"
   xmlns:svg="http://www.w3.org/2000/svg"
   xmlns:rdf="http://www.w3.org/1999/02/22-rdf-syntax-ns#"
   xmlns:cc="http://creativecommons.org/ns#"
   xmlns:dc="http://purl.org/dc/elements/1.1/">
  <sodipodi:namedview
     pagecolor="#ffffff"
     bordercolor="#666666"
     borderopacity="1"
     objecttolerance="10"
     gridtolerance="10"
     guidetolerance="10"
     inkscape:pageopacity="0"
     inkscape:pageshadow="2"
     inkscape:window-width="1920"
     inkscape:window-height="932"
     id="namedview167"
     showgrid="true"
     inkscape:zoom="1"
     inkscape:cx="124"
     inkscape:cy="230"
     inkscape:window-x="0"
     inkscape:window-y="36"
     inkscape:window-maximized="1"
     inkscape:current-layer="svg165"
     inkscape:document-rotation="0"
     inkscape:snap-bbox="true"
     inkscape:object-paths="true"
     inkscape:snap-intersection-paths="true"
     inkscape:snap-smooth-nodes="true"
     inkscape:snap-midpoints="true"
     inkscape:showpageshadow="0"
     inkscape:pagecheckerboard="0"
     inkscape:deskcolor="#d1d1d1">
    <inkscape:grid
       type="xygrid"
       id="grid1832" />
  </sodipodi:namedview>
  <metadata
     id="metadata2">
    <rdf:RDF>
      <cc:Work
         rdf:about="">
        <dc:format>image/svg+xml</dc:format>
        <dc:type
           rdf:resource="http://purl.org/dc/dcmitype/StillImage" />
      </cc:Work>
    </rdf:RDF>
  </metadata>
  <defs
     id="defs87">
    <linearGradient
       id="linearGradient1260-3"
       x1="-30.796"
       x2="-17.736"
       y1="87.688004"
       y2="87.688004"
       gradientTransform="matrix(1.0427,0,0,1.0427,33.769,-88.388)"
       gradientUnits="userSpaceOnUse">
      <stop
         stop-color="#e2e9ed"
         offset="0"
         id="stop4" />
      <stop
         stop-color="#dee2e3"
         stop-opacity=".78431"
         offset="1"
         id="stop6" />
    </linearGradient>
    <filter
       id="c-3-6"
       x="-0.085574001"
       y="-0.069657996"
       width="1.1711"
       height="1.1393"
       color-interpolation-filters="sRGB">
      <feGaussianBlur
         stdDeviation="0.93845522"
         id="feGaussianBlur9" />
    </filter>
    <filter
       id="ac-2"
       x="-0.37641999"
       y="-0.28625"
       width="1.7528"
       height="1.5725"
       color-interpolation-filters="sRGB">
      <feGaussianBlur
         stdDeviation="0.46610163"
         id="feGaussianBlur12" />
    </filter>
    <filter
       id="ag-9"
       x="-0.080085002"
       y="-0.1059"
       width="1.1602"
       height="1.2118"
       color-interpolation-filters="sRGB">
      <feGaussianBlur
         stdDeviation="0.20389857"
         id="feGaussianBlur15" />
    </filter>
    <filter
       id="ab-1"
       x="-0.37641999"
       y="-0.28625"
       width="1.7528"
       height="1.5725"
       color-interpolation-filters="sRGB">
      <feGaussianBlur
         stdDeviation="0.46610163"
         id="feGaussianBlur18" />
    </filter>
    <filter
       id="af-2"
       x="-0.080085002"
       y="-0.1059"
       width="1.1602"
       height="1.2118"
       color-interpolation-filters="sRGB">
      <feGaussianBlur
         stdDeviation="0.20389857"
         id="feGaussianBlur21" />
    </filter>
    <filter
       id="z-7"
       x="-0.24315999"
       y="-0.78397"
       width="1.4863"
       height="2.5678999"
       color-interpolation-filters="sRGB">
      <feGaussianBlur
         stdDeviation="0.89514091"
         id="feGaussianBlur24" />
    </filter>
    <filter
       id="v-0"
       x="-0.24315999"
       y="-0.78397"
       width="1.4863"
       height="2.5678999"
       color-interpolation-filters="sRGB">
      <feGaussianBlur
         stdDeviation="0.89514091"
         id="feGaussianBlur27" />
    </filter>
    <filter
       id="y-9"
       x="-0.24315999"
       y="-0.78397"
       width="1.4863"
       height="2.5678999"
       color-interpolation-filters="sRGB">
      <feGaussianBlur
         stdDeviation="0.89514091"
         id="feGaussianBlur30" />
    </filter>
    <filter
       id="u-3"
       x="-0.24315999"
       y="-0.78397"
       width="1.4863"
       height="2.5678999"
       color-interpolation-filters="sRGB">
      <feGaussianBlur
         stdDeviation="0.89514091"
         id="feGaussianBlur33" />
    </filter>
    <filter
       id="t-6"
       x="-0.16005"
       y="-0.24367"
       width="1.3200999"
       height="1.4873"
       color-interpolation-filters="sRGB">
      <feGaussianBlur
         stdDeviation="0.5727377"
         id="feGaussianBlur36" />
    </filter>
    <filter
       id="x-0"
       x="-0.24315999"
       y="-0.78397"
       width="1.4863"
       height="2.5678999"
       color-interpolation-filters="sRGB">
      <feGaussianBlur
         stdDeviation="0.89514091"
         id="feGaussianBlur39" />
    </filter>
    <filter
       id="w-6"
       x="-0.24315999"
       y="-0.78397"
       width="1.4863"
       height="2.5678999"
       color-interpolation-filters="sRGB">
      <feGaussianBlur
         stdDeviation="0.89514091"
         id="feGaussianBlur42" />
    </filter>
    <filter
       id="ah-6"
       x="-0.080085002"
       y="-0.1059"
       width="1.1602"
       height="1.2118"
       color-interpolation-filters="sRGB">
      <feGaussianBlur
         stdDeviation="0.20389857"
         id="feGaussianBlur45" />
    </filter>
    <filter
       id="aj-7"
       x="-0.080085002"
       y="-0.1059"
       width="1.1602"
       height="1.2118"
       color-interpolation-filters="sRGB">
      <feGaussianBlur
         stdDeviation="0.20389857"
         id="feGaussianBlur48" />
    </filter>
    <filter
       id="ae-5"
       x="-0.37641999"
       y="-0.28625"
       width="1.7528"
       height="1.5725"
       color-interpolation-filters="sRGB">
      <feGaussianBlur
         stdDeviation="0.46610163"
         id="feGaussianBlur51" />
    </filter>
    <filter
       id="ad-3"
       x="-0.37641999"
       y="-0.28625"
       width="1.7528"
       height="1.5725"
       color-interpolation-filters="sRGB">
      <feGaussianBlur
         stdDeviation="0.46610163"
         id="feGaussianBlur54" />
    </filter>
    <filter
       id="ai-5"
       x="-0.080085002"
       y="-0.1059"
       width="1.1602"
       height="1.2118"
       color-interpolation-filters="sRGB">
      <feGaussianBlur
         stdDeviation="0.20389857"
         id="feGaussianBlur57" />
    </filter>
    <linearGradient
       id="l"
       x1="-0.68507999"
       x2="-3.3545001"
       y1="217.78999"
       y2="211.60001"
       gradientUnits="userSpaceOnUse"
       xlink:href="#a" />
    <linearGradient
       id="a">
      <stop
         stop-color="#fff"
         offset="0"
         id="stop61" />
      <stop
         stop-color="#fff"
         stop-opacity="0"
         offset="1"
         id="stop63" />
    </linearGradient>
    <radialGradient
       id="radialGradient1591"
       cx="1.4014"
       cy="209.31"
       r="1.1949"
       gradientTransform="matrix(1.5723,1.7816,-0.76333,0.67366,158.91,65.624)"
       gradientUnits="userSpaceOnUse"
       xlink:href="#a" />
    <filter
       id="aa-6"
       x="-0.054221999"
       y="-0.070239998"
       width="1.1084"
       height="1.1404999"
       color-interpolation-filters="sRGB">
      <feGaussianBlur
         stdDeviation="0.053991352"
         id="feGaussianBlur67" />
    </filter>
    <linearGradient
       id="linearGradient1168-2"
       x1="1.6576"
       x2="9.1598997"
       y1="2.7155001"
       y2="15.845"
       gradientTransform="translate(-1.0053e-4,-19.072)"
       gradientUnits="userSpaceOnUse">
      <stop
         stop-color="#d3d7d9"
         offset="0"
         id="stop70" />
      <stop
         stop-color="#cfd1d3"
         offset="1"
         id="stop72" />
    </linearGradient>
    <linearGradient
       id="linearGradient2093"
       x1="11.527"
       x2="51.715"
       y1="57.103001"
       y2="57.103001"
       gradientTransform="matrix(0.26458,0,0,0.26458,4.977e-5,-19.072)"
       gradientUnits="userSpaceOnUse">
      <stop
         stop-color="#aeaeae"
         offset="0"
         id="stop75" />
      <stop
         stop-color="#a2a2a2"
         offset=".57164"
         id="stop77" />
      <stop
         stop-color="#828282"
         offset="1"
         id="stop79" />
    </linearGradient>
    <linearGradient
       id="linearGradient1252-9"
       x1="-23.601"
       x2="-17.976999"
       y1="99.967003"
       y2="88.086998"
       gradientTransform="matrix(1.0427,0,0,1.0427,33.769,-88.388)"
       gradientUnits="userSpaceOnUse">
      <stop
         stop-color="#afb4b8"
         offset="0"
         id="stop82" />
      <stop
         stop-color="#aeb4ba"
         offset="1"
         id="stop84" />
    </linearGradient>
    <linearGradient
       inkscape:collect="always"
       xlink:href="#linearGradient3045"
       id="linearGradient2193"
       x1="8.4665003"
       y1="4.3382287"
       x2="8.4665003"
       y2="15.462834"
       gradientUnits="userSpaceOnUse"
       gradientTransform="matrix(33.687033,0,0,33.687033,-27.63128,-29.742375)" />
    <linearGradient
       inkscape:collect="always"
       id="linearGradient3045">
      <stop
         style="stop-color:#f0f5fa;stop-opacity:1"
         offset="0"
         id="stop3041" />
      <stop
         style="stop-color:#e6ebf0;stop-opacity:1"
         offset="1"
         id="stop3043" />
    </linearGradient>
    <linearGradient
       id="linearGradient1593"
       x1="-8.6402998"
       x2="-5.0416999"
       y1="207.17999"
       y2="207.17999"
       gradientTransform="matrix(0.37156764,0.00251724,-0.00251724,0.37156764,11.175156,-72.411836)"
       gradientUnits="userSpaceOnUse">
      <stop
         stop-color="#99662e"
         offset="0"
         id="stop129" />
      <stop
         stop-color="#b67937"
         offset="1"
         id="stop131" />
    </linearGradient>
    <clipPath
       id="ax-2">
      <path
         d="m -16.962,206.64 c -1.1694,-0.69689 -2.6576,-1.9844 -2.6576,-3.9333 0,-1.1694 0.75595,-1.7127 0.75595,-1.7127 -0.05906,0.61421 -0.7087,1.7954 0.12993,2.4805 0.2008,0.3071 0.43703,0.33073 1.1103,0.3071 0.67327,-0.0236 0.53153,0.17718 0.53153,0.17718 0,0 0.16536,-0.74414 0.33073,-0.93313 0.16536,-0.18899 0.86226,-1.7009 0.86226,-1.7009 0,0 3.3191,-1.6891 3.5553,-1.7954 0.23624,-0.1063 1.193,-0.24805 1.193,-0.24805 0,0 3.39,1.193 3.5553,1.3584 0.16536,0.16536 0.37798,1.2638 0.37798,1.2638 l -0.42522,1.6418 -3.0829,1.1576 1.571,3.3782 -3.3545,0.22443 c 0,0 -3.6616,-0.29529 -4.453,-1.6655 z"
         fill="#b0afad"
         fill-rule="evenodd"
         id="path64" />
    </clipPath>
    <clipPath
       id="az-6">
      <path
         d="m -16.962,206.64 c -1.1694,-0.69689 -2.6576,-1.9844 -2.6576,-3.9333 0,-1.1694 0.75595,-1.7127 0.75595,-1.7127 -0.05906,0.61421 -0.7087,1.7954 0.12993,2.4805 0.2008,0.3071 0.43703,0.33073 1.1103,0.3071 0.67327,-0.0236 0.53153,0.17718 0.53153,0.17718 0,0 0.16536,-0.74414 0.33073,-0.93313 0.16536,-0.18899 0.86226,-1.7009 0.86226,-1.7009 0,0 3.3191,-1.6891 3.5553,-1.7954 0.23624,-0.1063 1.193,-0.24805 1.193,-0.24805 0,0 3.39,1.193 3.5553,1.3584 0.16536,0.16536 0.37798,1.2638 0.37798,1.2638 l -0.42522,1.6418 -3.0829,1.1576 1.571,3.3782 -3.3545,0.22443 c 0,0 -3.6616,-0.29529 -4.453,-1.6655 z"
         fill="#b0afad"
         fill-rule="evenodd"
         id="path67" />
    </clipPath>
    <clipPath
       id="ay-1">
      <path
         d="m -16.962,206.64 c -1.1694,-0.69689 -2.6576,-1.9844 -2.6576,-3.9333 0,-1.1694 0.75595,-1.7127 0.75595,-1.7127 -0.05906,0.61421 -0.7087,1.7954 0.12993,2.4805 0.2008,0.3071 0.43703,0.33073 1.1103,0.3071 0.67327,-0.0236 0.53153,0.17718 0.53153,0.17718 0,0 0.16536,-0.74414 0.33073,-0.93313 0.16536,-0.18899 0.86226,-1.7009 0.86226,-1.7009 0,0 3.3191,-1.6891 3.5553,-1.7954 0.23624,-0.1063 1.193,-0.24805 1.193,-0.24805 0,0 3.39,1.193 3.5553,1.3584 0.16536,0.16536 0.37798,1.2638 0.37798,1.2638 l -0.42522,1.6418 -3.0829,1.1576 1.571,3.3782 -3.3545,0.22443 c 0,0 -3.6616,-0.29529 -4.453,-1.6655 z"
         fill="#b0afad"
         fill-rule="evenodd"
         id="path70" />
    </clipPath>
    <linearGradient
       id="linearGradient1595"
       x1="-7.6834998"
       x2="-4.1513"
       y1="202.91"
       y2="205.25999"
       gradientTransform="matrix(0.37156764,0.00251724,-0.00251724,0.37156764,11.175156,-72.411836)"
       gradientUnits="userSpaceOnUse">
      <stop
         stop-color="#77d743"
         offset="0"
         id="stop134" />
      <stop
         stop-color="#254a12"
         offset="1"
         id="stop136" />
    </linearGradient>
    <linearGradient
       id="linearGradient1597"
       x1="-9.8639002"
       x2="-9.9160004"
       y1="203.74001"
       y2="204.85001"
       gradientTransform="matrix(0.37156764,0.00251724,-0.00251724,0.37156764,11.175156,-72.411836)"
       gradientUnits="userSpaceOnUse">
      <stop
         stop-color="#3cd0f2"
         offset="0"
         id="stop139" />
      <stop
         stop-color="#0eacd0"
         offset="1"
         id="stop141" />
    </linearGradient>
    <linearGradient
       id="linearGradient1599"
       x1="-7.6187"
       x2="-5.0416999"
       y1="205.46001"
       y2="205.46001"
       gradientTransform="matrix(0.37156764,0.00251724,-0.00251724,0.37156764,11.175156,-72.411836)"
       gradientUnits="userSpaceOnUse">
      <stop
         stop-color="#872c1f"
         offset="0"
         id="stop144" />
      <stop
         stop-color="#bf3f2d"
         offset="1"
         id="stop146" />
    </linearGradient>
    <linearGradient
       id="linearGradient1601"
       x1="-3.579"
       x2="-2.2384"
       y1="206.88"
       y2="205.53"
       gradientTransform="matrix(0.37156764,0.00251724,-0.00251724,0.37156764,11.175156,-72.411836)"
       gradientUnits="userSpaceOnUse">
      <stop
         stop-color="#3c4533"
         offset="0"
         id="stop149" />
      <stop
         stop-color="#3c4533"
         offset=".32423"
         id="stop151" />
      <stop
         stop-color="#414a37"
         offset=".5756"
         id="stop153" />
      <stop
         stop-color="#3c4533"
         offset=".80512"
         id="stop155" />
      <stop
         stop-color="#3c4533"
         offset="1"
         id="stop157" />
    </linearGradient>
    <clipPath
       id="bh-8">
      <path
         d="m -14.611,203.49 c 4.2995,1.6064 4.3704,4.3113 5.3035,4.3113 0.93313,0 0.83863,0.4961 1.3229,-0.16536 0.48428,-0.66146 1.6064,-1.8308 1.7245,-2.8939 0.11812,-1.0631 1.0276,-0.57878 1.0158,-0.14174 -0.011811,0.43703 -0.30711,3.3545 -0.2008,3.579 0.10631,0.2245 0.25986,0.34254 0.35435,-0.43704 0.094494,-0.77957 0.11812,-1.9844 0.31892,-2.1379 0.2008,-0.15356 1.4292,-0.8977 1.6655,-1.7481 0,0 0.03543,-0.42523 -0.68508,-0.67328 -0.72052,-0.24804 1.7127,-2.2915 1.7127,-2.2915 0,0 3.4845,1.6064 4.3704,2.5277 0,0 -0.33707,1.2262 0.08054,1.2262 0.41761,0 0.60136,1.0858 -0.31738,0.86862 -0.91874,-0.21718 -1.6203,-0.61806 -2.1883,0.0167 -0.568,0.63476 -0.81851,1.2361 -1.1192,1.353 -0.30069,0.1169 -0.70158,0.31738 -0.68488,-0.53454 0.0167,-0.85192 -0.11693,0.70158 -0.3675,0.66817 -0.25056,-0.0334 -0.15034,0.40091 -1.6871,0.45102 0,0 0.90204,0.3508 0.96885,0.88534 0.06682,0.53454 0.11693,0.55124 0.11693,0.55124 0,0 1.921,0.16705 2.0045,-0.3842 0.08352,-0.55124 0.55124,-1.3029 0.7517,-1.5535 0.20045,-0.25057 1.1025,-1.2862 1.9544,-1.1693 0,0 -1.5535,0.98555 -2.1716,2.3553 -0.61806,1.3698 4.3932,1.0023 4.3932,1.0023 0,0 2.6727,-0.70158 2.9734,-1.6537 0.3007,-0.95212 0.3675,-4.6271 -0.21716,-5.2285 -0.89971,-0.75589 -2.0809,-1.4646 -3.5219,-0.54328 -1.441,0.92131 -0.25986,1.3702 -2.2206,-0.35435 -1.9608,-1.7245 -3.7561,-2.5041 -3.7561,-2.5041 0,0 -2.2915,3.0947 -2.3387,2.764 -0.047247,-0.33073 -0.56696,-2.0552 -0.82682,-0.77957 0,0 -0.75595,-0.28348 -0.68508,0.37797 0.070871,0.66146 -1.0158,-0.7087 -1.0158,-0.7087 0,0 0.094494,1.8899 -0.37798,2.1261 0,0 1.9844,-0.51971 1.252,0.54335 -0.73233,1.063 -1.5592,1.1339 -2.8348,1.2048 -1.2757,0.0709 -2.1025,-0.66145 -2.7403,-0.85044 -0.6378,-0.18899 -1.1576,-0.75595 -2.3269,-0.0591 z"
         fill="#dedede"
         fill-rule="evenodd"
         id="path73" />
    </clipPath>
    <filter
       id="aq-7"
       x="-0.17321"
       y="-0.12147"
       width="1.3464"
       height="1.2429"
       color-interpolation-filters="sRGB">
      <feGaussianBlur
         stdDeviation="0.18354709"
         id="feGaussianBlur76" />
    </filter>
    <clipPath
       id="bg-9">
      <path
         d="m -14.611,203.49 c 4.2995,1.6064 4.3704,4.3113 5.3035,4.3113 0.93313,0 0.83863,0.4961 1.3229,-0.16536 0.48428,-0.66146 1.6064,-1.8308 1.7245,-2.8939 0.11812,-1.0631 1.0276,-0.57878 1.0158,-0.14174 -0.011811,0.43703 -0.30711,3.3545 -0.2008,3.579 0.10631,0.2245 0.25986,0.34254 0.35435,-0.43704 0.094494,-0.77957 0.11812,-1.9844 0.31892,-2.1379 0.2008,-0.15356 1.4292,-0.8977 1.6655,-1.7481 0,0 0.03543,-0.42523 -0.68508,-0.67328 -0.72052,-0.24804 1.7127,-2.2915 1.7127,-2.2915 0,0 3.4845,1.6064 4.3704,2.5277 0,0 -0.33707,1.2262 0.08054,1.2262 0.41761,0 0.60136,1.0858 -0.31738,0.86862 -0.91874,-0.21718 -1.6203,-0.61806 -2.1883,0.0167 -0.568,0.63476 -0.81851,1.2361 -1.1192,1.353 -0.30069,0.1169 -0.70158,0.31738 -0.68488,-0.53454 0.0167,-0.85192 -0.11693,0.70158 -0.3675,0.66817 -0.25056,-0.0334 -0.15034,0.40091 -1.6871,0.45102 0,0 0.90204,0.3508 0.96885,0.88534 0.06682,0.53454 0.11693,0.55124 0.11693,0.55124 0,0 1.921,0.16705 2.0045,-0.3842 0.08352,-0.55124 0.55124,-1.3029 0.7517,-1.5535 0.20045,-0.25057 1.1025,-1.2862 1.9544,-1.1693 0,0 -1.5535,0.98555 -2.1716,2.3553 -0.61806,1.3698 4.3932,1.0023 4.3932,1.0023 0,0 2.6727,-0.70158 2.9734,-1.6537 0.3007,-0.95212 0.3675,-4.6271 -0.21716,-5.2285 -0.89971,-0.75589 -2.0809,-1.4646 -3.5219,-0.54328 -1.441,0.92131 -0.25986,1.3702 -2.2206,-0.35435 -1.9608,-1.7245 -3.7561,-2.5041 -3.7561,-2.5041 0,0 -2.2915,3.0947 -2.3387,2.764 -0.047247,-0.33073 -0.56696,-2.0552 -0.82682,-0.77957 0,0 -0.75595,-0.28348 -0.68508,0.37797 0.070871,0.66146 -1.0158,-0.7087 -1.0158,-0.7087 0,0 0.094494,1.8899 -0.37798,2.1261 0,0 1.9844,-0.51971 1.252,0.54335 -0.73233,1.063 -1.5592,1.1339 -2.8348,1.2048 -1.2757,0.0709 -2.1025,-0.66145 -2.7403,-0.85044 -0.6378,-0.18899 -1.1576,-0.75595 -2.3269,-0.0591 z"
         fill="#dedede"
         fill-rule="evenodd"
         id="path79" />
    </clipPath>
    <filter
       id="ap-2"
       x="-0.053854"
       y="-0.032839999"
       width="1.1077"
       height="1.0657001"
       color-interpolation-filters="sRGB">
      <feGaussianBlur
         stdDeviation="0.097488778"
         id="feGaussianBlur82" />
    </filter>
    <clipPath
       id="bf-0">
      <path
         d="m -14.611,203.49 c 4.2995,1.6064 4.3704,4.3113 5.3035,4.3113 0.93313,0 0.83863,0.4961 1.3229,-0.16536 0.48428,-0.66146 1.6064,-1.8308 1.7245,-2.8939 0.11812,-1.0631 1.0276,-0.57878 1.0158,-0.14174 -0.011811,0.43703 -0.30711,3.3545 -0.2008,3.579 0.10631,0.2245 0.25986,0.34254 0.35435,-0.43704 0.094494,-0.77957 0.11812,-1.9844 0.31892,-2.1379 0.2008,-0.15356 1.4292,-0.8977 1.6655,-1.7481 0,0 0.03543,-0.42523 -0.68508,-0.67328 -0.72052,-0.24804 1.7127,-2.2915 1.7127,-2.2915 0,0 3.4845,1.6064 4.3704,2.5277 0,0 -0.33707,1.2262 0.08054,1.2262 0.41761,0 0.60136,1.0858 -0.31738,0.86862 -0.91874,-0.21718 -1.6203,-0.61806 -2.1883,0.0167 -0.568,0.63476 -0.81851,1.2361 -1.1192,1.353 -0.30069,0.1169 -0.70158,0.31738 -0.68488,-0.53454 0.0167,-0.85192 -0.11693,0.70158 -0.3675,0.66817 -0.25056,-0.0334 -0.15034,0.40091 -1.6871,0.45102 0,0 0.90204,0.3508 0.96885,0.88534 0.06682,0.53454 0.11693,0.55124 0.11693,0.55124 0,0 1.921,0.16705 2.0045,-0.3842 0.08352,-0.55124 0.55124,-1.3029 0.7517,-1.5535 0.20045,-0.25057 1.1025,-1.2862 1.9544,-1.1693 0,0 -1.5535,0.98555 -2.1716,2.3553 -0.61806,1.3698 4.3932,1.0023 4.3932,1.0023 0,0 2.6727,-0.70158 2.9734,-1.6537 0.3007,-0.95212 0.3675,-4.6271 -0.21716,-5.2285 -0.89971,-0.75589 -2.0809,-1.4646 -3.5219,-0.54328 -1.441,0.92131 -0.25986,1.3702 -2.2206,-0.35435 -1.9608,-1.7245 -3.7561,-2.5041 -3.7561,-2.5041 0,0 -2.2915,3.0947 -2.3387,2.764 -0.047247,-0.33073 -0.56696,-2.0552 -0.82682,-0.77957 0,0 -0.75595,-0.28348 -0.68508,0.37797 0.070871,0.66146 -1.0158,-0.7087 -1.0158,-0.7087 0,0 0.094494,1.8899 -0.37798,2.1261 0,0 1.9844,-0.51971 1.252,0.54335 -0.73233,1.063 -1.5592,1.1339 -2.8348,1.2048 -1.2757,0.0709 -2.1025,-0.66145 -2.7403,-0.85044 -0.6378,-0.18899 -1.1576,-0.75595 -2.3269,-0.0591 z"
         fill="#dedede"
         fill-rule="evenodd"
         id="path85" />
    </clipPath>
    <filter
       id="ao-2"
       x="-0.21517999"
       y="-0.1753"
       width="1.4304"
       height="1.3506"
       color-interpolation-filters="sRGB">
      <feGaussianBlur
         stdDeviation="0.13798654"
         id="feGaussianBlur88" />
    </filter>
    <clipPath
       id="be-3">
      <path
         d="m -14.611,203.49 c 4.2995,1.6064 4.3704,4.3113 5.3035,4.3113 0.93313,0 0.83863,0.4961 1.3229,-0.16536 0.48428,-0.66146 1.6064,-1.8308 1.7245,-2.8939 0.11812,-1.0631 1.0276,-0.57878 1.0158,-0.14174 -0.011811,0.43703 -0.30711,3.3545 -0.2008,3.579 0.10631,0.2245 0.25986,0.34254 0.35435,-0.43704 0.094494,-0.77957 0.11812,-1.9844 0.31892,-2.1379 0.2008,-0.15356 1.4292,-0.8977 1.6655,-1.7481 0,0 0.03543,-0.42523 -0.68508,-0.67328 -0.72052,-0.24804 1.7127,-2.2915 1.7127,-2.2915 0,0 3.4845,1.6064 4.3704,2.5277 0,0 -0.33707,1.2262 0.08054,1.2262 0.41761,0 0.60136,1.0858 -0.31738,0.86862 -0.91874,-0.21718 -1.6203,-0.61806 -2.1883,0.0167 -0.568,0.63476 -0.81851,1.2361 -1.1192,1.353 -0.30069,0.1169 -0.70158,0.31738 -0.68488,-0.53454 0.0167,-0.85192 -0.11693,0.70158 -0.3675,0.66817 -0.25056,-0.0334 -0.15034,0.40091 -1.6871,0.45102 0,0 0.90204,0.3508 0.96885,0.88534 0.06682,0.53454 0.11693,0.55124 0.11693,0.55124 0,0 1.921,0.16705 2.0045,-0.3842 0.08352,-0.55124 0.55124,-1.3029 0.7517,-1.5535 0.20045,-0.25057 1.1025,-1.2862 1.9544,-1.1693 0,0 -1.5535,0.98555 -2.1716,2.3553 -0.61806,1.3698 4.3932,1.0023 4.3932,1.0023 0,0 2.6727,-0.70158 2.9734,-1.6537 0.3007,-0.95212 0.3675,-4.6271 -0.21716,-5.2285 -0.89971,-0.75589 -2.0809,-1.4646 -3.5219,-0.54328 -1.441,0.92131 -0.25986,1.3702 -2.2206,-0.35435 -1.9608,-1.7245 -3.7561,-2.5041 -3.7561,-2.5041 0,0 -2.2915,3.0947 -2.3387,2.764 -0.047247,-0.33073 -0.56696,-2.0552 -0.82682,-0.77957 0,0 -0.75595,-0.28348 -0.68508,0.37797 0.070871,0.66146 -1.0158,-0.7087 -1.0158,-0.7087 0,0 0.094494,1.8899 -0.37798,2.1261 0,0 1.9844,-0.51971 1.252,0.54335 -0.73233,1.063 -1.5592,1.1339 -2.8348,1.2048 -1.2757,0.0709 -2.1025,-0.66145 -2.7403,-0.85044 -0.6378,-0.18899 -1.1576,-0.75595 -2.3269,-0.0591 z"
         fill="#dedede"
         fill-rule="evenodd"
         id="path91" />
    </clipPath>
    <filter
       id="an-7"
       x="-0.042908002"
       y="-0.082269996"
       width="1.0858001"
       height="1.1645"
       color-interpolation-filters="sRGB">
      <feGaussianBlur
         stdDeviation="0.17003381"
         id="feGaussianBlur94" />
    </filter>
    <clipPath
       id="bd-5">
      <path
         d="m -14.611,203.49 c 4.2995,1.6064 4.3704,4.3113 5.3035,4.3113 0.93313,0 0.83863,0.4961 1.3229,-0.16536 0.48428,-0.66146 1.6064,-1.8308 1.7245,-2.8939 0.11812,-1.0631 1.0276,-0.57878 1.0158,-0.14174 -0.011811,0.43703 -0.30711,3.3545 -0.2008,3.579 0.10631,0.2245 0.25986,0.34254 0.35435,-0.43704 0.094494,-0.77957 0.11812,-1.9844 0.31892,-2.1379 0.2008,-0.15356 1.4292,-0.8977 1.6655,-1.7481 0,0 0.03543,-0.42523 -0.68508,-0.67328 -0.72052,-0.24804 1.7127,-2.2915 1.7127,-2.2915 0,0 3.4845,1.6064 4.3704,2.5277 0,0 -0.33707,1.2262 0.08054,1.2262 0.41761,0 0.60136,1.0858 -0.31738,0.86862 -0.91874,-0.21718 -1.6203,-0.61806 -2.1883,0.0167 -0.568,0.63476 -0.81851,1.2361 -1.1192,1.353 -0.30069,0.1169 -0.70158,0.31738 -0.68488,-0.53454 0.0167,-0.85192 -0.11693,0.70158 -0.3675,0.66817 -0.25056,-0.0334 -0.15034,0.40091 -1.6871,0.45102 0,0 0.90204,0.3508 0.96885,0.88534 0.06682,0.53454 0.11693,0.55124 0.11693,0.55124 0,0 1.921,0.16705 2.0045,-0.3842 0.08352,-0.55124 0.55124,-1.3029 0.7517,-1.5535 0.20045,-0.25057 1.1025,-1.2862 1.9544,-1.1693 0,0 -1.5535,0.98555 -2.1716,2.3553 -0.61806,1.3698 4.3932,1.0023 4.3932,1.0023 0,0 2.6727,-0.70158 2.9734,-1.6537 0.3007,-0.95212 0.3675,-4.6271 -0.21716,-5.2285 -0.89971,-0.75589 -2.0809,-1.4646 -3.5219,-0.54328 -1.441,0.92131 -0.25986,1.3702 -2.2206,-0.35435 -1.9608,-1.7245 -3.7561,-2.5041 -3.7561,-2.5041 0,0 -2.2915,3.0947 -2.3387,2.764 -0.047247,-0.33073 -0.56696,-2.0552 -0.82682,-0.77957 0,0 -0.75595,-0.28348 -0.68508,0.37797 0.070871,0.66146 -1.0158,-0.7087 -1.0158,-0.7087 0,0 0.094494,1.8899 -0.37798,2.1261 0,0 1.9844,-0.51971 1.252,0.54335 -0.73233,1.063 -1.5592,1.1339 -2.8348,1.2048 -1.2757,0.0709 -2.1025,-0.66145 -2.7403,-0.85044 -0.6378,-0.18899 -1.1576,-0.75595 -2.3269,-0.0591 z"
         fill="#dedede"
         fill-rule="evenodd"
         id="path97" />
    </clipPath>
    <filter
       id="am-9"
       x="-0.076365001"
       y="-0.076177001"
       width="1.1526999"
       height="1.1524"
       color-interpolation-filters="sRGB">
      <feGaussianBlur
         stdDeviation="0.22924756"
         id="feGaussianBlur100" />
    </filter>
    <clipPath
       id="bc-2">
      <path
         d="m -55.223,402.47 c 16.25,6.0714 16.518,16.295 20.045,16.295 3.5268,0 3.1696,1.875 5,-0.62498 1.8304,-2.5 6.0714,-6.9196 6.5179,-10.938 0.44643,-4.0179 3.8839,-2.1875 3.8393,-0.53571 -0.04464,1.6518 -1.1607,12.679 -0.75893,13.527 0.40177,0.848 0.98214,1.2946 1.3393,-1.6518 0.35714,-2.9464 0.44643,-7.5 1.2054,-8.0803 0.75893,-0.58039 5.4018,-3.3929 6.2946,-6.6072 0,0 0.13391,-1.6072 -2.5893,-2.5447 -2.7232,-0.93747 6.4732,-8.6607 6.4732,-8.6607 0,0 13.17,6.0714 16.518,9.5536 0,0 -1.274,4.6345 0.3044,4.6345 1.5784,0 2.2728,4.1037 -1.1996,3.283 -3.4724,-0.82076 -6.124,-2.336 -8.2706,0.0631 -2.1466,2.3991 -3.0936,4.672 -4.23,5.1139 -1.1364,0.4419 -2.6517,1.1996 -2.5885,-2.0203 0.063118,-3.2198 -0.44194,2.6516 -1.389,2.5254 -0.94702,-0.12624 -0.56821,1.5152 -6.3766,1.7046 0,0 3.4093,1.3259 3.6618,3.3462 0.25255,2.0203 0.44194,2.0834 0.44194,2.0834 0,0 7.2605,0.63137 7.5761,-1.4521 0.31567,-2.0834 2.0834,-4.9245 2.8411,-5.8715 0.75761,-0.94703 4.1669,-4.8614 7.3867,-4.4194 0,0 -5.8715,3.7249 -8.2075,8.902 -2.336,5.177 16.604,3.7881 16.604,3.7881 0,0 10.102,-2.6516 11.238,-6.2503 1.1364,-3.5987 1.389,-17.488 -0.82075,-19.761 -3.4005,-2.8569 -7.8648,-5.5355 -13.311,-2.0533 -5.4464,3.4821 -0.98214,5.1786 -8.3929,-1.3393 -7.4107,-6.5179 -14.196,-9.4643 -14.196,-9.4643 0,0 -8.6607,11.696 -8.8393,10.446 -0.17857,-1.25 -2.1429,-7.7678 -3.125,-2.9464 0,0 -2.8571,-1.0714 -2.5893,1.4286 0.26786,2.5 -3.8393,-2.6786 -3.8393,-2.6786 0,0 0.35714,7.1428 -1.4286,8.0357 0,0 7.5,-1.9643 4.7321,2.0536 -2.7679,4.0178 -5.8929,4.2857 -10.714,4.5535 -4.8214,0.26797 -7.9464,-2.5 -10.357,-3.2143 -2.4106,-0.7143 -4.375,-2.8571 -8.7946,-0.22337 z"
         fill="#dedede"
         fill-rule="evenodd"
         id="path103" />
    </clipPath>
    <filter
       id="al-2"
       x="-0.19752"
       y="-0.12406"
       width="1.395"
       height="1.2481"
       color-interpolation-filters="sRGB">
      <feGaussianBlur
         stdDeviation="0.2430634"
         id="feGaussianBlur106" />
    </filter>
    <clipPath
       id="bb-8">
      <path
         d="m -14.611,203.49 c 4.2995,1.6064 4.3704,4.3113 5.3035,4.3113 0.93313,0 0.83863,0.4961 1.3229,-0.16536 0.48428,-0.66146 1.6064,-1.8308 1.7245,-2.8939 0.11812,-1.0631 1.0276,-0.57878 1.0158,-0.14174 -0.011811,0.43703 -0.30711,3.3545 -0.2008,3.579 0.10631,0.2245 0.25986,0.34254 0.35435,-0.43704 0.094494,-0.77957 0.11812,-1.9844 0.31892,-2.1379 0.2008,-0.15356 1.4292,-0.8977 1.6655,-1.7481 0,0 0.03543,-0.42523 -0.68508,-0.67328 -0.72052,-0.24804 1.7127,-2.2915 1.7127,-2.2915 0,0 3.4845,1.6064 4.3704,2.5277 0,0 -0.33707,1.2262 0.08054,1.2262 0.41761,0 0.60136,1.0858 -0.31738,0.86862 -0.91874,-0.21718 -1.6203,-0.61806 -2.1883,0.0167 -0.568,0.63476 -0.81851,1.2361 -1.1192,1.353 -0.30069,0.1169 -0.70158,0.31738 -0.68488,-0.53454 0.0167,-0.85192 -0.11693,0.70158 -0.3675,0.66817 -0.25056,-0.0334 -0.15034,0.40091 -1.6871,0.45102 0,0 0.90204,0.3508 0.96885,0.88534 0.06682,0.53454 0.11693,0.55124 0.11693,0.55124 0,0 1.921,0.16705 2.0045,-0.3842 0.08352,-0.55124 0.55124,-1.3029 0.7517,-1.5535 0.20045,-0.25057 1.1025,-1.2862 1.9544,-1.1693 0,0 -1.5535,0.98555 -2.1716,2.3553 -0.61806,1.3698 4.3932,1.0023 4.3932,1.0023 0,0 2.6727,-0.70158 2.9734,-1.6537 0.3007,-0.95212 0.3675,-4.6271 -0.21716,-5.2285 -0.89971,-0.75589 -2.0809,-1.4646 -3.5219,-0.54328 -1.441,0.92131 -0.25986,1.3702 -2.2206,-0.35435 -1.9608,-1.7245 -3.7561,-2.5041 -3.7561,-2.5041 0,0 -2.2915,3.0947 -2.3387,2.764 -0.047247,-0.33073 -0.56696,-2.0552 -0.82682,-0.77957 0,0 -0.75595,-0.28348 -0.68508,0.37797 0.070871,0.66146 -1.0158,-0.7087 -1.0158,-0.7087 0,0 0.094494,1.8899 -0.37798,2.1261 0,0 1.9844,-0.51971 1.252,0.54335 -0.73233,1.063 -1.5592,1.1339 -2.8348,1.2048 -1.2757,0.0709 -2.1025,-0.66145 -2.7403,-0.85044 -0.6378,-0.18899 -1.1576,-0.75595 -2.3269,-0.0591 z"
         fill="#dedede"
         fill-rule="evenodd"
         id="path109" />
    </clipPath>
    <filter
       id="ak-9"
       x="-0.11969"
       y="-0.14714"
       width="1.2394"
       height="1.2943"
       color-interpolation-filters="sRGB">
      <feGaussianBlur
         stdDeviation="0.12848643"
         id="feGaussianBlur112" />
    </filter>
    <clipPath
       id="ba-7">
      <path
         d="m -16.962,206.64 c -1.1694,-0.69689 -2.6576,-1.9844 -2.6576,-3.9333 0,-1.1694 0.75595,-1.7127 0.75595,-1.7127 -0.05906,0.61421 -0.7087,1.7954 0.12993,2.4805 0.2008,0.3071 0.43703,0.33073 1.1103,0.3071 0.67327,-0.0236 0.53153,0.17718 0.53153,0.17718 0,0 0.16536,-0.74414 0.33073,-0.93313 0.16536,-0.18899 0.86226,-1.7009 0.86226,-1.7009 0,0 3.3191,-1.6891 3.5553,-1.7954 0.23624,-0.1063 1.193,-0.24805 1.193,-0.24805 0,0 3.39,1.193 3.5553,1.3584 0.16536,0.16536 0.37798,1.2638 0.37798,1.2638 l -0.42522,1.6418 -3.0829,1.1576 1.571,3.3782 -3.3545,0.22443 c 0,0 -3.6616,-0.29529 -4.453,-1.6655 z"
         fill="#b0afad"
         fill-rule="evenodd"
         id="path115" />
    </clipPath>
  </defs>
  <g
     transform="matrix(0.37157,0,0,0.37157,10.189,-73.314)"
     fill-opacity="0.26812"
     filter="url(#c-3-6)"
     id="g115">
    <g
       fill-rule="evenodd"
       id="g99" />
  </g>
  <path
     id="path3036"
     style="fill:#afb4b9;fill-opacity:1;stroke-width:26.1814"
     d="m 93.512049,39.99166 v 10.931392 a 176.73849,41.101973 0 0 1 0.655373,-0.353642 176.73849,41.101973 0 0 1 1.57678,-0.820835 176.73849,41.101973 0 0 1 1.66114,-0.804614 176.73849,41.101973 0 0 1 1.72602,-0.804614 176.73849,41.101973 0 0 1 1.810388,-0.788391 176.73849,41.101973 0 0 1 1.87851,-0.77217 176.73849,41.101973 0 0 1 1.96286,-0.77217 176.73849,41.101973 0 0 1 2.01155,-0.772169 176.73849,41.101973 0 0 1 2.09588,-0.736481 176.73849,41.101973 0 0 1 2.16403,-0.736481 176.73849,41.101973 0 0 1 2.24512,-0.736481 176.73849,41.101973 0 0 1 2.29705,-0.704038 176.73849,41.101973 0 0 1 2.36518,-0.704037 176.73849,41.101973 0 0 1 2.43006,-0.704037 176.73849,41.101973 0 0 1 2.49819,-0.671593 176.73849,41.101973 0 0 1 2.56633,-0.671593 176.73849,41.101973 0 0 1 2.615,-0.655371 176.73849,41.101973 0 0 1 2.68313,-0.635904 176.73849,41.101973 0 0 1 2.75126,-0.635905 176.73849,41.101973 0 0 1 2.7837,-0.60346 176.73849,41.101973 0 0 1 2.86806,-0.60346 176.73849,41.101973 0 0 1 2.9005,-0.587239 176.73849,41.101973 0 0 1 2.96864,-0.571016 176.73849,41.101973 0 0 1 3.01729,-0.55155 176.73849,41.101973 0 0 1 3.06922,-0.535328 176.73849,41.101973 0 0 1 3.11788,-0.519105 176.73849,41.101973 0 0 1 3.16979,-0.502884 176.73849,41.101973 0 0 1 3.21845,-0.486662 176.73849,41.101973 0 0 1 3.25252,-0.486661 176.73849,41.101973 0 0 1 3.30282,-0.454217 176.73849,41.101973 0 0 1 3.33654,-0.434751 176.73849,41.101973 0 0 1 3.38652,-0.434752 176.73849,41.101973 0 0 1 3.42026,-0.402306 176.73849,41.101973 0 0 1 3.47055,-0.386085 176.73849,41.101973 0 0 1 3.48709,-0.369863 176.73849,41.101973 0 0 1 3.5377,-0.353641 176.73849,41.101973 0 0 1 3.55425,-0.35364 176.73849,41.101973 0 0 1 3.60455,-0.291997 176.73849,41.101973 0 0 1 3.6214,-0.291997 176.73849,41.101973 0 0 1 3.63828,-0.291997 176.73849,41.101973 0 0 1 3.67138,-0.259553 176.73849,41.101973 0 0 1 3.70545,-0.227109 176.73849,41.101973 0 0 1 3.72198,-0.227108 176.73849,41.101973 0 0 1 3.73853,-0.194665 176.73849,41.101973 0 0 1 3.75574,-0.194665 176.73849,41.101973 0 0 1 3.77228,-0.162221 176.73849,41.101973 0 0 1 3.78882,-0.16222 176.73849,41.101973 0 0 1 3.80569,-0.129776 176.73849,41.101973 0 0 1 3.82288,-0.129777 176.73849,41.101973 0 0 1 3.82225,-0.09734 176.73849,41.101973 0 0 1 3.82256,-0.06489 176.73849,41.101973 0 0 1 3.83944,-0.06489 176.73849,41.101973 0 0 1 3.83944,-0.03245 176.73849,41.101973 0 0 1 3.8391,0 176.73849,41.101973 0 0 1 0.85652,0 176.73849,41.101973 0 0 1 3.83944,0 176.73849,41.101973 0 0 1 3.83912,0.03245 176.73849,41.101973 0 0 1 3.83942,0.06489 176.73849,41.101973 0 0 1 3.83944,0.06489 176.73849,41.101973 0 0 1 3.82256,0.09734 176.73849,41.101973 0 0 1 3.82257,0.09734 176.73849,41.101973 0 0 1 3.80569,0.129776 176.73849,41.101973 0 0 1 3.78915,0.162221 176.73849,41.101973 0 0 1 3.77228,0.162221 176.73849,41.101973 0 0 1 3.77228,0.194664 176.73849,41.101973 0 0 1 3.73853,0.194665 176.73849,41.101973 0 0 1 3.72198,0.227109 176.73849,41.101973 0 0 1 3.70512,0.227108 176.73849,41.101973 0 0 1 3.68858,0.259553 176.73849,41.101973 0 0 1 3.65482,0.291998 176.73849,41.101973 0 0 1 3.62142,0.291997 176.73849,41.101973 0 0 1 3.60453,0.324441 176.73849,41.101973 0 0 1 3.55458,0.334173 176.73849,41.101973 0 0 1 3.53737,0.353642 176.73849,41.101973 0 0 1 3.50397,0.369862 176.73849,41.101973 0 0 1 3.47054,0.386085 176.73849,41.101973 0 0 1 3.43681,0.402306 176.73849,41.101973 0 0 1 3.38684,0.418529 176.73849,41.101973 0 0 1 3.3531,0.434752 176.73849,41.101973 0 0 1 3.31968,0.454217 176.73849,41.101973 0 0 1 3.26907,0.47044 176.73849,41.101973 0 0 1 3.21846,0.486661 176.73849,41.101973 0 0 1 3.16978,0.502884 176.73849,41.101973 0 0 1 3.13411,0.519106 176.73849,41.101973 0 0 1 3.08543,0.535328 176.73849,41.101973 0 0 1 3.0173,0.551549 176.73849,41.101973 0 0 1 2.98486,0.571016 176.73849,41.101973 0 0 1 2.91672,0.571017 176.73849,41.101973 0 0 1 2.86806,0.60346 176.73849,41.101973 0 0 1 2.81615,0.60346 176.73849,41.101973 0 0 1 2.74802,0.619683 176.73849,41.101973 0 0 1 2.69934,0.635904 176.73849,41.101973 0 0 1 2.63122,0.65537 176.73849,41.101973 0 0 1 2.58256,0.671594 176.73849,41.101973 0 0 1 2.49819,0.671593 176.73849,41.101973 0 0 1 2.44629,0.687815 176.73849,41.101973 0 0 1 2.3814,0.704037 176.73849,41.101973 0 0 1 2.31326,0.720259 176.73849,41.101973 0 0 1 2.2646,0.720259 176.73849,41.101973 0 0 1 2.18024,0.736481 176.73849,41.101973 0 0 1 2.09589,0.755949 176.73849,41.101973 0 0 1 2.04397,0.755947 176.73849,41.101973 0 0 1 1.97909,0.772169 176.73849,41.101973 0 0 1 1.89474,0.77217 176.73849,41.101973 0 0 1 1.81038,0.788391 176.73849,41.101973 0 0 1 1.76171,0.788393 176.73849,41.101973 0 0 1 1.67737,0.804614 176.73849,41.101973 0 0 1 1.593,0.820835 176.73849,41.101973 0 0 1 0.16222,0.09734 V 39.77332 A 191.62631,44.564254 0 0 0 256.0463,19.134977 a 191.62631,44.564254 0 0 0 -4.81179,0 191.62631,44.564254 0 0 0 -157.697153,20.940399 z" />
  <ellipse
     style="fill:#e0e3e7;fill-opacity:0.615686;stroke-width:24.1473"
     id="ellipse2260"
     cx="256.0209"
     cy="67.069389"
     rx="176.73849"
     ry="41.101974" />
  <path
     id="path2165"
     style="fill:url(#linearGradient2193);fill-opacity:1;stroke:none;stroke-width:8.91285px;stroke-linecap:butt;stroke-linejoin:miter;stroke-opacity:1"
     d="m 142.76934,27.652193 a 191.62631,44.564258 0 0 1 0.2271,-0.03245 191.62631,44.564258 0 0 1 1.69359,-0.291997 c -0.68133,0.09734 -1.25884,0.194665 -1.92719,0.324441 z" />
  <path
     id="path3030"
     style="fill:#afb4b9;fill-opacity:1;stroke-width:26.1814"
     d="m 417.69225,50.470132 a 176.73849,41.101973 0 0 1 1.37562,0.736481 176.73849,41.101973 0 0 1 1.44052,0.820836 176.73849,41.101973 0 0 1 1.3594,0.837058 176.73849,41.101973 0 0 1 1.29129,0.837058 176.73849,41.101973 0 0 1 1.22313,0.856524 176.73849,41.101973 0 0 1 1.12257,0.856524 176.73849,41.101973 0 0 1 1.05767,0.856525 176.73849,41.101973 0 0 1 0.95711,0.872746 176.73849,41.101973 0 0 1 0.88896,0.872746 176.73849,41.101973 0 0 1 0.80462,0.872747 176.73849,41.101973 0 0 1 0.73649,0.872746 176.73849,41.101973 0 0 1 0.6359,0.888968 176.73849,41.101973 0 0 1 0.5548,0.872747 176.73849,41.101973 0 0 1 0.48665,0.888969 176.73849,41.101973 0 0 1 0.38609,0.888968 176.73849,41.101973 0 0 1 0.32444,0.905192 176.73849,41.101973 0 0 1 0.22711,0.888968 176.73849,41.101973 0 0 1 0.16222,0.888968 176.73849,41.101973 0 0 1 0.0648,0.888968 176.73849,41.101973 0 0 1 0,0.194663 176.73849,41.101973 0 0 1 -0.0648,0.888968 176.73849,41.101973 0 0 1 -0.12978,0.905193 176.73849,41.101973 0 0 1 -0.2271,0.888968 176.73849,41.101973 0 0 1 -0.292,0.888968 176.73849,41.101973 0 0 1 -0.38609,0.888968 176.73849,41.101973 0 0 1 -0.45422,0.888968 176.73849,41.101973 0 0 1 -0.53532,0.888971 176.73849,41.101973 0 0 1 -0.61969,0.888968 176.73849,41.101973 0 0 1 -0.72026,0.872754 176.73849,41.101973 0 0 1 -0.78838,0.872744 176.73849,41.101973 0 0 1 -0.87276,0.872743 176.73849,41.101973 0 0 1 -0.93763,0.872743 176.73849,41.101973 0 0 1 -1.03821,0.85653 176.73849,41.101973 0 0 1 -1.10634,0.856518 176.73849,41.101973 0 0 1 -1.1907,0.85653 176.73849,41.101973 0 0 1 -1.27505,0.837058 176.73849,41.101973 0 0 1 -1.35942,0.837058 176.73849,41.101973 0 0 1 -1.42429,0.837057 176.73849,41.101973 0 0 1 -1.50865,0.820833 176.73849,41.101973 0 0 1 -1.57679,0.80462 176.73849,41.101973 0 0 1 -1.66113,0.804608 176.73849,41.101973 0 0 1 -1.72603,0.80462 176.73849,41.101973 0 0 1 -1.81037,0.788383 176.73849,41.101973 0 0 1 -1.87852,0.77217 176.73849,41.101973 0 0 1 -1.96287,0.77217 176.73849,41.101973 0 0 1 -2.01153,0.77217 176.73849,41.101973 0 0 1 -2.0959,0.736485 176.73849,41.101973 0 0 1 -2.16401,0.755945 176.73849,41.101973 0 0 1 -2.24839,0.72026 176.73849,41.101973 0 0 1 -2.29704,0.72026 176.73849,41.101973 0 0 1 -2.36517,0.704035 176.73849,41.101973 0 0 1 -2.43006,0.687821 176.73849,41.101973 0 0 1 -2.4982,0.671586 176.73849,41.101973 0 0 1 -2.56633,0.671598 176.73849,41.101973 0 0 1 -2.61499,0.65537 176.73849,41.101973 0 0 1 -2.68313,0.6359 176.73849,41.101973 0 0 1 -2.74802,0.63591 176.73849,41.101973 0 0 1 -2.7837,0.60346 176.73849,41.101973 0 0 1 -2.86806,0.60345 176.73849,41.101973 0 0 1 -2.9005,0.58725 176.73849,41.101973 0 0 1 -2.96863,0.57102 176.73849,41.101973 0 0 1 -3.01731,0.55155 176.73849,41.101973 0 0 1 -3.06921,0.535325 176.73849,41.101973 0 0 1 -3.11788,0.51911 176.73849,41.101973 0 0 1 -3.16978,0.50288 176.73849,41.101973 0 0 1 -3.21846,0.50288 176.73849,41.101973 0 0 1 -3.25253,0.47044 176.73849,41.101973 0 0 1 -3.3028,0.45098 176.73849,41.101973 0 0 1 -3.33656,0.45421 176.73849,41.101973 0 0 1 -3.38652,0.41853 176.73849,41.101973 0 0 1 -3.42025,0.40231 176.73849,41.101973 0 0 1 -3.47054,0.38609 176.73849,41.101973 0 0 1 -3.48709,0.38608 176.73849,41.101973 0 0 1 -3.53771,0.35364 176.73849,41.101973 0 0 1 -3.55426,0.33418 176.73849,41.101973 0 0 1 -3.60453,0.32444 176.73849,41.101973 0 0 1 -3.62141,0.292 176.73849,41.101973 0 0 1 -3.63796,0.25955 176.73849,41.101973 0 0 1 -3.67171,0.25955 176.73849,41.101973 0 0 1 -3.70543,0.25955 176.73849,41.101973 0 0 1 -3.722,0.22711 176.73849,41.101973 0 0 1 -3.73853,0.19467 176.73849,41.101973 0 0 1 -3.75572,0.19466 176.73849,41.101973 0 0 1 -3.77228,0.16222 176.73849,41.101973 0 0 1 -3.78882,0.12978 176.73849,41.101973 0 0 1 -3.80602,0.12978 176.73849,41.101973 0 0 1 -3.82257,0.12977 176.73849,41.101973 0 0 1 -3.82223,0.0973 176.73849,41.101973 0 0 1 -3.8229,0.0973 191.62631,44.564254 0 0 0 179.25887,-44.463352 191.62631,44.564254 0 0 0 -29.96018,-23.924603 z" />
  <path
     id="path3038"
     style="fill:#afb4b9;fill-opacity:1;stroke-width:26.1814"
     d="m 93.512049,39.99166 a 191.62631,44.564254 0 0 0 -29.12183,23.622881 191.62631,44.564254 0 0 0 176.273691,44.395219 176.73849,41.101973 0 0 1 -3.82257,-0.0973 176.73849,41.101973 0 0 1 -3.82256,-0.0973 176.73849,41.101973 0 0 1 -3.8057,-0.12978 176.73849,41.101973 0 0 1 -3.78915,-0.12977 176.73849,41.101973 0 0 1 -3.77227,-0.16222 176.73849,41.101973 0 0 1 -3.77227,-0.19467 176.73849,41.101973 0 0 1 -3.73853,-0.19466 176.73849,41.101973 0 0 1 -3.722,-0.22711 176.73849,41.101973 0 0 1 -3.70543,-0.25956 176.73849,41.101973 0 0 1 -3.68825,-0.25955 176.73849,41.101973 0 0 1 -3.65483,-0.29199 176.73849,41.101973 0 0 1 -3.62141,-0.292 176.73849,41.101973 0 0 1 -3.60455,-0.32444 176.73849,41.101973 0 0 1 -3.55457,-0.33418 176.73849,41.101973 0 0 1 -3.53738,-0.35364 176.73849,41.101973 0 0 1 -3.50396,-0.36985 176.73849,41.101973 0 0 1 -3.47055,-0.38609 176.73849,41.101973 0 0 1 -3.43713,-0.40231 176.73849,41.101973 0 0 1 -3.38652,-0.41853 176.73849,41.101973 0 0 1 -3.35309,-0.43475 176.73849,41.101973 0 0 1 -3.31969,-0.45422 176.73849,41.101973 0 0 1 -3.26939,-0.47043 176.73849,41.101973 0 0 1 -3.21845,-0.48667 176.73849,41.101973 0 0 1 -3.16979,-0.50289 176.73849,41.101973 0 0 1 -3.1341,-0.5191 176.73849,41.101973 0 0 1 -3.08543,-0.535335 176.73849,41.101973 0 0 1 -3.0173,-0.55155 176.73849,41.101973 0 0 1 -2.98486,-0.57101 176.73849,41.101973 0 0 1 -2.91672,-0.57101 176.73849,41.101973 0 0 1 -2.86807,-0.60346 176.73849,41.101973 0 0 1 -2.81615,-0.60347 176.73849,41.101973 0 0 1 -2.74801,-0.61968 176.73849,41.101973 0 0 1 -2.69935,-0.6359 176.73849,41.101973 0 0 1 -2.63121,-0.65537 176.73849,41.101973 0 0 1 -2.58256,-0.671601 176.73849,41.101973 0 0 1 -2.4982,-0.671586 176.73849,41.101973 0 0 1 -2.44628,-0.687822 176.73849,41.101973 0 0 1 -2.3814,-0.704035 176.73849,41.101973 0 0 1 -2.31326,-0.720259 176.73849,41.101973 0 0 1 -2.2646,-0.72026 176.73849,41.101973 0 0 1 -2.18024,-0.736485 176.73849,41.101973 0 0 1 -2.09589,-0.736473 176.73849,41.101973 0 0 1 -2.04399,-0.77217 176.73849,41.101973 0 0 1 -1.97908,-0.755957 176.73849,41.101973 0 0 1 -1.89474,-0.788383 176.73849,41.101973 0 0 1 -1.810379,-0.788395 176.73849,41.101973 0 0 1 -1.76171,-0.788395 176.73849,41.101973 0 0 1 -1.677359,-0.804608 176.73849,41.101973 0 0 1 -1.593,-0.820833 176.73849,41.101973 0 0 1 -1.524883,-0.820844 176.73849,41.101973 0 0 1 -1.440521,-0.820833 176.73849,41.101973 0 0 1 -1.359406,-0.837068 176.73849,41.101973 0 0 1 -1.291273,-0.837058 176.73849,41.101973 0 0 1 -1.223147,-0.856518 176.73849,41.101973 0 0 1 -1.122565,-0.853283 176.73849,41.101973 0 0 1 -1.057675,-0.856529 176.73849,41.101973 0 0 1 -0.957103,-0.872744 176.73849,41.101973 0 0 1 -0.888969,-0.856529 176.73849,41.101973 0 0 1 -0.804609,-0.888968 176.73849,41.101973 0 0 1 -0.736484,-0.872744 176.73849,41.101973 0 0 1 -0.6359,-0.872743 176.73849,41.101973 0 0 1 -0.551552,-0.888971 176.73849,41.101973 0 0 1 -0.486664,-0.888968 176.73849,41.101973 0 0 1 -0.38609,-0.888968 176.73849,41.101973 0 0 1 -0.324439,-0.888968 176.73849,41.101973 0 0 1 -0.227102,-0.905193 176.73849,41.101973 0 0 1 -0.162225,-0.888968 176.73849,41.101973 0 0 1 -0.06494,-0.888968 176.73849,41.101973 0 0 1 0,-0.194663 176.73849,41.101973 0 0 1 0.06494,-0.888968 176.73849,41.101973 0 0 1 0.129776,-0.905193 176.73849,41.101973 0 0 1 0.227113,-0.888968 176.73849,41.101973 0 0 1 0.291989,-0.888968 176.73849,41.101973 0 0 1 0.386091,-0.888972 176.73849,41.101973 0 0 1 0.454214,-0.888968 176.73849,41.101973 0 0 1 0.535326,-0.888968 176.73849,41.101973 0 0 1 0.619686,-0.872747 176.73849,41.101973 0 0 1 0.72026,-0.888969 176.73849,41.101973 0 0 1 0.788395,-0.872745 176.73849,41.101973 0 0 1 0.872743,-0.872747 176.73849,41.101973 0 0 1 0.937631,-0.872747 176.73849,41.101973 0 0 1 1.038216,-0.856524 176.73849,41.101973 0 0 1 1.106339,-0.856525 176.73849,41.101973 0 0 1 1.190699,-0.856524 176.73849,41.101973 0 0 1 1.275058,-0.837058 176.73849,41.101973 0 0 1 1.359407,-0.837058 176.73849,41.101973 0 0 1 1.424295,-0.820836 176.73849,41.101973 0 0 1 0.85652,-0.470439 z" />
  <path
     id="path3019"
     style="fill:#e4e5e7;fill-opacity:0.99932;stroke:none;stroke-width:8.91285px;stroke-linecap:butt;stroke-linejoin:miter;stroke-opacity:1"
     d="m 445.03711,56.288009 a 191.62631,44.564258 0 0 1 0.45421,0.635905 191.62631,44.564258 0 0 1 0.55155,0.921411 191.62631,44.564258 0 0 1 0.47044,0.921413 191.62631,44.564258 0 0 1 0.4023,0.937635 191.62631,44.564258 0 0 1 0.29201,0.921413 191.62631,44.564258 0 0 1 0.22711,0.921412 191.62631,44.564258 0 0 1 0.12977,0.937635 191.62631,44.564258 0 0 1 0.065,0.921409 191.62631,44.564258 0 0 1 0,0.194663 191.62631,44.564258 0 0 1 -0.065,0.921417 191.62631,44.564258 0 0 1 -0.12977,0.937631 191.62631,44.564258 0 0 1 -0.22711,0.921418 191.62631,44.564258 0 0 1 -0.29201,0.921406 191.62631,44.564258 0 0 1 -0.38607,0.937642 191.62631,44.564258 0 0 1 -0.45422,0.921407 191.62631,44.564258 0 0 1 -0.53533,0.921417 191.62631,44.564258 0 0 1 -0.61968,0.921406 191.62631,44.564258 0 0 1 -0.72026,0.905193 191.62631,44.564258 0 0 1 -0.7884,0.921418 191.62631,44.564258 0 0 1 -0.87274,0.905196 191.62631,44.564258 0 0 1 -0.93763,0.905181 191.62631,44.564258 0 0 1 -1.03822,0.905193 191.62631,44.564258 0 0 1 -1.12256,0.888968 191.62631,44.564258 0 0 1 -1.1907,0.888968 191.62631,44.564258 0 0 1 -1.27506,0.872754 191.62631,44.564258 0 0 1 -1.33993,0.888968 191.62631,44.564258 0 0 1 -1.44052,0.872744 191.62631,44.564258 0 0 1 -1.50866,0.853282 191.62631,44.564258 0 0 1 -1.57678,0.856519 191.62631,44.564258 0 0 1 -1.66113,0.856529 191.62631,44.564258 0 0 1 -1.74225,0.837058 191.62631,44.564258 0 0 1 -1.81039,0.820833 191.62631,44.564258 0 0 1 -1.89473,0.820833 191.62631,44.564258 0 0 1 -1.96287,0.80462 191.62631,44.564258 0 0 1 -2.02776,0.804608 191.62631,44.564258 0 0 1 -2.09589,0.788395 191.62631,44.564258 0 0 1 -2.18024,0.788394 191.62631,44.564258 0 0 1 -2.24838,0.77217 191.62631,44.564258 0 0 1 -2.31326,0.755946 191.62631,44.564258 0 0 1 -2.3814,0.755945 191.62631,44.564258 0 0 1 -2.44953,0.736484 191.62631,44.564258 0 0 1 -2.51442,0.72026 191.62631,44.564258 0 0 1 -2.58254,0.72026 191.62631,44.564258 0 0 1 -2.63122,0.68781 191.62631,44.564258 0 0 1 -2.69936,0.687811 191.62631,44.564258 0 0 1 -2.76747,0.671596 191.62631,44.564258 0 0 1 -2.83238,0.6716 191.62631,44.564258 0 0 1 -2.88427,0.6359 191.62631,44.564258 0 0 1 -2.93295,0.63591 191.62631,44.564258 0 0 1 -3.00109,0.61967 191.62631,44.564258 0 0 1 -3.05298,0.60347 191.62631,44.564258 0 0 1 -3.10166,0.58723 191.62631,44.564258 0 0 1 -3.15032,0.57103 191.62631,44.564258 0 0 1 -3.21846,0.55154 191.62631,44.564258 0 0 1 -3.25284,0.535325 191.62631,44.564258 0 0 1 -3.30282,0.53534 191.62631,44.564258 0 0 1 -3.35309,0.50288 191.62631,44.564258 0 0 1 -3.38651,0.48666 191.62631,44.564258 0 0 1 -3.45368,0.48667 191.62631,44.564258 0 0 1 -3.47055,0.45096 191.62631,44.564258 0 0 1 -3.52083,0.45422 191.62631,44.564258 0 0 1 -3.57112,0.41853 191.62631,44.564258 0 0 1 -3.58767,0.40231 191.62631,44.564258 0 0 1 -3.63828,0.40231 191.62631,44.564258 0 0 1 -3.67171,0.36986 191.62631,44.564258 0 0 1 -3.70511,0.35364 191.62631,44.564258 0 0 1 -3.72199,0.33417 191.62631,44.564258 0 0 1 -3.77228,0.32444 191.62631,44.564258 0 0 1 -3.78915,0.292 191.62631,44.564258 0 0 1 -3.80569,0.292 191.62631,44.564258 0 0 1 -3.83943,0.25955 191.62631,44.564258 0 0 1 -3.87286,0.25955 191.62631,44.564258 0 0 1 -3.87285,0.22712 191.62631,44.564258 0 0 1 -3.90626,0.2271 191.62631,44.564258 0 0 1 -3.92315,0.19466 191.62631,44.564258 0 0 1 -3.94001,0.16223 191.62631,44.564258 0 0 1 -3.94001,0.16222 191.62631,44.564258 0 0 1 -3.97343,0.12978 191.62631,44.564258 0 0 1 -3.97343,0.12977 191.62631,44.564258 0 0 1 -3.97343,0.0973 191.62631,44.564258 0 0 1 -3.98997,0.0973 191.62631,44.564258 0 0 1 -4.00717,0.0648 191.62631,44.564258 0 0 1 -3.99031,0.0325 191.62631,44.564258 0 0 1 -4.00684,0.0173 191.62631,44.564258 0 0 1 -0.80462,0 191.62631,44.564258 0 0 1 -4.00554,-0.0169 191.62631,44.564258 0 0 1 -3.98998,-0.0325 191.62631,44.564258 0 0 1 -4.00717,-0.0649 191.62631,44.564258 0 0 1 -3.98998,-0.0648 191.62631,44.564258 0 0 1 -3.99031,-0.0973 191.62631,44.564258 0 0 1 -3.97342,-0.0973 191.62631,44.564258 0 0 1 -3.95688,-0.12978 191.62631,44.564258 0 0 1 -3.95657,-0.12977 191.62631,44.564258 0 0 1 -3.94001,-0.16222 191.62631,44.564258 0 0 1 -3.92313,-0.19467 191.62631,44.564258 0 0 1 -3.90628,-0.19466 191.62631,44.564258 0 0 1 -3.88972,-0.2271 191.62631,44.564258 0 0 1 -3.87285,-0.25957 191.62631,44.564258 0 0 1 -3.83944,-0.25955 191.62631,44.564258 0 0 1 -3.82257,-0.29199 191.62631,44.564258 0 0 1 -3.78882,-0.292 191.62631,44.564258 0 0 1 -3.77227,-0.32444 191.62631,44.564258 0 0 1 -3.73886,-0.33418 191.62631,44.564258 0 0 1 -3.70512,-0.35364 191.62631,44.564258 0 0 1 -3.67169,-0.36985 191.62631,44.564258 0 0 1 -3.63829,-0.38609 191.62631,44.564258 0 0 1 -3.60453,-0.40231 191.62631,44.564258 0 0 1 -3.57112,-0.41853 191.62631,44.564258 0 0 1 -3.53739,-0.43475 191.62631,44.564258 0 0 1 -3.48742,-0.47044 191.62631,44.564258 0 0 1 -3.45368,-0.47044 191.62631,44.564258 0 0 1 -3.40337,-0.48666 191.62631,44.564258 0 0 1 -3.35311,-0.50288 191.62631,44.564258 0 0 1 -3.31967,-0.51911 191.62631,44.564258 0 0 1 -3.26907,-0.535335 191.62631,44.564258 0 0 1 -3.21846,-0.55155 191.62631,44.564258 0 0 1 -3.16979,-0.57101 191.62631,44.564258 0 0 1 -3.10166,-0.58724 191.62631,44.564258 0 0 1 -3.06921,-0.60346 191.62631,44.564258 0 0 1 -3.00108,-0.61968 191.62631,44.564258 0 0 1 -2.95241,-0.61968 191.62631,44.564258 0 0 1 -2.9005,-0.6359 191.62631,44.564258 0 0 1 -2.83238,-0.6716 191.62631,44.564258 0 0 1 -2.7837,-0.671598 191.62631,44.564258 0 0 1 -2.71557,-0.671585 191.62631,44.564258 0 0 1 -2.64744,-0.704047 191.62631,44.564258 0 0 1 -2.59877,-0.704035 191.62631,44.564258 0 0 1 -2.51442,-0.72026 191.62631,44.564258 0 0 1 -2.46576,-0.736473 191.62631,44.564258 0 0 1 -2.39761,-0.755956 191.62631,44.564258 0 0 1 -2.329489,-0.755946 191.62631,44.564258 0 0 1 -2.24837,-0.77217 191.62631,44.564258 0 0 1 -2.19647,-0.77217 191.62631,44.564258 0 0 1 -2.112112,-0.788394 191.62631,44.564258 0 0 1 -2.043981,-0.804609 191.62631,44.564258 0 0 1 -1.979082,-0.804619 191.62631,44.564258 0 0 1 -1.910959,-0.820833 191.62631,44.564258 0 0 1 -1.82661,-0.820833 191.62631,44.564258 0 0 1 -1.74224,-0.837058 191.62631,44.564258 0 0 1 -1.677362,-0.85653 191.62631,44.564258 0 0 1 -1.609228,-0.856518 191.62631,44.564258 0 0 1 -1.524879,-0.85653 191.62631,44.564258 0 0 1 -1.44052,-0.872743 191.62631,44.564258 0 0 1 -1.375621,-0.872743 191.62631,44.564258 0 0 1 -1.275058,-0.888968 191.62631,44.564258 0 0 1 -1.223137,-0.872755 191.62631,44.564258 0 0 1 -1.122576,-0.905181 191.62631,44.564258 0 0 1 -1.057676,-0.888968 191.62631,44.564258 0 0 1 -0.953855,-0.905193 191.62631,44.564258 0 0 1 -0.888968,-0.905193 191.62631,44.564258 0 0 1 -0.804609,-0.921421 191.62631,44.564258 0 0 1 -0.720259,-0.905181 191.62631,44.564258 0 0 1 -0.655372,-0.921418 191.62631,44.564258 0 0 1 -0.554799,-0.921406 191.62631,44.564258 0 0 1 -0.470439,-0.921417 191.62631,44.564258 0 0 1 -0.402305,-0.921418 191.62631,44.564258 0 0 1 -0.292,-0.937631 191.62631,44.564258 0 0 1 -0.227102,-0.921406 191.62631,44.564258 0 0 1 -0.129775,-0.937642 191.62631,44.564258 0 0 1 -0.06483,-0.921407 191.62631,44.564258 0 0 1 0,-0.194663 191.62631,44.564258 0 0 1 0.03247,-0.93764 191.62631,44.564258 0 0 1 0.129776,-0.921413 191.62631,44.564258 0 0 1 0.227113,-0.937634 191.62631,44.564258 0 0 1 0.291989,-0.921412 191.62631,44.564258 0 0 1 0.38609,-0.937636 191.62631,44.564258 0 0 1 0.450968,-0.921411 191.62631,44.564258 0 0 1 0.535338,-0.921413 191.62631,44.564258 0 0 1 0.535327,-0.804614 c -3.518245,4.281973 -4.14085,7.292466 -4.14085,7.292466 l 47.848892,353.0002 c 16.72007,66.29271 84.83647,73.01675 143.76534,74.55687 h 0.065 c 0.55803,-0.002 0.97008,-0.0325 1.52488,-0.0325 0.55803,0.003 0.96683,0.0325 1.52486,0.0325 h 0.0648 c 58.92855,-1.54109 127.04527,-8.26416 143.76534,-74.55687 l 47.84823,-353.0003 c 0,0 -0.64239,-3.017307 -4.17458,-7.309662 z" />
  <path
     id="path2227"
     style="fill:#969696;fill-opacity:1;stroke:none;stroke-width:8.91285px;stroke-linecap:butt;stroke-linejoin:miter;stroke-opacity:1"
     d="m 112.63233,423.37619 c 19.04404,61.14059 84.55778,67.99602 141.80474,69.49235 h 0.0648 c 0.55805,-0.002 0.97658,-0.0325 1.53137,-0.0325 0.55804,0.003 0.97332,0.0325 1.53136,0.0325 h 0.0649 c 57.24698,-1.49567 122.76071,-8.35176 141.80475,-69.49235 -2.13806,2.81939 -3.91276,6.09591 -6.31881,8.58211 -5.33316,5.50966 -11.28536,10.23417 -17.73881,14.27443 -6.45314,4.04027 -13.40299,7.39564 -20.71524,10.20108 -14.62483,5.61088 -30.69959,8.99188 -47.19288,11.07123 -16.49328,2.07967 -33.41094,2.86481 -49.6823,3.29047 h -0.0648 c -0.61644,-0.003 -1.0739,-0.0318 -1.69034,-0.0325 -0.61319,0.003 -1.07065,0.0325 -1.68709,0.0325 h -0.0648 c -16.2717,-0.42501 -33.17183,-1.21016 -49.66512,-3.29047 -16.49327,-2.07967 -32.56803,-5.46035 -47.19286,-11.07123 -7.31225,-2.80642 -14.2621,-6.16081 -20.71524,-10.20108 -6.45345,-4.04026 -12.40565,-8.76477 -17.73881,-14.27443 -2.40736,-2.48522 -4.17946,-5.7624 -6.31882,-8.58211 z" />
  <path
     id="rect3316"
     style="fill:#0078d7;fill-opacity:1;stroke:none;stroke-width:14.7447"
     d="m 241.57916,212.0181 c 4.39228,1.82985 8.04937,5.12811 10.78474,9.87761 l 19.55406,33.98195 -12.23922,6.95472 39.64053,0.5483 19.36687,-34.71616 -12.05201,7.12732 -11.14488,-19.00673 c -1.83633,-3.11464 -4.9354,-4.76604 -8.95619,-4.76604 z m -10.42495,1.65464 c -6.93493,0 -12.59836,3.29568 -16.06956,9.3306 l -16.63085,28.68287 34.90337,24.56472 21.56981,-41.56998 -6.2205,-10.41067 c -4.19211,-7.12049 -10.05346,-10.59785 -17.55227,-10.59754 z m 91.37623,54.35621 -34.88877,19.91387 21.55521,37.29385 h 12.06662 a 20.4045,20.4045 0 0 0 10.41033,-2.39114 c 5.83507,-3.28528 10.05054,-10.23319 10.05054,-16.80377 0,-3.29243 -0.92142,-6.38792 -2.56308,-9.31633 z m -112.37016,8.40918 -39.84233,0.73324 12.23921,6.92585 -10.95767,19.19393 c -0.73648,1.2718 -1.28154,3.28918 -1.28154,4.93897 a 10.191537,10.191537 0 0 0 1.28154,4.75176 l 22.83708,39.2804 c -0.16222,-1.2783 -0.16222,-2.18674 -0.16222,-2.91024 0,-3.10814 1.45349,-8.06106 3.28302,-11.34635 l 19.55373,-33.79443 12.42642,7.11305 z m 72.35522,38.9206 -20.46088,34.16884 20.46088,34.16916 v -14.06777 h 21.38261 a 9.8701506,9.8701506 0 0 0 8.9562,-4.93897 l 22.64987,-39.45332 c -3.83521,2.91996 -8.40301,4.37703 -13.88088,4.37703 h -39.1078 z m -74.91831,13.88057 -5.84609,10.41066 c -1.8266,3.10814 -3.11139,8.04387 -3.11139,10.97195 a 19.10467,19.10467 0 0 0 19.00673,19.00705 h 33.24742 V 329.2393 Z" />
</svg>
