<?xml version="1.0" encoding="UTF-8" standalone="no"?>
<svg
   width="512"
   height="512"
   version="1.1"
   viewBox="0 0 512 512"
   id="svg41"
   sodipodi:docname="user-desktop.svg"
   xml:space="preserve"
   inkscape:version="1.2.2 (b0a8486541, 2022-12-01)"
   xmlns:inkscape="http://www.inkscape.org/namespaces/inkscape"
   xmlns:sodipodi="http://sodipodi.sourceforge.net/DTD/sodipodi-0.dtd"
   xmlns:xlink="http://www.w3.org/1999/xlink"
   xmlns="http://www.w3.org/2000/svg"
   xmlns:svg="http://www.w3.org/2000/svg"
   xmlns:rdf="http://www.w3.org/1999/02/22-rdf-syntax-ns#"
   xmlns:cc="http://creativecommons.org/ns#"
   xmlns:dc="http://purl.org/dc/elements/1.1/"><sodipodi:namedview
     id="namedview43"
     pagecolor="#505050"
     bordercolor="#eeeeee"
     borderopacity="1"
     inkscape:showpageshadow="0"
     inkscape:pageopacity="0"
     inkscape:pagecheckerboard="0"
     inkscape:deskcolor="#505050"
     showgrid="true"
     inkscape:zoom="0.82860962"
     inkscape:cx="-49.480478"
     inkscape:cy="317.39916"
     inkscape:current-layer="svg41"
     inkscape:window-width="1920"
     inkscape:window-height="1021"
     inkscape:window-x="1920"
     inkscape:window-y="26"
     inkscape:window-maximized="1"
     showguides="false"><inkscape:grid
       type="xygrid"
       id="grid274" /></sodipodi:namedview><title
     id="title2">Canvas icon theme</title><defs
     id="defs9"><linearGradient
       inkscape:collect="always"
       id="linearGradient1479"><stop
         style="stop-color:#808080;stop-opacity:0;"
         offset="0"
         id="stop1475" /><stop
         style="stop-color:#ffffff;stop-opacity:0.50325519;"
         offset="0.05159836"
         id="stop1483" /><stop
         style="stop-color:#ffffff;stop-opacity:0.29903397;"
         offset="0.10190853"
         id="stop1485" /><stop
         style="stop-color:#808080;stop-opacity:0;"
         offset="0.50090909"
         id="stop1487" /><stop
         style="stop-color:#ffffff;stop-opacity:0.30374685;"
         offset="0.90360415"
         id="stop1491" /><stop
         style="stop-color:#ffffff;stop-opacity:0.50454891;"
         offset="0.94987708"
         id="stop1489" /><stop
         style="stop-color:#808080;stop-opacity:0;"
         offset="1"
         id="stop1477" /></linearGradient><linearGradient
       inkscape:collect="always"
       id="linearGradient1362"><stop
         style="stop-color:#916cbc;stop-opacity:1;"
         offset="0"
         id="stop1358" /><stop
         style="stop-color:#916cbc;stop-opacity:1;"
         offset="0.50306332"
         id="stop1366" /><stop
         style="stop-color:#916cbb;stop-opacity:1;"
         offset="1"
         id="stop1360" /></linearGradient><linearGradient
       inkscape:collect="always"
       id="linearGradient928"><stop
         style="stop-color:#808080;stop-opacity:0;"
         offset="0"
         id="stop924" /><stop
         style="stop-color:#ffffff;stop-opacity:0.5;"
         offset="0.04993822"
         id="stop932" /><stop
         style="stop-color:#ffffff;stop-opacity:0.29605946;"
         offset="0.10320921"
         id="stop940" /><stop
         style="stop-color:#7f7f7f;stop-opacity:0;"
         offset="0.51680118"
         id="stop934" /><stop
         style="stop-color:#ffffff;stop-opacity:0.30004191;"
         offset="0.899064"
         id="stop936" /><stop
         style="stop-color:#ffffff;stop-opacity:0.5;"
         offset="0.94683141"
         id="stop926" /><stop
         style="stop-color:#808080;stop-opacity:0;"
         offset="1"
         id="stop938" /></linearGradient><linearGradient
       id="a"
       x1="0.086597763"
       x2="16.847181"
       y1="281.43524"
       y2="295.90347"
       gradientTransform="matrix(32.485426,0,0,30.32054,-19.050639,-8492.5582)"
       gradientUnits="userSpaceOnUse"><stop
         stop-color="#ff9fa7"
         offset="0"
         id="stop4"
         style="stop-color:#9976c2;stop-opacity:1;" /><stop
         stop-color="#966fff"
         offset="1"
         id="stop6"
         style="stop-color:#9976c2;stop-opacity:1;" /></linearGradient><linearGradient
       y2="21.386522"
       x2="27.557428"
       y1="7.162672"
       x1="27.557428"
       gradientTransform="matrix(0.62762637,0,0,0.79043346,1.97277,-3.8155921)"
       gradientUnits="userSpaceOnUse"
       id="linearGradient4440-9"
       xlink:href="#linearGradient3454-2-5-0-3-4-1" /><linearGradient
       id="linearGradient3454-2-5-0-3-4-1"><stop
         id="stop3456-4-9-38-1-8-8"
         style="stop-color:#ffffff;stop-opacity:1"
         offset="0" /><stop
         id="stop3458-39-80-3-5-5-8"
         style="stop-color:#ffffff;stop-opacity:0.23529412"
         offset="0.0097359" /><stop
         id="stop3460-7-0-2-4-2-7"
         style="stop-color:#ffffff;stop-opacity:0.15686275"
         offset="0.99001008" /><stop
         id="stop3462-0-9-8-7-2-3"
         style="stop-color:#ffffff;stop-opacity:0.39215687"
         offset="1" /></linearGradient><linearGradient
       y2="36.657963"
       x2="22.809399"
       y1="49.629246"
       x1="22.934725"
       gradientTransform="matrix(0.54761895,0,0,0.48299421,-2.10685,-7.2449071)"
       gradientUnits="userSpaceOnUse"
       id="linearGradient4436-4"
       xlink:href="#linearGradient6129-963-697-142-998-580-273-5-3" /><linearGradient
       id="linearGradient6129-963-697-142-998-580-273-5-3"><stop
         offset="0"
         style="stop-color:#0a0a0a;stop-opacity:0.498"
         id="stop2661-1-2" /><stop
         offset="1"
         style="stop-color:#0a0a0a;stop-opacity:0"
         id="stop2663-85-8" /></linearGradient><linearGradient
       y2="43.761127"
       x2="35.792694"
       y1="17.118193"
       x1="35.792694"
       gradientTransform="matrix(0.4666607,0,0,0.4821427,-0.16384998,-7.4553496)"
       gradientUnits="userSpaceOnUse"
       id="linearGradient4430-9"
       xlink:href="#linearGradient4632-0-6-4-7" /><linearGradient
       id="linearGradient4632-0-6-4-3-4-0"><stop
         id="stop4634-4-4-7-7-4-8"
         offset="0"
         style="stop-color:#bababa;stop-opacity:1;" /><stop
         id="stop4636-3-1-5-1-3-9"
         offset="1"
         style="stop-color:#838383;stop-opacity:1;" /></linearGradient><linearGradient
       y2="34.143417"
       x2="21.37039"
       y1="4.73244"
       x1="21.37039"
       gradientTransform="matrix(0.43131243,0,0,0.48638011,0.98956,-4.8145871)"
       gradientUnits="userSpaceOnUse"
       id="linearGradient4418-4"
       xlink:href="#linearGradient4325-0" /><linearGradient
       id="linearGradient4325-0"><stop
         id="stop4327-4"
         style="stop-color:#ffffff;stop-opacity:1"
         offset="0" /><stop
         id="stop4329-5"
         style="stop-color:#ffffff;stop-opacity:0.23529412"
         offset="0.1106325" /><stop
         id="stop4331-6"
         style="stop-color:#ffffff;stop-opacity:0.15686275"
         offset="0.99001008" /><stop
         id="stop4333-7"
         style="stop-color:#ffffff;stop-opacity:0.39215687"
         offset="1" /></linearGradient><linearGradient
       id="linearGradient4646-7-4-3-5-6"><stop
         id="stop4648-8-0-3-6-5"
         style="stop-color:#f9f9f9;stop-opacity:1"
         offset="0" /><stop
         id="stop4650-1-7-3-4-8"
         style="stop-color:#d8d8d8;stop-opacity:1"
         offset="1" /></linearGradient><linearGradient
       id="linearGradient3104-8-8-97-4-6-11-5-5-0-5"><stop
         id="stop3106-5-4-3-5-0-2-1-0-6-6"
         style="stop-color:#000000;stop-opacity:0.32173914"
         offset="0" /><stop
         id="stop3108-4-3-7-8-2-0-7-9-1-4"
         style="stop-color:#000000;stop-opacity:0.27826086"
         offset="1" /></linearGradient><linearGradient
       xlink:href="#linearGradient3104-8-8-97-4-6-11-5-5-0-5"
       id="linearGradient10992"
       gradientUnits="userSpaceOnUse"
       gradientTransform="matrix(0.40212523,0,0,0.398023,52.35056,-7.7909371)"
       x1="-51.786404"
       y1="53.514328"
       x2="-51.786404"
       y2="3.6336823" /><linearGradient
       id="linearGradient4632-0-6-4-7"><stop
         id="stop4634-4-4-7-5"
         offset="0"
         style="stop-color:#55a7f3;stop-opacity:1;" /><stop
         id="stop4636-3-1-5-3"
         offset="1"
         style="stop-color:#1374cf;stop-opacity:1;" /></linearGradient><linearGradient
       inkscape:collect="always"
       id="linearGradient47707"><stop
         style="stop-color:#916cbc;stop-opacity:1;"
         offset="0"
         id="stop47703" /><stop
         style="stop-color:#916cbc;stop-opacity:1;"
         offset="0.50168061"
         id="stop48280" /><stop
         style="stop-color:#916cbb;stop-opacity:1;"
         offset="1"
         id="stop47705" /></linearGradient><linearGradient
       inkscape:collect="always"
       xlink:href="#linearGradient928"
       id="linearGradient3508"
       gradientUnits="userSpaceOnUse"
       x1="8.4444284"
       y1="255.99419"
       x2="506.96872"
       y2="255.99419"
       gradientTransform="matrix(0.97825454,0,0,0.97825454,-638.54466,23.822266)" /><radialGradient
       inkscape:collect="always"
       xlink:href="#linearGradient47707"
       id="radialGradient5624"
       cx="256.0174"
       cy="256"
       fx="256.0174"
       fy="256"
       r="249.39642"
       gradientTransform="matrix(1,0,0,0.75000355,-642.29101,84.736635)"
       gradientUnits="userSpaceOnUse" /><radialGradient
       inkscape:collect="always"
       xlink:href="#linearGradient1362"
       id="radialGradient1364"
       cx="853.12402"
       cy="277.49707"
       fx="853.12402"
       fy="277.49707"
       r="233.16508"
       gradientTransform="matrix(1,0,0,0.76125066,-597.12402,44.755174)"
       gradientUnits="userSpaceOnUse" /><linearGradient
       inkscape:collect="always"
       xlink:href="#linearGradient1479"
       id="linearGradient1481"
       x1="27.844428"
       y1="256.05163"
       x2="484.33242"
       y2="256.05163"
       gradientUnits="userSpaceOnUse" /></defs><metadata
     id="metadata272"><rdf:RDF><cc:Work
         rdf:about=""><dc:title>Canvas icon theme</dc:title></cc:Work></rdf:RDF></metadata><path
     id="path3497"
     style="color:#e0def4;fill:url(#radialGradient5624);fill-opacity:1;stroke-width:28.862"
     class="ColorScheme-Text"
     d="m -511.28308,89.689972 c -38.96813,0.400801 -67.95971,-0.80043 -91.34058,10.28878 -11.53458,5.531258 -20.88752,14.964148 -26.18719,26.667938 -4.98792,11.70382 -6.85918,25.65095 -6.85918,43.20666 v 48.67893 116.41115 48.67893 c 0,17.55571 1.87126,31.50505 6.85918,43.20888 5.29967,11.70379 14.65261,21.13669 26.18719,26.66794 23.38087,11.08921 52.37245,9.88576 91.34058,10.28656 h 124.05018 125.97104 c 38.96812,-0.4008 67.95968,0.82936 91.34055,-10.28656 2.99769,-1.44445 5.83957,-3.15861 8.50974,-5.09342 7.96927,-5.6699 14.09091,-13.08865 17.65752,-21.53464 0.006,-0.0137 0.0142,-0.0262 0.0199,-0.0399 2.7e-4,-6.4e-4 -2.6e-4,-10e-4 0,-0.002 0.62322,-1.46235 1.19758,-2.95795 1.72588,-4.49303 2.2e-4,-6.6e-4 -2.3e-4,-10e-4 0,-0.002 0.23399,-0.68001 0.42643,-1.3964 0.64248,-2.09144 0.27197,-0.87461 0.56436,-1.73285 0.80866,-2.63201 0.31414,-1.15661 0.48992,-2.45206 0.75993,-3.65114 0.48359,-2.14697 1.01253,-4.24547 1.36253,-6.53793 0.54524,-3.57128 0.93448,-7.32662 1.1875,-11.28796 0.2532,-3.95932 0.36998,-8.12201 0.36998,-12.51092 v -213.76681 -0.002 c 0,-4.39173 -0.11717,-8.55352 -0.36998,-12.51093 -2.4e-4,-0.003 2.5e-4,-0.007 0,-0.0113 -0.25303,-3.9567 -0.64284,-7.70718 -1.1875,-11.27467 -0.40139,-2.62903 -0.98386,-5.06059 -1.56194,-7.49946 -0.20734,-0.87478 -0.32908,-1.83772 -0.56052,-2.68962 -6.1e-4,-0.002 -0.002,-0.005 -0.002,-0.007 -0.0891,-0.32788 -0.20191,-0.63473 -0.29467,-0.95931 -0.36323,-1.27148 -0.7336,-2.53737 -1.15426,-3.75971 -0.52842,-1.53509 -1.10251,-3.03226 -1.72588,-4.49523 -3.56421,-8.46429 -9.69619,-15.89711 -17.67968,-21.57674 -2.66973,-1.93437 -5.51039,-3.64703 -8.50752,-5.091218 -23.3811,-11.11659 -52.37265,-9.888639 -91.34078,-10.28944 h -125.97103 z" /><rect
     style="opacity:0.5;fill:#000000;fill-opacity:0.3;stroke-width:13.1096;stroke-linecap:round;stroke-opacity:0.401604;paint-order:markers fill stroke"
     id="rect1822"
     width="338.21915"
     height="75.979576"
     x="-555.38318"
     y="385.11847"
     ry="16.48439" /><rect
     x="-530.64954"
     y="399.74951"
     width="46.717487"
     height="46.717487"
     ry="4.6717486"
     style="fill:#000000;fill-opacity:0.599107;stroke-width:35.3144;paint-order:stroke markers fill"
     id="rect27" /><rect
     x="-449.97141"
     y="399.74951"
     width="46.717487"
     height="46.717487"
     ry="4.6717486"
     style="fill:#000000;fill-opacity:0.599107;stroke-width:35.3144;paint-order:stroke markers fill"
     id="rect29" /><rect
     x="-369.2933"
     y="399.74951"
     width="46.717487"
     height="46.717487"
     ry="4.6717486"
     style="fill:#000000;fill-opacity:0.599107;stroke-width:35.3144;paint-order:stroke markers fill"
     id="rect31" /><rect
     x="-288.61517"
     y="399.74951"
     width="46.717487"
     height="46.717487"
     ry="4.6717486"
     style="fill:#000000;fill-opacity:0.599107;stroke-width:35.3144;paint-order:stroke markers fill"
     id="rect33" /><path
     id="path3506"
     style="opacity:0.5;fill:url(#linearGradient3508);fill-opacity:1;stroke-width:29.6612;paint-order:stroke markers fill"
     d="m -543.35459,94.976543 c -59.63316,0.02566 -87.32202,13.893767 -87.29934,77.997087 l 0.0755,213.26829 c 0.0148,41.77222 -0.39784,72.02188 81.32292,72.07497 l 323.88697,0.2104 c 56.91328,0.037 83.37194,-20.03568 83.27971,-65.89672 l -0.453,-225.26307 c -0.1014,-50.42159 -13.53339,-72.557578 -98.8316,-72.52088 z m 6.29369,5.890557 289.39378,-0.12992 c 69.90498,-0.0314 97.30333,5.59132 97.44062,71.13182 l 0.453,216.26199 c 0.13119,62.63107 -52.49311,64.52371 -81.88872,64.50384 l -311.2996,-0.2104 c -61.86233,-0.0418 -79.91481,-24.25941 -79.93196,-70.68209 l -0.0755,-204.26721 c -0.0282,-76.3255 38.66209,-76.60803 85.90838,-76.60803 z"
     sodipodi:nodetypes="sssssssssssssssssss" /><path
     id="path2540"
     style="color:#e0def4;fill:none;fill-opacity:0.599107;stroke:#000000;stroke-width:10;stroke-dasharray:none;stroke-opacity:0.4"
     class="ColorScheme-Text"
     d="m -511.28308,89.689972 c -38.96813,0.400801 -67.95971,-0.80043 -91.34058,10.28878 -11.53458,5.531258 -20.88752,14.964148 -26.18719,26.667938 -4.98792,11.70382 -6.85918,25.65095 -6.85918,43.20666 v 48.67893 116.41115 48.67893 c 0,17.55571 1.87126,31.50505 6.85918,43.20888 5.29967,11.70379 14.65261,21.13669 26.18719,26.66794 23.38087,11.08921 52.37245,9.88576 91.34058,10.28656 h 124.05018 125.97104 c 38.96812,-0.4008 67.95968,0.82936 91.34055,-10.28656 2.99769,-1.44445 5.83957,-3.15861 8.50974,-5.09342 7.96927,-5.6699 14.09091,-13.08865 17.65752,-21.53464 0.006,-0.0137 0.0142,-0.0262 0.0199,-0.0399 2.7e-4,-6.4e-4 -2.6e-4,-10e-4 0,-0.002 0.62322,-1.46235 1.19758,-2.95795 1.72588,-4.49303 2.2e-4,-6.6e-4 -2.3e-4,-10e-4 0,-0.002 0.23399,-0.68001 0.42643,-1.3964 0.64248,-2.09144 0.27197,-0.87461 0.56436,-1.73285 0.80866,-2.63201 0.31414,-1.15661 0.48992,-2.45206 0.75993,-3.65114 0.48359,-2.14697 1.01253,-4.24547 1.36253,-6.53793 0.54524,-3.57128 0.93448,-7.32662 1.1875,-11.28796 0.2532,-3.95932 0.36998,-8.12201 0.36998,-12.51092 v -213.76681 -0.002 c 0,-4.39173 -0.11717,-8.55352 -0.36998,-12.51093 -2.4e-4,-0.003 2.5e-4,-0.007 0,-0.0113 -0.25303,-3.9567 -0.64284,-7.70718 -1.1875,-11.27467 -0.40139,-2.62903 -0.98386,-5.06059 -1.56194,-7.49946 -0.20734,-0.87478 -0.32908,-1.83772 -0.56052,-2.68962 -6.1e-4,-0.002 -0.002,-0.005 -0.002,-0.007 -0.0891,-0.32788 -0.20191,-0.63473 -0.29467,-0.95931 -0.36323,-1.27148 -0.7336,-2.53737 -1.15426,-3.75971 -0.52842,-1.53509 -1.10251,-3.03226 -1.72588,-4.49523 -3.56421,-8.46429 -9.69619,-15.89711 -17.67968,-21.57674 -2.66973,-1.93437 -5.51039,-3.64703 -8.50752,-5.091218 -23.3811,-11.11659 -52.37265,-9.888639 -91.34078,-10.28944 h -125.97103 z" /><path
     id="path13418-0"
     style="color:#e0def4;fill:url(#radialGradient1364);fill-opacity:1;stroke-width:27.1853"
     class="ColorScheme-Text"
     d="m 139.12592,78.50293 c -36.432,0.37999 -63.537203,-0.76154 -85.396473,9.76172 -10.78391,5.24893 -19.52764,14.2004 -24.48242,25.30664 -4.66332,11.10621 -6.41211,24.34259 -6.41211,41.00196 v 46.19335 110.4668 46.19336 c 0,16.65936 1.74879,29.89575 6.41211,41.00195 4.95478,11.10624 13.69851,20.05772 24.48242,25.30665 21.85927,10.52325 48.964473,9.38172 85.396473,9.76171 h 115.97852 117.77153 c 36.432,-0.38037 63.5372,0.78664 85.39641,-9.76171 2.80379,-1.37128 5.4598,-2.99896 7.9571,-4.83594 7.4616,-5.38921 13.1938,-12.44028 16.5254,-20.47071 0.5828,-1.38827 1.1192,-2.8089 1.6132,-4.26562 0.215,-0.63389 0.3911,-1.30157 0.5899,-1.94922 1.17159,-3.81684 2.096,-7.84827 2.75,-12.19336 5e-4,-0.003 0,-0.007 0,-0.01 0.22229,-1.47739 0.316,-3.123 0.4844,-4.66797 0.2179,-1.9998 0.4916,-3.92241 0.625,-6.04297 0.2367,-3.75714 0.3477,-7.70822 0.3477,-11.87305 V 154.57325 c 0,-4.16483 -0.111,-8.11591 -0.3477,-11.87305 -0.1473,-2.33999 -0.4409,-4.47455 -0.6914,-6.66797 -0.1518,-1.32946 -0.2256,-2.76235 -0.418,-4.04102 -6e-4,-0.004 0,-0.008 0,-0.0117 -0.5098,-3.38698 -1.1652,-6.59825 -1.9844,-9.65821 -3e-4,-10e-4 3e-4,-0.003 0,-0.004 -0.1901,-0.7099 -0.421,-1.38441 -0.6289,-2.07813 -0.2404,-0.80217 -0.4617,-1.62114 -0.7266,-2.40234 -0.494,-1.45672 -1.0304,-2.87735 -1.6132,-4.26563 -3.3317,-8.03073 -9.0634,-15.08337 -16.5254,-20.47265 -2.497,-1.83666 -5.1537,-3.46291 -7.9571,-4.83399 C 436.41317,77.71629 409.30797,78.8833 372.87597,78.50293 H 255.10444 Z" /><path
     id="path1368"
     style="color:#e0def4;fill:none;fill-opacity:1;stroke:#000000;stroke-width:10;stroke-dasharray:none;stroke-opacity:0.398397"
     class="ColorScheme-Text"
     d="m 139.12592,78.50293 c -36.432,0.37999 -63.537203,-0.76154 -85.396473,9.76172 -10.78391,5.24893 -19.52764,14.2004 -24.48242,25.30664 -4.66332,11.10621 -6.41211,24.34259 -6.41211,41.00196 v 46.19335 110.4668 46.19336 c 0,16.65936 1.74879,29.89575 6.41211,41.00195 4.95478,11.10624 13.69851,20.05772 24.48242,25.30665 21.85927,10.52325 48.964473,9.38172 85.396473,9.76171 h 115.97852 117.77153 c 36.432,-0.38037 63.5372,0.78664 85.39641,-9.76171 2.80379,-1.37128 5.4598,-2.99896 7.9571,-4.83594 7.4616,-5.38921 13.1938,-12.44028 16.5254,-20.47071 0.5828,-1.38827 1.1192,-2.8089 1.6132,-4.26562 0.215,-0.63389 0.3911,-1.30157 0.5899,-1.94922 1.17159,-3.81684 2.096,-7.84827 2.75,-12.19336 5e-4,-0.003 0,-0.007 0,-0.01 0.22229,-1.47739 0.316,-3.123 0.4844,-4.66797 0.2179,-1.9998 0.4916,-3.92241 0.625,-6.04297 0.2367,-3.75714 0.3477,-7.70822 0.3477,-11.87305 V 154.57325 c 0,-4.16483 -0.111,-8.11591 -0.3477,-11.87305 -0.1473,-2.33999 -0.4409,-4.47455 -0.6914,-6.66797 -0.1518,-1.32946 -0.2256,-2.76235 -0.418,-4.04102 -6e-4,-0.004 0,-0.008 0,-0.0117 -0.5098,-3.38698 -1.1652,-6.59825 -1.9844,-9.65821 -3e-4,-10e-4 3e-4,-0.003 0,-0.004 -0.1901,-0.7099 -0.421,-1.38441 -0.6289,-2.07813 -0.2404,-0.80217 -0.4617,-1.62114 -0.7266,-2.40234 -0.494,-1.45672 -1.0304,-2.87735 -1.6132,-4.26563 -3.3317,-8.03073 -9.0634,-15.08337 -16.5254,-20.47265 -2.497,-1.83666 -5.1537,-3.46291 -7.9571,-4.83399 C 436.41317,77.71629 409.30797,78.8833 372.87597,78.50293 H 255.10444 Z" /><path
     id="path1370"
     style="color:#e0def4;opacity:0.5;fill:url(#linearGradient1481);fill-opacity:1;stroke-width:26.5068"
     class="ColorScheme-Text"
     d="M 141.63809,83.6 C 105.9885,83.969188 78.389823,81.775883 57,92 c -10.552315,5.099725 -19.151633,14.20948 -24,25 -4.563174,10.79051 -5.155572,24.32218 -5.155572,40.50798 v 44.88028 107.32675 44.88028 c 0,16.18579 0.592398,29.61421 5.155572,40.40471 4.848367,10.79052 13.447685,19.90028 24,25 21.389823,10.22412 48.9885,8.13407 84.63809,8.50326 H 255.12598 370.36831 C 406.01791,428.1337 432.61025,430.24849 454,420 c 2.74359,-1.3323 6.55631,-3.21524 9,-5 7.30134,-5.23601 12.12011,-11.40213 15.38018,-19.20427 0.57028,-1.3488 1.19469,-3.15572 1.67808,-4.57101 0.21038,-0.61587 0.45735,-1.41338 0.65188,-2.04262 1.14646,-3.70833 1.69715,-8.15088 2.3371,-12.37245 4.8e-4,-0.003 0,-0.007 0,-0.009 0.21753,-1.4354 0.30921,-3.03423 0.47399,-4.53528 0.21323,-1.94295 0.45132,-3.86438 0.58183,-5.92465 0.23162,-3.65049 0.057,-7.69865 0.057,-11.74508 V 157.5081 c 0,-4.04644 0.31977,-7.89855 0.0882,-11.54889 -0.14413,-2.27347 -0.43142,-4.34737 -0.67656,-6.47842 -0.14853,-1.29167 -0.22074,-2.68383 -0.40901,-3.92615 -5.8e-4,-0.004 0,-0.008 0,-0.0113 -0.49886,-3.29071 -0.67381,-6.72525 -1.47541,-9.69823 -3.1e-4,-9.8e-4 2.9e-4,-0.003 0,-0.004 -0.18602,-0.68971 -0.41196,-1.34504 -0.6154,-2.01905 -0.23523,-0.77936 -0.45169,-1.57506 -0.7109,-2.33406 -0.48339,-1.41529 -1.00836,-2.79555 -1.57864,-4.14437 C 475.52217,109.54119 472,104 463.6012,97.39122 461.15781,95.606757 458.55827,94.026729 455.81505,92.694629 434.42523,82.446227 406.01791,83.969557 370.36831,83.6 H 255.12598 Z m 6.89747,9.715744 H 255.1795 363.47087 C 396.97067,93.664485 425,90.79335 443.38725,99.640224 469.23465,114.56323 471.32594,120 471.32594,162.82883 l -0.4955,186.33842 c 0,30.83275 -0.83044,49.92334 -27.36054,62.54738 -20.09981,9.67111 -46.49923,6.72379 -79.99903,7.07253 H 255.1795 148.53556 c -33.4998,-0.34852 -62.12903,2.39013 -82.228976,-7.25799 -9.915972,-4.8124 -16.99107,-12.4834 -21.547064,-22.666 -4.288003,-10.18256 -3.156493,-24.54685 -3.156493,-39.82077 V 306.69192 205.41097 163.06019 c 0,-15.27392 -1.5311,-28.67557 2.756903,-38.85812 4.555994,-10.18261 12.799726,-19.45451 22.715698,-24.266906 20.099946,-9.648111 47.960132,-6.27122 81.459932,-6.61961 z"
     sodipodi:nodetypes="cccsccsccccccccssscscsscsscscssccccccccccccccccccsccscccc" /><rect
     style="opacity:0.5;fill:#000000;fill-opacity:0.3;stroke-width:13.1096;stroke-linecap:round;stroke-opacity:0.401604;paint-order:markers fill stroke"
     id="rect1493"
     width="338.21915"
     height="75.979576"
     x="86.890427"
     y="357.51749"
     ry="16.48439" /><g
     id="g1515"
     transform="translate(-7.0196934,2.148531)"><rect
       x="118.64377"
       y="370"
       width="46.717487"
       height="46.717487"
       ry="4.6717486"
       style="fill:#000000;fill-opacity:0.599107;stroke-width:35.3144;paint-order:stroke markers fill"
       id="rect1503" /><rect
       x="199.3219"
       y="370"
       width="46.717487"
       height="46.717487"
       ry="4.6717486"
       style="fill:#000000;fill-opacity:0.599107;stroke-width:35.3144;paint-order:stroke markers fill"
       id="rect1505" /><rect
       x="280"
       y="370"
       width="46.717487"
       height="46.717487"
       ry="4.6717486"
       style="fill:#000000;fill-opacity:0.599107;stroke-width:35.3144;paint-order:stroke markers fill"
       id="rect1507" /><rect
       x="360.67813"
       y="370"
       width="46.717487"
       height="46.717487"
       ry="4.6717486"
       style="fill:#000000;fill-opacity:0.599107;stroke-width:35.3144;paint-order:stroke markers fill"
       id="rect1509" /></g></svg>
