<?xml version="1.0" encoding="UTF-8" standalone="no"?>
<!-- Created with Inkscape (http://www.inkscape.org/) -->

<svg
   width="64"
   height="64"
   viewBox="0 0 64 64"
   version="1.1"
   id="svg5"
   inkscape:version="1.3.2 (091e20ef0f, 2023-11-25, custom)"
   sodipodi:docname="user-desktop.svg"
   xmlns:inkscape="http://www.inkscape.org/namespaces/inkscape"
   xmlns:sodipodi="http://sodipodi.sourceforge.net/DTD/sodipodi-0.dtd"
   xmlns:xlink="http://www.w3.org/1999/xlink"
   xmlns="http://www.w3.org/2000/svg"
   xmlns:svg="http://www.w3.org/2000/svg">
  <sodipodi:namedview
     id="namedview7"
     pagecolor="#ffffff"
     bordercolor="#000000"
     borderopacity="0.25"
     inkscape:showpageshadow="2"
     inkscape:pageopacity="0.0"
     inkscape:pagecheckerboard="0"
     inkscape:deskcolor="#d1d1d1"
     inkscape:document-units="px"
     showgrid="true"
     inkscape:zoom="4.5002689"
     inkscape:cx="68.440355"
     inkscape:cy="62.662922"
     inkscape:window-width="1920"
     inkscape:window-height="1013"
     inkscape:window-x="1920"
     inkscape:window-y="36"
     inkscape:window-maximized="1"
     inkscape:current-layer="layer1">
    <inkscape:grid
       id="grid1"
       units="px"
       originx="0"
       originy="0"
       spacingx="1"
       spacingy="1"
       empcolor="#0099e5"
       empopacity="0.30196078"
       color="#0099e5"
       opacity="0.14901961"
       empspacing="5"
       dotted="false"
       gridanglex="30"
       gridanglez="30"
       visible="true" />
  </sodipodi:namedview>
  <defs
     id="defs2">
    <linearGradient
       id="linearGradient4"
       inkscape:collect="always">
      <stop
         style="stop-color:#ffffff;stop-opacity:0;"
         offset="0"
         id="stop8" />
      <stop
         style="stop-color:#ffffff;stop-opacity:1;"
         offset="0.09645011"
         id="stop11" />
      <stop
         style="stop-color:#ffffff;stop-opacity:0;"
         offset="0.20052706"
         id="stop17" />
      <stop
         style="stop-color:#ffffff;stop-opacity:0;"
         offset="0.50743681"
         id="stop20" />
      <stop
         style="stop-color:#ffffff;stop-opacity:0;"
         offset="0.80116212"
         id="stop22" />
      <stop
         style="stop-color:#ffffff;stop-opacity:1;"
         offset="0.90180248"
         id="stop21" />
      <stop
         style="stop-color:#ffffff;stop-opacity:0;"
         offset="1"
         id="stop10" />
    </linearGradient>
    <inkscape:path-effect
       effect="fillet_chamfer"
       id="path-effect15"
       is_visible="true"
       lpeversion="1"
       nodesatellites_param="F,0,0,1,0,0,0,1 @ F,0,0,1,0,0,0,1 @ F,0,0,1,0,0,0,1 @ F,0,1,1,0,5,0,1 @ F,0,1,1,0,5,0,1 @ F,0,0,1,0,0,0,1 @ F,0,0,1,0,0,0,1"
       radius="5"
       unit="px"
       method="auto"
       mode="F"
       chamfer_steps="1"
       flexible="false"
       use_knot_distance="true"
       apply_no_radius="true"
       apply_with_radius="true"
       only_selected="true"
       hide_knots="false" />
    <inkscape:path-effect
       effect="fillet_chamfer"
       id="path-effect14"
       is_visible="true"
       lpeversion="1"
       nodesatellites_param="F,0,0,1,0,0,0,1 @ F,0,0,1,0,0,0,1 @ F,0,0,1,0,0,0,1 @ F,0,0,1,0,0,0,1 @ F,0,0,1,0,0,0,1 @ F,0,0,1,0,0,0,1 @ F,0,0,1,0,0,0,1 @ F,0,0,1,0,0,0,1 @ F,0,0,1,0,0,0,1 @ F,0,0,1,0,0,0,1 @ F,0,0,1,0,0,0,1 @ F,0,1,1,0,5,0,1 @ F,0,0,1,0,0,0,1 @ F,0,0,1,0,0,0,1 @ F,0,0,1,0,0,0,1 @ F,0,0,1,0,0,0,1"
       radius="5"
       unit="px"
       method="auto"
       mode="F"
       chamfer_steps="1"
       flexible="false"
       use_knot_distance="true"
       apply_no_radius="true"
       apply_with_radius="true"
       only_selected="true"
       hide_knots="false" />
    <inkscape:path-effect
       effect="fillet_chamfer"
       id="path-effect1"
       is_visible="true"
       lpeversion="1"
       nodesatellites_param="F,0,1,1,0,40,0,1 @ F,0,0,1,0,0,0,1 @ F,0,0,1,0,0,0,1 @ F,0,0,1,0,0,0,1 @ F,0,0,1,0,0,0,1 @ F,0,0,1,0,0,0,1 @ F,0,0,1,0,0,0,1 @ F,0,0,1,0,0,0,1 @ F,0,0,1,0,0,0,1 @ F,0,0,1,0,0,0,1 @ F,0,0,1,0,0,0,1 @ F,0,0,1,0,0,0,1 @ F,0,0,1,0,0,0,1 @ F,0,0,1,0,0,0,1"
       radius="40"
       unit="px"
       method="auto"
       mode="F"
       chamfer_steps="1"
       flexible="false"
       use_knot_distance="true"
       apply_no_radius="true"
       apply_with_radius="true"
       only_selected="true"
       hide_knots="false" />
    <linearGradient
       id="_lgradient_0"
       x1="0.53299999"
       x2="0.53299999"
       y1="0"
       y2="1.0175205"
       gradientTransform="matrix(244.648,0,0,228.338,-274.64,-130)"
       gradientUnits="userSpaceOnUse">
      <stop
         offset="0"
         style="stop-color:#9376bb;stop-opacity:1;"
         id="stop1" />
      <stop
         offset="1"
         style="stop-color:#9375ba;stop-opacity:1;"
         id="stop2" />
    </linearGradient>
    <filter
       id="LDMJD06QtfR6zn2dxVC3GkIG8b2ASU1O"
       width="1.0000049"
       height="1.0175232"
       x="-2.4577903e-06"
       y="-2.6333483e-06"
       color-interpolation-filters="sRGB"
       filterUnits="objectBoundingBox">
      <feGaussianBlur
         in="SourceGraphic"
         stdDeviation="0.00025053896"
         id="feGaussianBlur1" />
      <feOffset
         dx="0"
         dy="4"
         result="pf_100_offsetBlur"
         id="feOffset1" />
      <feFlood
         flood-opacity=".4"
         id="feFlood1" />
      <feComposite
         in2="pf_100_offsetBlur"
         operator="in"
         result="pf_100_dropShadow"
         id="feComposite1" />
      <feBlend
         in="SourceGraphic"
         in2="pf_100_dropShadow"
         mode="normal"
         id="feBlend1" />
    </filter>
    <linearGradient
       id="b"
       x1="0.51700002"
       x2="0.51700002"
       y2="1"
       gradientTransform="matrix(56.048467,0,0,52.311898,58.484762,-67.311683)"
       gradientUnits="userSpaceOnUse"
       xlink:href="#linearGradient3">
      <stop
         offset="0"
         stop-color="#ffffff"
         id="stop4"
         style="stop-color:#9477bb;stop-opacity:1;" />
      <stop
         offset="1"
         stop-opacity=".498"
         id="stop7-3"
         style="stop-color:#9274ba;stop-opacity:1;" />
    </linearGradient>
    <linearGradient
       id="linearGradient3"
       inkscape:collect="always">
      <stop
         style="stop-color:#ffffff;stop-opacity:0;"
         offset="0"
         id="stop4-0" />
      <stop
         style="stop-color:#ffffff;stop-opacity:0.30240488;"
         offset="0.69896251"
         id="stop6" />
      <stop
         style="stop-color:#ffffff;stop-opacity:0;"
         offset="1"
         id="stop5" />
    </linearGradient>
    <linearGradient
       inkscape:collect="always"
       xlink:href="#linearGradient6"
       id="linearGradient8"
       x1="0.00054506568"
       y1="3.6203966"
       x2="64.000542"
       y2="67.620399"
       gradientUnits="userSpaceOnUse"
       gradientTransform="translate(-5.4506567e-4,-3.6203965)" />
    <linearGradient
       id="linearGradient6"
       inkscape:collect="always">
      <stop
         style="stop-color:#9477bb;stop-opacity:1;"
         offset="0"
         id="stop7" />
      <stop
         style="stop-color:#9274ba;stop-opacity:1;"
         offset="1"
         id="stop9" />
    </linearGradient>
    <linearGradient
       inkscape:collect="always"
       xlink:href="#linearGradient4"
       id="linearGradient13"
       x1="3.5461371"
       y1="32.001415"
       x2="60.480942"
       y2="32.001415"
       gradientUnits="userSpaceOnUse" />
  </defs>
  <g
     inkscape:label="Layer 1"
     inkscape:groupmode="layer"
     id="layer1">
    <path
       id="path10-6"
       style="isolation:isolate;fill:url(#linearGradient8);fill-opacity:1;stroke-width:0.229232"
       d="m 23.224589,10.27913 c -1.024647,-0.0022 -2.047608,0.0098 -3.072265,0.0293 -0.917397,0.01954 -1.836509,0.05136 -2.753906,0.101562 -0.8175,0.0435 -1.634092,0.106653 -2.449219,0.189453 -0.72421,0.07435 -1.448669,0.172539 -2.166016,0.298829 -0.321389,0.0546 -0.641563,0.116724 -0.958984,0.1875 -0.317424,0.07077 -0.632098,0.150208 -0.945313,0.236328 C 10.31069,11.479238 9.752711,11.671443 9.214824,11.898273 8.714104,12.10757 8.23533,12.3548 7.78123,12.64046 7.34561,12.91523 6.939026,13.229317 6.566386,13.576007 6.381242,13.749352 6.204137,13.93105 6.037089,14.120929 v 0.002 c -0.166671,0.189525 -0.324334,0.386396 -0.470703,0.589844 -0.152589,0.212628 -0.294895,0.4306 -0.427734,0.654297 v 0.002 c -0.132502,0.223226 -0.25646,0.451684 -0.369141,0.685547 -0.24219,0.503837 -0.445651,1.02489 -0.613281,1.554687 -0.18395,0.586617 -0.336458,1.181533 -0.455078,1.78125 v 0.002 c -0.132636,0.67101 -0.239134,1.347966 -0.31836,2.025391 -0.088548,0.761077 -0.156427,1.527669 -0.203124,2.292969 -0.05348,0.856957 -0.08828,1.713088 -0.109376,2.572265 -0.015438,0.698943 -0.019997,1.397396 -0.023437,2.095703 v 0.0625 c -0.00125,0.239463 -0.00831,0.479593 -0.00781,0.71875 v 5.679688 c -5.98e-4,0.239714 0.00662,0.479182 0.00781,0.71875 v 0.0625 c 0.0034,0.698307 0.008,1.39676 0.023437,2.095703 0.0211,0.859177 0.0559,1.715308 0.109376,2.572265 0.046698,0.7653 0.114577,1.531892 0.203124,2.292969 0.03965,0.33903 0.085596,0.677502 0.138672,1.015625 0.05327,0.337729 0.113278,0.673951 0.179688,1.009766 v 0.002 c 0.05931,0.299859 0.127177,0.597511 0.203125,0.894531 v 0.002 c 0.075948,0.297022 0.159978,0.591457 0.251953,0.884766 0.16763,0.529798 0.371091,1.05085 0.613281,1.554687 0.112681,0.233863 0.236639,0.462322 0.369141,0.685547 v 0.002 c 0.132839,0.223697 0.275145,0.441668 0.427734,0.654297 0.146665,0.203864 0.303944,0.400379 0.470703,0.589844 v 0.002 c 0.167072,0.189915 0.344122,0.371548 0.529297,0.544922 0.37264,0.34669 0.779224,0.660777 1.214844,0.935547 0.4541,0.28566 0.932874,0.53289 1.433594,0.742187 0.537887,0.22683 1.095866,0.419035 1.664062,0.576172 0.313215,0.08612 0.627889,0.165554 0.945313,0.236328 h 0.002 c 0.316809,0.07061 0.636277,0.133004 0.957031,0.1875 0.717347,0.12629 1.441806,0.224479 2.166016,0.298829 0.815127,0.0828 1.631719,0.145953 2.449219,0.189453 0.917397,0.0502 1.836509,0.08202 2.753906,0.101562 1.024657,0.0195 2.047618,0.0315 3.072265,0.0293 h 12.394532 5.15625 c 1.024647,0.002 2.047618,-0.0099 3.072265,-0.0293 0.917407,-0.0195 1.836509,-0.05142 2.753906,-0.101562 0.8175,-0.0435 1.634092,-0.106663 2.449219,-0.189453 0.72421,-0.0744 1.448669,-0.172539 2.166016,-0.298829 0.642777,-0.109207 1.277857,-0.251588 1.904297,-0.423828 0.284097,-0.07857 0.566339,-0.16578 0.84375,-0.261718 0.277409,-0.09594 0.55137,-0.201039 0.820312,-0.314454 0.50073,-0.209297 0.979514,-0.456527 1.433594,-0.742187 0.43562,-0.27477 0.842204,-0.588857 1.214844,-0.935547 0.185171,-0.173374 0.362509,-0.357096 0.529297,-0.546875 0.166759,-0.189464 0.324038,-0.38598 0.470703,-0.589844 0.152589,-0.212628 0.294895,-0.4306 0.427734,-0.654297 v -0.002 c 0.132502,-0.223226 0.25646,-0.451684 0.369141,-0.685547 0.24219,-0.503837 0.445651,-1.02489 0.613281,-1.554687 0.18395,-0.586617 0.336458,-1.181534 0.455078,-1.78125 v -0.002 c 0.13282,-0.671627 0.23906,-1.347324 0.31836,-2.025391 0.08854,-0.763292 0.156525,-1.527675 0.203124,-2.292969 0.05347,-0.856957 0.08828,-1.715307 0.109376,-2.572265 0.01524,-0.719786 0.01974,-1.439165 0.02344,-2.158203 0.0012,-0.239463 0.0083,-0.479593 0.0078,-0.71875 v -5.679687 c 5.98e-4,-0.239714 -0.0066,-0.479182 -0.0078,-0.71875 -0.0036,-0.719352 -0.0078,-1.438418 -0.02344,-2.158203 -0.0211,-0.859177 -0.0559,-1.715308 -0.109376,-2.572265 -0.0467,-0.7653 -0.114577,-1.531892 -0.203124,-2.292969 -0.03965,-0.33903 -0.0856,-0.677502 -0.138672,-1.015625 -0.05327,-0.337729 -0.113278,-0.673951 -0.179688,-1.009766 v -0.002 c -0.05931,-0.29986 -0.127424,-0.599374 -0.203125,-0.896484 -0.0757,-0.297389 -0.159973,-0.591455 -0.251953,-0.884766 -0.16761,-0.529798 -0.371091,-1.048637 -0.613281,-1.554687 -0.11293,-0.233273 -0.236301,-0.463527 -0.369141,-0.6875 -0.132839,-0.223697 -0.275145,-0.441669 -0.427734,-0.654297 -0.146665,-0.203864 -0.303944,-0.40038 -0.470703,-0.589844 -0.167347,-0.190293 -0.343779,-0.37318 -0.529297,-0.546875 -0.37264,-0.34669 -0.779224,-0.660777 -1.214844,-0.935547 -0.4541,-0.28566 -0.932874,-0.53289 -1.433594,-0.742187 -0.537887,-0.22683 -1.095866,-0.419035 -1.664062,-0.576172 -0.313215,-0.08612 -0.627889,-0.165554 -0.945313,-0.236328 -6.22e-4,-1.39e-4 -0.0013,1.38e-4 -0.002,0 -0.316809,-0.07061 -0.636277,-0.133004 -0.957031,-0.1875 -0.717347,-0.12629 -1.441806,-0.224429 -2.166016,-0.298829 -0.815127,-0.0828 -1.631719,-0.145953 -2.449219,-0.189453 -0.917397,-0.05014 -1.836499,-0.08206 -2.753906,-0.101562 -1.024647,-0.0194 -2.047618,-0.0313 -3.072265,-0.0293 h -5.15625 z" />
    <path
       id="path5"
       style="isolation:isolate;fill:none;fill-opacity:1;stroke:#000000;stroke-width:1;stroke-dasharray:none;stroke-opacity:0.297811"
       d="m 23.224589,10.27913 c -1.024647,-0.0022 -2.047608,0.0098 -3.072265,0.0293 -0.917397,0.01954 -1.836509,0.05136 -2.753906,0.101562 -0.8175,0.0435 -1.634092,0.106653 -2.449219,0.189453 -0.72421,0.07435 -1.448669,0.172539 -2.166016,0.298829 -0.321389,0.0546 -0.641563,0.116724 -0.958984,0.1875 -0.317424,0.07077 -0.632098,0.150208 -0.945313,0.236328 C 10.31069,11.479238 9.752711,11.671443 9.214824,11.898273 8.714104,12.10757 8.23533,12.3548 7.78123,12.64046 7.34561,12.91523 6.939026,13.229317 6.566386,13.576007 6.381242,13.749352 6.204137,13.93105 6.037089,14.120929 v 0.002 c -0.166671,0.189525 -0.324334,0.386396 -0.470703,0.589844 -0.152589,0.212628 -0.294895,0.4306 -0.427734,0.654297 v 0.002 c -0.132502,0.223226 -0.25646,0.451684 -0.369141,0.685547 -0.24219,0.503837 -0.445651,1.02489 -0.613281,1.554687 -0.18395,0.586617 -0.336458,1.181533 -0.455078,1.78125 v 0.002 c -0.132636,0.67101 -0.239134,1.347966 -0.31836,2.025391 -0.088548,0.761077 -0.156427,1.527669 -0.203124,2.292969 -0.05348,0.856957 -0.08828,1.713088 -0.109376,2.572265 -0.015438,0.698943 -0.019997,1.397396 -0.023437,2.095703 v 0.0625 c -0.00125,0.239463 -0.00831,0.479593 -0.00781,0.71875 v 5.679688 c -5.98e-4,0.239714 0.00662,0.479182 0.00781,0.71875 v 0.0625 c 0.0034,0.698307 0.008,1.39676 0.023437,2.095703 0.0211,0.859177 0.0559,1.715308 0.109376,2.572265 0.046698,0.7653 0.114577,1.531892 0.203124,2.292969 0.03965,0.33903 0.085596,0.677502 0.138672,1.015625 0.05327,0.337729 0.113278,0.673951 0.179688,1.009766 v 0.002 c 0.05931,0.299859 0.127177,0.597511 0.203125,0.894531 v 0.002 c 0.075948,0.297022 0.159978,0.591457 0.251953,0.884766 0.16763,0.529798 0.371091,1.05085 0.613281,1.554687 0.112681,0.233863 0.236639,0.462322 0.369141,0.685547 v 0.002 c 0.132839,0.223697 0.275145,0.441668 0.427734,0.654297 0.146665,0.203864 0.303944,0.400379 0.470703,0.589844 v 0.002 c 0.167072,0.189915 0.344122,0.371548 0.529297,0.544922 0.37264,0.34669 0.779224,0.660777 1.214844,0.935547 0.4541,0.28566 0.932874,0.53289 1.433594,0.742187 0.537887,0.22683 1.095866,0.419035 1.664062,0.576172 0.313215,0.08612 0.627889,0.165554 0.945313,0.236328 h 0.002 c 0.316809,0.07061 0.636277,0.133004 0.957031,0.1875 0.717347,0.12629 1.441806,0.224479 2.166016,0.298829 0.815127,0.0828 1.631719,0.145953 2.449219,0.189453 0.917397,0.0502 1.836509,0.08202 2.753906,0.101562 1.024657,0.0195 2.047618,0.0315 3.072265,0.0293 h 12.394532 5.15625 c 1.024647,0.002 2.047618,-0.0099 3.072265,-0.0293 0.917407,-0.0195 1.836509,-0.05142 2.753906,-0.101562 0.8175,-0.0435 1.634092,-0.106663 2.449219,-0.189453 0.72421,-0.0744 1.448669,-0.172539 2.166016,-0.298829 0.642777,-0.109207 1.277857,-0.251588 1.904297,-0.423828 0.284097,-0.07857 0.566339,-0.16578 0.84375,-0.261718 0.277409,-0.09594 0.55137,-0.201039 0.820312,-0.314454 0.50073,-0.209297 0.979514,-0.456527 1.433594,-0.742187 0.43562,-0.27477 0.842204,-0.588857 1.214844,-0.935547 0.185171,-0.173374 0.362509,-0.357096 0.529297,-0.546875 0.166759,-0.189464 0.324038,-0.38598 0.470703,-0.589844 0.152589,-0.212628 0.294895,-0.4306 0.427734,-0.654297 v -0.002 c 0.132502,-0.223226 0.25646,-0.451684 0.369141,-0.685547 0.24219,-0.503837 0.445651,-1.02489 0.613281,-1.554687 0.18395,-0.586617 0.336458,-1.181534 0.455078,-1.78125 v -0.002 c 0.13282,-0.671627 0.23906,-1.347324 0.31836,-2.025391 0.08854,-0.763292 0.156525,-1.527675 0.203124,-2.292969 0.05347,-0.856957 0.08828,-1.715307 0.109376,-2.572265 0.01524,-0.719786 0.01974,-1.439165 0.02344,-2.158203 0.0012,-0.239463 0.0083,-0.479593 0.0078,-0.71875 v -5.679687 c 5.98e-4,-0.239714 -0.0066,-0.479182 -0.0078,-0.71875 -0.0036,-0.719352 -0.0078,-1.438418 -0.02344,-2.158203 -0.0211,-0.859177 -0.0559,-1.715308 -0.109376,-2.572265 -0.0467,-0.7653 -0.114577,-1.531892 -0.203124,-2.292969 -0.03965,-0.33903 -0.0856,-0.677502 -0.138672,-1.015625 -0.05327,-0.337729 -0.113278,-0.673951 -0.179688,-1.009766 v -0.002 c -0.05931,-0.29986 -0.127424,-0.599374 -0.203125,-0.896484 -0.0757,-0.297389 -0.159973,-0.591455 -0.251953,-0.884766 -0.16761,-0.529798 -0.371091,-1.048637 -0.613281,-1.554687 -0.11293,-0.233273 -0.236301,-0.463527 -0.369141,-0.6875 -0.132839,-0.223697 -0.275145,-0.441669 -0.427734,-0.654297 -0.146665,-0.203864 -0.303944,-0.40038 -0.470703,-0.589844 -0.167347,-0.190293 -0.343779,-0.37318 -0.529297,-0.546875 -0.37264,-0.34669 -0.779224,-0.660777 -1.214844,-0.935547 -0.4541,-0.28566 -0.932874,-0.53289 -1.433594,-0.742187 -0.537887,-0.22683 -1.095866,-0.419035 -1.664062,-0.576172 -0.313215,-0.08612 -0.627889,-0.165554 -0.945313,-0.236328 -6.22e-4,-1.39e-4 -0.0013,1.38e-4 -0.002,0 -0.316809,-0.07061 -0.636277,-0.133004 -0.957031,-0.1875 -0.717347,-0.12629 -1.441806,-0.224429 -2.166016,-0.298829 -0.815127,-0.0828 -1.631719,-0.145953 -2.449219,-0.189453 -0.917397,-0.05014 -1.836499,-0.08206 -2.753906,-0.101562 -1.024647,-0.0194 -2.047618,-0.0313 -3.072265,-0.0293 h -5.15625 z" />
    <rect
       x="9.0832834"
       y="39.936348"
       width="44.546532"
       height="10.583983"
       ry="3.0994668"
       fill="#ffffff"
       opacity="0.35"
       style="opacity:0.35;fill:#6b4ba0;fill-opacity:1;stroke-width:4.24248;paint-order:stroke fill markers"
       id="rect2-3" />
    <rect
       x="10.370147"
       y="38.520332"
       width="44.546532"
       height="10.583983"
       ry="3.0994668"
       fill="#ffffff"
       opacity="0.35"
       style="stroke-width:4.24248;paint-order:stroke fill markers;fill:#bfafda;fill-opacity:1;opacity:1"
       id="rect4-5" />
    <rect
       x="33.862007"
       y="42.287151"
       width="5.6249847"
       height="5.6249847"
       rx="1.1249598"
       ry="1.1249598"
       id="rect12-6"
       style="opacity:0.35;fill:#6b4ba0;fill-opacity:1;stroke-width:2.12593" />
    <rect
       x="44.498722"
       y="42.287151"
       width="5.6249847"
       height="5.6249847"
       rx="1.1249598"
       ry="1.1249598"
       id="rect11-2"
       style="opacity:0.35;fill:#6b4ba0;fill-opacity:1;stroke-width:2.12593" />
    <rect
       x="12.589585"
       y="42.287151"
       width="5.6249847"
       height="5.6249847"
       rx="1.1249598"
       ry="1.1249598"
       id="rect10-9"
       style="opacity:0.35;fill:#6b4ba0;fill-opacity:1;stroke-width:2.12593" />
    <rect
       x="23.226286"
       y="42.287151"
       width="5.6249847"
       height="5.6249847"
       rx="1.1249598"
       ry="1.1249598"
       id="rect3-1"
       style="opacity:0.35;fill:#6b4ba0;fill-opacity:1;stroke-width:2.12593" />
    <rect
       x="24.512716"
       y="40.999832"
       width="5.6249847"
       height="5.6249847"
       rx="1.1249598"
       ry="1.1249598"
       id="rect5-2"
       style="fill:#6b4ba0;fill-opacity:1;stroke-width:2.12593" />
    <rect
       x="13.876328"
       y="40.999832"
       width="5.6249847"
       height="5.6249847"
       rx="1.1249598"
       ry="1.1249598"
       id="rect6-6-7"
       style="fill:#6b4ba0;fill-opacity:1;stroke-width:2.12593" />
    <rect
       x="45.785526"
       y="40.999832"
       width="5.6249847"
       height="5.6249847"
       rx="1.1249598"
       ry="1.1249598"
       id="rect7-7-0"
       style="fill:#6b4ba0;fill-opacity:1;stroke-width:2.12593" />
    <rect
       x="35.149128"
       y="40.999832"
       width="5.6249847"
       height="5.6249847"
       rx="1.1249598"
       ry="1.1249598"
       id="rect8-9"
       style="fill:#6b4ba0;fill-opacity:1;stroke-width:2.12593" />
    <path
       id="path6"
       style="isolation:isolate;fill:none;fill-opacity:1;stroke:url(#linearGradient13);stroke-width:0.960709;stroke-dasharray:none;stroke-opacity:0.297811;opacity:0.5"
       d="m 23.529483,11.258064 c -0.990273,-0.0021 -1.978921,0.0093 -2.969205,0.02799 -0.886622,0.01866 -1.774904,0.04905 -2.661526,0.09699 -0.790077,0.04154 -1.630338,0.06832 -2.418122,0.147393 -0.699916,0.071 -1.382554,0.15482 -2.075839,0.275427 -0.310607,0.05213 -0.579154,0.0737 -0.885926,0.141295 -0.306777,0.06758 -0.716874,0.152889 -1.019581,0.235133 -0.549137,0.150064 -1.048926,0.275258 -1.568769,0.49188 C 9.4465915,12.87405 8.9365223,13.09213 8.4976552,13.364934 8.0766483,13.627338 7.6493871,13.930966 7.2892475,14.262055 7.1103141,14.427599 6.9089416,14.617168 6.5270276,15.091963 6.1451136,15.566757 6.0330473,15.769593 5.6734439,16.445297 5.3138405,17.121002 5.1620068,17.733611 5,18.239567 4.8222206,18.799783 4.712135,19.39323 4.5907212,20 4.4693074,20.60677 4.3954233,21.243066 4.318855,21.890004 4.233278,22.61683 4.180689,23.35452 4.1355586,24.085381 c -0.051686,0.818392 -0.063903,1.635994 -0.084292,2.456506 -0.014919,0.667489 -0.019326,1.334509 -0.024758,2.040994 l -1.7e-5,6.837053 c 0.00541,0.706484 0.00985,1.373505 0.024775,2.040994 0.020393,0.820511 0.036418,1.641836 0.0881,2.460229 0.045131,0.730859 0.106645,1.481706 0.1922218,2.208533 0.03832,0.323772 0.065711,0.634075 0.1170057,0.956981 0.051483,0.322532 0.052034,0.635962 0.218981,1.36718 0.1669467,0.731217 0.1938502,0.868646 0.2827399,1.148756 0.1620068,0.505955 0.3320666,1.105611 0.5661325,1.586774 0.108901,0.223339 0.206814,0.537711 0.5484079,1.055022 0.3415939,0.51731 0.5145195,0.768986 0.6756847,0.949924 v 0.0019 c 0.1614675,0.181368 0.3325783,0.354828 0.5115417,0.520399 0.3601396,0.331089 0.7994409,0.665715 1.2204478,0.92812 0.4388671,0.272804 0.9585159,0.471988 1.4424394,0.671867 0.519843,0.216621 1.105219,0.378789 1.654356,0.528854 0.302707,0.08225 0.663588,0.143149 0.970365,0.210741 0,0 0.58161,0.102284 0.891603,0.154327 0.693285,0.120607 1.396643,0.187365 2.096558,0.258368 0.787783,0.07907 1.580836,0.109344 2.370913,0.150887 0.886622,0.04795 1.774905,0.07832 2.661525,0.09699 0.990287,0.01863 1.978933,0.03008 2.969206,0.02799 h 11.978756 4.983282 c 0.990274,0.0019 1.978931,-0.0094 2.969206,-0.02799 0.886631,-0.01862 1.774902,-0.0491 2.661526,-0.09699 0.790076,-0.04154 1.590281,-0.07423 2.378064,-0.153291 0.699916,-0.07105 1.398149,-0.146283 2.091431,-0.26689 0.621217,-0.104292 1.279741,-0.213073 1.885167,-0.377561 0.274566,-0.07503 0.599292,-0.159194 0.867397,-0.250815 0.268105,-0.09162 0.515181,-0.152098 0.775099,-0.260409 0.483933,-0.199879 1.05874,-0.449665 1.497588,-0.722469 0.421008,-0.262405 0.740357,-0.535666 1.100496,-0.866755 0.17896,-0.165571 0.379847,-0.356032 0.54104,-0.537272 0.161166,-0.180937 0.356103,-0.448794 0.497848,-0.643483 0.147471,-0.203059 0.248571,-0.393564 0.608174,-1.06926 C 58.724171,46.79589 58.837992,46.250473 59,45.744519 59.177779,45.184301 59.291712,44.607065 59.413215,44 c 0.121503,-0.607065 0.180231,-1.267607 0.25687,-1.915158 0.08558,-0.728942 0.148923,-1.436484 0.193958,-2.167338 0.05168,-0.818393 0.05954,-1.842119 0.07993,-2.660511 0.01473,-0.687395 0.05044,-1.202849 0.05603,-1.889391 0.0011,-0.228687 0,-6.762742 0,-6.762742 -0.0055,-0.686693 -0.0152,-1.375522 -0.03025,-2.062916 -0.02039,-0.820511 -0.05403,-1.638114 -0.105707,-2.456505 -0.04514,-0.73086 -0.08896,-1.465087 -0.17454,-2.191914 -0.03832,-0.323771 -0.06989,-0.680548 -0.121169,-1.003456 -0.05149,-0.32253 -0.119716,-0.639128 -0.180472,-0.942663 C 59.327108,19.643871 59.273476,19.283738 59.200315,19 59.127155,18.715993 59.023439,18.337011 58.934546,18.056901 58.79082,17.460168 58.674871,17.207549 58.439476,16.73088 58.330336,16.508103 58.24616,16.283092 58.117776,16.069199 57.989393,15.855568 57.812716,15.55941 57.665245,15.356352 57.5235,15.161664 57.379667,14.96442 57.218501,14.783484 57.056767,14.601754 56.85555,14.384893 56.676254,14.219013 56.316115,13.887926 55.87961,13.600136 55.458602,13.337731 55.019735,13.064926 54.55152,12.876441 54.067596,12.676564 53.547754,12.459941 52.997267,12.30509 52.448131,12.155024 52.145422,12.072774 51.764234,12.000809 50.797043,11.802844 50,11.683138 49.193927,11.603005 48.494012,11.531953 c -0.787784,-0.07907 -1.58168,-0.107224 -2.371757,-0.148767 -0.886623,-0.04789 -1.774895,-0.07837 -2.661525,-0.09698 -0.990277,-0.01853 -1.978932,-0.02989 -2.969207,-0.02799 h -4.983282 z"
       sodipodi:nodetypes="ccccccccccccccccccccccccccccccccccccccccccccccsccccccccccccccccccccccccccccccccccc" />
  </g>
</svg>
