<?xml version="1.0" encoding="UTF-8" standalone="no"?>
<svg
   version="1.1"
   width="16"
   height="16"
   x="0"
   y="0"
   viewBox="0 0 16 16"
   xml:space="preserve"
   class=""
   id="svg4833"
   sodipodi:docname="folderdauh.svg"
   inkscape:version="1.2.2 (b0a8486541, 2022-12-01)"
   xmlns:inkscape="http://www.inkscape.org/namespaces/inkscape"
   xmlns:sodipodi="http://sodipodi.sourceforge.net/DTD/sodipodi-0.dtd"
   xmlns="http://www.w3.org/2000/svg"
   xmlns:svg="http://www.w3.org/2000/svg"><defs
     id="defs4837" /><sodipodi:namedview
     id="namedview4835"
     pagecolor="#ffffff"
     bordercolor="#000000"
     borderopacity="0.25"
     inkscape:showpageshadow="2"
     inkscape:pageopacity="0.0"
     inkscape:pagecheckerboard="0"
     inkscape:deskcolor="#d1d1d1"
     showgrid="true"
     inkscape:zoom="43.43951"
     inkscape:cx="8.540612"
     inkscape:cy="6.8140732"
     inkscape:window-width="1920"
     inkscape:window-height="1025"
     inkscape:window-x="0"
     inkscape:window-y="26"
     inkscape:window-maximized="1"
     inkscape:current-layer="svg4833"><inkscape:grid
       type="xygrid"
       id="grid7756"
       originx="0"
       originy="0" /></sodipodi:namedview><g
     id="g4831"
     transform="matrix(0.03124999,0,0,0.03124949,-1.2435996e-4,1.0127393e-5)"
     style="fill:#dddddd;fill-opacity:1"><path
       d="m 446.102,408.415 c -6.521,-31.26 -30.876,-56.531 -62.065,-64.385 -21.334,-5.354 -42.773,-2.656 -61.565,7.604 L 288.00407,288.00438 396.9241,82.531985 c 2.75756,-6.602905 4.17405,-13.68841 4.167,-20.844 0.0181,-18.120395 -12.26034,-37.18871 -24.126,-45.083 C 366.5506,11.698822 357.3341,3.2845836 347.98941,-3.2408187e-4 L 256.00406,224.00333 155.93176,-3.2408187e-4 C 149.55818,3.6896346 141.1435,11.972956 135.07502,16.605485 c -10.91838,8.0796 -24.14452,26.96178 -24.126,45.082 -0.007,7.155582 1.40951,14.241072 4.167,20.844 L 224.00405,288.00438 189.53,351.644 c -12.396,-6.771 -26.084,-10.302 -40.189,-10.302 -47.064,0 -85.337,38.281 -85.337,85.333 0,47.052 38.272,85.333 85.337,85.333 47.064,0 85.337,-38.281 85.337,-85.333 0,-31.553 10.33206,-58.89958 21.32606,-74.66958 10.688,15.298 20.66494,44.67022 21.30094,74.81722 1,47.188 36.522,82.75836 80.836,85.07036 1.542,0.073 3.063,0.115 4.563,0.115 25.022,0 48.439,-10.729 64.815,-29.844 17.375,-20.28 24.146,-47.166 18.583,-73.749 z m -296.764,60.927 c -23.521,0 -42.667,-19.135 -42.667,-42.667 0,-23.532 19.146,-42.667 42.667,-42.667 23.521,0 42.667,19.135 42.667,42.667 0,23.532 -19.146,42.667 -42.667,42.667 z m 213.333,0 c -23.521,0 -42.667,-19.135 -42.667,-42.667 0,-23.532 19.146,-42.667 42.667,-42.667 23.521,0 42.667,19.135 42.667,42.667 0,23.532 -19.146,42.667 -42.667,42.667 z"
       fill="#000000"
       data-original="#000000"
       class=""
       id="path4829"
       style="fill:#dddddd;fill-opacity:1"
       sodipodi:nodetypes="cccccccccccccccsssscccsccssssssssss" /></g></svg>
