<?xml version="1.0" encoding="UTF-8" standalone="no"?>
<svg
   width="16"
   height="16"
   version="1.1"
   id="svg576"
   sodipodi:docname="document-save-as-symbolic.svg"
   inkscape:version="1.2.2 (b0a8486541, 2022-12-01)"
   xmlns:inkscape="http://www.inkscape.org/namespaces/inkscape"
   xmlns:sodipodi="http://sodipodi.sourceforge.net/DTD/sodipodi-0.dtd"
   xmlns="http://www.w3.org/2000/svg"
   xmlns:svg="http://www.w3.org/2000/svg">
  <defs
     id="defs580" />
  <sodipodi:namedview
     id="namedview578"
     pagecolor="#ffffff"
     bordercolor="#666666"
     borderopacity="1.0"
     inkscape:showpageshadow="2"
     inkscape:pageopacity="0.0"
     inkscape:pagecheckerboard="0"
     inkscape:deskcolor="#d1d1d1"
     showgrid="false"
     inkscape:zoom="48.375"
     inkscape:cx="6.1602067"
     inkscape:cy="10.521964"
     inkscape:window-width="1920"
     inkscape:window-height="1024"
     inkscape:window-x="1920"
     inkscape:window-y="26"
     inkscape:window-maximized="1"
     inkscape:current-layer="svg576" />
  <path
     style="fill:#dfdfdf;fill-opacity:1"
     d="M 6 1 L 6 7 L 3.5 7 L 8 13 L 8 9.1426 C 8 8.5094 8.5094 8 9.1426 8 L 11.75 8 L 12.5 7 L 10 7 L 10 1 L 6 1 z M 1 14 L 1 16 L 9.1426 16 C 8.5094 16 8 15.491 8 14.857 L 8 14 L 1 14 z"
     id="path572" />
  <path
     style="fill:#dfdfdf;fill-opacity:1"
     d="M 10,9 C 9.446,9 9,9.446 9,10 V 15 C 9,15.554 9.446,16 10,16 H 15 C 15.554,16 16,15.554 16,15 V 10 C 16,9.446 15.554,9 15,9 Z M 11,10 H 14 V 11 H 13 V 14 H 14 V 15 H 11 V 14 H 12 V 11 H 11 Z"
     id="path574" />
</svg>
