<?xml version="1.0" encoding="UTF-8" standalone="no"?>
<svg
   version="1.1"
   viewBox="0 0 16 16"
   id="svg698"
   sodipodi:docname="drive-multidisk.svg"
   inkscape:version="1.2.2 (b0a8486541, 2022-12-01)"
   xmlns:inkscape="http://www.inkscape.org/namespaces/inkscape"
   xmlns:sodipodi="http://sodipodi.sourceforge.net/DTD/sodipodi-0.dtd"
   xmlns="http://www.w3.org/2000/svg"
   xmlns:svg="http://www.w3.org/2000/svg">
  <defs
     id="defs702" />
  <sodipodi:namedview
     id="namedview700"
     pagecolor="#ffffff"
     bordercolor="#000000"
     borderopacity="0.25"
     inkscape:showpageshadow="2"
     inkscape:pageopacity="0.0"
     inkscape:pagecheckerboard="0"
     inkscape:deskcolor="#d1d1d1"
     showgrid="true"
     inkscape:zoom="33.956549"
     inkscape:cx="16.079372"
     inkscape:cy="7.5390464"
     inkscape:window-width="1920"
     inkscape:window-height="1025"
     inkscape:window-x="1920"
     inkscape:window-y="26"
     inkscape:window-maximized="1"
     inkscape:current-layer="svg698">
    <inkscape:grid
       type="xygrid"
       id="grid2008" />
  </sodipodi:namedview>
  <style
     id="current-color-scheme"
     type="text/css">.ColorScheme-Text {
            color:#ffffff;
        }</style>
  <path
     id="path696"
     style="fill:#dddddd;fill-opacity:1"
     d="M 4 0 L 0 7 L 0 16 L 16 16 L 16 7 L 13 0 L 4 0 z M 4.8007812 1 L 12.199219 1 L 14.400391 7 L 1.5996094 7 L 4.8007812 1 z M 1 8 L 15 8 L 15 9.5 L 15 11 L 1 11 L 1 9.5 L 1 8 z M 1 12 L 15 12 L 15 13.5 L 15 15 L 1 15 L 1 13.5 L 1 12 z " />
  <path
     style="fill:#dddddd;fill-opacity:1"
     d="m 2,13 v 1 h 1 v -1 z"
     id="path3915" />
  <path
     style="fill:#dddddd;fill-opacity:1"
     d="m 2,9 v 1 H 3 V 9 Z"
     id="path3911" />
  <path
     style="fill:#dddddd;fill-opacity:1"
     d="m 4,13 v 1 h 1 v -1 z"
     id="path3920" />
  <path
     style="fill:#dddddd;fill-opacity:1"
     d="m 4,9 v 1 H 5 V 9 Z"
     id="path3922" />
</svg>
