<?xml version="1.0" encoding="UTF-8" standalone="no"?>
<svg
   width="16"
   height="16"
   version="1.1"
   id="svg25"
   sodipodi:docname="drive-harddisk-usb.svg"
   inkscape:version="1.3.2 (091e20ef0f, 2023-11-25, custom)"
   xmlns:inkscape="http://www.inkscape.org/namespaces/inkscape"
   xmlns:sodipodi="http://sodipodi.sourceforge.net/DTD/sodipodi-0.dtd"
   xmlns="http://www.w3.org/2000/svg"
   xmlns:svg="http://www.w3.org/2000/svg">
  <sodipodi:namedview
     id="namedview25"
     pagecolor="#ffffff"
     bordercolor="#000000"
     borderopacity="0.25"
     inkscape:showpageshadow="2"
     inkscape:pageopacity="0.0"
     inkscape:pagecheckerboard="0"
     inkscape:deskcolor="#d1d1d1"
     inkscape:zoom="22.354021"
     inkscape:cx="7.9627732"
     inkscape:cy="11.362609"
     inkscape:window-width="1920"
     inkscape:window-height="1013"
     inkscape:window-x="1920"
     inkscape:window-y="36"
     inkscape:window-maximized="1"
     inkscape:current-layer="svg25" />
  <defs
     id="defs24">
    <style
       id="current-color-scheme"
       type="text/css">
   .ColorScheme-Text { color:#5c616c; } .ColorScheme-Highlight { color:#5294e2; }
  </style>
    <linearGradient
       id="arrongin"
       x1="0%"
       x2="0%"
       y1="0%"
       y2="100%">
      <stop
         offset="0%"
         style="stop-color:#dd9b44; stop-opacity:1"
         id="stop1" />
      <stop
         offset="100%"
         style="stop-color:#ad6c16; stop-opacity:1"
         id="stop2" />
    </linearGradient>
    <linearGradient
       id="aurora"
       x1="0%"
       x2="0%"
       y1="0%"
       y2="100%">
      <stop
         offset="0%"
         style="stop-color:#09D4DF; stop-opacity:1"
         id="stop3" />
      <stop
         offset="100%"
         style="stop-color:#9269F4; stop-opacity:1"
         id="stop4" />
    </linearGradient>
    <linearGradient
       id="fitdance"
       x1="0%"
       x2="0%"
       y1="0%"
       y2="100%">
      <stop
         offset="0%"
         style="stop-color:#1AD6AB; stop-opacity:1"
         id="stop5" />
      <stop
         offset="100%"
         style="stop-color:#329DB6; stop-opacity:1"
         id="stop6" />
    </linearGradient>
    <linearGradient
       id="oomox"
       x1="0%"
       x2="0%"
       y1="0%"
       y2="100%">
      <stop
         offset="0%"
         style="stop-color:#efefe7; stop-opacity:1"
         id="stop7" />
      <stop
         offset="100%"
         style="stop-color:#8f8f8b; stop-opacity:1"
         id="stop8" />
    </linearGradient>
    <linearGradient
       id="rainblue"
       x1="0%"
       x2="0%"
       y1="0%"
       y2="100%">
      <stop
         offset="0%"
         style="stop-color:#00F260; stop-opacity:1"
         id="stop9" />
      <stop
         offset="100%"
         style="stop-color:#0575E6; stop-opacity:1"
         id="stop10" />
    </linearGradient>
    <linearGradient
       id="sunrise"
       x1="0%"
       x2="0%"
       y1="0%"
       y2="100%">
      <stop
         offset="0%"
         style="stop-color: #FF8501; stop-opacity:1"
         id="stop11" />
      <stop
         offset="100%"
         style="stop-color: #FFCB01; stop-opacity:1"
         id="stop12" />
    </linearGradient>
    <linearGradient
       id="telinkrin"
       x1="0%"
       x2="0%"
       y1="0%"
       y2="100%">
      <stop
         offset="0%"
         style="stop-color: #b2ced6; stop-opacity:1"
         id="stop13" />
      <stop
         offset="100%"
         style="stop-color: #6da5b7; stop-opacity:1"
         id="stop14" />
    </linearGradient>
    <linearGradient
       id="60spsycho"
       x1="0%"
       x2="0%"
       y1="0%"
       y2="100%">
      <stop
         offset="0%"
         style="stop-color: #df5940; stop-opacity:1"
         id="stop15" />
      <stop
         offset="25%"
         style="stop-color: #d8d15f; stop-opacity:1"
         id="stop16" />
      <stop
         offset="50%"
         style="stop-color: #e9882a; stop-opacity:1"
         id="stop17" />
      <stop
         offset="100%"
         style="stop-color: #279362; stop-opacity:1"
         id="stop18" />
    </linearGradient>
    <linearGradient
       id="90ssummer"
       x1="0%"
       x2="0%"
       y1="0%"
       y2="100%">
      <stop
         offset="0%"
         style="stop-color: #f618c7; stop-opacity:1"
         id="stop19" />
      <stop
         offset="20%"
         style="stop-color: #94ffab; stop-opacity:1"
         id="stop20" />
      <stop
         offset="50%"
         style="stop-color: #fbfd54; stop-opacity:1"
         id="stop21" />
      <stop
         offset="100%"
         style="stop-color: #0f83ae; stop-opacity:1"
         id="stop22" />
    </linearGradient>
    <linearGradient
       id="cyberneon"
       x1="0%"
       x2="0%"
       y1="0%"
       y2="100%">
      <stop
         offset="0"
         style="stop-color:#0abdc6; stop-opacity:1"
         id="stop23" />
      <stop
         offset="1"
         style="stop-color:#ea00d9; stop-opacity:1"
         id="stop24" />
    </linearGradient>
    <clipPath
       id="_clipPath_Pq8gi0UFH0yVcqOiKSjNhmu1ToEQ47bH">
      <rect
         width="16"
         height="16"
         id="rect24" />
    </clipPath>
  </defs>
  <path
     id="path24"
     style="fill:#dfdfdf;fill-opacity:1"
     class="ColorScheme-Text"
     d="M 4.9941406 0 C 3.7359419 0.014499986 2.8152492 -0.03060396 2.0625 0.38476562 C 1.6861304 0.59242542 1.3892692 0.94415294 1.2246094 1.3828125 C 1.0599395 1.8214821 1 2.3423907 1 3 L 1 13 C 1 13.657609 1.0598995 14.178528 1.2246094 14.617188 C 1.3892792 15.055847 1.6861304 15.407585 2.0625 15.615234 C 2.8152492 16.030554 3.7359519 15.98543 4.9941406 16 L 4.9980469 16 L 10.001953 16 L 10.005859 16 C 11.264048 15.9855 12.184751 16.030604 12.9375 15.615234 C 13.31387 15.407575 13.610721 15.055847 13.775391 14.617188 C 13.93988 14.178518 14 13.657609 14 13 L 14 3 C 14 2.3423907 13.9401 1.8214821 13.775391 1.3828125 C 13.610731 0.94415294 13.31387 0.59242542 12.9375 0.38476562 C 12.184751 -0.03057396 11.264058 0.014519985 10.005859 0 L 10.001953 0 L 4.9980469 0 L 4.9941406 0 z M 7 3 L 8 3 L 9 5 L 8 5 L 8 8.4863281 C 8.2566197 8.3236183 8.521284 8.1807742 8.7773438 8.0527344 C 9.1523434 7.8652346 9.4968477 7.6842592 9.7109375 7.5058594 C 9.9249973 7.3274596 10 7.2083298 10 7 L 9.5 7 C 9.2230003 7 9 6.7769997 9 6.5 L 9 5.5 C 9 5.2230003 9.2230003 5 9.5 5 L 10.5 5 C 10.777 5 11 5.2230003 11 5.5 L 11 6.5 L 11 7 C 11 7.5416695 10.699982 7.9850409 10.351562 8.2753906 C 10.003153 8.5657403 9.599609 8.7597658 9.2246094 8.9472656 C 8.8496098 9.1347654 8.5031523 9.3157408 8.2890625 9.4941406 C 8.0750027 9.6725404 8 9.7916702 8 10 L 8 11 C 8.2769997 11 8.5 11.223 8.5 11.5 L 8.5 12.5 C 8.5 12.777 8.2769997 13 8 13 L 7 13 C 6.7230003 13 6.5 12.777 6.5 12.5 L 6.5 11.5 C 6.5 11.223 6.7230003 11 7 11 C 7 10.79167 6.9250173 10.67254 6.7109375 10.494141 C 6.4968477 10.315741 6.1523434 10.134765 5.7773438 9.9472656 C 5.4023441 9.7597658 4.9968472 9.5657403 4.6484375 9.2753906 C 4.3000178 8.9850409 4 8.5416695 4 8 L 4 7 A 1 1 0 0 1 5 6 A 1 1 0 0 1 6 7 A 1 1 0 0 1 5 8 C 5 8.2083298 5.0749827 8.3274596 5.2890625 8.5058594 C 5.5031523 8.6842592 5.8496097 8.8652346 6.2246094 9.0527344 C 6.4803891 9.1806242 6.7442203 9.3238683 7 9.4863281 L 7 5 L 6 5 L 7 3 z " />
</svg>
