<?xml version="1.0" encoding="UTF-8" standalone="no"?>
<svg
   width="16"
   height="16"
   viewBox="0 0 16 16"
   version="1.1"
   id="svg1"
   sodipodi:docname="drive-removable-media-usb-pendrive.svg"
   inkscape:version="1.3.2 (091e20ef0f, 2023-11-25, custom)"
   xmlns:inkscape="http://www.inkscape.org/namespaces/inkscape"
   xmlns:sodipodi="http://sodipodi.sourceforge.net/DTD/sodipodi-0.dtd"
   xmlns="http://www.w3.org/2000/svg"
   xmlns:svg="http://www.w3.org/2000/svg">
  <sodipodi:namedview
     id="namedview1"
     pagecolor="#ffffff"
     bordercolor="#000000"
     borderopacity="0.25"
     inkscape:showpageshadow="2"
     inkscape:pageopacity="0.0"
     inkscape:pagecheckerboard="0"
     inkscape:deskcolor="#d1d1d1"
     showgrid="true"
     inkscape:zoom="27.871944"
     inkscape:cx="5.6508437"
     inkscape:cy="4.520675"
     inkscape:window-width="1920"
     inkscape:window-height="1013"
     inkscape:window-x="1920"
     inkscape:window-y="36"
     inkscape:window-maximized="1"
     inkscape:current-layer="svg1">
    <inkscape:grid
       id="grid1"
       units="px"
       originx="0"
       originy="0"
       spacingx="1"
       spacingy="1"
       empcolor="#0099e5"
       empopacity="0.30196078"
       color="#0099e5"
       opacity="0.14901961"
       empspacing="5"
       dotted="false"
       gridanglex="30"
       gridanglez="30"
       visible="true" />
  </sodipodi:namedview>
  <defs
     id="defs1">
    <style
       id="current-color-scheme"
       type="text/css">
   .ColorScheme-Text { color:#dfdfdf; } .ColorScheme-Highlight { color:#4285f4; } .ColorScheme-NeutralText { color:#ff9800; } .ColorScheme-PositiveText { color:#4caf50; } .ColorScheme-NegativeText { color:#f44336; }
  </style>
  </defs>
  <path
     id="path1"
     style="fill:currentColor"
     class="ColorScheme-Text"
     d="M 4.953125 0.99414062 C 4.9257813 0.99219064 4.8867186 0.99220002 4.8398438 1 C 4.5585942 1.0469 3.9960937 1.2500014 3.9960938 2 L 3.9960938 11 C 3.9960938 11 3.9960957 12 4.9960938 12 L 10.996094 12 C 11.996092 12 11.996094 11 11.996094 11 L 11.996094 2 C 11.996094 1.000002 10.996094 1 10.996094 1 L 4.9960938 1 C 4.9960938 1 4.9804687 0.99609062 4.953125 0.99414062 z M 4.9960938 13 L 5 16 L 11 16 L 10.996094 13 L 4.9960938 13 z M 6 14 L 7 14 L 7 15 L 6 15 L 6 14 z M 9 14 L 10 14 L 10 15 L 9 15 L 9 14 z " />
</svg>
