<?xml version="1.0" encoding="UTF-8" standalone="no"?>
<svg
   width="16"
   height="16"
   version="1.1"
   id="svg354"
   sodipodi:docname="computer.svg"
   inkscape:version="1.2.1 (9c6d41e410, 2022-07-14)"
   xmlns:inkscape="http://www.inkscape.org/namespaces/inkscape"
   xmlns:sodipodi="http://sodipodi.sourceforge.net/DTD/sodipodi-0.dtd"
   xmlns="http://www.w3.org/2000/svg"
   xmlns:svg="http://www.w3.org/2000/svg">
  <defs
     id="defs358" />
  <sodipodi:namedview
     id="namedview356"
     pagecolor="#ffffff"
     bordercolor="#666666"
     borderopacity="1.0"
     inkscape:showpageshadow="2"
     inkscape:pageopacity="0.0"
     inkscape:pagecheckerboard="0"
     inkscape:deskcolor="#d1d1d1"
     showgrid="false"
     inkscape:zoom="42.127803"
     inkscape:cx="7.6315397"
     inkscape:cy="8.0469423"
     inkscape:window-width="1920"
     inkscape:window-height="1018"
     inkscape:window-x="3280"
     inkscape:window-y="34"
     inkscape:window-maximized="1"
     inkscape:current-layer="svg354" />
  <g
     transform="translate(-1053 -61)"
     id="g352"
     style="fill:#dedede;fill-opacity:1">
    <path
       d="M1054 62.004c-.554 0-1 .446-1 1v10c0 .554.446 1 1 1h14c.554 0 1-.446 1-1v-10c0-.554-.446-1-1-1zm.5.996h13s.5 0 .5.5v9c0 .5-.5.5-.5.5h-13c-.5 0-.5-.5-.5-.5v-9s0-.5.5-.5zm6.5 12c-1.5 0-3 .372-4 .874v1.13h8v-1.13c-1-.502-2.5-.874-4-.874z"
       fill="#ffffff"
       id="path350"
       style="fill:#dedede;fill-opacity:1" />
  </g>
</svg>
