<?xml version="1.0" encoding="UTF-8" standalone="no"?>
<svg
   width="16"
   height="16"
   version="1.1"
   viewBox="0 0 16 16"
   id="svg9"
   sodipodi:docname="folder-desktop.svg"
   inkscape:version="1.2.2 (b0a8486541, 2022-12-01)"
   xmlns:inkscape="http://www.inkscape.org/namespaces/inkscape"
   xmlns:sodipodi="http://sodipodi.sourceforge.net/DTD/sodipodi-0.dtd"
   xmlns="http://www.w3.org/2000/svg"
   xmlns:svg="http://www.w3.org/2000/svg">
  <sodipodi:namedview
     id="namedview11"
     pagecolor="#ffffff"
     bordercolor="#000000"
     borderopacity="0.25"
     inkscape:showpageshadow="2"
     inkscape:pageopacity="0.0"
     inkscape:pagecheckerboard="0"
     inkscape:deskcolor="#d1d1d1"
     showgrid="true"
     inkscape:zoom="45.254834"
     inkscape:cx="7.9991455"
     inkscape:cy="7.8665629"
     inkscape:window-width="1920"
     inkscape:window-height="1002"
     inkscape:window-x="1920"
     inkscape:window-y="28"
     inkscape:window-maximized="1"
     inkscape:current-layer="svg9">
    <inkscape:grid
       type="xygrid"
       id="grid240" />
  </sodipodi:namedview>
  <defs
     id="defs3">
    <inkscape:path-effect
       effect="fillet_chamfer"
       id="path-effect2470"
       is_visible="true"
       lpeversion="1"
       nodesatellites_param="F,0,0,1,0,0.5,0,1 @ F,0,0,1,0,0.5,0,1 @ F,0,0,1,0,0.5,0,1 @ F,0,0,1,0,0.5,0,1"
       unit="px"
       method="auto"
       mode="F"
       radius="0.5"
       chamfer_steps="1"
       flexible="false"
       use_knot_distance="true"
       apply_no_radius="true"
       apply_with_radius="true"
       only_selected="false"
       hide_knots="false" />
    <style
       id="current-color-scheme"
       type="text/css">.ColorScheme-Text { color:#dedede; }</style>
  </defs>
  <path
     id="path5"
     style="fill:#dfdfdf;fill-opacity:1"
     d="M 1 2 C 0.44600255 2 0 2.4460006 0 3 L 0 13 C 0 13.553999 0.44600255 14 1 14 L 15 14 C 15.553999 14 16 13.553999 16 13 L 16 3 C 16 2.4460006 15.553999 2 15 2 L 1 2 z M 1 3 L 15 3 L 15 13 L 1 13 L 1 3 z " />
  <path
     id="rect2465"
     style="opacity:1;fill:#dddddd;stroke-width:0;stroke-linecap:square;stroke-linejoin:round;stroke-miterlimit:10"
     d="m 2.5,4 h 1 A 0.5,0.5 45 0 1 4,4.5 v 1 A 0.5,0.5 135 0 1 3.5,6 h -1 A 0.5,0.5 45 0 1 2,5.5 v -1 A 0.5,0.5 135 0 1 2.5,4 Z" />
  <rect
     style="opacity:1;fill:#dddddd;fill-opacity:1;stroke-width:0;stroke-linecap:square;stroke-linejoin:round;stroke-miterlimit:10"
     id="rect2467"
     width="12"
     height="1"
     x="2"
     y="11"
     ry="0.5" />
  <path
     id="path2472"
     style="opacity:1;fill:#dddddd;stroke-width:0;stroke-linecap:square;stroke-linejoin:round;stroke-miterlimit:10"
     d="m 2.5,7 h 1 A 0.5,0.5 0 0 1 4,7.5 v 1 A 0.5,0.5 0 0 1 3.5,9 h -1 A 0.5,0.5 0 0 1 2,8.5 v -1 A 0.5,0.5 0 0 1 2.5,7 Z" />
</svg>
