<?xml version="1.0" encoding="UTF-8" standalone="no"?>
<svg
   width="16"
   height="16"
   viewBox="0 0 16 16"
   version="1.1"
   id="svg2"
   sodipodi:docname="folder-open.svg"
   inkscape:version="1.3.2 (091e20ef0f, 2023-11-25, custom)"
   xmlns:inkscape="http://www.inkscape.org/namespaces/inkscape"
   xmlns:sodipodi="http://sodipodi.sourceforge.net/DTD/sodipodi-0.dtd"
   xmlns="http://www.w3.org/2000/svg"
   xmlns:svg="http://www.w3.org/2000/svg">
  <sodipodi:namedview
     id="namedview2"
     pagecolor="#ffffff"
     bordercolor="#000000"
     borderopacity="0.25"
     inkscape:showpageshadow="2"
     inkscape:pageopacity="0.0"
     inkscape:pagecheckerboard="0"
     inkscape:deskcolor="#d1d1d1"
     showgrid="true"
     inkscape:zoom="18.493477"
     inkscape:cx="8.8139185"
     inkscape:cy="17.546727"
     inkscape:window-width="1920"
     inkscape:window-height="1027"
     inkscape:window-x="0"
     inkscape:window-y="31"
     inkscape:window-maximized="1"
     inkscape:current-layer="svg2">
    <inkscape:grid
       id="grid2"
       units="px"
       originx="0"
       originy="0"
       spacingx="1"
       spacingy="1"
       empcolor="#0099e5"
       empopacity="0.30196078"
       color="#0099e5"
       opacity="0.14901961"
       empspacing="5"
       dotted="false"
       gridanglex="30"
       gridanglez="30"
       visible="true" />
  </sodipodi:namedview>
  <defs
     id="defs1">
    <style
       id="current-color-scheme"
       type="text/css">
   .ColorScheme-Text { color:#dfdfdf; } .ColorScheme-Highlight { color:#4285f4; } .ColorScheme-NeutralText { color:#ff9800; } .ColorScheme-PositiveText { color:#4caf50; } .ColorScheme-NegativeText { color:#f44336; }
  </style>
  </defs>
  <path
     fill="currentColor"
     class="ColorScheme-Text"
     d="M 1.06,5.387 C 0.670111,5.60812 0.372141,5.9614 0.219971,6.383 0.059971,6.821 0,7.343 0,8 v 4 c 0,0.658 0.05997,1.179 0.219971,1.617 0.17,0.439 0.470027,0.79 0.840029,0.998 0.75,0.416 1.67999,0.37 2.92999,0.385 H 12.01 c 1.25,-0.015 2.18,0.03 2.93,-0.385 0.37,-0.207 0.67,-0.56 0.84,-0.998 C 15.94,13.179 16,12.657 16,12 V 10 C 16,9.342 15.94,8.821 15.78,8.383 15.74648,8.2908208 15.518125,7.7144354 14.94,7.385 14.19,6.969 13.26,7.015 12.01,7 H 9 L 7,5 H 3.369995 C 2.73999,5.0075 1.82,4.971001 1.06,5.387 Z"
     id="path58"
     style="color:#e0def4;fill:#dedede;fill-opacity:1"
     sodipodi:nodetypes="ccssccccccssccccccc" />
  <path
     id="path58-7"
     style="color:#e0def4;fill:#dfdfdf;fill-opacity:0.34902"
     class="ColorScheme-Text"
     d="M 3.371093,1 C 2.741089,1.0075 1.820546,0.97072 1.060547,1.3867188 0.670658,1.6078385 0.372873,1.9612129 0.220703,2.3828125 0.060703,2.8208121 0,4.3430007 0,5 V 7 C 0,6.3430007 0.060703,5.8208121 0.220703,5.3828125 0.372873,4.9612129 0.670658,4.6078385 1.060547,4.3867188 1.820546,3.9707202 2.741089,4.0075 3.371093,4 H 7 l 2,2 h 3.009765 c 1.25,0.015 2.181642,-0.031234 2.931641,0.3847656 0.578125,0.3294351 0.806324,0.905868 0.839842,0.9980469 0.16,0.4379996 0.218751,0.9591882 0.218751,1.6171875 V 7 c 0,-0.6579993 -0.05875,-2.1791879 -0.21875,-2.6171875 C 15.747731,4.2906336 15.519529,3.7142007 14.941407,3.3847656 14.191407,2.968766 13.259765,3.015 12.009765,3 H 9 L 7,1 Z"
     sodipodi:nodetypes="cccsccccccccccscccccc" />
</svg>
