<?xml version="1.0" encoding="UTF-8" standalone="no"?>
<svg
   version="1.1"
   width="16"
   height="16"
   x="0"
   y="0"
   viewBox="0 0 16 16"
   xml:space="preserve"
   class=""
   id="svg1511"
   sodipodi:docname="folder-music11.svg"
   inkscape:version="1.2.2 (b0a8486541, 2022-12-01)"
   xmlns:inkscape="http://www.inkscape.org/namespaces/inkscape"
   xmlns:sodipodi="http://sodipodi.sourceforge.net/DTD/sodipodi-0.dtd"
   xmlns="http://www.w3.org/2000/svg"
   xmlns:svg="http://www.w3.org/2000/svg"><defs
     id="defs1515" /><sodipodi:namedview
     id="namedview1513"
     pagecolor="#505050"
     bordercolor="#eeeeee"
     borderopacity="1"
     inkscape:showpageshadow="0"
     inkscape:pageopacity="0"
     inkscape:pagecheckerboard="0"
     inkscape:deskcolor="#505050"
     showgrid="true"
     inkscape:zoom="29.324052"
     inkscape:cx="7.8092891"
     inkscape:cy="6.8203398"
     inkscape:current-layer="svg1511"
     inkscape:window-width="1920"
     inkscape:window-height="1021"
     inkscape:window-x="1920"
     inkscape:window-y="26"
     inkscape:window-maximized="1"><inkscape:grid
       type="xygrid"
       id="grid240" /></sodipodi:namedview><path
     style="fill:#dedede;fill-opacity:1;fill-rule:nonzero;stroke:none;stroke-width:0.755876"
     d="m 15.022697,0.002205 c -0.01771,-0.00294 -0.03543,-0.00294 -0.05314,0 -0.062,0 -0.124009,0.00886 -0.186013,0.020666 L 5.784093,2.0248123 C 5.329397,2.1252049 5.004613,2.5297263 5.004613,2.9962551 V 11.240227 C 4.549917,11.086685 4.039122,11.001057 3.4988,11.001057 1.561911,11.001057 0,12.117182 0,13.502003 c 0,1.384821 1.561911,2.497993 3.4988,2.497993 1.939841,0 3.501754,-1.113172 3.501754,-2.497993 0,-0.04429 -0.0029,-0.08858 -0.0059,-0.132872 V 3.793487 L 14.00405,2.2374077 V 8.2402712 C 13.549363,8.0867295 13.038568,8.0011009 12.498246,8.0011009 c -1.936888,0 -3.4988,1.1161254 -3.4988,2.5009471 0,1.384822 1.561912,2.497994 3.4988,2.497994 1.939842,0 3.501754,-1.113172 3.501754,-2.497994 0,-0.04429 -0.003,-0.08858 -0.0059,-0.132872 V 0.99726866 C 15.9941,0.4510171 15.560072,0.0140158 15.022702,0.002205 Z m 0,0"
     id="path905" /></svg>
