<?xml version="1.0" encoding="UTF-8" standalone="no"?>
<svg
   sodipodi:docname="folder-videos.orig.svg"
   id="svg1776"
   class=""
   xml:space="preserve"
   viewBox="0 0 16 16"
   y="0"
   x="0"
   height="16"
   width="16"
   version="1.1"
   inkscape:version="1.3.2 (091e20ef0f, 2023-11-25, custom)"
   xmlns:inkscape="http://www.inkscape.org/namespaces/inkscape"
   xmlns:sodipodi="http://sodipodi.sourceforge.net/DTD/sodipodi-0.dtd"
   xmlns="http://www.w3.org/2000/svg"
   xmlns:svg="http://www.w3.org/2000/svg"><defs
     id="defs1780" /><sodipodi:namedview
     id="namedview1778"
     pagecolor="#ffffff"
     bordercolor="#000000"
     borderopacity="0.25"
     inkscape:showpageshadow="2"
     inkscape:pageopacity="0.0"
     inkscape:pagecheckerboard="0"
     inkscape:deskcolor="#d1d1d1"
     showgrid="true"
     inkscape:zoom="32.150929"
     inkscape:cx="12.596837"
     inkscape:cy="7.8069284"
     inkscape:window-width="1920"
     inkscape:window-height="1013"
     inkscape:window-x="1920"
     inkscape:window-y="36"
     inkscape:window-maximized="1"
     inkscape:current-layer="svg1776"><inkscape:grid
       type="xygrid"
       id="grid2262"
       originx="0"
       originy="0"
       spacingy="1"
       spacingx="1"
       units="px"
       visible="true" /></sodipodi:namedview><path
     d="M 6.6621067,5.059115 C 6.3599331,4.8943162 6,5.093517 6,5.4164566 v 5.1670874 c 0,0.324603 0.3605412,0.52103 0.6621067,0.357896 L 10.777626,8.4033626 c 0.296702,-0.1614695 0.296093,-0.5532136 6.08e-4,-0.715238 z"
     fill="#ffffff"
     data-original="#000000"
     class=""
     id="path1770"
     style="fill:#dedede;fill-opacity:1;stroke-width:0.58083"
     sodipodi:nodetypes="csscccc" /><path
     d="m 13.269333,2.3362485 c -3.102,-0.4483313 -7.435333,-0.4483313 -10.5386663,0 C 1.4893333,2.5153215 0.51133334,3.4638894 0.298,4.6953407 c -0.39733333,2.2857761 -0.39733333,4.3237048 0,6.6088323 0.21333334,1.2321 1.1913333,2.180019 2.4326667,2.359092 C 4.2853334,13.887755 6.1466667,14 8.0073334,14 9.8646667,14 11.721333,13.888404 13.27,13.663914 c 1.24,-0.179073 2.217333,-1.126992 2.432,-2.359092 0.397333,-2.2857765 0.397333,-4.324354 0,-6.6101301 C 15.488667,3.4638894 14.510667,2.5153215 13.269333,2.3362485 Z M 14.716,11.142618 c -0.142,0.814912 -0.782,1.441667 -1.593333,1.558454 -3.012,0.435355 -7.2253336,0.435355 -10.2453337,-6.49e-4 -0.812,-0.117435 -1.4526666,-0.743542 -1.594,-1.558454 -0.38266663,-2.202079 -0.38266663,-4.0816967 0,-6.2850733 0.142,-0.8149119 0.782,-1.4403698 1.5946667,-1.5584542 1.508,-0.2173531 3.3153334,-0.3263541 5.1213334,-0.3263541 1.8073333,0 3.6146666,0.109001 5.1226666,0.3263541 0.812,0.1174356 1.452667,0.7435423 1.594,1.5584542 0.382667,2.2033766 0.382667,4.0829943 0,6.2857223 z"
     fill="#ffffff"
     data-original="#000000"
     class=""
     id="path1772"
     style="fill:#dedede;fill-opacity:1;stroke-width:0.65768" /></svg>
