<?xml version="1.0" encoding="UTF-8" standalone="no"?>
<svg
   width="16"
   height="16"
   version="1.1"
   id="svg2392"
   sodipodi:docname="folder-music-symbolic.svg"
   inkscape:version="1.2.2 (b0a8486541, 2022-12-01)"
   xmlns:inkscape="http://www.inkscape.org/namespaces/inkscape"
   xmlns:sodipodi="http://sodipodi.sourceforge.net/DTD/sodipodi-0.dtd"
   xmlns="http://www.w3.org/2000/svg"
   xmlns:svg="http://www.w3.org/2000/svg">
  <defs
     id="defs2396" />
  <sodipodi:namedview
     id="namedview2394"
     pagecolor="#ffffff"
     bordercolor="#666666"
     borderopacity="1.0"
     inkscape:showpageshadow="2"
     inkscape:pageopacity="0.0"
     inkscape:pagecheckerboard="0"
     inkscape:deskcolor="#d1d1d1"
     showgrid="true"
     inkscape:zoom="11.952084"
     inkscape:cx="10.70943"
     inkscape:cy="12.717448"
     inkscape:window-width="1920"
     inkscape:window-height="1017"
     inkscape:window-x="1920"
     inkscape:window-y="26"
     inkscape:window-maximized="1"
     inkscape:current-layer="svg2392">
    <inkscape:grid
       type="xygrid"
       id="grid153540" />
  </sodipodi:namedview>
  <path
     style="fill:#dddddd;fill-opacity:1;fill-rule:nonzero;stroke:none;stroke-width:0.110332;stroke-dasharray:none;stroke-opacity:1"
     d="m 14.974269,0.05732342 c -0.01768,-0.0029043 -0.03517,-0.0029043 -0.05278,0 -0.06157,0 -0.123148,0.0087685 -0.184731,0.02052968 L 5.7993709,2.0659949 C 5.3478097,2.1656864 5.0252665,2.567429 5.0252665,3.030742 v 8.187137 C 4.5737054,11.06541 4.0664335,10.980353 3.5298383,10.980353 c -1.9235324,0 -3.4746723,1.10843 -3.4746723,2.483706 0,1.375274 1.5511399,2.480774 3.4746723,2.480774 1.9264626,0 3.4776052,-1.1055 3.4776052,-2.480774 0,-0.044 -0.00295,-0.08799 -0.00581,-0.131972 V 3.8224529 l 6.9610235,-1.54535 V 8.2385834 C 13.511096,8.0861141 13.003825,8.001059 12.467228,8.001059 c -1.923532,0 -3.474674,1.1084333 -3.474674,2.483707 0,1.375277 1.551142,2.480774 3.474674,2.480774 1.926465,0 3.477606,-1.105497 3.477606,-2.480774 0,-0.044 -0.0029,-0.08799 -0.0058,-0.131973 V 1.0455263 c 0,-0.5424853 -0.431035,-0.97647328 -0.9647,-0.98820288 z m 0,0"
     id="path905" />
</svg>
