<?xml version="1.0" encoding="UTF-8" standalone="no"?>
<svg
   width="16"
   height="16"
   version="1.1"
   viewBox="0 0 16 16"
   id="svg2230"
   sodipodi:docname="folder-pictures.svg"
   inkscape:version="1.2.2 (b0a8486541, 2022-12-01)"
   xmlns:inkscape="http://www.inkscape.org/namespaces/inkscape"
   xmlns:sodipodi="http://sodipodi.sourceforge.net/DTD/sodipodi-0.dtd"
   xmlns="http://www.w3.org/2000/svg"
   xmlns:svg="http://www.w3.org/2000/svg">
  <sodipodi:namedview
     id="namedview2232"
     pagecolor="#ffffff"
     bordercolor="#000000"
     borderopacity="0.25"
     inkscape:showpageshadow="2"
     inkscape:pageopacity="0.0"
     inkscape:pagecheckerboard="0"
     inkscape:deskcolor="#d1d1d1"
     showgrid="true"
     inkscape:zoom="43.730048"
     inkscape:cx="4.7335873"
     inkscape:cy="7.1346823"
     inkscape:window-width="1920"
     inkscape:window-height="1002"
     inkscape:window-x="1920"
     inkscape:window-y="28"
     inkscape:window-maximized="1"
     inkscape:current-layer="svg2230">
    <inkscape:grid
       type="xygrid"
       id="grid2351" />
  </sodipodi:namedview>
  <defs
     id="defs2226">
    <inkscape:path-effect
       effect="fillet_chamfer"
       id="path-effect19301"
       is_visible="true"
       lpeversion="1"
       nodesatellites_param="F,0,0,1,0,0,0,1 @ F,0,1,1,0,0.5,0,1 @ F,0,0,1,0,0,0,1 @ F,0,1,1,0,0.5,0,1 @ F,0,0,1,0,0,0,1 | F,0,0,1,0,0,0,1 @ F,0,0,1,0,0,0,1 @ F,0,0,1,0,0,0,1 @ F,0,0,1,0,0,0,1"
       unit="px"
       method="auto"
       mode="F"
       radius="0.5"
       chamfer_steps="1"
       flexible="false"
       use_knot_distance="true"
       apply_no_radius="true"
       apply_with_radius="true"
       only_selected="true"
       hide_knots="false" />
    <style
       id="current-color-scheme"
       type="text/css">.ColorScheme-Text { color:#dedede; } .ColorScheme-Text { color:#dedede; }</style>
  </defs>
  <path
     id="path2228"
     style="fill:currentColor"
     class="ColorScheme-Text"
     d="M 2.5,2 C 1.6715708,2 1,2.6715708 1,3.5 1,4.3284292 1.6715708,5 2.5,5 3.3284292,5 4,4.3284292 4,3.5 4,2.6715708 3.3284292,2 2.5,2 Z m 8.378906,4.2773438 c -0.07099,0.020723 -0.133349,0.063896 -0.177734,0.1230468 L 7.174,11.259766 9.252,14 H 16 L 11.265625,6.4238281 C 11.184174,6.2937784 11.026077,6.2338934 10.878906,6.2773438 Z M 4.1230469,9.2519531 C 3.9631751,9.2054398 3.7910505,9.2602418 3.6875,9.390625 L 0,14 7.9628906,13.998047 4.3222656,9.3828125 C 4.2702856,9.3204244 4.200948,9.2748792 4.1230469,9.2519531 Z"
     sodipodi:nodetypes="sssssccccccccccccc" />
</svg>
