<?xml version="1.0" encoding="UTF-8" standalone="no"?>
<svg
   width="16"
   height="16"
   version="1.1"
   id="svg991"
   sodipodi:docname="user-trash-full-symbolic.svg"
   inkscape:version="1.2.2 (b0a8486541, 2022-12-01)"
   xmlns:inkscape="http://www.inkscape.org/namespaces/inkscape"
   xmlns:sodipodi="http://sodipodi.sourceforge.net/DTD/sodipodi-0.dtd"
   xmlns="http://www.w3.org/2000/svg"
   xmlns:svg="http://www.w3.org/2000/svg">
  <sodipodi:namedview
     id="namedview993"
     pagecolor="#ffffff"
     bordercolor="#666666"
     borderopacity="1.0"
     inkscape:showpageshadow="2"
     inkscape:pageopacity="0.0"
     inkscape:pagecheckerboard="0"
     inkscape:deskcolor="#d1d1d1"
     showgrid="true"
     inkscape:zoom="40.668826"
     inkscape:cx="8.9503444"
     inkscape:cy="8.5569226"
     inkscape:window-width="1920"
     inkscape:window-height="1025"
     inkscape:window-x="1920"
     inkscape:window-y="26"
     inkscape:window-maximized="1"
     inkscape:current-layer="svg991">
    <inkscape:grid
       type="xygrid"
       id="grid1112" />
  </sodipodi:namedview>
  <defs
     id="defs987">
    <style
       id="current-color-scheme"
       type="text/css">
   .ColorScheme-Text { color:#dfdfdf; } .ColorScheme-Highlight { color:#4285f4; } .ColorScheme-NeutralText { color:#ff9800; } .ColorScheme-PositiveText { color:#4caf50; } .ColorScheme-NegativeText { color:#f44336; }
  </style>
  </defs>
  <path
     id="path989"
     style="fill:currentColor"
     class="ColorScheme-Text"
     d="M 6,1 C 5.000003,1 5,2 5,2 H 2 c 0,0 -1,3e-6 -1,1 V 4 H 14 V 3 C 14,2.000003 13,2 13,2 h -3 c 0,0 -3e-6,-1 -1,-1 z M 2,5 c -2,3 -2.04890128,5.99392 0,9 0.2928653,0.429682 0.4800015,1 1,1 h 9 c 0.519997,0 0.716923,-0.563807 1,-1 1.97496,-3.043214 1.986219,-6 0,-9 z m 3,2 h 1 v 6 H 5 Z m 2,0 h 1 v 6 H 7 Z m 2,0 h 1 v 6 H 9 Z"
     sodipodi:nodetypes="sccsccsccsscssssccccccccccccccccc" />
</svg>
