<?xml version="1.0" encoding="UTF-8" standalone="no"?>
<svg
   width="16"
   height="16"
   version="1.1"
   id="svg991"
   sodipodi:docname="entry-delete.svg"
   inkscape:version="1.2.2 (b0a8486541, 2022-12-01)"
   xmlns:inkscape="http://www.inkscape.org/namespaces/inkscape"
   xmlns:sodipodi="http://sodipodi.sourceforge.net/DTD/sodipodi-0.dtd"
   xmlns="http://www.w3.org/2000/svg"
   xmlns:svg="http://www.w3.org/2000/svg">
  <sodipodi:namedview
     id="namedview993"
     pagecolor="#ffffff"
     bordercolor="#666666"
     borderopacity="1.0"
     inkscape:showpageshadow="2"
     inkscape:pageopacity="0.0"
     inkscape:pagecheckerboard="0"
     inkscape:deskcolor="#d1d1d1"
     showgrid="true"
     inkscape:zoom="48.375"
     inkscape:cx="6.1602067"
     inkscape:cy="8"
     inkscape:window-width="1920"
     inkscape:window-height="1024"
     inkscape:window-x="1920"
     inkscape:window-y="26"
     inkscape:window-maximized="1"
     inkscape:current-layer="svg991">
    <inkscape:grid
       type="xygrid"
       id="grid1112" />
  </sodipodi:namedview>
  <defs
     id="defs987">
    <style
       id="current-color-scheme"
       type="text/css">
   .ColorScheme-Text { color:#dfdfdf; } .ColorScheme-Highlight { color:#4285f4; } .ColorScheme-NeutralText { color:#ff9800; } .ColorScheme-PositiveText { color:#4caf50; } .ColorScheme-NegativeText { color:#f44336; }
  </style>
  </defs>
  <path
     id="path989"
     style="fill:currentColor"
     class="ColorScheme-Text"
     d="M 6 1 C 5.000003 1 5 2 5 2 L 2 2 C 2 2 1 2.000003 1 3 L 1 4 L 14 4 L 14 3 C 14 2.000003 13 2 13 2 L 10 2 C 10 2 9.999997 1 9 1 L 6 1 z M 2 5 L 2 14 C 2 14.519997 2.4800015 15 3 15 L 12 15 C 12.519997 15 13 14.519997 13 14 L 13 5 L 2 5 z M 5 7 L 6 7 L 6 13 L 5 13 L 5 7 z M 7 7 L 8 7 L 8 13 L 7 13 L 7 7 z M 9 7 L 10 7 L 10 13 L 9 13 L 9 7 z " />
</svg>
