<?xml version="1.0" encoding="UTF-8" standalone="no"?>
<svg
   width="16"
   height="16"
   version="1.1"
   viewBox="0 0 16 16"
   id="svg9"
   sodipodi:docname="user-desktop-symbolic.svg"
   inkscape:version="1.2.2 (b0a8486541, 2022-12-01)"
   xmlns:inkscape="http://www.inkscape.org/namespaces/inkscape"
   xmlns:sodipodi="http://sodipodi.sourceforge.net/DTD/sodipodi-0.dtd"
   xmlns="http://www.w3.org/2000/svg"
   xmlns:svg="http://www.w3.org/2000/svg">
  <sodipodi:namedview
     id="namedview11"
     pagecolor="#ffffff"
     bordercolor="#000000"
     borderopacity="0.25"
     inkscape:showpageshadow="2"
     inkscape:pageopacity="0.0"
     inkscape:pagecheckerboard="0"
     inkscape:deskcolor="#d1d1d1"
     showgrid="true"
     inkscape:zoom="20.289866"
     inkscape:cx="3.1789268"
     inkscape:cy="11.680708"
     inkscape:window-width="1920"
     inkscape:window-height="1017"
     inkscape:window-x="1920"
     inkscape:window-y="26"
     inkscape:window-maximized="1"
     inkscape:current-layer="svg9">
    <inkscape:grid
       type="xygrid"
       id="grid240" />
  </sodipodi:namedview>
  <defs
     id="defs3">
    <inkscape:path-effect
       effect="fillet_chamfer"
       id="path-effect1396"
       is_visible="true"
       lpeversion="1"
       nodesatellites_param="F,0,0,1,0,0,0,1 @ F,0,0,1,0,0,0,1 @ F,0,0,1,0,0,0,1 @ F,0,0,1,0,0,0,1 @ F,0,0,1,0,0,0,1 @ F,0,0,1,0,0,0,1 @ F,0,0,1,0,0,0,1 @ F,0,0,1,0,0,0,1 | F,0,0,1,0,0,0,1 @ F,0,0,1,0,0,0,1 @ F,0,0,1,0,0,0,1 @ F,0,0,1,0,0,0,1 | F,0,1,1,0,0.5,0,1 @ F,0,1,1,0,0.5,0,1 @ F,0,1,1,0,0.5,0,1 @ F,0,1,1,0,0.5,0,1 | F,0,1,1,0,0.5,0,1 @ F,0,1,1,0,0.5,0,1 @ F,0,1,1,0,0.5,0,1 @ F,0,1,1,0,0.5,0,1 | F,0,0,1,0,0,0,1 @ F,0,0,1,0,0,0,1 @ F,0,0,1,0,0,0,1 @ F,0,0,1,0,0,0,1 @ F,0,0,1,0,0,0,1 @ F,0,0,1,0,0,0,1"
       unit="px"
       method="auto"
       mode="F"
       radius="0.5"
       chamfer_steps="1"
       flexible="false"
       use_knot_distance="true"
       apply_no_radius="true"
       apply_with_radius="true"
       only_selected="true"
       hide_knots="false" />
    <inkscape:path-effect
       effect="fillet_chamfer"
       id="path-effect1394"
       is_visible="true"
       lpeversion="1"
       nodesatellites_param="F,0,0,1,0,0,0,1 @ F,0,0,1,0,0,0,1 @ F,0,0,1,0,0,0,1 @ F,0,0,1,0,0,0,1 @ F,0,0,1,0,0,0,1 @ F,0,0,1,0,0,0,1 @ F,0,0,1,0,0,0,1 @ F,0,0,1,0,0,0,1 | F,0,0,1,0,0,0,1 @ F,0,0,1,0,0,0,1 @ F,0,0,1,0,0,0,1 @ F,0,0,1,0,0,0,1 | F,0,0,1,0,0,0,1 @ F,0,0,1,0,0,0,1 @ F,0,0,1,0,0,0,1 @ F,0,0,1,0,0,0,1 | F,0,0,1,0,0,0,1 @ F,0,0,1,0,0,0,1 @ F,0,0,1,0,0,0,1 @ F,0,0,1,0,0,0,1 | F,0,1,1,0,0.5,0,1 @ F,0,1,1,0,0.5,0,1 @ F,0,1,1,0,0.5,0,1 @ F,0,1,1,0,0.5,0,1"
       unit="px"
       method="auto"
       mode="F"
       radius="0.5"
       chamfer_steps="1"
       flexible="false"
       use_knot_distance="true"
       apply_no_radius="true"
       apply_with_radius="true"
       only_selected="true"
       hide_knots="false" />
    <style
       id="current-color-scheme"
       type="text/css">.ColorScheme-Text { color:#dedede; }</style>
  </defs>
  <path
     id="path5"
     style="fill:currentColor"
     class="ColorScheme-Text"
     d="M 1,2 C 0.446002,2 0,2.446 0,3 v 10 c 0,0.554 0.446002,1 1,1 h 14 c 0.554,0 1,-0.446 1,-1 V 3 C 16,2.446 15.554,2 15,2 Z M 1,3 H 15 V 13 H 1 Z m 1,1.5 v 1 A 0.5,0.5 45 0 0 2.5,6 h 1 A 0.5,0.5 135 0 0 4,5.5 v -1 A 0.5,0.5 45 0 0 3.5,4 h -1 A 0.5,0.5 135 0 0 2,4.5 Z m 0,4 v 1 A 0.5,0.5 45 0 0 2.5,10 h 1 A 0.5,0.5 135 0 0 4,9.5 v -1 A 0.5,0.5 45 0 0 3.5,8 h -1 A 0.5,0.5 135 0 0 2,8.5 Z m 0,3 C 2,11.776142 2.2238576,12 2.5,12 h 11 C 13.776142,12 14,11.776142 14,11.5 14,11.223858 13.776142,11 13.5,11 H 2.5 C 2.2238576,11 2,11.223858 2,11.5 Z"
     inkscape:path-effect="#path-effect1396"
     inkscape:original-d="M 1,2 C 0.446002,2 0,2.446 0,3 v 10 c 0,0.554 0.446002,1 1,1 h 14 c 0.554,0 1,-0.446 1,-1 V 3 C 16,2.446 15.554,2 15,2 Z M 1,3 H 15 V 13 H 1 Z M 2,4 V 6 H 4 V 4 Z m 0,4 v 2 H 4 V 8 Z m 0,3.5 A 0.5,0.5 45 0 0 2.5,12 h 11 A 0.5,0.5 135 0 0 14,11.5 0.5,0.5 45 0 0 13.5,11 l -11,0 A 0.5,0.5 135 0 0 2,11.5 Z" />
</svg>
