<?xml version="1.0" encoding="UTF-8" standalone="no"?>
<svg
   version="1.1"
   width="48"
   height="48"
   x="0"
   y="0"
   viewBox="0 0 48 48"
   xml:space="preserve"
   class=""
   id="svg4"
   sodipodi:docname="chrome.svg"
   inkscape:version="1.3.2 (091e20ef0f, 2023-11-25, custom)"
   xmlns:inkscape="http://www.inkscape.org/namespaces/inkscape"
   xmlns:sodipodi="http://sodipodi.sourceforge.net/DTD/sodipodi-0.dtd"
   xmlns="http://www.w3.org/2000/svg"
   xmlns:svg="http://www.w3.org/2000/svg"><defs
     id="defs4" /><sodipodi:namedview
     id="namedview4"
     pagecolor="#ffffff"
     bordercolor="#000000"
     borderopacity="0.25"
     inkscape:showpageshadow="2"
     inkscape:pageopacity="0.0"
     inkscape:pagecheckerboard="0"
     inkscape:deskcolor="#d1d1d1"
     showgrid="true"
     inkscape:zoom="6.5961852"
     inkscape:cx="40.023133"
     inkscape:cy="21.072786"
     inkscape:window-width="1920"
     inkscape:window-height="1013"
     inkscape:window-x="0"
     inkscape:window-y="36"
     inkscape:window-maximized="1"
     inkscape:current-layer="svg4"><inkscape:grid
       id="grid4"
       units="px"
       originx="0"
       originy="0"
       spacingx="1"
       spacingy="1"
       empcolor="#0099e5"
       empopacity="0.30196078"
       color="#0099e5"
       opacity="0.14901961"
       empspacing="5"
       dotted="false"
       gridanglex="30"
       gridanglez="30"
       visible="true" /></sodipodi:namedview><g
     id="g4"
     transform="matrix(0.09374952,0,0,0.0937565,-4.3295436e-5,-0.00181851)"><path
       d="m 61.818,89.204 c 119.008,-138.496 339.68,-111.168 422.144,50.624 -58.08,0.032 -148.992,-0.032 -198.24,0 -35.712,0 -58.784,-0.8 -83.744,12.352 -29.344,15.456 -51.52,44.096 -59.232,77.76 z"
       fill="#f44336"
       data-original="#f44336"
       class=""
       id="path1" /><path
       d="m 170.842,256.02 c 0,46.944 38.176,85.12 85.088,85.12 46.912,0 85.088,-38.176 85.088,-85.12 0,-46.944 -38.176,-85.12 -85.088,-85.12 -46.944,-0.032 -85.088,38.176 -85.088,85.12 z"
       fill="#2196f3"
       data-original="#2196f3"
       class=""
       id="path2" /><path
       d="M 288.922,367.444 C 241.178,381.62 185.274,365.908 154.682,313.044 131.322,272.724 69.562,165.172 41.53,116.244 -56.774,266.9 27.93,472.18 206.362,507.22 Z"
       fill="#4caf50"
       data-original="#4caf50"
       id="path3" /><path
       d="m 334.938,170.868 c 39.776,36.992 48.448,96.896 21.504,143.328 -20.288,35.008 -85.088,144.352 -116.48,197.28 183.84,11.328 317.856,-168.832 257.312,-340.64 z"
       fill="#ffc107"
       data-original="#ffc107"
       id="path4" /></g></svg>
