<?xml version="1.0" encoding="UTF-8" standalone="no"?>
<svg
   version="1.1"
   width="64"
   height="64"
   x="0"
   y="0"
   viewBox="0 0 64 64"
   xml:space="preserve"
   class=""
   id="svg12"
   sodipodi:docname="sdd.svg"
   inkscape:version="1.3 (0e150ed6c4, 2023-07-21)"
   xmlns:inkscape="http://www.inkscape.org/namespaces/inkscape"
   xmlns:sodipodi="http://sodipodi.sourceforge.net/DTD/sodipodi-0.dtd"
   xmlns:xlink="http://www.w3.org/1999/xlink"
   xmlns="http://www.w3.org/2000/svg"
   xmlns:svg="http://www.w3.org/2000/svg"><defs
     id="defs12"><linearGradient
       id="linearGradient1"
       inkscape:collect="always"><stop
         style="stop-color:#2c2c2f;stop-opacity:1;"
         offset="0"
         id="stop1" /><stop
         style="stop-color:#434a54;stop-opacity:1;"
         offset="1"
         id="stop2" /></linearGradient><linearGradient
       inkscape:collect="always"
       xlink:href="#linearGradient1"
       id="linearGradient2"
       x1="25"
       y1="53"
       x2="25"
       y2="64"
       gradientUnits="userSpaceOnUse" /><linearGradient
       id="linearGradient4591"
       x1="-12.905"
       x2="-12.905"
       y1="1016.9"
       y2="999.65002"
       gradientTransform="matrix(0.85911,0,0,0.85911,43.435,-837.6)"
       gradientUnits="userSpaceOnUse"><stop
         stop-color="#a6aebf"
         offset="0"
         id="stop26" /><stop
         stop-color="#eceff4"
         offset="1"
         id="stop27" /></linearGradient><linearGradient
       inkscape:collect="always"
       xlink:href="#linearGradient4247"
       id="linearGradient14"
       x1="30"
       y1="5"
       x2="30"
       y2="57.080425"
       gradientUnits="userSpaceOnUse" /><filter
       id="filter1710"
       x="-0.025239233"
       y="-0.02902482"
       width="1.0504785"
       height="1.0580496"
       color-interpolation-filters="sRGB"><feGaussianBlur
         stdDeviation="0.60858515"
         id="feGaussianBlur57" /></filter><linearGradient
       id="linearGradient1453"
       x1="50.27"
       x2="50.27"
       y1="15.081"
       y2="14.023"
       gradientTransform="matrix(7.3154,0,0,7.3154,-335.74,-50.258)"
       gradientUnits="userSpaceOnUse"><stop
         stop-color="#4c566a"
         offset="0"
         id="stop1-8" /><stop
         stop-color="#2e3440"
         offset="1"
         id="stop2-9" /></linearGradient><linearGradient
       id="linearGradient4336"
       x1="242.09"
       x2="173.32001"
       y1="131.03999"
       y2="131.03999"
       gradientTransform="matrix(0.3932,0,0,0.3932,-58.986,0.79297)"
       gradientUnits="userSpaceOnUse"><stop
         stop-color="#7b88a1"
         offset="0"
         id="stop3" /><stop
         stop-color="#4c566a"
         offset="1"
         id="stop4" /></linearGradient><linearGradient
       id="linearGradient1475"
       x1="120.59"
       x2="118.64"
       y1="137.53999"
       y2="139.07001"
       gradientTransform="matrix(0.3932,0,0,0.3932,-17.752,1.0878)"
       gradientUnits="userSpaceOnUse"><stop
         stop-color="#2e3440"
         offset="0"
         id="stop42" /><stop
         stop-color="#4c566a"
         offset="1"
         id="stop43" /></linearGradient><linearGradient
       id="linearGradient1477"
       x1="120.59"
       x2="118.64"
       y1="137.53999"
       y2="139.07001"
       gradientTransform="matrix(0.3932,0,0,0.3932,-15.285,1.0878)"
       gradientUnits="userSpaceOnUse"><stop
         stop-color="#2e3440"
         offset="0"
         id="stop44" /><stop
         stop-color="#4c566a"
         offset="1"
         id="stop45" /></linearGradient><linearGradient
       id="linearGradient1479"
       x1="120.59"
       x2="118.64"
       y1="137.53999"
       y2="139.07001"
       gradientTransform="matrix(0.3932,0,0,0.3932,-12.819,1.0878)"
       gradientUnits="userSpaceOnUse"><stop
         stop-color="#2e3440"
         offset="0"
         id="stop46" /><stop
         stop-color="#4c566a"
         offset="1"
         id="stop47" /></linearGradient><linearGradient
       id="linearGradient1481"
       x1="120.59"
       x2="118.64"
       y1="137.53999"
       y2="139.07001"
       gradientTransform="matrix(0.3932,0,0,0.3932,-10.353,1.0878)"
       gradientUnits="userSpaceOnUse"><stop
         stop-color="#2e3440"
         offset="0"
         id="stop48" /><stop
         stop-color="#4c566a"
         offset="1"
         id="stop49" /></linearGradient><linearGradient
       id="linearGradient1483"
       x1="120.59"
       x2="118.64"
       y1="137.53999"
       y2="139.07001"
       gradientTransform="matrix(0.3932,0,0,0.3932,-7.887,1.0878)"
       gradientUnits="userSpaceOnUse"><stop
         stop-color="#2e3440"
         offset="0"
         id="stop50" /><stop
         stop-color="#4c566a"
         offset="1"
         id="stop51" /></linearGradient><linearGradient
       id="linearGradient1485"
       x1="120.59"
       x2="118.64"
       y1="137.53999"
       y2="139.07001"
       gradientTransform="matrix(0.3932,0,0,0.3932,-5.4208,1.0878)"
       gradientUnits="userSpaceOnUse"><stop
         stop-color="#2e3440"
         offset="0"
         id="stop52" /><stop
         stop-color="#4c566a"
         offset="1"
         id="stop53" /></linearGradient><linearGradient
       id="linearGradient1487"
       x1="120.59"
       x2="118.64"
       y1="137.53999"
       y2="139.07001"
       gradientTransform="matrix(0.3932,0,0,0.3932,-2.9547,1.0878)"
       gradientUnits="userSpaceOnUse"><stop
         stop-color="#2e3440"
         offset="0"
         id="stop54" /><stop
         stop-color="#4c566a"
         offset="1"
         id="stop55" /></linearGradient><linearGradient
       id="linearGradient1517"
       x1="38.363998"
       x2="39.951"
       y1="15.17"
       y2="15.17"
       gradientTransform="matrix(7.3154,0,0,7.3154,-277.028,-135.46971)"
       gradientUnits="userSpaceOnUse"><stop
         stop-color="#2e3440"
         offset="0"
         id="stop5" /><stop
         stop-color="#7b88a1"
         offset=".33438"
         id="stop6" /><stop
         stop-color="#a6aebf"
         offset=".50217"
         id="stop7" /><stop
         stop-color="#7b88a1"
         offset=".68594"
         id="stop8" /><stop
         stop-color="#2e3440"
         offset="1"
         id="stop9" /></linearGradient><linearGradient
       id="linearGradient1521"
       x1="38.363998"
       x2="39.951"
       y1="15.17"
       y2="15.17"
       gradientTransform="matrix(7.3154,0,0,7.3154,-232.508,-135.46971)"
       gradientUnits="userSpaceOnUse"><stop
         stop-color="#2e3440"
         offset="0"
         id="stop10" /><stop
         stop-color="#4c566a"
         offset=".33438"
         id="stop11" /><stop
         stop-color="#7b88a1"
         offset=".50217"
         id="stop12" /><stop
         stop-color="#4c566a"
         offset=".68594"
         id="stop13" /><stop
         stop-color="#2e3440"
         offset="1"
         id="stop14" /></linearGradient><linearGradient
       id="linearGradient1491"
       x1="50.27"
       x2="50.27"
       y1="14.816"
       y2="8.7311001"
       gradientTransform="matrix(7.3154,0,0,7.3154,-335.848,-137.40471)"
       gradientUnits="userSpaceOnUse"><stop
         stop-color="#d8dee9"
         offset="0"
         id="stop56" /><stop
         stop-color="#a6aebf"
         offset="1"
         id="stop57" /></linearGradient><linearGradient
       id="linearGradient4265"
       x1="285.29999"
       x2="177.35001"
       y1="58.879002"
       y2="58.879002"
       gradientTransform="matrix(0.3932,0,0,0.3932,-59.093996,-76.676742)"
       gradientUnits="userSpaceOnUse"><stop
         stop-color="#2e3440"
         offset="0"
         id="stop15" /><stop
         stop-color="#eceff4"
         offset=".14845"
         id="stop16" /><stop
         stop-color="#7b88a1"
         offset=".55"
         id="stop17" /><stop
         stop-color="#434c5e"
         offset="1"
         id="stop18" /></linearGradient><linearGradient
       id="linearGradient4247"
       x1="237.32001"
       x2="239.69"
       y1="18.634001"
       y2="111.87"
       gradientTransform="matrix(0.3932,0,0,0.3932,-59.093996,-76.676742)"
       gradientUnits="userSpaceOnUse"><stop
         stop-color="#a6aebf"
         offset="0"
         id="stop19" /><stop
         stop-color="#d8dee9"
         offset="1"
         id="stop20" /></linearGradient><linearGradient
       id="linearGradient4577"
       x1="-27.125"
       x2="1.125"
       y1="62.125"
       y2="62.125"
       gradientTransform="matrix(0.85911,0,0,0.85911,43.435,-15.974)"
       gradientUnits="userSpaceOnUse"><stop
         stop-color="#d8dee9"
         offset="0"
         id="stop21" /><stop
         stop-color="#3b4252"
         offset=".15143"
         id="stop22" /><stop
         stop-color="#eceff4"
         offset=".61194"
         id="stop23" /><stop
         stop-color="#7b88a1"
         offset=".86567"
         id="stop24" /><stop
         stop-color="#eceff4"
         offset="1"
         id="stop25" /></linearGradient><linearGradient
       id="linearGradient1439"
       x1="144.66"
       x2="174.56"
       y1="55.562"
       y2="55.562"
       gradientTransform="matrix(1.9355,0,0,1.9355,-277.028,-135.46971)"
       gradientUnits="userSpaceOnUse"><stop
         stop-color="#a6aebf"
         offset="0"
         id="stop28" /><stop
         stop-color="#7b88a1"
         offset=".056041"
         id="stop29" /><stop
         stop-color="#4c566a"
         offset=".11456"
         id="stop30" /><stop
         stop-color="#7b88a1"
         offset=".50498"
         id="stop31" /><stop
         stop-color="#4c566a"
         offset=".91543"
         id="stop32" /><stop
         stop-color="#7b88a1"
         offset=".96193"
         id="stop33" /><stop
         stop-color="#a6aebf"
         offset="1"
         id="stop34" /></linearGradient><linearGradient
       id="linearGradient1457"
       x1="144.66"
       x2="174.56"
       y1="55.562"
       y2="55.562"
       gradientTransform="matrix(1.9355,0,0,1.9355,-277.028,-125.79171)"
       gradientUnits="userSpaceOnUse"><stop
         stop-color="#7b88a1"
         offset="0"
         id="stop35" /><stop
         stop-color="#a6aebf"
         offset=".056041"
         id="stop36" /><stop
         stop-color="#4c566a"
         offset=".11456"
         id="stop37" /><stop
         stop-color="#7b88a1"
         offset=".50498"
         id="stop38" /><stop
         stop-color="#4c566a"
         offset=".91543"
         id="stop39" /><stop
         stop-color="#a6aebf"
         offset=".96193"
         id="stop40" /><stop
         stop-color="#7b88a1"
         offset="1"
         id="stop41" /></linearGradient></defs><sodipodi:namedview
     id="namedview12"
     pagecolor="#ffffff"
     bordercolor="#000000"
     borderopacity="0.25"
     inkscape:showpageshadow="2"
     inkscape:pageopacity="0.0"
     inkscape:pagecheckerboard="0"
     inkscape:deskcolor="#d1d1d1"
     showgrid="true"
     inkscape:zoom="3.1937817"
     inkscape:cx="27.08388"
     inkscape:cy="-35.381254"
     inkscape:window-width="1920"
     inkscape:window-height="1025"
     inkscape:window-x="1920"
     inkscape:window-y="26"
     inkscape:window-maximized="1"
     inkscape:current-layer="svg12"><inkscape:grid
       id="grid12"
       units="px"
       originx="0"
       originy="0"
       spacingx="1"
       spacingy="1"
       empcolor="#0099e5"
       empopacity="0.30196078"
       color="#0099e5"
       opacity="0.14901961"
       empspacing="5"
       dotted="false"
       gridanglex="30"
       gridanglez="30"
       visible="true" /></sodipodi:namedview><path
     fill="#967adc"
     d="m 53.660446,54.80101 c 0,2.518174 -2.042369,4.558834 -4.560544,4.558834 H 14.900098 c -2.518175,0 -4.560544,-2.04066 -4.560544,-4.558834 V 11.480972 c 0,-2.5190292 2.042262,-4.5605438 4.560544,-4.5605438 h 34.199804 c 2.518175,0 4.560544,2.0415146 4.560544,4.5605438 z"
     data-original="#967adc"
     id="path1"
     style="stroke-width:0.106874;fill:url(#linearGradient2);fill-opacity:1" /><path
     fill="#ac92eb"
     d="m 53.660446,52.519883 c 0,2.518174 -2.042262,4.560544 -4.560544,4.560544 H 14.900098 c -2.518175,0 -4.560544,-2.042263 -4.560544,-4.560544 V 9.2007002 c 0,-2.5182813 2.042369,-4.560544 4.560544,-4.560544 h 34.199804 c 2.518175,0 4.560544,2.0422627 4.560544,4.560544 z"
     data-original="#ac92eb"
     class=""
     id="path2"
     style="stroke-width:0.106874;fill:url(#linearGradient14);fill-opacity:1" /><path
     fill="#e6e9ed"
     d="m 32,43.400505 c -4.263326,0 -8.271116,-1.659866 -11.285294,-4.674045 -3.014179,-3.015888 -4.674045,-7.022716 -4.674045,-11.286149 0,-4.262471 1.659866,-8.271116 4.674045,-11.285294 C 23.728884,13.140838 27.736674,11.480972 32,11.480972 c 4.263326,0 8.271116,1.659866 11.285294,4.674045 3.014179,3.014178 4.674045,7.022823 4.674045,11.285294 0,4.263326 -1.659866,8.270261 -4.674045,11.286149 C 40.271116,41.740639 36.263326,43.400505 32,43.400505 Z"
     data-original="#e6e9ed"
     class=""
     id="path3"
     style="stroke-width:0.106874" /><path
     fill="#ccd1d9"
     d="m 32,10.340409 c -9.443314,0 -17.099902,7.655733 -17.099902,17.099902 0,9.444169 7.656588,17.100757 17.099902,17.100757 9.443314,0 17.099902,-7.656588 17.099902,-17.100757 0,-9.444169 -7.656588,-17.099902 -17.099902,-17.099902 z m 10.478713,27.57947 c -1.360938,1.360939 -2.945672,2.429683 -4.710809,3.177803 -1.825201,0.771527 -3.765719,1.162259 -5.767904,1.162259 -2.002185,0 -3.942703,-0.390732 -5.767904,-1.162259 -1.765137,-0.74812 -3.349871,-1.816864 -4.710809,-3.177803 -1.362649,-1.360831 -2.431393,-2.947382 -3.177803,-4.711664 -0.771527,-1.825201 -1.163969,-3.765612 -1.163969,-5.767904 0,-2.001437 0.392442,-3.941848 1.163969,-5.767904 0.74641,-1.764282 1.815154,-3.349016 3.177803,-4.710809 1.360938,-1.361794 2.945672,-2.431393 4.710809,-3.177055 1.825201,-0.772381 3.765612,-1.163969 5.767904,-1.163969 2.002185,0 3.942703,0.391588 5.767904,1.163969 1.765244,0.745662 3.349871,1.815154 4.710809,3.177055 1.362649,1.361793 2.431393,2.946527 3.177803,4.710809 0.771527,1.826056 1.163969,3.766467 1.163969,5.767904 0,2.002185 -0.392442,3.942703 -1.163969,5.767904 -0.74641,1.764176 -1.815154,3.350619 -3.177803,4.711664 z"
     data-original="#ccd1d9"
     class=""
     id="path4"
     style="stroke-width:0.106874;fill:#959ca8;fill-opacity:1" /><path
     fill="#434a54"
     d="m 50.240466,9.2007002 c 0,0.629597 -0.510967,1.1397088 -1.140564,1.1397088 -0.629597,0 -1.140563,-0.5101118 -1.140563,-1.1397088 0,-0.6295971 0.510966,-1.1405635 1.140563,-1.1405635 0.629597,0 1.140564,0.5109664 1.140564,1.1405635 z m 0,43.3191828 c 0,0.629597 -0.510967,1.140563 -1.140564,1.140563 -0.629597,0 -1.140563,-0.510966 -1.140563,-1.140563 0,-0.629597 0.510966,-1.138854 1.140563,-1.138854 0.629597,0 1.140564,0.509257 1.140564,1.138854 z"
     data-original="#434a54"
     id="path5"
     style="stroke-width:0.106874;fill:#434a54;fill-opacity:1" /><path
     fill="#5d9cec"
     d="m 32,32.000855 c -2.514861,0 -4.560544,-2.045683 -4.560544,-4.560544 0,-2.514006 2.045683,-4.559689 4.560544,-4.559689 2.514861,0 4.560544,2.045683 4.560544,4.559689 0,2.514861 -2.045683,4.560544 -4.560544,4.560544 z"
     data-original="#5d9cec"
     id="path6"
     style="stroke-width:0.106874;fill:#e6e9ed;fill-opacity:1" /><path
     fill="#4a89dc"
     d="m 32,22.879853 c -2.518783,0 -4.560543,2.04176 -4.560543,4.560544 0,2.518783 2.04176,4.561228 4.560543,4.561228 2.518783,0 4.560544,-2.042445 4.560544,-4.561228 0,-2.518784 -2.041761,-4.560544 -4.560544,-4.560544 z m 0,7.297144 c -1.508636,0 -2.736599,-1.227366 -2.736599,-2.7366 0,-1.508637 1.227963,-2.7366 2.736599,-2.7366 1.508636,0 2.7366,1.227963 2.7366,2.7366 0,1.509234 -1.227964,2.7366 -2.7366,2.7366 z"
     data-original="#4a89dc"
     id="path7"
     style="fill:#979da9;fill-opacity:1;stroke-width:0.0855184" /><path
     fill="#434a54"
     d="m 16.040661,9.2007002 c 0,0.629597 -0.510966,1.1397088 -1.140563,1.1397088 -0.629597,0 -1.140564,-0.5101118 -1.140564,-1.1397088 0,-0.6295971 0.510967,-1.1405635 1.140564,-1.1405635 0.629597,0 1.140563,0.5109664 1.140563,1.1405635 z"
     data-original="#434a54"
     id="path8"
     style="stroke-width:0.106874;fill:#434a54;fill-opacity:1" /><path
     fill="#434a54"
     d="m 33.140564,27.440311 c 0,0.629597 -0.510967,1.140564 -1.140564,1.140564 -0.629597,0 -1.140563,-0.510967 -1.140563,-1.140564 0,-0.629597 0.510966,-1.139708 1.140563,-1.139708 0.629597,0 1.140564,0.510111 1.140564,1.139708 z"
     data-original="#434a54"
     id="path10"
     style="stroke-width:0.106874;fill:#434a54;fill-opacity:1" /><g
     fill="#967adc"
     id="g11"
     transform="matrix(0.10687439,0,0,0.10687439,4.6401562,4.6401562)"
     style="fill:#979da9;fill-opacity:1"><path
       d="m 306.203,419.125 c -4.156,-4.156 -10.906,-4.156 -15.078,0 A 10.684,10.684 0 0 0 288,426.687 v 31.969 c 0,2.75 1.047,5.469 3.125,7.562 4.172,4.156 10.922,4.156 15.078,0 a 10.608,10.608 0 0 0 3.125,-7.547 v -32 c 0,-2.733 -1.031,-5.452 -3.125,-7.546 z m 32,0 c -4.156,-4.156 -10.906,-4.156 -15.078,0 A 10.684,10.684 0 0 0 320,426.687 v 31.969 c 0,2.75 1.047,5.469 3.125,7.562 4.172,4.156 10.922,4.156 15.078,0 a 10.608,10.608 0 0 0 3.125,-7.547 v -32 c 0,-2.733 -1.031,-5.452 -3.125,-7.546 z m 35.125,7.563 c 0,-2.75 -1.031,-5.469 -3.125,-7.562 -4.156,-4.156 -10.922,-4.156 -15.078,0 A 10.684,10.684 0 0 0 352,426.688 v 31.97 c 0,2.75 1.047,5.469 3.125,7.562 4.156,4.156 10.922,4.156 15.078,0 a 10.617,10.617 0 0 0 3.125,-7.562 z"
       fill="#967adc"
       data-original="#967adc"
       id="path11"
       style="fill:#979da9;fill-opacity:1" /></g><path
     fill="#e6e9ed"
     d="m 14.297219,38.839961 h -3.957665 v 13.679922 c 0,2.518174 2.042262,4.560544 4.560544,4.560544 H 32 V 48.261 c -7.300803,0 -13.760078,-3.900336 -17.702781,-9.421039 z"
     data-original="#e6e9ed"
     class=""
     id="path9"
     style="fill:#979da9;fill-opacity:1;stroke-width:0.106874"
     sodipodi:nodetypes="ccssccc" /><path
     fill="#434a54"
     d="M 22.8391,49.915388 35.615832,35.768947 a 1.1423804,1.1423804 0 0 0 0.319451,-0.718244 c 0.04216,-0.626471 -0.43334,-1.170595 -1.061516,-1.212872 a 1.1264561,1.1264561 0 0 0 -0.752973,0.220435 L 18.388301,44.824109 c -0.883267,0.564828 -1.495228,1.526249 -1.570912,2.650802 -0.126939,1.886128 1.29819,3.515088 3.182611,3.641911 1.126366,0.07581 2.161011,-0.401817 2.8391,-1.201434 z"
     data-original="#434a54"
     id="path12"
     style="stroke-width:0.106874" /><path
     fill="#434a54"
     d="M 21.281127,47.859436 C 21.281127,48.489033 20.77016,49 20.140563,49 19.510966,49 19,48.489033 19,47.859436 c 0,-0.629597 0.510966,-1.139708 1.140563,-1.139708 0.629597,0 1.140564,0.510111 1.140564,1.139708 z"
     data-original="#434a54"
     id="path13"
     style="fill:#ffffff;fill-opacity:1;stroke-width:0.106874" /></svg>
