<?xml version="1.0" encoding="UTF-8" standalone="no"?>
<svg
   version="1.1"
   width="48"
   height="48"
   x="0"
   y="0"
   viewBox="0 0 48 48"
   xml:space="preserve"
   class=""
   id="svg39"
   sodipodi:docname="firefox.svg"
   inkscape:version="1.3.2 (091e20ef0f, 2023-11-25, custom)"
   xmlns:inkscape="http://www.inkscape.org/namespaces/inkscape"
   xmlns:sodipodi="http://sodipodi.sourceforge.net/DTD/sodipodi-0.dtd"
   xmlns="http://www.w3.org/2000/svg"
   xmlns:svg="http://www.w3.org/2000/svg"><defs
     id="defs39" /><sodipodi:namedview
     id="namedview39"
     pagecolor="#ffffff"
     bordercolor="#000000"
     borderopacity="0.25"
     inkscape:showpageshadow="2"
     inkscape:pageopacity="0.0"
     inkscape:pagecheckerboard="0"
     inkscape:deskcolor="#d1d1d1"
     showgrid="true"
     inkscape:zoom="8.4977212"
     inkscape:cx="37.657154"
     inkscape:cy="33.420725"
     inkscape:window-width="1920"
     inkscape:window-height="1013"
     inkscape:window-x="0"
     inkscape:window-y="36"
     inkscape:window-maximized="1"
     inkscape:current-layer="svg39"><inkscape:grid
       id="grid39"
       units="px"
       originx="0"
       originy="0"
       spacingx="1"
       spacingy="1"
       empcolor="#0099e5"
       empopacity="0.30196078"
       color="#0099e5"
       opacity="0.14901961"
       empspacing="5"
       dotted="false"
       gridanglex="30"
       gridanglez="30"
       visible="true" /></sodipodi:namedview><g
     id="g39"
     transform="matrix(0.09687369,0,0,0.09374786,-0.80007981,1.5960494e-4)"><linearGradient
       id="a"
       x1="-678.69098"
       x2="-679.495"
       y1="6127.4849"
       y2="6126.6841"
       gradientTransform="matrix(480.0036,0,0,-495.9987,326214.75,3039304)"
       gradientUnits="userSpaceOnUse"><stop
         offset=".05"
         style="stop-color:#FFF339"
         stop-color="#fff339"
         id="stop1" /><stop
         offset=".37"
         style="stop-color:#FF9800"
         stop-color="#ff9800"
         id="stop2" /><stop
         offset=".53"
         style="stop-color:#FF3346"
         stop-color="#ff3346"
         id="stop3" /><stop
         offset=".7"
         style="stop-color:#FF0D8A"
         stop-color="#ff0d8a"
         id="stop4" /></linearGradient><path
       d="m 485.903,171.728 c -10.782,-25.935 -32.619,-53.934 -49.767,-62.783 13.956,27.36 22.034,54.806 25.12,75.289 0,0.04 0.016,0.14 0.049,0.413 -28.052,-69.918 -75.617,-98.111 -114.458,-159.498 -1.961,-3.104 -3.928,-6.216 -5.844,-9.497 a 75.873,75.873 0 0 1 -2.731,-5.132 45.134,45.134 0 0 1 -3.709,-9.813 0.647,0.647 0 0 0 -0.564,-0.665 0.84,0.84 0 0 0 -0.466,0 c -0.035,0.012 -0.087,0.053 -0.124,0.067 -0.055,0.022 -0.429,0.244 -0.412,0.224 -62.318,36.497 -83.125,103.75 -85.068,137.529 a 124.13,124.13 0 0 0 -68.276,26.31 73.714,73.714 0 0 0 -6.426,-4.852 114.934,114.934 0 0 1 -0.696,-60.627 c -25.484,11.604 -45.306,29.946 -59.716,46.142 H 112.7 c -9.834,-12.456 -9.141,-53.546 -8.58,-62.125 -0.118,-0.532 -7.336,3.747 -8.282,4.392 a 180.692,180.692 0 0 0 -24.244,20.769 217.21,217.21 0 0 0 -23.166,27.781 c 0,0.012 -0.007,0.027 -0.011,0.039 0,-0.013 0.007,-0.027 0.011,-0.039 a 209.376,209.376 0 0 0 -33.287,75.154 c -0.119,0.538 -0.219,1.095 -0.334,1.637 -0.467,2.184 -2.147,13.11 -2.441,15.484 -0.023,0.183 -0.033,0.358 -0.055,0.541 a 236.46,236.46 0 0 0 -4.026,34.227 c 0,0.423 -0.026,0.842 -0.026,1.267 0.006,136.995 111.077,248.048 248.083,248.048 122.7,0 224.579,-89.072 244.524,-206.07 0.42,-3.175 0.757,-6.367 1.127,-9.57 4.931,-42.54 -0.547,-87.252 -16.09,-124.642 z M 199.972,365.89 c 1.16,0.554 2.25,1.16 3.442,1.692 0.05,0.034 0.118,0.072 0.168,0.103 a 127.536,127.536 0 0 1 -3.61,-1.795 z m 261.352,-181.182 -0.033,-0.241 c 0.012,0.088 0.028,0.18 0.041,0.267 z"
       style="fill:url(#a)"
       fill=""
       id="path4" /><radialGradient
       id="b"
       cx="-678.33301"
       cy="6130.6401"
       r="1.321"
       gradientTransform="matrix(384.0014,0,0,-390.468,260923.64,2393927.7)"
       gradientUnits="userSpaceOnUse"><stop
         offset=".13"
         style="stop-color:#FFBD44"
         stop-color="#ffbd44"
         id="stop5" /><stop
         offset=".28"
         style="stop-color:#FF9800"
         stop-color="#ff9800"
         id="stop6" /><stop
         offset=".47"
         style="stop-color:#FF3450"
         stop-color="#ff3450"
         id="stop7" /><stop
         offset=".78"
         style="stop-color:#FF027B"
         stop-color="#ff027b"
         id="stop8" /><stop
         offset=".86"
         style="stop-color:#FF0083"
         stop-color="#ff0083"
         id="stop9" /></radialGradient><path
       d="m 485.903,171.728 c -10.782,-25.935 -32.619,-53.934 -49.767,-62.783 13.956,27.36 22.034,54.806 25.12,75.289 0,-0.06 0.011,0.05 0.037,0.233 0.012,0.088 0.028,0.18 0.041,0.267 23.406,63.453 10.655,127.978 -7.72,167.407 C 425.187,413.148 356.36,475.672 248.632,472.622 132.239,469.327 29.7,382.965 10.559,269.852 c -3.488,-17.837 0,-26.894 1.755,-41.377 -2.138,11.165 -2.952,14.39 -4.026,34.227 0,0.423 -0.026,0.842 -0.026,1.267 0.003,136.988 111.074,248.041 248.08,248.041 122.7,0 224.579,-89.072 244.524,-206.07 0.42,-3.175 0.757,-6.367 1.127,-9.57 4.931,-42.54 -0.547,-87.252 -16.09,-124.642 z"
       style="fill:url(#b)"
       fill=""
       id="path9" /><radialGradient
       id="c"
       cx="-678.77502"
       cy="6130.0981"
       r="1.321"
       gradientTransform="matrix(393.6014,0,0,-390.468,267417.78,2393877.5)"
       gradientUnits="userSpaceOnUse"><stop
         offset=".3"
         style="stop-color:#AF0611"
         stop-color="#af0611"
         id="stop10" /><stop
         offset=".35"
         style="stop-color:#CE1223;stop-opacity:0.74"
         stop-color="#ce1223;stop-opacity:0.74"
         id="stop11" /><stop
         offset=".43"
         style="stop-color:#FD243B;stop-opacity:0.34"
         stop-color="#fd243b;stop-opacity:0.34"
         id="stop12" /><stop
         offset=".5"
         style="stop-color:#FF304B;stop-opacity:0.09"
         stop-color="#ff304b;stop-opacity:0.09"
         id="stop13" /><stop
         offset=".53"
         style="stop-color:#FF3450;stop-opacity:0"
         stop-color="#ff3450;stop-opacity:0"
         id="stop14" /></radialGradient><path
       d="m 485.903,171.728 c -10.782,-25.935 -32.619,-53.934 -49.767,-62.783 13.956,27.36 22.034,54.806 25.12,75.289 0,-0.06 0.011,0.05 0.037,0.233 0.012,0.088 0.028,0.18 0.041,0.267 23.406,63.453 10.655,127.978 -7.72,167.407 C 425.187,413.148 356.36,475.672 248.632,472.622 132.239,469.327 29.7,382.965 10.559,269.852 c -3.488,-17.837 0,-26.894 1.755,-41.377 -2.138,11.165 -2.952,14.39 -4.026,34.227 0,0.423 -0.026,0.842 -0.026,1.267 0.003,136.988 111.074,248.041 248.08,248.041 122.7,0 224.579,-89.072 244.524,-206.07 0.42,-3.175 0.757,-6.367 1.127,-9.57 4.931,-42.54 -0.547,-87.252 -16.09,-124.642 z"
       style="fill:url(#c)"
       fill=""
       id="path14" /><radialGradient
       id="d"
       cx="-674.59302"
       cy="6144.0962"
       r="1.4450001"
       gradientTransform="matrix(115.236,0,0,-195.642,78042.39,1202019.4)"
       gradientUnits="userSpaceOnUse"><stop
         offset=".13"
         style="stop-color:#FFF339"
         stop-color="#fff339"
         id="stop15" /><stop
         offset=".53"
         style="stop-color:#FF9800"
         stop-color="#ff9800"
         id="stop16" /></radialGradient><path
       d="m 365.346,200.886 c 0.541,0.38 1.032,0.758 1.541,1.135 A 134.915,134.915 0 0 0 343.857,171.97 C 266.743,94.865 333.043,0.322 333.061,0.302 270.743,36.799 249.877,104.08 247.934,137.858 c 2.89,-0.2 5.773,-0.443 8.714,-0.443 46.504,0.001 87.008,25.57 108.698,63.471 z"
       style="fill:url(#d)"
       fill=""
       id="path16" /><radialGradient
       id="e"
       cx="-677.586"
       cy="6138.3989"
       r="1.0319999"
       gradientTransform="matrix(213.483,0,0,-233.9799,144848.3,1436665.5)"
       gradientUnits="userSpaceOnUse"><stop
         offset=".35"
         style="stop-color:#008EE9"
         stop-color="#008ee9"
         id="stop17" /><stop
         offset=".67"
         style="stop-color:#A059FF"
         stop-color="#a059ff"
         id="stop18" /><stop
         offset="1"
         style="stop-color:#DF36EA"
         stop-color="#df36ea"
         id="stop19" /></radialGradient><path
       d="m 256.804,216.282 c -0.406,6.171 -22.208,27.451 -29.832,27.451 -70.544,0 -81.995,42.669 -81.995,42.669 3.125,35.933 28.14,65.523 58.437,81.18 1.382,0.714 2.781,1.359 4.181,1.997 2.4,1.063 4.83,2.056 7.287,2.979 a 110.197,110.197 0 0 0 32.28,6.226 c 123.644,5.799 147.599,-147.814 58.369,-192.422 22.851,-3.974 46.57,5.216 59.816,14.521 -21.69,-37.898 -62.194,-63.468 -108.697,-63.468 -2.942,0 -5.823,0.243 -8.714,0.443 a 124.13,124.13 0 0 0 -68.276,26.31 c 3.782,3.2 8.052,7.478 17.047,16.339 16.828,16.585 60.005,33.76 60.097,35.775 z"
       style="fill:url(#e)"
       fill=""
       id="path19" /><radialGradient
       id="f"
       cx="-676.93201"
       cy="6139.1958"
       r="0.60900003"
       gradientTransform="matrix(192.1347,0,0,-233.9799,130310.27,1436665.5)"
       gradientUnits="userSpaceOnUse"><stop
         offset=".21"
         style="stop-color:#A059FF;stop-opacity:0"
         stop-color="#a059ff;stop-opacity:0"
         id="stop20" /><stop
         offset=".97"
         style="stop-color:#80008E;stop-opacity:0.6"
         stop-color="#80008e;stop-opacity:0.6"
         id="stop21" /></radialGradient><path
       d="m 256.804,216.282 c -0.406,6.171 -22.208,27.451 -29.832,27.451 -70.544,0 -81.995,42.669 -81.995,42.669 3.125,35.933 28.14,65.523 58.437,81.18 1.382,0.714 2.781,1.359 4.181,1.997 2.4,1.063 4.83,2.056 7.287,2.979 a 110.197,110.197 0 0 0 32.28,6.226 c 123.644,5.799 147.599,-147.814 58.369,-192.422 22.851,-3.974 46.57,5.216 59.816,14.521 -21.69,-37.898 -62.194,-63.468 -108.697,-63.468 -2.942,0 -5.823,0.243 -8.714,0.443 a 124.13,124.13 0 0 0 -68.276,26.31 c 3.782,3.2 8.052,7.478 17.047,16.339 16.828,16.585 60.005,33.76 60.097,35.775 z"
       style="fill:url(#f)"
       fill=""
       id="path21" /><radialGradient
       id="g"
       cx="-667.26801"
       cy="6207.8062"
       r="2.994"
       gradientTransform="matrix(58.524,0,0,-58.732,39290.89,364634.91)"
       gradientUnits="userSpaceOnUse"><stop
         offset=".1"
         style="stop-color:#FFE200"
         stop-color="#ffe200"
         id="stop22" /><stop
         offset=".79"
         style="stop-color:#FF7232"
         stop-color="#ff7232"
         id="stop23" /></radialGradient><path
       d="m 168.088,155.917 a 255.436,255.436 0 0 1 5.142,3.406 114.934,114.934 0 0 1 -0.696,-60.627 c -25.484,11.604 -45.306,29.946 -59.716,46.142 1.192,-0.033 37.176,-0.681 55.27,11.079 z"
       style="fill:url(#g)"
       fill=""
       id="path23" /><radialGradient
       id="h"
       cx="-678.63202"
       cy="6131.3848"
       r="1.858"
       gradientTransform="matrix(450.1546,0,0,-377.8801,305889,2316851.2)"
       gradientUnits="userSpaceOnUse"><stop
         offset=".11"
         style="stop-color:#FFF339"
         stop-color="#fff339"
         id="stop24" /><stop
         offset=".46"
         style="stop-color:#FF9800"
         stop-color="#ff9800"
         id="stop25" /><stop
         offset=".72"
         style="stop-color:#FF3346"
         stop-color="#ff3346"
         id="stop26" /><stop
         offset=".9"
         style="stop-color:#FF0D8A"
         stop-color="#ff0d8a"
         id="stop27" /></radialGradient><path
       d="m 10.559,269.852 c 19.141,113.113 121.68,199.475 238.073,202.771 107.728,3.049 176.555,-59.479 204.982,-120.481 18.374,-39.432 31.127,-103.949 7.72,-167.407 l -0.008,-0.027 -0.033,-0.24 c -0.026,-0.184 -0.041,-0.293 -0.037,-0.233 0,0.04 0.016,0.14 0.049,0.413 8.799,57.457 -20.428,113.119 -66.117,150.756 l -0.137,0.323 c -89.027,72.488 -174.219,43.735 -191.468,31.965 a 148.077,148.077 0 0 1 -3.613,-1.799 c -51.904,-24.804 -73.346,-72.091 -68.749,-112.644 -43.827,0 -58.771,-36.964 -58.771,-36.964 0,0 39.349,-28.056 91.209,-3.655 48.031,22.599 93.139,3.657 93.144,3.655 -0.092,-2.015 -43.269,-19.19 -60.101,-35.774 -8.994,-8.861 -13.265,-13.133 -17.047,-16.339 a 73.714,73.714 0 0 0 -6.426,-4.852 287.543,287.543 0 0 0 -5.142,-3.406 c -18.093,-11.76 -54.078,-11.112 -55.27,-11.081 h -0.115 c -9.834,-12.456 -9.141,-53.546 -8.58,-62.126 -0.118,-0.532 -7.336,3.747 -8.282,4.392 A 180.765,180.765 0 0 0 71.596,107.868 217.265,217.265 0 0 0 48.43,135.655 c 0,0.012 -0.007,0.027 -0.011,0.039 0,-0.013 0.007,-0.027 0.011,-0.039 a 209.376,209.376 0 0 0 -33.287,75.154 c -0.119,0.536 -8.93,39.061 -4.584,59.043 z"
       style="fill:url(#h)"
       fill=""
       id="path27" /><radialGradient
       id="i"
       cx="-714.737"
       cy="6125.2212"
       r="3.6010001"
       gradientTransform="matrix(16.0845,151.871,153.0334,-15.9623,-925538.25,206256.94)"
       gradientUnits="userSpaceOnUse"><stop
         offset="0"
         style="stop-color:#FFF339"
         stop-color="#fff339"
         id="stop28" /><stop
         offset=".3"
         style="stop-color:#FF9800"
         stop-color="#ff9800"
         id="stop29" /><stop
         offset=".57"
         style="stop-color:#FF3346"
         stop-color="#ff3346"
         id="stop30" /><stop
         offset=".74"
         style="stop-color:#FF0D8A"
         stop-color="#ff0d8a"
         id="stop31" /></radialGradient><path
       d="m 343.858,171.97 a 134.915,134.915 0 0 1 23.03,30.051 c 1.366,1.026 2.642,2.049 3.724,3.047 56.24,51.819 26.773,125.11 24.575,130.333 45.689,-37.636 74.916,-93.299 66.117,-150.756 -28.052,-69.917 -75.617,-98.11 -114.458,-159.497 -1.961,-3.104 -3.928,-6.216 -5.844,-9.497 a 75.873,75.873 0 0 1 -2.731,-5.132 45.134,45.134 0 0 1 -3.709,-9.813 0.647,0.647 0 0 0 -0.564,-0.665 c -0.152,-0.044 -0.241,-0.061 -0.394,-0.017 -0.035,0.012 -0.159,0.07 -0.196,0.084 -0.055,0.022 -0.123,0.073 -0.182,0.103 -9.446,4.862 -66.483,94.654 10.632,171.759 z"
       style="fill:url(#i)"
       fill=""
       id="path31" /><radialGradient
       id="j"
       cx="-677.31702"
       cy="6144.9341"
       r="2.461"
       gradientTransform="matrix(195.1418,0,0,-191.7138,132414.38,1178169.9)"
       gradientUnits="userSpaceOnUse"><stop
         offset=".14"
         style="stop-color:#FFF339"
         stop-color="#fff339"
         id="stop32" /><stop
         offset=".48"
         style="stop-color:#FF9800"
         stop-color="#ff9800"
         id="stop33" /><stop
         offset=".66"
         style="stop-color:#FF3346"
         stop-color="#ff3346"
         id="stop34" /><stop
         offset=".9"
         style="stop-color:#FF0D8A"
         stop-color="#ff0d8a"
         id="stop35" /></radialGradient><path
       d="m 370.612,205.068 c -1.083,-0.998 -2.359,-2.021 -3.724,-3.047 -0.505,-0.38 -1,-0.758 -1.541,-1.135 -13.246,-9.305 -36.965,-18.495 -59.816,-14.521 89.23,44.608 65.275,198.221 -58.369,192.422 a 110.164,110.164 0 0 1 -32.28,-6.226 138.74,138.74 0 0 1 -7.287,-2.979 c -1.4,-0.638 -2.798,-1.283 -4.181,-1.997 0.05,0.034 0.118,0.072 0.168,0.103 17.249,11.768 102.441,40.523 191.468,-31.965 l 0.137,-0.323 c 2.198,-5.218 31.664,-78.511 -24.575,-130.332 z"
       style="fill:url(#j)"
       fill=""
       id="path35" /><radialGradient
       id="k"
       cx="-675.57098"
       cy="6150.4468"
       r="3.2320001"
       gradientTransform="matrix(178.5936,0,0,-159.7733,121018.77,982806.13)"
       gradientUnits="userSpaceOnUse"><stop
         offset=".09"
         style="stop-color:#FFF339"
         stop-color="#fff339"
         id="stop36" /><stop
         offset=".63"
         style="stop-color:#FF9800"
         stop-color="#ff9800"
         id="stop37" /></radialGradient><path
       d="m 144.976,286.402 c 0,0 11.451,-42.669 81.995,-42.669 7.626,0 29.429,-21.28 29.832,-27.451 0.404,-6.171 -45.11,18.944 -93.144,-3.655 -51.86,-24.401 -91.209,3.655 -91.209,3.655 0,0 14.944,36.964 58.771,36.964 -4.597,40.553 16.845,87.845 68.749,112.644 1.16,0.554 2.25,1.16 3.441,1.692 -30.294,-15.657 -55.31,-45.247 -58.435,-81.18 z"
       style="fill:url(#k)"
       fill=""
       id="path37" /><linearGradient
       id="l"
       x1="-678.742"
       x2="-679.38202"
       y1="6127.48"
       y2="6126.7568"
       gradientTransform="matrix(479.9996,0,0,-495.9987,326212,3039304)"
       gradientUnits="userSpaceOnUse"><stop
         offset=".17"
         style="stop-color:#FFF339;stop-opacity:0.8"
         stop-color="#fff339;stop-opacity:0.8"
         id="stop38" /><stop
         offset=".6"
         style="stop-color:#FFF339;stop-opacity:0"
         stop-color="#fff339;stop-opacity:0"
         id="stop39" /></linearGradient><path
       d="m 485.903,171.728 c -10.782,-25.935 -32.619,-53.934 -49.767,-62.783 13.956,27.36 22.034,54.806 25.12,75.289 0,0.04 0.016,0.14 0.049,0.413 -28.052,-69.918 -75.617,-98.111 -114.458,-159.498 -1.961,-3.104 -3.928,-6.216 -5.844,-9.497 a 75.873,75.873 0 0 1 -2.731,-5.132 45.134,45.134 0 0 1 -3.709,-9.813 0.647,0.647 0 0 0 -0.564,-0.665 c -0.152,-0.044 -0.241,-0.061 -0.394,-0.017 -0.035,0.012 -0.159,0.07 -0.196,0.084 a 3.996,3.996 0 0 0 -0.276,0.149 c -64.085,38.36 -83.261,103.826 -85.204,137.604 2.89,-0.2 5.772,-0.443 8.714,-0.443 46.506,0 87.01,25.569 108.697,63.468 -13.246,-9.305 -36.965,-18.495 -59.816,-14.521 89.23,44.608 65.275,198.221 -58.369,192.422 a 110.196,110.196 0 0 1 -32.28,-6.225 138.74,138.74 0 0 1 -7.287,-2.979 c -1.4,-0.638 -2.798,-1.283 -4.181,-1.997 0.05,0.034 0.118,0.072 0.168,0.103 a 148.077,148.077 0 0 1 -3.613,-1.799 c 1.16,0.554 2.25,1.16 3.442,1.692 -30.297,-15.657 -55.313,-45.247 -58.437,-81.18 0,0 11.451,-42.669 81.995,-42.669 7.626,0 29.429,-21.28 29.832,-27.451 -0.092,-2.015 -43.269,-19.19 -60.101,-35.774 -8.994,-8.861 -13.265,-13.133 -17.047,-16.339 a 73.714,73.714 0 0 0 -6.426,-4.852 114.934,114.934 0 0 1 -0.696,-60.627 c -25.484,11.604 -45.306,29.946 -59.716,46.142 h -0.115 c -9.834,-12.456 -9.141,-53.546 -8.58,-62.126 -0.118,-0.532 -7.336,3.747 -8.282,4.392 a 180.692,180.692 0 0 0 -24.244,20.769 217.335,217.335 0 0 0 -23.159,27.784 c 0,0.012 -0.007,0.027 -0.011,0.039 0,-0.013 0.007,-0.027 0.011,-0.039 a 209.376,209.376 0 0 0 -33.287,75.154 c -0.119,0.538 -0.219,1.095 -0.334,1.637 -0.467,2.184 -2.566,13.268 -2.859,15.645 -0.023,0.183 0.022,-0.182 0,0 A 288.512,288.512 0 0 0 8.29,262.7 c 0,0.423 -0.026,0.842 -0.026,1.267 0,136.989 111.071,248.042 248.077,248.042 122.7,0 224.579,-89.072 244.524,-206.07 0.42,-3.175 0.757,-6.367 1.127,-9.57 4.932,-42.539 -0.546,-87.251 -16.089,-124.641 z m -24.61,12.739 c 0.012,0.088 0.028,0.18 0.041,0.267 l -0.008,-0.027 z"
       style="fill:url(#l)"
       fill=""
       id="path39" /></g></svg>
