<?xml version="1.0" encoding="UTF-8" standalone="no"?>
<svg
   id="SvgjsSvg1074"
   width="48"
   height="48"
   version="1.1"
   sodipodi:docname="gimp.svg"
   inkscape:version="1.3.2 (091e20ef0f, 2023-11-25, custom)"
   xmlns:inkscape="http://www.inkscape.org/namespaces/inkscape"
   xmlns:sodipodi="http://sodipodi.sourceforge.net/DTD/sodipodi-0.dtd"
   xmlns="http://www.w3.org/2000/svg"
   xmlns:svg="http://www.w3.org/2000/svg">
  <sodipodi:namedview
     id="namedview32"
     pagecolor="#ffffff"
     bordercolor="#000000"
     borderopacity="0.25"
     inkscape:showpageshadow="2"
     inkscape:pageopacity="0.0"
     inkscape:pagecheckerboard="0"
     inkscape:deskcolor="#d1d1d1"
     showgrid="true"
     inkscape:zoom="15.441679"
     inkscape:cx="21.856432"
     inkscape:cy="22.277371"
     inkscape:window-width="1920"
     inkscape:window-height="1013"
     inkscape:window-x="0"
     inkscape:window-y="36"
     inkscape:window-maximized="1"
     inkscape:current-layer="SvgjsSvg1074">
    <inkscape:grid
       id="grid32"
       units="px"
       originx="0"
       originy="0"
       spacingx="1"
       spacingy="1"
       empcolor="#0099e5"
       empopacity="0.30196078"
       color="#0099e5"
       opacity="0.14901961"
       empspacing="5"
       dotted="false"
       gridanglex="30"
       gridanglez="30"
       visible="true" />
  </sodipodi:namedview>
  <defs
     id="SvgjsDefs1075" />
  <g
     id="SvgjsG1076"
     transform="matrix(0.16868765,0,0,0.16868765,-0.1110947,0.66824667)">
    <svg
       viewBox="0 0 128 128"
       width="288"
       height="288"
       version="1.1"
       id="svg32">
      <radialGradient
         id="a"
         cx="359.38199"
         cy="134.83"
         r="50.57"
         gradientTransform="matrix(1,0,0,-0.435,-297.375,140.218)"
         gradientUnits="userSpaceOnUse">
        <stop
           offset="0"
           stop-color="#000000"
           class="stopColor000000 svgShape"
           id="stop1" />
        <stop
           offset="1"
           stop-opacity="0"
           stop-color="#000000"
           class="stopColor000000 svgShape"
           id="stop2" />
      </radialGradient>
      <path
         fill="url(#a)"
         d="m 112.6,81.6 c 0,12.1 -22.6,22 -50.6,22 -28,0 -50.6,-9.8 -50.6,-22 0,-12.2 22.6,-22 50.6,-22 28,0 50.6,9.8 50.6,22 z"
         id="path2"
         style="fill:url(#a)" />
      <radialGradient
         id="b"
         cx="201.74899"
         cy="230.895"
         r="53.284"
         gradientTransform="matrix(1.773,0,0,-1.297,-313.84,354.268)"
         gradientUnits="userSpaceOnUse">
        <stop
           offset="0"
           stop-color="#857c63"
           class="stopColor857C63 svgShape"
           id="stop3" />
        <stop
           offset="1"
           stop-color="#221f19"
           class="stopColor221F19 svgShape"
           id="stop4" />
      </radialGradient>
      <path
         fill="url(#b)"
         stroke="#2e3436"
         stroke-miterlimit="10"
         d="m 26.7,27.6 c 0,0 8,16.4 26.6,16 39.1,-1 45.9,-21.4 46.9,-24.3 1,-2.9 2.5,-2.5 2.8,0.2 12.7,115.6 -88.4,66 -92,46.3 C 31.1,60 26.2,48.7 26.2,48.7 Z"
         class="colorStroke2E3436 svgStroke"
         id="path4"
         style="fill:url(#b)" />
      <linearGradient
         id="c"
         x1="378.84399"
         x2="347.98401"
         y1="204.625"
         y2="198.502"
         gradientTransform="matrix(1,0,0,-1,-301.337,279.346)"
         gradientUnits="userSpaceOnUse">
        <stop
           offset="0"
           stop-color="#000000"
           class="stopColor000000 svgShape"
           id="stop5" />
        <stop
           offset="1"
           stop-opacity="0"
           stop-color="#000000"
           class="stopColor000000 svgShape"
           id="stop6" />
      </linearGradient>
      <path
         fill="url(#c)"
         d="m 41.5,76.4 c 18.7,3.7 28.2,0.3 33.7,-4 -1.5,-1.9 -4,-4 -4,-4 0,0 6.5,1.8 8.8,4.8 2.3,3 0.9,4.8 0.3,8.6 -1.3,-3.3 -3.8,-4.6 -4.2,-5.9 -4.9,6.9 -17.4,6.6 -34.6,0.5 z"
         id="path6"
         style="fill:url(#c)" />
      <linearGradient
         id="d"
         x1="348.04599"
         x2="413.38599"
         y1="240.776"
         y2="166.604"
         gradientTransform="matrix(1,0,0,-1,-297.5,279)"
         gradientUnits="userSpaceOnUse">
        <stop
           offset="0"
           stop-color="#ffffff"
           class="stopColorfff svgShape"
           id="stop7" />
        <stop
           offset="1"
           stop-color="#ffffff"
           stop-opacity="0"
           class="stopColorfff svgShape"
           id="stop8" />
      </linearGradient>
      <path
         fill="none"
         stroke="url(#d)"
         stroke-miterlimit="10"
         d="M 100.4,25.9 C 98.8,28.5 96.5,31.5 93,34.5 85.7,40.5 73.5,46 53.4,46.5 41.7,46.8 34.1,41.1 29.5,36.1 l -0.3,12.4 c 0.4,1.2 1.2,3.9 -0.2,7.5 -1.4,4 -6,8 -13.8,11.1 0.7,1.4 1.4,2.9 3.5,4.9 2.8,2.8 6.8,5.8 11.5,8.5 9.4,5.4 21.6,9.7 33,9.9 11.4,0.2 21.8,-3.4 28.9,-13.9 6.5,-9.6 10.2,-25.8 8.3,-50.6 z"
         enable-background="new"
         opacity="0.185"
         id="path8"
         style="stroke:url(#d)" />
      <radialGradient
         id="e"
         cx="259.173"
         cy="242.80901"
         r="9.7410002"
         gradientTransform="matrix(1.685,0,0,-1.685,-400.899,453.504)"
         gradientUnits="userSpaceOnUse">
        <stop
           offset="0"
           stop-color="#ffffff"
           class="stopColorfff svgShape"
           id="stop9" />
        <stop
           offset="1"
           stop-color="#b9b9b0"
           class="stopColorB9B9B0 svgShape"
           id="stop10" />
      </radialGradient>
      <path
         fill="url(#e)"
         stroke="#888a85"
         stroke-miterlimit="10"
         stroke-width="0.783"
         d="m 47,52.4 c 0,6.2 -5,11.3 -11.3,11.3 -6.3,0 -11.3,-5 -11.3,-11.3 0,-6.3 5,-11.3 11.3,-11.3 6.3,0 11.3,5 11.3,11.3 z"
         class="colorStroke888A85 svgStroke"
         id="path10"
         style="fill:url(#e)" />
      <radialGradient
         id="f"
         cx="274.25201"
         cy="84.307999"
         r="13.387"
         gradientTransform="matrix(0.797,-0.46,-0.537,-0.931,-163.086,262.495)"
         gradientUnits="userSpaceOnUse">
        <stop
           offset="0"
           stop-color="#5b676b"
           class="stopColor5B676B svgShape"
           id="stop11" />
        <stop
           offset="1"
           stop-color="#141718"
           class="stopColor141718 svgShape"
           id="stop12" />
      </radialGradient>
      <path
         fill="url(#f)"
         stroke="#000000"
         stroke-miterlimit="10"
         d="m 24.6,56.6 c 5.5,7.6 5.5,16.8 0.2,20.7 C 19.4,81.2 10.6,78.2 5.2,70.6 -0.3,63 -0.3,53.8 5,49.9 10.3,46 19.1,49 24.6,56.6 Z"
         class="colorStroke000 svgStroke"
         id="path12"
         style="fill:url(#f)" />
      <path
         fill="#2e3436"
         stroke="#000000"
         stroke-miterlimit="10"
         stroke-width="1.174"
         d="m 43.8,54 c 0,3 -2.4,5.4 -5.4,5.4 -3,0 -5.4,-2.4 -5.4,-5.4 0,-3 2.4,-5.4 5.4,-5.4 3,0 5.4,2.4 5.4,5.4 z"
         class="color2E3436 svgShape colorStroke000 svgStroke"
         id="path13" />
      <linearGradient
         id="g"
         x1="230.297"
         x2="229.46001"
         y1="47.32"
         y2="25.884001"
         gradientTransform="matrix(0.79863551,-0.60181502,-0.60181502,-0.79863551,-147.55636,232.19053)"
         gradientUnits="userSpaceOnUse">
        <stop
           offset="0"
           stop-color="#ffffff"
           class="stopColorfff svgShape"
           id="stop13" />
        <stop
           offset="1"
           stop-color="#ffffff"
           stop-opacity="0"
           class="stopColorfff svgShape"
           id="stop14" />
      </linearGradient>
      <path
         fill="none"
         stroke="url(#g)"
         stroke-miterlimit="10"
         d="M 5.9,52.4 C 4.2,53.7 3.2,56 3.3,59 c 0.1,3 1.3,6.8 3.8,10.1 2.5,3.3 5.7,5.5 8.6,6.4 2.9,0.9 5.3,0.7 7.1,-0.7 1.8,-1.3 2.7,-3.7 2.6,-6.7 -0.1,-3 -1.2,-6.7 -3.7,-10 -2.5,-3.3 -5.6,-5.4 -8.6,-6.4 -2.9,-0.9 -5.4,-0.6 -7.2,0.7 z"
         enable-background="new"
         opacity="0.281"
         id="path14"
         style="stroke:url(#g)" />
      <path
         fill="#ffffff"
         d="m 14.1,57.5 c 0,3.2 -2.2,5.9 -4.9,5.9 -2.7,0 -4.9,-2.6 -4.9,-5.9 0,-3.2 2.2,-5.9 4.9,-5.9 2.7,0 4.9,2.7 4.9,5.9 z m 25.9,-6 c 0,2.1 -1.7,3.8 -3.8,3.8 -2.1,0 -3.8,-1.7 -3.8,-3.8 0,-2.1 1.7,-3.8 3.8,-3.8 2.2,0.1 3.8,1.8 3.8,3.8 z"
         class="colorfff svgShape"
         id="path15" />
      <radialGradient
         id="h"
         cx="238.588"
         cy="244.87199"
         r="9.7410002"
         gradientTransform="matrix(1.978,0,0,-1.978,-412.858,528.573)"
         gradientUnits="userSpaceOnUse">
        <stop
           offset="0"
           stop-color="#ffffff"
           class="stopColorfff svgShape"
           id="stop15" />
        <stop
           offset="1"
           stop-color="#b9b9b0"
           class="stopColorB9B9B0 svgShape"
           id="stop16" />
      </radialGradient>
      <path
         fill="url(#h)"
         stroke="#888a85"
         stroke-miterlimit="10"
         stroke-width="0.667"
         d="m 72.2,53.6 c 0,7.3 -5.9,13.2 -13.2,13.2 -7.3,0 -13.2,-5.9 -13.2,-13.2 0,-7.3 5.9,-13.2 13.2,-13.2 7.3,0 13.2,5.9 13.2,13.2 z"
         class="colorStroke888A85 svgStroke"
         id="path16"
         style="fill:url(#h)" />
      <path
         fill="#2e3436"
         stroke="#000000"
         stroke-miterlimit="10"
         d="m 68.5,55.5 c 0,3.5 -2.9,6.4 -6.4,6.4 -3.5,0 -6.4,-2.9 -6.4,-6.4 0,-3.5 2.9,-6.4 6.4,-6.4 3.5,0.1 6.4,2.9 6.4,6.4 z"
         class="color2E3436 svgShape colorStroke000 svgStroke"
         id="path17" />
      <path
         fill="#ffffff"
         d="m 64.1,52.6 c 0,2.4 -2,4.4 -4.4,4.4 -2.4,0 -4.4,-2 -4.4,-4.4 0,-2.4 2,-4.4 4.4,-4.4 2.4,0 4.4,2 4.4,4.4 z"
         class="colorfff svgShape"
         id="path18" />
      <g
         transform="matrix(-0.115,-0.39,0.39,-0.115,24.715,29.689)"
         fill="#000000"
         class="color000 svgShape"
         id="g30">
        <linearGradient
           id="i"
           x1="1581.422"
           x2="1555.752"
           y1="-398.27399"
           y2="-420.60001"
           gradientTransform="matrix(-0.115,0.39,0.39,0.115,175.179,-456.047)"
           gradientUnits="userSpaceOnUse">
          <stop
             offset="0"
             stop-color="#6e3d09"
             class="stopColor6E3D09 svgShape"
             id="stop18" />
          <stop
             offset=".242"
             stop-color="#ea8113"
             class="stopColorEA8113 svgShape"
             id="stop19" />
          <stop
             offset=".621"
             stop-color="#5c3307"
             class="stopColor5C3307 svgShape"
             id="stop20" />
          <stop
             offset="1"
             stop-color="#e07c12"
             class="stopColorE07C12 svgShape"
             id="stop21" />
        </linearGradient>
        <path
           fill="url(#i)"
           stroke="#673907"
           stroke-linecap="round"
           stroke-width="2.461"
           d="m -201.5,132 10.3,9.6 c 23.1,-17.7 47.4,-55.7 47.4,-55.7 5.5,-6.2 -0.3,-10.4 -6,-6.6 0,0 -36,28 -51.7,52.7 z"
           class="colorStroke673907 svgStroke"
           id="path21"
           style="fill:url(#i)" />
        <linearGradient
           id="j"
           x1="1691.417"
           x2="1701.71"
           y1="-496.24301"
           y2="-486.71799"
           gradientTransform="matrix(-0.115,0.39,0.39,0.115,178.077,-459.728)"
           gradientUnits="userSpaceOnUse">
          <stop
             offset="0"
             stop-color="#bdbdbd"
             class="stopColorBDBDBD svgShape"
             id="stop22" />
          <stop
             offset=".333"
             stop-color="#e2e2e2"
             class="stopColorE2E2E2 svgShape"
             id="stop23" />
          <stop
             offset=".667"
             stop-color="#a3a3a3"
             class="stopColorA3A3A3 svgShape"
             id="stop24" />
          <stop
             offset="1"
             stop-color="#dddddd"
             class="stopColorddd svgShape"
             id="stop25" />
        </linearGradient>
        <path
           fill="url(#j)"
           stroke="#888a85"
           stroke-linecap="round"
           stroke-width="2.461"
           d="m -221.1,157.6 6.2,5.4 23.5,-20.4 0.8,-2 h 3 c -1.2,-4.3 -8.2,-12.1 -13.3,-12.1 l 0.2,3 -1.9,1.1 z"
           class="colorStroke888A85 svgStroke"
           id="path25"
           style="fill:url(#j)" />
        <path
           fill="none"
           stroke="#ffffff"
           stroke-linecap="round"
           stroke-linejoin="round"
           stroke-width="2.461"
           d="m -202.7,145.3 -12.1,14.6"
           class="colorStrokefff svgStroke"
           id="path26" />
        <radialGradient
           id="k"
           cx="958.40601"
           cy="-380.26199"
           r="21.002001"
           gradientTransform="matrix(-0.181,0.598,0.613,0.176,183.272,-348.089)"
           gradientUnits="userSpaceOnUse">
          <stop
             offset="0"
             stop-color="#696969"
             class="stopColor696969 svgShape"
             id="stop26" />
          <stop
             offset="1"
             stop-color="#000000"
             class="stopColor000000 svgShape"
             id="stop27" />
        </radialGradient>
        <path
           fill="url(#k)"
           d="m -262.4,185.2 c 28.9,0 50.9,3.4 55.1,-17.6 3.4,-17 -20,-25.1 -31.5,-10 -11.2,14.6 -23.6,27.6 -23.6,27.6 z"
           id="path27"
           style="fill:url(#k)" />
        <path
           fill="#ffffff"
           d="m -209.8,168.2 c 0,4 -3.2,7.2 -7.2,7.2 -4,0 -7.2,-3.2 -7.2,-7.2 0,-4 3.2,-7.2 7.2,-7.2 4,0 7.2,3.2 7.2,7.2 z"
           enable-background="new"
           opacity="0.528"
           class="colorfff svgShape"
           id="path28" />
        <path
           fill="#ffffff"
           d="m -191.2,141.1 c 0,2.7 -2.2,4.8 -4.8,4.8 -2.6,0 -4.8,-2.2 -4.8,-4.8 0,-2.7 2.2,-4.8 4.8,-4.8 2.6,-0.1 4.8,2.1 4.8,4.8 z"
           class="colorfff svgShape"
           id="path29" />
        <linearGradient
           id="l"
           x1="2046.356"
           x2="2031.16"
           y1="702.98499"
           y2="715.53699"
           gradientTransform="matrix(-0.241,0.249,0.249,0.241,95.193,-501.932)"
           gradientUnits="userSpaceOnUse">
          <stop
             offset="0"
             stop-color="#ffffff"
             class="stopColorfff svgShape"
             id="stop29" />
          <stop
             offset="1"
             stop-color="#ffffff"
             stop-opacity="0"
             class="stopColorfff svgShape"
             id="stop30" />
        </linearGradient>
        <path
           fill="url(#l)"
           d="m -243.6,180 c 0,0 10.3,0.3 16.9,-3.9 2.3,-1.5 4.2,1.8 1.4,3 -6.1,2.6 -18.3,0.9 -18.3,0.9 z"
           enable-background="new"
           opacity="0.428"
           id="path30"
           style="fill:url(#l)" />
      </g>
      <linearGradient
         id="m"
         x1="367.72299"
         x2="362.64099"
         y1="202.12801"
         y2="200.90401"
         gradientTransform="matrix(1,0,0,-1,-297.5,279)"
         gradientUnits="userSpaceOnUse">
        <stop
           offset="0"
           stop-color="#000000"
           class="stopColor000000 svgShape"
           id="stop31" />
        <stop
           offset="1"
           stop-opacity="0"
           stop-color="#000000"
           class="stopColor000000 svgShape"
           id="stop32" />
      </linearGradient>
      <path
         fill="url(#m)"
         d="m 61.7,81 c 4.1,0.4 7.9,-0.8 9.5,-1.3 0.3,-1.5 1.5,-4.5 5.7,-4.7 l -1.5,-2.6 c 0,0 -5.4,3.7 -11.3,4.8 z"
         id="path32"
         style="fill:url(#m)" />
    </svg>
  </g>
</svg>
