<?xml version="1.0" encoding="UTF-8" standalone="no"?>
<svg
   xml:space="preserve"
   width="48"
   height="48"
   viewBox="0 0 48 48"
   version="1.1"
   id="svg44"
   sodipodi:docname="mplayer.svg"
   inkscape:version="1.3.2 (091e20ef0f, 2023-11-25, custom)"
   xmlns:inkscape="http://www.inkscape.org/namespaces/inkscape"
   xmlns:sodipodi="http://sodipodi.sourceforge.net/DTD/sodipodi-0.dtd"
   xmlns="http://www.w3.org/2000/svg"
   xmlns:svg="http://www.w3.org/2000/svg"><sodipodi:namedview
   id="namedview44"
   pagecolor="#ffffff"
   bordercolor="#000000"
   borderopacity="0.25"
   inkscape:showpageshadow="2"
   inkscape:pageopacity="0.0"
   inkscape:pagecheckerboard="0"
   inkscape:deskcolor="#d1d1d1"
   showgrid="true"
   inkscape:zoom="12.5"
   inkscape:cx="32"
   inkscape:cy="24.24"
   inkscape:window-width="1920"
   inkscape:window-height="1013"
   inkscape:window-x="0"
   inkscape:window-y="36"
   inkscape:window-maximized="1"
   inkscape:current-layer="svg44"><inkscape:grid
     id="grid44"
     units="px"
     originx="0"
     originy="0"
     spacingx="1"
     spacingy="1"
     empcolor="#0099e5"
     empopacity="0.30196078"
     color="#0099e5"
     opacity="0.14901961"
     empspacing="5"
     dotted="false"
     gridanglex="30"
     gridanglez="30"
     visible="true" /></sodipodi:namedview>
  <defs
   id="defs31">
    <linearGradient
   id="e"
   x1="22.669001"
   x2="23.184"
   y1="9.3192997"
   y2="11.242"
   gradientUnits="userSpaceOnUse">
      <stop
   offset="0"
   stop-color="#fff"
   id="stop1" />
      <stop
   offset="1"
   stop-color="#cecedb"
   id="stop2" />
    </linearGradient>
    <linearGradient
   id="f"
   x1="22.367001"
   x2="24.236"
   y1="7.8495998"
   y2="14.824"
   gradientUnits="userSpaceOnUse">
      <stop
   offset="0"
   stop-color="#cecedb"
   id="stop3" />
      <stop
   offset=".0054"
   stop-color="#cbcbd7"
   id="stop4" />
      <stop
   offset=".0705"
   stop-color="#a5a5ad"
   id="stop5" />
      <stop
   offset=".1338"
   stop-color="#87878c"
   id="stop6" />
      <stop
   offset=".1941"
   stop-color="#727274"
   id="stop7" />
      <stop
   offset=".2502"
   stop-color="#656566"
   id="stop8" />
      <stop
   offset=".2977"
   stop-color="#616161"
   id="stop9" />
      <stop
   offset="1"
   id="stop10" />
    </linearGradient>
    <linearGradient
   id="d"
   x1="311.22"
   x2="311.22"
   y1="17.458"
   y2="23.226"
   gradientTransform="matrix(1,0,0.2679,1,-292.71,0)"
   gradientUnits="userSpaceOnUse">
      <stop
   offset="0"
   stop-color="#cecedb"
   id="stop11" />
      <stop
   offset=".2977"
   stop-color="#828282"
   id="stop12" />
      <stop
   offset="1"
   id="stop13" />
    </linearGradient>
    <linearGradient
   id="c"
   x1="24.16"
   x2="24.16"
   y1="18.868"
   y2="20.534"
   gradientUnits="userSpaceOnUse">
      <stop
   offset="0"
   stop-color="#fff"
   id="stop14" />
      <stop
   offset="1"
   stop-color="#e9e9ef"
   id="stop15" />
    </linearGradient>
    <linearGradient
   id="b"
   x1="24.947001"
   x2="24.947001"
   y1="21.048"
   y2="23.1"
   gradientUnits="userSpaceOnUse">
      <stop
   offset="0"
   stop-color="#616161"
   id="stop16" />
      <stop
   offset=".1569"
   stop-color="#88888a"
   id="stop17" />
      <stop
   offset=".326"
   stop-color="#ababae"
   id="stop18" />
      <stop
   offset=".4963"
   stop-color="#c6c6ca"
   id="stop19" />
      <stop
   offset=".6657"
   stop-color="#d9d9df"
   id="stop20" />
      <stop
   offset=".834"
   stop-color="#e5e5eb"
   id="stop21" />
      <stop
   offset="1"
   stop-color="#e9e9ef"
   id="stop22" />
    </linearGradient>
    <linearGradient
   id="a"
   x1="24.948"
   x2="24.948"
   y1="49.257"
   y2="21.948"
   gradientUnits="userSpaceOnUse">
      <stop
   offset=".0056"
   stop-color="#fff"
   id="stop23" />
      <stop
   offset=".045"
   stop-color="#f8f8fa"
   id="stop24" />
      <stop
   offset=".1027"
   stop-color="#e4e4ec"
   id="stop25" />
      <stop
   offset=".1713"
   stop-color="#c4c4d4"
   id="stop26" />
      <stop
   offset=".1854"
   stop-color="#bdbdcf"
   id="stop27" />
      <stop
   offset=".1896"
   stop-color="#bebed0"
   id="stop28" />
      <stop
   offset=".2751"
   stop-color="#cacad8"
   id="stop29" />
      <stop
   offset=".3595"
   stop-color="#cecedb"
   id="stop30" />
      <stop
   offset=".7865"
   stop-color="#e9e9ef"
   id="stop31" />
    </linearGradient>
  </defs>
  <path
   d="M 44.5,17.527 H 10.604 L 43.339,8.756 C 43.527,8.705 43.685,8.585 43.782,8.415 43.879,8.246 43.905,8.05 43.854,7.861 L 42.774,3.829 C 42.726,3.644 42.6,3.481 42.433,3.385 42.264,3.288 42.067,3.262 41.879,3.313 L 41.633,3.38 c 0,0 0.041,0.021 0.051,0.027 -0.27,0.034 -0.743,0.159 -1.664,0.406 L 4.088,13.439 C 3.9,13.489 3.743,13.61 3.645,13.778 3.58,13.892 3.546,14.016 3.546,14.143 c 0,0.064 0.008,0.128 0.025,0.19 l 1.073,4.002 v 4.095 c 0,0.402 0.327,0.729 0.729,0.729 h 1.524 v 21.457 c 0,0.366 0.273,0.678 0.636,0.725 l 0.22,0.027 c 0.238,0.029 0.863,0.096 1.593,0.096 h 32.758 c 1.35,0 2.447,-1.114 2.447,-2.484 V 23.155 c 0.378,-0.027 0.68,-0.34 0.68,-0.724 v -4.174 c 0,-0.402 -0.328,-0.73 -0.731,-0.73 z"
   opacity="0.2"
   id="path31" />
  <path
   d="M 44.112,17.139 H 10.215 L 42.95,8.367 C 43.138,8.317 43.296,8.196 43.393,8.026 43.49,7.858 43.516,7.661 43.466,7.472 L 42.386,3.44 C 42.337,3.255 42.213,3.093 42.045,2.996 41.876,2.899 41.68,2.873 41.491,2.924 L 41.243,2.99 41.295,3.016 C 41.024,3.051 40.552,3.175 39.631,3.422 L 3.699,13.051 c -0.188,0.05 -0.345,0.171 -0.443,0.339 -0.065,0.114 -0.098,0.239 -0.098,0.365 0,0.063 0.008,0.127 0.025,0.19 l 1.073,4.003 v 4.093 c 0,0.403 0.328,0.73 0.73,0.73 H 6.51 v 21.457 c 0,0.366 0.273,0.677 0.636,0.725 l 0.219,0.027 c 0.238,0.029 0.863,0.096 1.593,0.096 h 32.757 c 1.351,0 2.448,-1.115 2.448,-2.484 V 22.767 c 0.378,-0.027 0.679,-0.34 0.679,-0.725 v -4.173 c 0,-0.403 -0.327,-0.73 -0.73,-0.73 z"
   opacity="0.2"
   id="path32" />
  <path
   d="M 43.723,16.75 H 9.826 L 42.561,7.979 C 42.749,7.928 42.907,7.807 43.004,7.638 43.101,7.469 43.127,7.273 43.076,7.084 L 41.996,3.052 C 41.947,2.866 41.822,2.704 41.655,2.608 41.486,2.511 41.29,2.485 41.101,2.536 l -0.248,0.067 0.052,0.026 c -0.271,0.034 -0.743,0.159 -1.664,0.406 l -35.93,9.627 c -0.188,0.05 -0.345,0.171 -0.443,0.339 -0.065,0.114 -0.098,0.239 -0.098,0.365 0,0.063 0.008,0.128 0.025,0.19 l 1.073,4.002 v 4.094 c 0,0.402 0.328,0.73 0.73,0.73 h 1.524 v 21.674 c 0,0.41134 0.22768,0.63147 0.636,0.63147 l 34.569,-2e-4 c 1.351,0 2.448,-1.114 2.448,-2.484 v -19.826 c 0.378,-0.027 0.679,-0.339 0.679,-0.725 v -4.173 c -10e-4,-0.402 -0.329,-0.729 -0.731,-0.729 z"
   id="path33" />
  <path
   fill="#ffffff"
   d="m 7.102,43.7 h 34.224 c 0.81,0 1.467,-0.671 1.467,-1.498 v -21.47 c 0,-0.828 -0.657,-1.499 -1.467,-1.499 H 8.569 c -0.81,0 -1.467,0.671 -1.467,1.499 z"
   id="path34" />
  <path
   fill="url(#a)"
   d="m 7.102,43.7 h 34.224 c 0.81,0 1.467,-0.671 1.467,-1.498 v -21.47 c 0,-0.828 -0.657,-1.499 -1.467,-1.499 H 8.569 c -0.81,0 -1.467,0.671 -1.467,1.499 z"
   opacity="0.8"
   id="path35"
   style="fill:url(#a)" />
  <path
   fill="#ffffff"
   d="M 41.326,19.233 H 8.569 c -0.81,0 -1.467,0.671 -1.467,1.499 V 43.7 h 34.224 c 0.81,0 1.467,-0.671 1.467,-1.498 v -21.47 c 0,-0.828 -0.657,-1.499 -1.467,-1.499 z m 0.444,22.969 c 0,0.262 -0.199,0.474 -0.443,0.474 H 8.126 V 20.732 c 0,-0.261 0.199,-0.475 0.443,-0.475 h 32.757 c 0.244,0 0.443,0.213 0.443,0.475 v 21.47 z"
   opacity="0.5"
   id="path36" />
  <path
   fill="url(#b)"
   d="m 7.102,23.682 c 0,0 0.657,0.016 1.467,0.016 h 32.757 c 0.81,0 1.467,-0.123 1.467,-0.274 v -3.917 c 0,-0.15 -0.657,-0.273 -1.467,-0.273 H 8.569 c -0.81,0 -1.467,0.123 -1.467,0.273 z"
   opacity="0.8"
   id="path37"
   style="fill:url(#b)" />
  <path
   d="M 43.467,17.139 H 4.597 c -0.188,0 -0.341,0.153 -0.341,0.341 v 4.173 c 0,0.188 0.153,0.341 0.341,0.341 h 39.125 c 0.189,0 0.342,-0.153 0.342,-0.341 V 17.48 c 0,-0.188 -0.152,-0.341 -0.342,-0.341 z"
   id="path38" />
  <path
   fill="url(#c)"
   d="m 4.854,17.735 h 38.613 v 3.661 H 4.854 Z"
   id="path39"
   style="fill:url(#c)" />
  <path
   fill="url(#d)"
   d="m 7.762,21.396 h 3.662 L 9.797,17.735 H 6.136 l 1.626,3.661 m 17.013,-3.661 h -3.66 l 1.626,3.661 h 3.661 l -1.627,-3.661 m -7.489,0 h -3.662 l 1.627,3.661 h 3.662 l -1.627,-3.661 m 22.47,0 h -3.663 l 1.628,3.661 h 3.661 l -1.626,-3.661 m -7.49,0 h -3.662 l 1.627,3.661 h 3.664 z"
   id="path40"
   style="fill:url(#d)" />
  <path
   d="m 41.203,2.911 -0.248,0.067 h 0.001 L 3.411,13.038 c -0.088,0.023 -0.162,0.081 -0.208,0.159 -0.046,0.078 -0.058,0.171 -0.034,0.258 l 1.081,4.033 c 0.049,0.182 0.236,0.29 0.418,0.241 L 42.461,7.603 c 0.182,-0.049 0.29,-0.236 0.24,-0.418 L 41.622,3.153 C 41.599,3.066 41.541,2.991 41.463,2.945 41.384,2.9 41.291,2.888 41.203,2.911 Z"
   id="path41" />
  <path
   fill="url(#e)"
   d="M 4.761,17.085 42.06,7.091 41.111,3.555 3.814,13.548 Z"
   id="path42"
   style="fill:url(#e)" />
  <path
   fill="url(#f)"
   d="M 7.57,16.333 11.108,15.386 9.537,12.015 6,12.963 l 1.57,3.37 m 16.434,-8.194 -3.537,0.948 1.571,3.37 3.538,-0.948 -1.572,-3.37 m -7.234,1.938 -3.537,0.948 1.572,3.37 3.536,-0.949 -1.571,-3.369 m 21.703,-5.815 -3.535,0.947 1.571,3.37 3.537,-0.947 -1.573,-3.37 m -7.234,1.939 -3.538,0.946 1.572,3.371 3.537,-0.948 z"
   id="path43"
   style="fill:url(#f)" />
  
</svg>
