<?xml version="1.0" encoding="UTF-8" standalone="no"?>
<!-- Created with Inkscape (http://www.inkscape.org/) -->

<svg
   width="48"
   height="48"
   viewBox="0 0 12.7 12.7"
   version="1.1"
   id="svg5"
   inkscape:version="1.2.1 (9c6d41e410, 2022-07-14, custom)"
   sodipodi:docname="preferences-system-splash.svg"
   xmlns:inkscape="http://www.inkscape.org/namespaces/inkscape"
   xmlns:sodipodi="http://sodipodi.sourceforge.net/DTD/sodipodi-0.dtd"
   xmlns:xlink="http://www.w3.org/1999/xlink"
   xmlns="http://www.w3.org/2000/svg"
   xmlns:svg="http://www.w3.org/2000/svg">
  <sodipodi:namedview
     id="namedview7"
     pagecolor="#ffffff"
     bordercolor="#666666"
     borderopacity="1.0"
     inkscape:pageshadow="2"
     inkscape:pageopacity="0.0"
     inkscape:pagecheckerboard="0"
     inkscape:document-units="px"
     showgrid="false"
     units="px"
     height="48px"
     showguides="true"
     inkscape:zoom="4.453106"
     inkscape:cx="95.326723"
     inkscape:cy="48.056346"
     inkscape:window-width="1920"
     inkscape:window-height="973"
     inkscape:window-x="1360"
     inkscape:window-y="30"
     inkscape:window-maximized="1"
     inkscape:current-layer="svg5"
     inkscape:showpageshadow="2"
     inkscape:deskcolor="#d1d1d1" />
  <defs
     id="defs2">
    <linearGradient
       inkscape:collect="always"
       id="linearGradient1871">
      <stop
         style="stop-color:#ffffff;stop-opacity:1;"
         offset="0"
         id="stop1867" />
      <stop
         style="stop-color:#ffffff;stop-opacity:0.1"
         offset="0.12"
         id="stop2515" />
      <stop
         style="stop-color:#ffffff;stop-opacity:0.102"
         offset="0.89999998"
         id="stop2581" />
      <stop
         style="stop-color:#ffffff;stop-opacity:0.502"
         offset="1"
         id="stop1869" />
    </linearGradient>
    <linearGradient
       inkscape:collect="always"
       xlink:href="#linearGradient1871"
       id="linearGradient1198"
       x1="6.3499999"
       y1="0.52916658"
       x2="6.3499994"
       y2="12.170834"
       gradientUnits="userSpaceOnUse" />
    <linearGradient
       inkscape:collect="always"
       xlink:href="#linearGradient1331"
       id="linearGradient2245"
       x1="3.5282514"
       y1="0.39687499"
       x2="7.7615848"
       y2="12.038542"
       gradientUnits="userSpaceOnUse"
       gradientTransform="matrix(1.2623113,0,0,1.0378971,-1.2534351,-0.40002939)" />
    <linearGradient
       inkscape:collect="always"
       id="linearGradient1331">
      <stop
         style="stop-color:#5884f4;stop-opacity:1"
         offset="0"
         id="stop1327" />
      <stop
         style="stop-color:#80a3fa;stop-opacity:1"
         offset="1"
         id="stop1329" />
    </linearGradient>
  </defs>
  <path
     id="path908"
     style="color:#000000;display:inline;overflow:visible;visibility:visible;fill:url(#linearGradient2245);fill-opacity:1;fill-rule:nonzero;stroke:none;stroke-width:0.302846;marker:none;enable-background:accumulate"
     d="M 6.3499999,0.39687531 A 5.953125,5.953125 0 0 0 0.39687485,6.35 5.953125,5.953125 0 0 0 6.3499999,12.303125 5.953125,5.953125 0 0 0 12.303125,6.35 5.953125,5.953125 0 0 0 6.3499999,0.39687531 Z" />
  <circle
     style="opacity:0.1;fill:#000000;fill-opacity:1;stroke-width:0.529167;stroke-linecap:round;stroke-linejoin:round"
     id="path3625"
     cx="6.3499999"
     cy="6.6145835"
     r="6.0854168" />
  <circle
     cx="6.3499999"
     cy="3.1749997"
     r="0.52916664"
     opacity="0.6"
     style="fill:#ffffff;stroke-width:0.0557019;paint-order:stroke fill markers"
     id="circle26" />
  <circle
     cx="6.3500004"
     cy="9.5250006"
     r="0.52916664"
     style="fill:#ffffff;stroke-width:0.0557019;paint-order:stroke fill markers"
     id="circle28" />
  <circle
     cx="9.5249996"
     cy="6.3499999"
     r="0.52916664"
     opacity="0.4"
     style="fill:#ffffff;stroke-width:0.0557019;paint-order:stroke fill markers"
     id="circle30" />
  <circle
     cx="3.1749997"
     cy="6.3500004"
     r="0.52916664"
     opacity="0.8"
     style="fill:#ffffff;stroke-width:0.0557019;paint-order:stroke fill markers"
     id="circle32" />
  <circle
     cx="8.598958"
     cy="4.1010418"
     r="0.52916664"
     opacity="0.5"
     style="fill:#ffffff;stroke-width:0.0557019;paint-order:stroke fill markers"
     id="circle34" />
  <circle
     cx="4.1010418"
     cy="4.1010418"
     r="0.52916664"
     opacity="0.7"
     style="fill:#ffffff;stroke-width:0.0557019;paint-order:stroke fill markers"
     id="circle36" />
  <circle
     transform="rotate(-90)"
     cx="-8.5328131"
     cy="4.1010418"
     r="0.52916664"
     opacity="0.9"
     style="fill:#ffffff;stroke-width:0.0557019;paint-order:stroke fill markers"
     id="circle38" />
  <circle
     cx="8.5460415"
     cy="8.5328131"
     r="0.52916664"
     opacity="0.3"
     style="fill:#ffffff;stroke-width:0.0557019;paint-order:stroke fill markers"
     id="circle40" />
  <path
     id="path854"
     style="opacity:0.4;fill:#000000;stroke-width:0.529167;stroke-linecap:round;stroke-linejoin:round"
     d="M 6.3499999,0.26458333 A 6.0854166,6.0854166 0 0 0 0.26458333,6.3499999 6.0854166,6.0854166 0 0 0 6.3499999,12.435417 6.0854166,6.0854166 0 0 0 12.435417,6.3499999 6.0854166,6.0854166 0 0 0 6.3499999,0.26458333 Z m 0,0.26458333 A 5.8208333,5.8208333 0 0 1 12.170833,6.3499999 5.8208333,5.8208333 0 0 1 6.3499999,12.170833 5.8208333,5.8208333 0 0 1 0.52916666,6.3499999 5.8208333,5.8208333 0 0 1 6.3499999,0.52916666 Z" />
  <path
     id="path1110"
     style="fill:url(#linearGradient1198);fill-opacity:1;stroke-width:0.529167;stroke-linecap:round;stroke-linejoin:round"
     d="M 6.3499999,0.52916666 A 5.8208333,5.8208333 0 0 0 0.52916666,6.3499999 5.8208333,5.8208333 0 0 0 6.3499999,12.170833 5.8208333,5.8208333 0 0 0 12.170833,6.3499999 5.8208333,5.8208333 0 0 0 6.3499999,0.52916666 Z m 0,0.26458333 A 5.5562499,5.5562499 0 0 1 11.90625,6.3499999 5.5562499,5.5562499 0 0 1 6.3499999,11.90625 5.5562499,5.5562499 0 0 1 0.79374999,6.3499999 5.5562499,5.5562499 0 0 1 6.3499999,0.79374999 Z" />
</svg>
