<?xml version="1.0" encoding="UTF-8" standalone="no"?>
<!-- Created with Inkscape (http://www.inkscape.org/) -->

<svg
   width="48"
   height="48"
   viewBox="0 0 12.7 12.7"
   version="1.1"
   id="svg5"
   inkscape:version="1.3.2 (091e20ef0f, 2023-11-25, custom)"
   sodipodi:docname="preferences-desktop-icons.svg"
   xmlns:inkscape="http://www.inkscape.org/namespaces/inkscape"
   xmlns:sodipodi="http://sodipodi.sourceforge.net/DTD/sodipodi-0.dtd"
   xmlns:xlink="http://www.w3.org/1999/xlink"
   xmlns="http://www.w3.org/2000/svg"
   xmlns:svg="http://www.w3.org/2000/svg">
  <sodipodi:namedview
     id="namedview7"
     pagecolor="#ffffff"
     bordercolor="#666666"
     borderopacity="1.0"
     inkscape:pageshadow="2"
     inkscape:pageopacity="0.0"
     inkscape:pagecheckerboard="0"
     inkscape:document-units="px"
     showgrid="false"
     units="px"
     inkscape:zoom="8.890529"
     inkscape:cx="34.24993"
     inkscape:cy="23.058245"
     inkscape:window-width="1920"
     inkscape:window-height="1013"
     inkscape:window-x="0"
     inkscape:window-y="36"
     inkscape:window-maximized="1"
     inkscape:current-layer="svg5"
     showguides="false"
     inkscape:lockguides="true"
     inkscape:showpageshadow="2"
     inkscape:deskcolor="#d1d1d1" />
  <defs
     id="defs2">
    <linearGradient
       inkscape:collect="always"
       id="linearGradient3">
      <stop
         style="stop-color:#5884f4;stop-opacity:1"
         offset="0"
         id="stop2" />
      <stop
         style="stop-color:#80a3fa;stop-opacity:1"
         offset="1"
         id="stop3" />
    </linearGradient>
    <linearGradient
       inkscape:collect="always"
       id="linearGradient1871">
      <stop
         style="stop-color:#ffffff;stop-opacity:1;"
         offset="0"
         id="stop1867" />
      <stop
         style="stop-color:#ffffff;stop-opacity:0.1"
         offset="0.12"
         id="stop2515" />
      <stop
         style="stop-color:#ffffff;stop-opacity:0.102"
         offset="0.89999998"
         id="stop2581" />
      <stop
         style="stop-color:#ffffff;stop-opacity:0.502"
         offset="1"
         id="stop1869" />
    </linearGradient>
    <linearGradient
       inkscape:collect="always"
       xlink:href="#linearGradient1871"
       id="linearGradient2252"
       x1="12.5"
       y1="7"
       x2="12.5"
       y2="43"
       gradientUnits="userSpaceOnUse"
       gradientTransform="matrix(0.26458333,0,0,0.26458333,0,-0.26458333)" />
    <linearGradient
       inkscape:collect="always"
       xlink:href="#linearGradient3"
       id="linearGradient2245"
       x1="3.5282514"
       y1="0.39687499"
       x2="7.7615848"
       y2="12.038542"
       gradientUnits="userSpaceOnUse"
       gradientTransform="matrix(1,0,0,0.82221964,4.6336181e-6,1.1288896)" />
  </defs>
  <path
     d="m 3.5282566,1.455208 c -2.64878597,0 -3.14501497,0.1971725 -3.13109797,2.1207174 v 2.7740481 2.7741006 c -0.01394,1.9235459 0.482312,2.1207179 3.13109797,2.1207179 h 5.6437749 c 2.6481245,0 3.1310915,-0.197151 3.1310915,-2.1207179 V 6.3499735 3.5759254 c 0,-1.9235667 -0.482967,-2.1207174 -3.1310945,-2.1207174 z"
     style="color:#000000;display:inline;overflow:visible;visibility:visible;fill:url(#linearGradient2245);fill-opacity:1;fill-rule:nonzero;stroke:none;stroke-width:0.239914;marker:none;enable-background:accumulate"
     id="path908" />
  <path
     id="rect6223"
     style="opacity:0.3;fill:#000000;fill-opacity:1;stroke-width:0.264583;stroke-linecap:round;stroke-linejoin:round"
     d="M 2.9104166,1.4583089 C 0.39891864,1.4997439 0.396875,2.0010825 0.396875,4.8947916 v 2.9104166 c 0,2.8937098 0.002043,3.3950478 2.5135416,3.4364828 z"
     sodipodi:nodetypes="csscc" />
  <path
     id="rect28"
     d="m 1.3229166,3.175 c -0.1465792,0 -0.2645833,0.1180042 -0.2645833,0.2645833 v 1.0583333 c 0,0.1465792 0.1180041,0.2645834 0.2645833,0.2645834 h 1.0583333 c 0.1465792,0 0.2645834,-0.1180042 0.2645834,-0.2645834 V 3.4395833 C 2.6458333,3.2930042 2.5278291,3.175 2.3812499,3.175 Z m 0,2.6458333 c -0.1465792,0 -0.2645833,0.1180042 -0.2645833,0.2645833 v 1.0583333 c 0,0.1465792 0.1180041,0.2645834 0.2645833,0.2645834 h 1.0583333 c 0.1465792,0 0.2645834,-0.1180042 0.2645834,-0.2645834 V 6.0854166 c 0,-0.1465791 -0.1180042,-0.2645833 -0.2645834,-0.2645833 z m 0,2.6458333 c -0.1465792,0 -0.2645833,0.1180042 -0.2645833,0.2645833 v 1.0583336 c 0,0.146579 0.1180041,0.2645825 0.2645833,0.2645825 h 1.0583333 c 0.1465792,0 0.2645834,-0.1180035 0.2645834,-0.2645825 V 8.7312499 c 0,-0.1465791 -0.1180042,-0.2645833 -0.2645834,-0.2645833 z"
     style="opacity:0.25;fill:#000000;stroke-width:0.264583" />
  <path
     id="rect30"
     d="m 1.3229166,2.9104167 c -0.1465792,0 -0.2645833,0.1180041 -0.2645833,0.2645833 v 1.0583333 c 0,0.1465792 0.1180041,0.2645833 0.2645833,0.2645833 h 1.0583333 c 0.1465792,0 0.2645834,-0.1180041 0.2645834,-0.2645833 V 3.175 c 0,-0.1465792 -0.1180042,-0.2645833 -0.2645834,-0.2645833 z m 0,2.6458333 c -0.1465792,0 -0.2645833,0.1180041 -0.2645833,0.2645833 v 1.0583333 c 0,0.1465792 0.1180041,0.2645833 0.2645833,0.2645833 h 1.0583333 c 0.1465792,0 0.2645834,-0.1180041 0.2645834,-0.2645833 V 5.8208333 C 2.6458333,5.6742541 2.5278291,5.55625 2.3812499,5.55625 Z m 0,2.6458333 c -0.1465792,0 -0.2645833,0.1180041 -0.2645833,0.2645833 v 1.0583329 c 0,0.14658 0.1180041,0.264584 0.2645833,0.264584 h 1.0583333 c 0.1465792,0 0.2645834,-0.118004 0.2645834,-0.264584 V 8.4666666 c 0,-0.1465792 -0.1180042,-0.2645833 -0.2645834,-0.2645833 z"
     style="fill:#faf8f6;fill-opacity:1;stroke-width:0.264583" />
  <path
     id="path1984"
     style="display:inline;opacity:0.4;fill:url(#linearGradient2252);fill-opacity:1;stroke:none;stroke-width:0.0262516;stroke-linecap:round;stroke-linejoin:round;stroke-miterlimit:4;stroke-dasharray:none;stroke-dashoffset:0;stroke-opacity:1;enable-background:new"
     d="m 3.3072916,1.5875 c -2.77812481,0 -2.77812494,0.5291667 -2.77812494,3.3072916 v 2.9104166 c 0,2.7781258 1.3e-7,3.3072918 2.77812494,3.3072918 h 6.0854166 c 2.7781248,0 2.7781248,-0.529166 2.7781248,-3.3072918 V 4.8947916 c 0,-2.7781245 0,-3.3072916 -2.7781248,-3.3072916 z m 0.138493,0.2645833 h 5.8084306 c 2.6518468,0 2.6520348,0.5012344 2.6520348,3.1331421 v 2.729549 c 0,2.6319086 -1.88e-4,3.1331426 -2.6520348,3.1331426 H 3.4457846 c -2.6518466,0 -2.65203461,-0.501234 -2.65203461,-3.1331426 v -2.729549 c 0,-2.631908 1.8801e-4,-3.1331421 2.65203461,-3.1331421 z"
     sodipodi:nodetypes="ssssssssssssssssss" />
  <path
     id="path3421"
     style="display:inline;opacity:0.4;fill:#000000;fill-opacity:1;stroke:none;stroke-width:0.0262516;stroke-linecap:round;stroke-linejoin:round;stroke-miterlimit:4;stroke-dasharray:none;stroke-dashoffset:0;stroke-opacity:1;enable-background:new"
     d="m 3.3072916,1.3229167 c -3.04237164,0 -3.04270827,0.5324204 -3.04270827,3.5718749 v 2.9104166 c 0,3.0394558 3.3634e-4,3.5718758 3.04270827,3.5718758 h 6.0854166 c 3.0423718,0 3.0427088,-0.532421 3.0427088,-3.5718758 V 4.8947916 c 0,-3.0394546 -3.37e-4,-3.5718749 -3.0427088,-3.5718749 z m 0,0.2645833 h 6.0854166 c 2.7781248,0 2.7781248,0.529167 2.7781248,3.3072916 v 2.9104166 c 0,2.7781258 0,3.3072928 -2.7781248,3.3072928 H 3.3072916 c -2.77812489,0 -2.77812494,-0.529167 -2.77812494,-3.3072928 V 4.8947916 c 0,-2.778125 3e-8,-3.3072916 2.77812494,-3.3072916 z"
     sodipodi:nodetypes="ssssssssssssssssss" />
</svg>
