<?xml version="1.0" encoding="UTF-8" standalone="no"?>
<!-- Created with Inkscape (http://www.inkscape.org/) -->

<svg
   width="48"
   height="48"
   viewBox="0 0 12.7 12.7"
   version="1.1"
   id="svg5"
   inkscape:version="1.2.1 (9c6d41e410, 2022-07-14, custom)"
   sodipodi:docname="preferences-desktop-default-applications.svg"
   xmlns:inkscape="http://www.inkscape.org/namespaces/inkscape"
   xmlns:sodipodi="http://sodipodi.sourceforge.net/DTD/sodipodi-0.dtd"
   xmlns:xlink="http://www.w3.org/1999/xlink"
   xmlns="http://www.w3.org/2000/svg"
   xmlns:svg="http://www.w3.org/2000/svg">
  <sodipodi:namedview
     id="namedview7"
     pagecolor="#ffffff"
     bordercolor="#666666"
     borderopacity="1.0"
     inkscape:pageshadow="2"
     inkscape:pageopacity="0.0"
     inkscape:pagecheckerboard="0"
     inkscape:document-units="px"
     showgrid="false"
     units="px"
     height="48px"
     showguides="true"
     inkscape:zoom="7.6576682"
     inkscape:cx="-2.8076432"
     inkscape:cy="24.028202"
     inkscape:window-width="1920"
     inkscape:window-height="973"
     inkscape:window-x="3280"
     inkscape:window-y="30"
     inkscape:window-maximized="1"
     inkscape:current-layer="svg5"
     inkscape:showpageshadow="2"
     inkscape:deskcolor="#d1d1d1" />
  <defs
     id="defs2">
    <linearGradient
       inkscape:collect="always"
       id="linearGradient1871">
      <stop
         style="stop-color:#ffffff;stop-opacity:1;"
         offset="0"
         id="stop1867" />
      <stop
         style="stop-color:#ffffff;stop-opacity:0.1"
         offset="0.12"
         id="stop2515" />
      <stop
         style="stop-color:#ffffff;stop-opacity:0.102"
         offset="0.89999998"
         id="stop2581" />
      <stop
         style="stop-color:#ffffff;stop-opacity:0.502"
         offset="1"
         id="stop1869" />
    </linearGradient>
    <linearGradient
       inkscape:collect="always"
       xlink:href="#linearGradient1871"
       id="linearGradient1198"
       x1="6.3499999"
       y1="0.52916658"
       x2="6.3499994"
       y2="12.170834"
       gradientUnits="userSpaceOnUse" />
    <linearGradient
       inkscape:collect="always"
       xlink:href="#linearGradient1331"
       id="linearGradient2245"
       x1="3.5282514"
       y1="0.39687499"
       x2="7.7615848"
       y2="12.038542"
       gradientUnits="userSpaceOnUse"
       gradientTransform="matrix(1.2162216,0,0,1.0000013,-1.3732869,1.27385e-4)" />
    <linearGradient
       inkscape:collect="always"
       id="linearGradient1331">
      <stop
         style="stop-color:#5884f4;stop-opacity:1"
         offset="0"
         id="stop1327" />
      <stop
         style="stop-color:#80a3fa;stop-opacity:1"
         offset="1"
         id="stop1329" />
    </linearGradient>
  </defs>
  <circle
     style="opacity:0.1;fill:#000000;fill-opacity:1;stroke-width:0.529167;stroke-linecap:round;stroke-linejoin:round"
     id="path3625"
     cx="6.3499999"
     cy="6.6145835"
     r="6.0854168" />
  <path
     id="path908"
     style="color:#000000;display:inline;overflow:visible;visibility:visible;fill:url(#linearGradient2245);fill-opacity:1;fill-rule:nonzero;stroke:none;stroke-width:0.291789;marker:none;enable-background:accumulate"
     d="M 6.3500001,0.39687488 A 5.953125,5.953125 0 0 0 0.39687512,6.3499999 5.953125,5.953125 0 0 0 6.3500001,12.303125 5.953125,5.953125 0 0 0 12.303125,6.3499999 5.953125,5.953125 0 0 0 6.3500001,0.39687488 Z" />
  <path
     id="rect858"
     style="opacity:0.05;fill:#eff0f1;stroke-width:0.999999;stroke-linejoin:round"
     d="M 1.5195312 23.5 A 22.5 22.5 0 0 0 1.5 24 A 22.5 22.5 0 0 0 24 46.5 A 22.5 22.5 0 0 0 46.5 24 A 22.5 22.5 0 0 0 46.494141 23.5 L 1.5195312 23.5 z "
     transform="scale(0.26458333)" />
  <path
     d="M 8.6442135,9.8139737 6.2698956,8.5351892 3.8704156,9.7661367 4.3529098,7.1128951 2.4407396,5.2112553 5.1132961,4.8502314 6.3309879,2.4440047 7.5002081,4.8741497 10.164827,5.2886724 8.2149271,7.1516301 Z"
     style="fill:#faf8f6;stroke:#ffffff;stroke-width:0.0555493;enable-background:new"
     id="path898" />
  <path
     id="path854"
     style="opacity:0.4;fill:#000000;stroke-width:0.529167;stroke-linecap:round;stroke-linejoin:round"
     d="M 6.3499999,0.26458333 A 6.0854166,6.0854166 0 0 0 0.26458333,6.3499999 6.0854166,6.0854166 0 0 0 6.3499999,12.435417 6.0854166,6.0854166 0 0 0 12.435417,6.3499999 6.0854166,6.0854166 0 0 0 6.3499999,0.26458333 Z m 0,0.26458333 A 5.8208333,5.8208333 0 0 1 12.170833,6.3499999 5.8208333,5.8208333 0 0 1 6.3499999,12.170833 5.8208333,5.8208333 0 0 1 0.52916666,6.3499999 5.8208333,5.8208333 0 0 1 6.3499999,0.52916666 Z" />
  <path
     id="path1110"
     style="fill:url(#linearGradient1198);fill-opacity:1;stroke-width:0.529167;stroke-linecap:round;stroke-linejoin:round"
     d="M 6.3499999,0.52916666 A 5.8208333,5.8208333 0 0 0 0.52916666,6.3499999 5.8208333,5.8208333 0 0 0 6.3499999,12.170833 5.8208333,5.8208333 0 0 0 12.170833,6.3499999 5.8208333,5.8208333 0 0 0 6.3499999,0.52916666 Z m 0,0.26458333 A 5.5562499,5.5562499 0 0 1 11.90625,6.3499999 5.5562499,5.5562499 0 0 1 6.3499999,11.90625 5.5562499,5.5562499 0 0 1 0.79374999,6.3499999 5.5562499,5.5562499 0 0 1 6.3499999,0.79374999 Z" />
</svg>
