<?xml version="1.0" encoding="UTF-8" standalone="no"?>
<!-- Created with Inkscape (http://www.inkscape.org/) -->

<svg
   width="48"
   height="48"
   viewBox="0 0 12.7 12.7"
   version="1.1"
   id="svg5"
   inkscape:version="1.2.1 (9c6d41e410, 2022-07-14, custom)"
   sodipodi:docname="preferences-desktop-wallpaper.svg"
   xmlns:inkscape="http://www.inkscape.org/namespaces/inkscape"
   xmlns:sodipodi="http://sodipodi.sourceforge.net/DTD/sodipodi-0.dtd"
   xmlns:xlink="http://www.w3.org/1999/xlink"
   xmlns="http://www.w3.org/2000/svg"
   xmlns:svg="http://www.w3.org/2000/svg">
  <sodipodi:namedview
     id="namedview7"
     pagecolor="#ffffff"
     bordercolor="#666666"
     borderopacity="1.0"
     inkscape:pageshadow="2"
     inkscape:pageopacity="0.0"
     inkscape:pagecheckerboard="0"
     inkscape:document-units="px"
     showgrid="false"
     units="px"
     inkscape:zoom="16.354167"
     inkscape:cx="19.842038"
     inkscape:cy="20.728662"
     inkscape:window-width="1920"
     inkscape:window-height="973"
     inkscape:window-x="3280"
     inkscape:window-y="30"
     inkscape:window-maximized="1"
     inkscape:current-layer="svg5"
     showguides="false"
     inkscape:lockguides="true"
     inkscape:showpageshadow="2"
     inkscape:deskcolor="#d1d1d1" />
  <defs
     id="defs2">
    <linearGradient
       inkscape:collect="always"
       id="linearGradient1871">
      <stop
         style="stop-color:#ffffff;stop-opacity:1;"
         offset="0"
         id="stop1867" />
      <stop
         style="stop-color:#ffffff;stop-opacity:0.1"
         offset="0.12"
         id="stop2515" />
      <stop
         style="stop-color:#ffffff;stop-opacity:0.102"
         offset="0.89999998"
         id="stop2581" />
      <stop
         style="stop-color:#ffffff;stop-opacity:0.502"
         offset="1"
         id="stop1869" />
    </linearGradient>
    <linearGradient
       inkscape:collect="always"
       xlink:href="#linearGradient1871"
       id="linearGradient2252"
       x1="12.5"
       y1="7"
       x2="12.5"
       y2="43"
       gradientUnits="userSpaceOnUse"
       gradientTransform="matrix(0.26458333,0,0,0.26458333,0,-0.26458333)" />
    <linearGradient
       inkscape:collect="always"
       xlink:href="#linearGradient1331"
       id="linearGradient2245"
       x1="3.5282514"
       y1="0.39687499"
       x2="7.7615848"
       y2="12.038542"
       gradientUnits="userSpaceOnUse"
       gradientTransform="matrix(1,0,0,0.82221968,5.168884e-6,1.1288903)" />
    <linearGradient
       inkscape:collect="always"
       id="linearGradient1331">
      <stop
         style="stop-color:#5884f4;stop-opacity:1"
         offset="0"
         id="stop1327" />
      <stop
         style="stop-color:#80a3fa;stop-opacity:1"
         offset="1"
         id="stop1329" />
    </linearGradient>
  </defs>
  <path
     d="m 3.5282562,1.4552087 c -2.64878603,0 -3.14501403,0.1971724 -3.13109703,2.1207175 v 2.7740482 2.7741005 c -0.01394,1.9235451 0.482311,2.1207171 3.13109703,2.1207171 h 5.643775 c 2.6481238,0 3.1310918,-0.197151 3.1310918,-2.1207171 V 6.3499744 3.5759262 c 0,-1.9235668 -0.482968,-2.1207175 -3.1310948,-2.1207175 z"
     style="color:#000000;display:inline;overflow:visible;visibility:visible;fill:url(#linearGradient2245);fill-opacity:1;fill-rule:nonzero;stroke:none;stroke-width:0.239914;marker:none;enable-background:accumulate"
     id="path908" />
  <path
     d="m 3.3072916,1.5875 c -3.04237179,0 -3.04270832,0.5324204 -3.04270832,3.571875 v 2.9104167 c 0,3.0394563 3.3633e-4,3.5718763 3.04270832,3.5718763 h 6.0854167 c 3.0423717,0 3.0427077,-0.53242 3.0427077,-3.5718763 V 5.159375 c 0,-3.0394547 -3.36e-4,-3.571875 -3.0427077,-3.571875 z"
     style="display:inline;opacity:0.1;fill:#000000;fill-opacity:1;stroke:none;stroke-width:0.0992187;stroke-linecap:round;stroke-linejoin:round;stroke-miterlimit:4;stroke-dasharray:none;stroke-dashoffset:0;stroke-opacity:1;enable-background:new"
     id="path3132"
     sodipodi:nodetypes="sssssssss" />
  <path
     id="rect1752"
     style="fill:#5d5d5d;fill-opacity:1;stroke-width:0.999999;stroke-linejoin:round"
     d="M 29 5.5 L 46.5 23 L 46.5 20.679688 L 46.5 18.5 C 46.5 7.0122976 46.500003 5.5 35.5 5.5 L 31.277344 5.5 L 29 5.5 z "
     transform="scale(0.26458333)" />
  <path
     id="rect2713"
     style="opacity:0.2;fill:#000000;fill-opacity:1;stroke-width:0.999999;stroke-linejoin:round"
     d="M 31.525391 5.5 C 31.27711 5.6631796 31.027966 5.8293201 30.777344 6 L 27.5 6 L 28 6.5 L 28 8.4492188 C 28 22.058134 29.946732 24 43.568359 24 L 45.5 24 L 46 24.5 L 46 21.179688 C 46.168457 21.096495 46.335367 21.013821 46.5 20.929688 L 46.5 18.5 C 46.5 7.0122976 46.5 5.5 35.5 5.5 L 31.525391 5.5 z "
     transform="scale(0.26458333)" />
  <path
     id="rect2237"
     style="fill:#faf8f6;fill-opacity:1;stroke-width:0.264583;stroke-linejoin:round"
     d="M 12.303127,6.0854169 7.6729168,1.4552086 v 0.5157308 c 0,3.6006919 0.515074,4.1144775 4.1191302,4.1144775 z"
     sodipodi:nodetypes="ccssc" />
  <path
     id="rect6223"
     style="opacity:0.3;fill:#000000;fill-opacity:1;stroke-width:0.264583;stroke-linecap:round;stroke-linejoin:round"
     d="M 2.9104166,1.4583089 C 0.39891864,1.4997439 0.396875,2.0010825 0.396875,4.8947916 v 2.9104166 c 0,2.8937098 0.002043,3.3950478 2.5135416,3.4364828 z"
     sodipodi:nodetypes="csscc" />
  <path
     id="path1984"
     style="display:inline;opacity:0.4;fill:url(#linearGradient2252);fill-opacity:1;stroke:none;stroke-width:0.0262516;stroke-linecap:round;stroke-linejoin:round;stroke-miterlimit:4;stroke-dasharray:none;stroke-dashoffset:0;stroke-opacity:1;enable-background:new"
     d="m 3.3072916,1.5875 c -2.77812481,0 -2.77812494,0.5291667 -2.77812494,3.3072916 v 2.9104166 c 0,2.7781258 1.3e-7,3.3072918 2.77812494,3.3072918 h 6.0854166 c 2.7781248,0 2.7781248,-0.529166 2.7781248,-3.3072918 V 4.8947916 c 0,-2.7781245 0,-3.3072916 -2.7781248,-3.3072916 z m 0.138493,0.2645833 h 5.8084306 c 2.6518468,0 2.6520348,0.5012344 2.6520348,3.1331421 v 2.729549 c 0,2.6319086 -1.88e-4,3.1331426 -2.6520348,3.1331426 H 3.4457846 c -2.6518466,0 -2.65203461,-0.501234 -2.65203461,-3.1331426 v -2.729549 c 0,-2.631908 1.8801e-4,-3.1331421 2.65203461,-3.1331421 z"
     sodipodi:nodetypes="ssssssssssssssssss" />
  <path
     id="path3421"
     style="display:inline;opacity:0.4;fill:#000000;fill-opacity:1;stroke:none;stroke-width:0.0262516;stroke-linecap:round;stroke-linejoin:round;stroke-miterlimit:4;stroke-dasharray:none;stroke-dashoffset:0;stroke-opacity:1;enable-background:new"
     d="m 3.3072916,1.3229167 c -3.04237164,0 -3.04270827,0.5324204 -3.04270827,3.5718749 v 2.9104166 c 0,3.0394558 3.3634e-4,3.5718758 3.04270827,3.5718758 h 6.0854166 c 3.0423718,0 3.0427088,-0.532421 3.0427088,-3.5718758 V 4.8947916 c 0,-3.0394546 -3.37e-4,-3.5718749 -3.0427088,-3.5718749 z m 0,0.2645833 h 6.0854166 c 2.7781248,0 2.7781248,0.529167 2.7781248,3.3072916 v 2.9104166 c 0,2.7781258 0,3.3072928 -2.7781248,3.3072928 H 3.3072916 c -2.77812489,0 -2.77812494,-0.529167 -2.77812494,-3.3072928 V 4.8947916 c 0,-2.778125 3e-8,-3.3072916 2.77812494,-3.3072916 z"
     sodipodi:nodetypes="ssssssssssssssssss" />
</svg>
