<?xml version="1.0" encoding="UTF-8" standalone="no"?>
<!-- Created with Inkscape (http://www.inkscape.org/) -->

<svg
   width="48"
   height="48"
   viewBox="0 0 12.7 12.7"
   version="1.1"
   id="svg5"
   inkscape:version="1.3 (0e150ed6c4, 2023-07-21)"
   sodipodi:docname="usb-creator2.svg"
   xmlns:inkscape="http://www.inkscape.org/namespaces/inkscape"
   xmlns:sodipodi="http://sodipodi.sourceforge.net/DTD/sodipodi-0.dtd"
   xmlns:xlink="http://www.w3.org/1999/xlink"
   xmlns="http://www.w3.org/2000/svg"
   xmlns:svg="http://www.w3.org/2000/svg">
  <sodipodi:namedview
     id="namedview7"
     pagecolor="#ffffff"
     bordercolor="#666666"
     borderopacity="1.0"
     inkscape:pageshadow="2"
     inkscape:pageopacity="0.0"
     inkscape:pagecheckerboard="0"
     inkscape:document-units="px"
     showgrid="false"
     units="px"
     inkscape:zoom="5.238162"
     inkscape:cx="32.454132"
     inkscape:cy="15.367986"
     inkscape:window-width="1920"
     inkscape:window-height="1025"
     inkscape:window-x="1920"
     inkscape:window-y="26"
     inkscape:window-maximized="1"
     inkscape:current-layer="svg5"
     showguides="false"
     inkscape:lockguides="true"
     inkscape:showpageshadow="2"
     inkscape:deskcolor="#d1d1d1" />
  <defs
     id="defs2">
    <linearGradient
       id="linearGradient16"
       inkscape:collect="always">
      <stop
         style="stop-color:#ffffff;stop-opacity:0.19581383;"
         offset="0"
         id="stop16" />
      <stop
         style="stop-color:#ffffff;stop-opacity:0.2;"
         offset="1"
         id="stop17" />
    </linearGradient>
    <linearGradient
       inkscape:collect="always"
       id="linearGradient3598">
      <stop
         style="stop-color:#999999;stop-opacity:1"
         offset="0"
         id="stop3594" />
      <stop
         style="stop-color:#b7b7b7;stop-opacity:1"
         offset="0.60000002"
         id="stop2347" />
      <stop
         style="stop-color:#dbdbdb;stop-opacity:1"
         offset="1"
         id="stop3596" />
    </linearGradient>
    <linearGradient
       inkscape:collect="always"
       xlink:href="#linearGradient3598"
       id="linearGradient2"
       x1="4.9422421"
       y1="-1.9378049"
       x2="4.9422421"
       y2="12.976558"
       gradientUnits="userSpaceOnUse" />
    <linearGradient
       inkscape:collect="always"
       xlink:href="#linearGradient16"
       id="linearGradient17"
       x1="-5.9899983"
       y1="0.3413021"
       x2="-5.9899983"
       y2="6.3141685"
       gradientUnits="userSpaceOnUse"
       gradientTransform="translate(9.3683498,0.10590266)" />
  </defs>
  <path
     id="path3"
     style="fill:#dedede;fill-opacity:1;stroke:#000000;stroke-width:0.132292;stroke-dasharray:none;stroke-opacity:0.399546"
     d="m 4.6993818,3.4134908 c 0,0.1152572 0.1082943,0.2080773 0.2428601,0.2080773 h 2.7976083 c 0.1345657,0 0.2429354,-0.09282 0.2429354,-0.2080773 V 0.52108521 c 0,-0.115257 -0.1083697,-0.208078 -0.2429354,-0.208078 H 4.9422419 c -0.1345658,0 -0.2428601,0.09282 -0.2428601,0.208078 z M 5.3432368,2.8876107 V 2.3703892 c 0,-0.04003 0.037613,-0.07224 0.084348,-0.07224 h 0.6038691 c 0.046735,0 0.084348,0.03222 0.084348,0.07224 v 0.5172215 c 0,0.040029 -0.037613,0.072246 -0.084348,0.072246 H 5.427585 c -0.046736,0 -0.084348,-0.032216 -0.084348,-0.072246 z m 1.2167909,0 V 2.3703892 c 0,-0.04003 0.037613,-0.07224 0.084348,-0.07224 h 0.603869 c 0.046736,0 0.084348,0.03222 0.084348,0.07224 v 0.5172215 c 0,0.040029 -0.037613,0.072246 -0.084348,0.072246 H 6.6443759 c -0.046735,0 -0.084348,-0.032216 -0.084348,-0.072246 z" />
  <path
     id="path2"
     style="fill:none;fill-opacity:1;stroke:#000000;stroke-width:0.132292;stroke-dasharray:none;stroke-opacity:0.399546"
     d="m 3.7483113,4.4178676 0.00875,6.2079874 a 1.7407091,1.7407091 0 0 0 1.7406871,1.738273 H 7.1973946 A 1.7363758,1.7363758 0 0 0 8.9337811,10.625855 L 8.9269911,4.4178676 C 8.926835,4.2833022 8.8186206,4.1749319 8.6840548,4.1749319 H 3.9912465 c -0.1345663,0 -0.2431242,0.1083703 -0.2429352,0.2429357 z m 0.7057205,2.9926359 c -0.00907,-0.2887186 0.1445272,-0.569692 0.485947,-0.569692 0.8638408,0 0.2466456,1.0141454 0.3468242,1.4206459 0.090988,0.3692041 0.4712748,0.6038022 0.7493284,0.8264341 V 5.9637534 H 5.4880176 L 6.2553771,4.8676005 h 0.109623 L 7.1322843,5.9637534 H 6.5842455 V 8.3205312 C 6.9302462,8.1294638 7.2250995,7.9728597 7.4063796,7.6080207 H 7.1322843 V 6.5118678 H 8.228513 V 7.6080207 H 7.9544183 C 7.9201153,8.0251787 7.7545541,8.3149321 7.4036632,8.5541873 7.1689337,8.7142389 6.849639,8.8172902 6.6934915,9.0693317 6.2070195,9.8545556 7.275379,10.377093 7.0646096,11.11233 6.8738729,11.777676 5.9472059,11.873807 5.6189914,11.267598 5.4693518,10.991214 5.5191824,10.683346 5.6776124,10.424188 5.7702334,10.272678 5.944621,10.109603 5.9074206,9.9145517 5.8573136,9.6518239 5.5161685,9.492032 5.3247519,9.3449352 4.7148945,8.8762839 4.6905505,8.2944038 4.4860203,7.6082469 4.4669163,7.5441569 4.4561213,7.4771307 4.4540318,7.4105035 Z" />
  <path
     style="fill:#878787;fill-opacity:1;stroke-width:0.0386283"
     d="m 3.7662159,4.4407201 0.00879,6.2079899 a 1.7407091,1.7407091 0 0 0 1.7406944,1.738284 H 7.2153117 A 1.7363758,1.7363758 0 0 0 8.9516869,10.64871 L 8.9511325,10.140162 A 1.7363758,1.7363758 0 0 1 7.2153109,11.87272 H 5.5156988 a 1.7407091,1.7407091 0 0 1 -1.740694,-1.738283 l -0.00808,-5.7009489 c -7.72e-5,0.00246 -7.095e-4,0.00476 -6.998e-4,0.00723 z"
     id="rect1" />
  <path
     style="fill:#adadad;fill-opacity:1;stroke-width:0.0386283"
     d="m 4.6993897,3.3786446 c 0,0.1345651 0.108308,0.2429235 0.2428735,0.2429235 h 2.7975657 c 0.1345654,0 0.242974,-0.1083584 0.242974,-0.2429235 V 3.0186533 c 0,0.1345652 -0.1084086,0.2429237 -0.242974,0.2429237 H 4.9422632 c -0.1345655,0 -0.2428735,-0.1083585 -0.2428735,-0.2429237 z"
     id="rect2" />
  <g
     id="g15"
     transform="matrix(0,-0.02571366,0.02571366,0,4.3919299,6.1814349)"
     style="fill:#878787;fill-opacity:1">
    <path
       style="fill:#878787;fill-opacity:1;stroke-width:1.50225"
       d="m -12.851564,106.57226 v 42.63086 h 20 v -42.63086 z"
       id="path12" />
    <path
       style="fill:#878787;fill-opacity:1;stroke-width:1.50225"
       d="m -83.189454,85.25781 c 7.43057,13.4559 13.52047,24.92271 27.70899,31.97266 v -10.65821 h 6.10937 c -5.43672,-6.07625 -9.40951,-13.33054 -13.81836,-21.31445 z"
       id="path11" />
    <path
       style="fill:#878787;fill-opacity:1;stroke-width:1.50225"
       d="m -128.5332,84.51562 c -16.21206,-0.0701 -30.06564,13.7643 -45.38477,18.71289 0.7023,0.25713 1.41777,0.49924 2.15625,0.71094 19.49707,5.5892 35.15202,-11.92691 52.81836,-17.65429 -3.29889,-1.19505 -6.49103,-1.75614 -9.58984,-1.76954 z"
       id="path10" />
    <path
       style="fill:#878787;fill-opacity:1;stroke-width:1.50225"
       d="m -165.35742,44.25976 c -2.84684,0.12637 -5.68762,0.67658 -8.47656,1.6875 3.04388,0.98501 6.01786,2.33116 8.83398,4.05274 5.89221,3.60203 12.23283,10.38422 19.81836,8.9375 2.80764,-0.53547 5.29246,-1.97225 7.56836,-3.86133 C -140.171,53.34514 -142.63796,51.44396 -145,50 c -6.29911,-3.85083 -13.33977,-6.05173 -20.35742,-5.74024 z"
       id="path9" />
    <path
       style="fill:#878787;fill-opacity:1;stroke-width:1.50225"
       d="m 28.464846,42.62695 v 14 l 22.6289,15.8418 v 4.26367 l -22.6289,15.83984 v 14 l 42.6289,-29.83984 v -4.26367 z"
       id="path8" />
    <path
       style="fill:#878787;fill-opacity:1;stroke-width:1.50225"
       d="m -77.666014,34.37695 c -1.15727,0.04641 -2.23852,0.18033 -3.22656,0.42383 -14.35828,3.5385 -23.482516,18.32913 -32.140626,29.14258 h 19.999996 c 7.90437,-9.87207 16.21034,-23.02989 28.51953,-27.94336 -4.83369,-0.98768 -9.40757,-1.77323 -13.15234,-1.62305 z"
       id="path7" />
    <path
       style="fill:#878787;fill-opacity:1;stroke-width:1.50225"
       d="m -27.798824,2.41601 c -2.59112,0.08127 -5.19897,0.49925 -7.69141,1.24219 -0.63858,0.19035 -1.24497,0.3368 -1.87891,0.51953 6.6973,2.6045 11.72461,8.16715 11.72461,17.13672 0,9.80386 -3.37129,14.68052 -8.52148,16.79883 14.6083,2.76877 28.52148,3.15062 28.52148,-16.79883 0,-13.27774 -10.92608,-19.2512 -22.15429,-18.89844 z"
       id="path6" />
  </g>
  <path
     id="path5"
     style="fill:url(#linearGradient2);fill-opacity:1;stroke-width:0.0386283"
     d="m 3.7483113,4.4178676 0.00875,6.2079874 a 1.7407091,1.7407091 0 0 0 1.7406871,1.738273 H 7.1973946 A 1.7363758,1.7363758 0 0 0 8.9337811,10.625855 L 8.9269911,4.4178676 C 8.926835,4.2833022 8.8186206,4.1749319 8.6840548,4.1749319 H 3.9912465 c -0.1345663,0 -0.2431242,0.1083703 -0.2429352,0.2429357 z m 0.7057205,2.9926359 c -0.00907,-0.2887186 0.1445272,-0.569692 0.485947,-0.569692 0.8638408,0 0.2466456,1.0141454 0.3468242,1.4206459 0.090988,0.3692041 0.4712748,0.6038022 0.7493284,0.8264341 V 5.9637534 H 5.4880176 L 6.2553771,4.8676005 h 0.109623 L 7.1322843,5.9637534 H 6.5842455 V 8.3205312 C 6.9302462,8.1294638 7.2250995,7.9728597 7.4063796,7.6080207 H 7.1322843 V 6.5118678 H 8.228513 V 7.6080207 H 7.9544183 C 7.9201153,8.0251787 7.7545541,8.3149321 7.4036632,8.5541873 7.1689337,8.7142389 6.849639,8.8172902 6.6934915,9.0693317 6.2070195,9.8545556 7.275379,10.377093 7.0646096,11.11233 6.8738729,11.777676 5.9472059,11.873807 5.6189914,11.267598 5.4693518,10.991214 5.5191824,10.683346 5.6776124,10.424188 5.7702334,10.272678 5.944621,10.109603 5.9074206,9.9145517 5.8573136,9.6518239 5.5161685,9.492032 5.3247519,9.3449352 4.7148945,8.8762839 4.6905505,8.2944038 4.4860203,7.6082469 4.4669163,7.5441569 4.4561213,7.4771307 4.4540318,7.4105035 Z" />
  <path
     id="path13"
     style="fill:#dedede;fill-opacity:1;stroke-width:0.03571875;stroke-dasharray:none"
     d="m 4.6993818,3.4134908 c 0,0.1152572 0.1082943,0.2080773 0.2428601,0.2080773 h 2.7976083 c 0.1345657,0 0.2429354,-0.09282 0.2429354,-0.2080773 V 0.52108521 c 0,-0.115257 -0.1083697,-0.208078 -0.2429354,-0.208078 H 4.9422419 c -0.1345658,0 -0.2428601,0.09282 -0.2428601,0.208078 z M 5.3432368,2.8876107 V 2.3703892 c 0,-0.04003 0.037613,-0.07224 0.084348,-0.07224 h 0.6038691 c 0.046735,0 0.084348,0.03222 0.084348,0.07224 v 0.5172215 c 0,0.040029 -0.037613,0.072246 -0.084348,0.072246 H 5.427585 c -0.046736,0 -0.084348,-0.032216 -0.084348,-0.072246 z m 1.2167909,0 V 2.3703892 c 0,-0.04003 0.037613,-0.07224 0.084348,-0.07224 h 0.603869 c 0.046736,0 0.084348,0.03222 0.084348,0.07224 v 0.5172215 c 0,0.040029 -0.037613,0.072246 -0.084348,0.072246 H 6.6443759 c -0.046735,0 -0.084348,-0.032216 -0.084348,-0.072246 z" />
  <path
     style="color:#000000;fill:#5884f4;stroke-width:0.264583;stroke-linecap:round;stroke-linejoin:round;stroke-dashoffset:1;-inkscape-stroke:none"
     d="M 6.4149643,3.4260132 A 3.0427083,3.0427083 0 0 1 3.3722559,6.4687219 3.0427083,3.0427083 0 0 1 0.32954757,3.4260132 3.0427083,3.0427083 0 0 1 3.3722559,0.38330486 3.0427083,3.0427083 0 0 1 6.4149643,3.4260132 Z"
     id="path1" />
  <path
     id="path15"
     style="color:#000000;fill:url(#linearGradient17);fill-opacity:1;stroke-width:0.258676;stroke-linecap:round;stroke-linejoin:round;stroke-dashoffset:1;-inkscape-stroke:none"
     d="M 3.3728012,0.45114369 A 2.974715,2.9748165 0 0 0 0.39808617,3.4259601 2.974715,2.9748165 0 0 0 3.3728012,6.4007768 2.974715,2.9748165 0 0 0 6.3475163,3.4259601 2.974715,2.9748165 0 0 0 3.3728012,0.45114369 Z m 0,0.1505597 A 2.8243113,2.8244076 0 0 1 6.1969617,3.4259601 2.8243113,2.8244076 0 0 1 3.3728012,6.250217 2.8243113,2.8244076 0 0 1 0.54813547,3.4259601 2.8243113,2.8244076 0 0 1 3.3728012,0.60170339 Z" />
  <path
     id="path17"
     style="color:#666666;fill:#f7f7f7;fill-opacity:1;stroke-width:0.231511"
     class="ColorScheme-Text"
     d="M 3.1076726,1.5739301 V 3.7103294 L 2.4453518,3.0861376 c -0.107262,-0.1010867 -0.2754444,-0.098626 -0.3797009,0.00556 -0.080952,0.1025287 -0.060505,0.2517881 0.045037,0.328766 l 1.0675407,1.0638843 c 0.1094503,0.1014677 0.2786037,0.1014677 0.3880538,0 L 4.6338156,3.4204625 C 4.7397549,3.3222465 4.742877,3.1556728 4.6406956,3.0535568 4.5367672,2.9703138 4.3854785,2.9847438 4.2991715,3.0861378 L 3.6368393,3.7103294 V 1.5739301 c 0,-0.1461254 -0.1184592,-0.2645834 -0.2645832,-0.2645834 -0.1461241,0 -0.2645835,0.118458 -0.2645835,0.2645834 z M 1.7847558,5.2780968 c 0,0.1461293 0.1184594,0.2645833 0.2645835,0.2645833 h 2.6458333 c 0.1461295,0 0.2645834,-0.118454 0.2645834,-0.2645833 0,-0.1461294 -0.1184538,-0.2645834 -0.2645834,-0.2645834 H 2.0493392 c -0.1461241,0 -0.2645834,0.118454 -0.2645834,0.2645834 z"
     sodipodi:nodetypes="cccccccccccccccsssssc" />
  <path
     style="color:#000000;opacity:0.5;fill:none;fill-opacity:1;stroke:#333333;stroke-width:0.132292;stroke-linecap:round;stroke-linejoin:round;stroke-dasharray:none;stroke-dashoffset:1;stroke-opacity:1"
     d="M 6.4149643,3.4260132 A 3.0427083,3.0427083 0 0 1 3.3722559,6.4687219 3.0427083,3.0427083 0 0 1 0.32954757,3.4260132 3.0427083,3.0427083 0 0 1 3.3722559,0.38330486 3.0427083,3.0427083 0 0 1 6.4149643,3.4260132 Z"
     id="path4" />
</svg>
