<?xml version="1.0" encoding="UTF-8" standalone="no"?>
<svg
   version="1.1"
   width="48"
   height="48"
   x="0"
   y="0"
   viewBox="0 0 48 48"
   xml:space="preserve"
   class=""
   id="svg2"
   sodipodi:docname="vscode.svg"
   inkscape:version="1.3.2 (091e20ef0f, 2023-11-25, custom)"
   xmlns:inkscape="http://www.inkscape.org/namespaces/inkscape"
   xmlns:sodipodi="http://sodipodi.sourceforge.net/DTD/sodipodi-0.dtd"
   xmlns="http://www.w3.org/2000/svg"
   xmlns:svg="http://www.w3.org/2000/svg"><defs
     id="defs2" /><sodipodi:namedview
     id="namedview2"
     pagecolor="#ffffff"
     bordercolor="#000000"
     borderopacity="0.25"
     inkscape:showpageshadow="2"
     inkscape:pageopacity="0.0"
     inkscape:pagecheckerboard="0"
     inkscape:deskcolor="#d1d1d1"
     showgrid="true"
     inkscape:zoom="7.8113881"
     inkscape:cx="55.687926"
     inkscape:cy="17.410478"
     inkscape:window-width="1920"
     inkscape:window-height="1013"
     inkscape:window-x="0"
     inkscape:window-y="36"
     inkscape:window-maximized="1"
     inkscape:current-layer="svg2"><inkscape:grid
       id="grid2"
       units="px"
       originx="0"
       originy="0"
       spacingx="1"
       spacingy="1"
       empcolor="#0099e5"
       empopacity="0.30196078"
       color="#0099e5"
       opacity="0.14901961"
       empspacing="5"
       dotted="false"
       gridanglex="30"
       gridanglez="30"
       visible="true" /></sodipodi:namedview><g
     id="g2"
     transform="matrix(0.09375,0,0,0.09375001,-7.8e-7,-2.3e-6)"><circle
       cx="256"
       cy="256"
       r="256"
       fill="#6e64c3"
       data-original="#6e64c3"
       id="circle1" /><path
       d="m 405.21,129.405 -70.646,-28.547 -124.44,120.581 -75.183,-57.035 -28.518,14.259 0.366,150.674 180.73,180.73 C 414.032,494.532 512,386.712 512,256 c 0,-6.947 -0.287,-13.827 -0.83,-20.635 z"
       fill="#5046af"
       data-original="#5046af"
       class=""
       id="path1" /><path
       d="m 405.21,129.405 -70.646,-28.547 -124.44,120.581 -75.183,-57.035 -28.518,14.259 0.366,150.674 28.518,14.259 75.183,-57.035 124.44,120.581 70.646,-28.547 z M 142.437,285.913 V 222.088 L 177.718,254 h 0.366 z M 327.477,307.139 256.549,254 h -0.366 l 71.294,-53.139 z"
       fill="#ffffff"
       data-original="#ffffff"
       class=""
       id="path2" /></g></svg>
