<?xml version="1.0" encoding="UTF-8" standalone="no"?>
<svg
   version="1.1"
   width="48"
   height="48"
   x="0"
   y="0"
   viewBox="0 0 48 48"
   xml:space="preserve"
   class=""
   id="svg3"
   sodipodi:docname="vlc.svg"
   inkscape:version="1.3.2 (091e20ef0f, 2023-11-25, custom)"
   xmlns:inkscape="http://www.inkscape.org/namespaces/inkscape"
   xmlns:sodipodi="http://sodipodi.sourceforge.net/DTD/sodipodi-0.dtd"
   xmlns="http://www.w3.org/2000/svg"
   xmlns:svg="http://www.w3.org/2000/svg"><defs
     id="defs3" /><sodipodi:namedview
     id="namedview3"
     pagecolor="#ffffff"
     bordercolor="#000000"
     borderopacity="0.25"
     inkscape:showpageshadow="2"
     inkscape:pageopacity="0.0"
     inkscape:pagecheckerboard="0"
     inkscape:deskcolor="#d1d1d1"
     showgrid="true"
     inkscape:zoom="9.9420927"
     inkscape:cx="24.743282"
     inkscape:cy="14.685037"
     inkscape:window-width="1920"
     inkscape:window-height="1013"
     inkscape:window-x="0"
     inkscape:window-y="36"
     inkscape:window-maximized="1"
     inkscape:current-layer="svg3"><inkscape:grid
       id="grid3"
       units="px"
       originx="0"
       originy="0"
       spacingx="1"
       spacingy="1"
       empcolor="#0099e5"
       empopacity="0.30196078"
       color="#0099e5"
       opacity="0.14901961"
       empspacing="5"
       dotted="false"
       gridanglex="30"
       gridanglez="30"
       visible="true" /></sodipodi:namedview><g
     id="g3"
     transform="matrix(0.10000107,0,0,0.1,-2.9562587e-4,0)"><path
       d="m 478.303,456.832 -64,-128 A 16.023,16.023 0 0 0 400,320 H 80 a 16.026,16.026 0 0 0 -14.304,8.832 l -64,128 C -0.8,461.792 -0.512,467.68 2.4,472.384 5.312,477.088 10.464,480 16,480 h 448 c 5.536,0 10.688,-2.88 13.632,-7.584 2.912,-4.736 3.136,-10.592 0.671,-15.584 z"
       fill="#ff9800"
       data-original="#ff9800"
       class=""
       id="path1" /><path
       d="m 368,336 c 0,46.72 -114.88,48 -128,48 -13.12,0 -128,-1.28 -128,-48 0,-1.28 0.32,-2.88 0.64,-4.16 l 22.08,-80.96 C 150.4,263.04 191.68,272 240,272 c 48.32,0 89.6,-8.96 105.28,-21.12 l 22.08,80.96 c 0.32,1.28 0.64,2.88 0.64,4.16 z M 321.92,165.76 C 301.76,172.16 272.32,176 240,176 c -32.32,0 -61.76,-3.84 -81.92,-10.24 L 182.72,75.52 C 199.36,78.4 219.2,80 240,80 c 20.8,0 40.64,-1.6 57.28,-4.48 z"
       fill="#fafafa"
       data-original="#fafafa"
       class=""
       id="path2" /><path
       d="m 240,80 c -20.8,0 -40.64,-1.6 -57.28,-4.48 l 11.2,-40.64 C 200,13.44 218.24,0 240,0 c 21.76,0 40,13.44 46.08,34.56 l 11.2,40.96 C 280.64,78.4 260.799,80 240,80 Z M 345.28,250.88 C 329.6,263.04 288.32,272 240,272 c -48.32,0 -89.6,-8.96 -105.28,-21.12 l 23.36,-85.12 c 20.16,6.4 49.6,10.24 81.92,10.24 32.32,0 61.76,-3.84 81.92,-10.24 z"
       fill="#ff9800"
       data-original="#ff9800"
       class=""
       id="path3" /></g></svg>
