<?xml version="1.0" encoding="UTF-8" standalone="no"?>
<svg
   version="1.1"
   width="64"
   height="64"
   x="0"
   y="0"
   viewBox="0 0 64 64"
   xml:space="preserve"
   class=""
   id="svg55"
   sodipodi:docname="speaker64.svg"
   inkscape:version="1.2.2 (b0a8486541, 2022-12-01)"
   xmlns:inkscape="http://www.inkscape.org/namespaces/inkscape"
   xmlns:sodipodi="http://sodipodi.sourceforge.net/DTD/sodipodi-0.dtd"
   xmlns:xlink="http://www.w3.org/1999/xlink"
   xmlns="http://www.w3.org/2000/svg"
   xmlns:svg="http://www.w3.org/2000/svg"><defs
     id="defs59" /><sodipodi:namedview
     id="namedview57"
     pagecolor="#ffffff"
     bordercolor="#000000"
     borderopacity="0.25"
     inkscape:showpageshadow="2"
     inkscape:pageopacity="0.0"
     inkscape:pagecheckerboard="0"
     inkscape:deskcolor="#d1d1d1"
     showgrid="true"
     inkscape:zoom="9.7325305"
     inkscape:cx="44.027604"
     inkscape:cy="40.071798"
     inkscape:window-width="1920"
     inkscape:window-height="1020"
     inkscape:window-x="1920"
     inkscape:window-y="26"
     inkscape:window-maximized="1"
     inkscape:current-layer="svg55"><inkscape:grid
       type="xygrid"
       id="grid262"
       originx="0"
       originy="0" /></sodipodi:namedview><g
     id="g53"
     transform="matrix(0.10411523,0.0490065,0.0490065,-0.10411523,-4.3252425,43.500433)"><linearGradient
       id="a"><stop
         offset="0"
         stop-color="#594a8e"
         id="stop2" /><stop
         offset=".256"
         stop-color="#5c4d91"
         id="stop4" /><stop
         offset=".453"
         stop-color="#64549b"
         id="stop6" /><stop
         offset=".629"
         stop-color="#7262ab"
         id="stop8" /><stop
         offset=".795"
         stop-color="#8675c2"
         id="stop10" /><stop
         offset=".95"
         stop-color="#9f8de0"
         id="stop12" /><stop
         offset="1"
         stop-color="#a996eb"
         id="stop14" /></linearGradient><linearGradient
       xlink:href="#a"
       id="b"
       x1="61.174999"
       x2="136.099"
       y1="213.797"
       y2="84.023003"
       gradientUnits="userSpaceOnUse" /><linearGradient
       id="c"
       x1="168.485"
       x2="242.827"
       y1="246.51801"
       y2="76.314003"
       gradientUnits="userSpaceOnUse"><stop
         offset="0"
         stop-color="#c5baeb"
         id="stop18" /><stop
         offset="1"
         stop-color="#dfdaef"
         id="stop20" /></linearGradient><linearGradient
       id="d"
       x1="385.211"
       x2="292.20801"
       y1="33.333"
       y2="305.79401"
       gradientUnits="userSpaceOnUse"><stop
         offset="0"
         stop-color="#a996eb"
         id="stop23" /><stop
         offset="1"
         stop-color="#c5baeb"
         id="stop25" /></linearGradient><radialGradient
       id="e"
       cx="301.978"
       cy="202.576"
       r="148.338"
       gradientUnits="userSpaceOnUse"><stop
         offset="0"
         stop-color="#a996eb"
         id="stop28" /><stop
         offset=".429"
         stop-color="#8574c1"
         id="stop30" /><stop
         offset="1"
         stop-color="#594a8e"
         id="stop32" /></radialGradient><linearGradient
       xlink:href="#a"
       id="f"
       x1="309.20499"
       x2="309.20499"
       y1="486.71301"
       y2="91.527"
       gradientUnits="userSpaceOnUse" /><linearGradient
       id="g"
       x1="195.98599"
       x2="423.03699"
       y1="154.487"
       y2="350.10001"
       gradientUnits="userSpaceOnUse"><stop
         offset="0"
         stop-color="#43386b"
         id="stop36" /><stop
         offset="1"
         stop-color="#43386b"
         stop-opacity="0"
         id="stop38" /></linearGradient><path
       fill="url(#b)"
       d="M 225.917,50.307 173.318,19.513 a 54.584,54.584 0 0 0 -1.857,-1.127 C 152.06,7.184 128.125,8.668 104.064,22.559 80.398,36.223 58.388,60.9 42.088,92.043 25.996,122.79 17.134,156.605 17.134,187.261 c 0,36.363 12.816,64.618 35.162,77.519 0.141,0.082 0.288,0.149 0.43,0.23 l -10e-4,0.002 51.207,29.931 z"
       data-original="url(#b)"
       class=""
       id="path41"
       style="fill:url(#b)" /><path
       fill="url(#c)"
       d="m 195.64,42.908 c -11.915,0.419 -24.5,4.285 -37.12,11.571 -23.666,13.664 -45.677,38.341 -61.977,69.485 -16.092,30.747 -24.954,64.562 -24.954,95.218 0,20.655 4.14,38.688 11.808,52.783 l -0.003,0.007 100.733,183.227 204.74,-424.548 z"
       data-original="url(#c)"
       class=""
       id="path43"
       style="fill:url(#c)" /><path
       fill="url(#d)"
       d="m 413.367,40.631 c -33.916,-19.582 -75.759,-16.99 -117.822,7.295 -41.373,23.887 -79.851,67.026 -108.346,121.47 -28.132,53.751 -43.625,112.866 -43.625,166.457 0,63.568 22.405,112.962 61.469,135.516 15.049,8.689 31.655,13.011 49.152,13.011 21.936,0 45.271,-6.797 68.67,-20.306 41.373,-23.887 79.851,-67.026 108.346,-121.47 28.132,-53.751 43.625,-112.866 43.625,-166.457 0,-63.568 -22.405,-112.962 -61.469,-135.516 z"
       data-original="url(#d)"
       id="path45"
       style="fill:url(#d)" /><path
       fill="url(#e)"
       d="m 307.521,129.157 c -16.307,-9.415 -36.424,-8.169 -56.648,3.507 -19.892,11.484 -38.391,32.225 -52.091,58.402 -13.525,25.843 -20.974,54.265 -20.974,80.03 0,30.563 10.772,54.311 29.554,65.155 7.235,4.178 15.219,6.256 23.632,6.256 10.546,0 21.766,-3.268 33.016,-9.763 19.892,-11.484 38.391,-32.225 52.091,-58.401 13.525,-25.843 20.974,-54.265 20.974,-80.031 -10e-4,-30.563 -10.773,-54.311 -29.554,-65.155 z"
       data-original="url(#e)"
       id="path47"
       style="fill:url(#e)" /><path
       fill="url(#f)"
       d="m 247.543,512 c -19.613,0 -38.228,-4.845 -55.096,-14.585 -43.789,-25.281 -68.903,-80.649 -68.903,-151.905 0,-60.071 17.367,-126.336 48.9,-186.587 31.941,-61.029 75.072,-109.385 121.449,-136.161 47.15,-27.222 94.053,-30.128 132.071,-8.177 43.789,25.281 68.903,80.649 68.903,151.905 0,60.071 -17.367,126.336 -48.9,186.587 C 414.026,414.106 370.895,462.462 324.518,489.238 298.289,504.381 272.132,512 247.543,512 Z M 370.657,61.254 c -16.604,0 -33.273,7.125 -46.139,14.554 -75.738,43.726 -139.724,167.235 -139.724,269.702 0,48.065 14.309,85.023 38.278,98.861 23.415,13.518 51.436,3.015 70.821,-8.178 75.738,-43.727 139.724,-167.236 139.724,-269.703 0,-48.065 -14.31,-85.022 -38.278,-98.861 -7.874,-4.545 -16.271,-6.375 -24.682,-6.375 z"
       data-original="url(#f)"
       class=""
       id="path49"
       style="fill:url(#f)" /><path
       fill="url(#g)"
       d="M 467.029,173.208 C 462.069,123.414 433.616,78.313 390.086,65.044 a 46.746,46.746 0 0 1 5.253,2.585 c 23.968,13.838 38.278,50.795 38.278,98.861 0,102.467 -63.986,225.976 -139.724,269.703 -19.385,11.193 -47.406,21.695 -70.821,8.178 -0.52,-0.3 -1.029,-0.625 -1.539,-0.947 23.216,16.984 89.763,26.406 153.375,-32.979 C 453.873,336.727 472,223.112 467.029,173.208 Z"
       data-original="url(#g)"
       id="path51"
       style="fill:url(#g)" /></g></svg>
