<?xml version="1.0" encoding="UTF-8" standalone="no"?>
<svg
   version="1.1"
   viewBox="0 0 64 64"
   id="svg2072"
   sodipodi:docname="application-ogg.svg"
   inkscape:version="1.2.2 (b0a8486541, 2022-12-01)"
   xmlns:inkscape="http://www.inkscape.org/namespaces/inkscape"
   xmlns:sodipodi="http://sodipodi.sourceforge.net/DTD/sodipodi-0.dtd"
   xmlns="http://www.w3.org/2000/svg"
   xmlns:svg="http://www.w3.org/2000/svg"
   xmlns:rdf="http://www.w3.org/1999/02/22-rdf-syntax-ns#"
   xmlns:cc="http://creativecommons.org/ns#"
   xmlns:dc="http://purl.org/dc/elements/1.1/">
  <sodipodi:namedview
     id="namedview2074"
     pagecolor="#ffffff"
     bordercolor="#666666"
     borderopacity="1.0"
     inkscape:showpageshadow="2"
     inkscape:pageopacity="0.0"
     inkscape:pagecheckerboard="0"
     inkscape:deskcolor="#d1d1d1"
     showgrid="false"
     inkscape:zoom="12.09375"
     inkscape:cx="23.069767"
     inkscape:cy="32"
     inkscape:window-width="1920"
     inkscape:window-height="1030"
     inkscape:window-x="1920"
     inkscape:window-y="26"
     inkscape:window-maximized="1"
     inkscape:current-layer="svg2072" />
  <metadata
     id="metadata2057">
    <rdf:RDF>
      <cc:Work
         rdf:about="">
        <dc:format>image/svg+xml</dc:format>
        <dc:type
           rdf:resource="http://purl.org/dc/dcmitype/StillImage" />
        <dc:title />
      </cc:Work>
    </rdf:RDF>
  </metadata>
  <defs
     id="defs2064">
    <linearGradient
       id="a"
       x1="49.571"
       x2="51.714"
       y1="52.714"
       y2="54.857"
       gradientTransform="matrix(2.3333,0,0,2.3333,-68.667,-72.001)"
       gradientUnits="userSpaceOnUse">
      <stop
         offset="0"
         id="stop2059" />
      <stop
         stop-opacity="0"
         offset="1"
         id="stop2061" />
    </linearGradient>
  </defs>
  <rect
     x="8"
     y="4"
     width="48"
     height="56"
     ry="5"
     fill="#f9d351"
     style="paint-order:stroke fill markers"
     id="rect2066" />
  <path
     d="m56 46-14 14h9c2.77 0 5-2.23 5-5z"
     fill="url(#a)"
     fill-rule="evenodd"
     opacity=".1"
     stroke-width="8.8191"
     style="paint-order:stroke fill markers"
     id="path2068" />
  <path
     style="fill:#ffffff;fill-opacity:1;fill-rule:nonzero;stroke:#fbf220;stroke-width:0.224;stroke-dasharray:none;stroke-opacity:1"
     d="m 46.159475,18.834934 c -0.03591,-0.0059 -0.0714,-0.0059 -0.107152,0 -0.124991,0 -0.25002,0.0178 -0.375049,0.04168 l -18.145088,4.036408 c -0.916779,0.202397 -1.571621,1.018032 -1.571621,1.958669 v 16.621857 c -0.91678,-0.309549 -1.946665,-0.482236 -3.036086,-0.482236 -3.90524,0 -7.054435,2.250383 -7.054435,5.042522 0,2.792136 3.149195,5.03657 7.054435,5.03657 3.911191,0 7.06039,-2.244434 7.06039,-5.03657 0,-0.08931 -0.0059,-0.178624 -0.01187,-0.267936 V 26.479053 l 14.132653,-3.137432 v 12.103241 c -0.916781,-0.30955 -1.946665,-0.482232 -3.036087,-0.482232 -3.905243,0 -7.054438,2.250386 -7.054438,5.042522 0,2.792143 3.149195,5.036569 7.054438,5.036569 3.911197,0 7.060391,-2.244426 7.060391,-5.036569 0,-0.08931 -0.0061,-0.178624 -0.01172,-0.267936 V 20.841224 c 0,-1.101376 -0.875106,-1.982476 -1.958578,-2.00629 z m 0,0"
     id="path905" />
</svg>
