<?xml version="1.0" encoding="UTF-8" standalone="no"?>
<svg
   width="64"
   height="64"
   version="1.1"
   viewBox="0 0 16.933 16.933"
   id="svg5"
   sodipodi:docname="audio-x-generic2.svg"
   xml:space="preserve"
   inkscape:version="1.3.2 (091e20ef0f, 2023-11-25, custom)"
   xmlns:inkscape="http://www.inkscape.org/namespaces/inkscape"
   xmlns:sodipodi="http://sodipodi.sourceforge.net/DTD/sodipodi-0.dtd"
   xmlns="http://www.w3.org/2000/svg"
   xmlns:svg="http://www.w3.org/2000/svg"><sodipodi:namedview
     id="namedview5"
     pagecolor="#ffffff"
     bordercolor="#000000"
     borderopacity="0.25"
     inkscape:showpageshadow="2"
     inkscape:pageopacity="0.0"
     inkscape:pagecheckerboard="0"
     inkscape:deskcolor="#d1d1d1"
     inkscape:zoom="12.5"
     inkscape:cx="31.96"
     inkscape:cy="32"
     inkscape:window-width="1920"
     inkscape:window-height="1013"
     inkscape:window-x="1920"
     inkscape:window-y="36"
     inkscape:window-maximized="1"
     inkscape:current-layer="svg5" /><defs
     id="defs1"><filter
       id="a"
       x="-0.039000663"
       y="-0.033428086"
       width="1.0780013"
       height="1.0668562"
       color-interpolation-filters="sRGB"><feGaussianBlur
         stdDeviation="0.20637525"
         id="feGaussianBlur1" /></filter></defs><path
     d="m3.4395 1.3543c-0.73289 0-1.3229 0.59001-1.3229 1.3229v12.171c0 0.73289 0.59001 1.3229 1.3229 1.3229h10.054c0.73289 0 1.3229-0.59001 1.3229-1.3229v-10.319l-3.175-3.175z"
     fill-rule="evenodd"
     filter="url(#a)"
     opacity=".15"
     stroke-width=".26458"
     style="paint-order:stroke fill markers"
     id="path1" /><g
     fill-rule="evenodd"
     id="g3"><path
       transform="scale(.26458)"
       d="m13 4c-2.77 0-5 2.23-5 5v46c0 2.77 2.23 5 5 5h38c2.77 0 5-2.23 5-5v-39l-12-12h-31z"
       fill="#f4f4f4"
       style="paint-order:stroke fill markers"
       id="path2" /><path
       d="m14.816 4.2332-3.1749-3.1749v1.852c0 0.73288 0.59001 1.3229 1.3229 1.3229z"
       fill="#bbb"
       style="paint-order:stroke fill markers"
       id="path3" /></g><path
     d="m11.641 2.9104v0.15451c0 0.79397 0.59 1.433 1.3229 1.433h1.852l1.42e-4 -0.26463-1.8522 5e-5c-0.73289 1.98e-5 -1.3229-0.59001-1.3229-1.3229z"
     fill-rule="evenodd"
     opacity=".1"
     stroke-width="1.0408"
     style="paint-order:stroke fill markers"
     id="path5" /><path
     style="fill:#eb577a;fill-opacity:1;fill-rule:nonzero;stroke:none;stroke-width:0.352027"
     d="m 11.726532,5.8000757 c -0.0083,-0.00137 -0.01655,-0.00137 -0.02475,0 -0.02887,0 -0.05776,0.00412 -0.08664,0.00963 L 7.4239234,6.7420456 C 7.2121621,6.7888006 7.0609035,6.9771945 7.0609035,7.1944665 v 3.8393875 c -0.2117613,-0.07151 -0.4496491,-0.111387 -0.7012882,-0.111387 -0.9020489,0 -1.6294631,0.519802 -1.6294631,1.164742 0,0.64494 0.7274142,1.163366 1.6294631,1.163366 0.9034239,0 1.6308391,-0.518426 1.6308391,-1.163366 0,-0.02063 -0.00135,-0.04125 -0.00275,-0.06188 V 7.5657538 L 11.252126,6.8410558 V 9.6367127 C 11.04037,9.5652048 10.802482,9.5253266 10.550843,9.5253266 c -0.902049,0 -1.6294636,0.5198024 -1.6294636,1.1647424 0,0.64494 0.7274146,1.163367 1.6294636,1.163367 0.903424,0 1.630839,-0.518427 1.630839,-1.163367 0,-0.02063 -0.0014,-0.04125 -0.0028,-0.06188 V 6.2634974 c 0,-0.2544005 -0.202135,-0.4579211 -0.4524,-0.4634217 z m 0,0"
     id="path905" /></svg>
