<?xml version="1.0" encoding="UTF-8" standalone="no"?>
<svg
   width="64"
   height="64"
   version="1.1"
   viewBox="0 0 16.933 16.933"
   id="svg1586"
   sodipodi:docname="image-x-generic.svg"
   inkscape:version="1.2.2 (b0a8486541, 2022-12-01)"
   xmlns:inkscape="http://www.inkscape.org/namespaces/inkscape"
   xmlns:sodipodi="http://sodipodi.sourceforge.net/DTD/sodipodi-0.dtd"
   xmlns="http://www.w3.org/2000/svg"
   xmlns:svg="http://www.w3.org/2000/svg">
  <sodipodi:namedview
     id="namedview1588"
     pagecolor="#ffffff"
     bordercolor="#000000"
     borderopacity="0.25"
     inkscape:showpageshadow="2"
     inkscape:pageopacity="0.0"
     inkscape:pagecheckerboard="0"
     inkscape:deskcolor="#d1d1d1"
     showgrid="false"
     inkscape:zoom="10.953219"
     inkscape:cx="35.332079"
     inkscape:cy="35.423376"
     inkscape:window-width="1920"
     inkscape:window-height="1030"
     inkscape:window-x="1920"
     inkscape:window-y="26"
     inkscape:window-maximized="1"
     inkscape:current-layer="svg1586" />
  <defs
     id="defs1570">
    <linearGradient
       id="a"
       x1="49.571"
       x2="51.714"
       y1="52.714"
       y2="54.857"
       gradientTransform="matrix(2.3333,0,0,2.3333,-68.667,-72.001)"
       gradientUnits="userSpaceOnUse">
      <stop
         offset="0"
         id="stop1565" />
      <stop
         stop-opacity="0"
         offset="1"
         id="stop1567" />
    </linearGradient>
  </defs>
  <g
     transform="matrix(0 .26458 .26458 0 -6e-5 -6e-5)"
     id="g1576"
     style="fill:#76baba;fill-opacity:1">
    <rect
       x="8"
       y="4"
       width="48"
       height="56"
       ry="5"
       fill="#7f7fff"
       style="paint-order:stroke fill markers;fill:#76baba;fill-opacity:1"
       id="rect1572" />
    <path
       d="m56 46-14 14h9c2.77 0 5-2.23 5-5z"
       fill="url(#a)"
       fill-rule="evenodd"
       opacity=".15"
       stroke-width="8.8191"
       style="paint-order:stroke fill markers;fill:#76baba;fill-opacity:1"
       id="path1574" />
  </g>
  <path
     id="path2228"
     style="color:#dedede;fill:#ffffff;stroke-width:0.624466;fill-opacity:0.65098041"
     class="ColorScheme-Text"
     d="m 5.031936,4.7196965 c -0.517326,0 -0.9366995,0.4193734 -0.9366995,0.9366994 0,0.5173262 0.4193735,0.9366993 0.9366995,0.9366993 0.5173259,0 0.9366993,-0.4193731 0.9366993,-0.9366993 0,-0.517326 -0.4193734,-0.9366994 -0.9366993,-0.9366994 z m 5.232344,2.6710571 c -0.04433,0.012981 -0.08328,0.039888 -0.110988,0.076849 L 7.950691,10.50212 9.248332,12.213303 H 13.46223 L 10.505773,7.4822386 C 10.454908,7.4010232 10.356184,7.3636368 10.26428,7.3907558 Z M 6.045474,9.2482949 C 5.945639,9.2192409 5.8381533,9.2534749 5.7734896,9.3348869 L 3.4707704,12.213286 8.4433266,12.212043 6.1698793,9.3299859 c -0.03246,-0.03897 -0.075759,-0.067413 -0.1244057,-0.081712 z"
     sodipodi:nodetypes="sssssccccccccccccc" />
</svg>
