<?xml version="1.0" encoding="UTF-8" standalone="no"?>
<svg
   width="64"
   height="64"
   viewBox="0 0 64 64"
   version="1.1"
   id="svg40"
   sodipodi:docname="video-x-generic.svg"
   inkscape:version="1.2.2 (b0a8486541, 2022-12-01)"
   xmlns:inkscape="http://www.inkscape.org/namespaces/inkscape"
   xmlns:sodipodi="http://sodipodi.sourceforge.net/DTD/sodipodi-0.dtd"
   xmlns="http://www.w3.org/2000/svg"
   xmlns:svg="http://www.w3.org/2000/svg"
   xmlns:rdf="http://www.w3.org/1999/02/22-rdf-syntax-ns#"
   xmlns:cc="http://creativecommons.org/ns#"
   xmlns:dc="http://purl.org/dc/elements/1.1/">
  <metadata
     id="metadata44">
    <rdf:RDF>
      <cc:Work
         rdf:about="">
        <dc:format>image/svg+xml</dc:format>
        <dc:type
           rdf:resource="http://purl.org/dc/dcmitype/StillImage" />
      </cc:Work>
    </rdf:RDF>
  </metadata>
  <sodipodi:namedview
     pagecolor="#dedede"
     bordercolor="#666666"
     borderopacity="1"
     objecttolerance="10"
     gridtolerance="10"
     guidetolerance="10"
     inkscape:pageopacity="0"
     inkscape:pageshadow="2"
     inkscape:window-width="1920"
     inkscape:window-height="1030"
     id="namedview42"
     showgrid="true"
     inkscape:zoom="2.9383252"
     inkscape:cx="92.229409"
     inkscape:cy="32.331343"
     inkscape:window-x="1920"
     inkscape:window-y="26"
     inkscape:window-maximized="1"
     inkscape:current-layer="svg40"
     inkscape:showpageshadow="2"
     inkscape:pagecheckerboard="0"
     inkscape:deskcolor="#c0c0c0">
    <inkscape:grid
       type="xygrid"
       id="grid2720" />
  </sodipodi:namedview>
  <defs
     id="defs20">
    <inkscape:path-effect
       effect="fillet_chamfer"
       id="path-effect3224"
       is_visible="true"
       lpeversion="1"
       nodesatellites_param="C,0,0,1,0,0,0,1 @ C,0,0,1,0,0,0,1 @ C,0,0,1,0,0,0,1 @ C,0,0,1,0,0,0,1 @ C,0,0,1,0,0,0,1 @ C,0,0,1,0,0,0,1 @ C,0,0,1,0,0,0,1 @ C,0,0,1,0,0,0,1"
       unit="px"
       method="auto"
       mode="F"
       radius="0"
       chamfer_steps="1"
       flexible="false"
       use_knot_distance="true"
       apply_no_radius="true"
       apply_with_radius="true"
       only_selected="false"
       hide_knots="false" />
    <clipPath
       id="d">
      <path
         d="m 39.997,106.924 c 0,-35.296 3.626,-39.094 38.994,-38.921 h 146.013 c 35.368,-0.173 38.993,3.625 38.993,38.921 v 98.157 c 0,35.297 -3.625,38.922 -38.993,38.922 H 78.99 c -35.369,0 -38.994,-3.625 -38.994,-38.922 z"
         id="path2" />
    </clipPath>
    <linearGradient
       id="c"
       x1="529.65503"
       x2="-35.310001"
       y1="401.58401"
       y2="119.093"
       gradientTransform="matrix(0.11989,0,0,0.11989,82.875936,66.799921)"
       gradientUnits="userSpaceOnUse">
      <stop
         offset="0"
         stop-color="#111110"
         id="stop5"
         style="stop-color:#5c3a73;stop-opacity:1;" />
      <stop
         offset="1"
         stop-color="#111110"
         id="stop7"
         style="stop-color:#602c82;stop-opacity:1;" />
    </linearGradient>
    <linearGradient
       id="b"
       x1="88"
       x2="488"
       y1="88"
       y2="488"
       gradientUnits="userSpaceOnUse"
       gradientTransform="matrix(0,-0.1323,0.1323,0,68.689064,40.863045)">
      <stop
         offset="0"
         stop-opacity=".588"
         id="stop10" />
      <stop
         offset="0.47316429"
         stop-opacity="0"
         id="stop12" />
      <stop
         offset="1"
         id="stop14" />
    </linearGradient>
    <filter
       id="a"
       x="-0.014454102"
       y="-0.011357142"
       width="1.0289082"
       height="1.0227143"
       color-interpolation-filters="sRGB">
      <feGaussianBlur
         stdDeviation="2.12"
         id="feGaussianBlur17" />
    </filter>
    <linearGradient
       id="c-7"
       x1="529.65503"
       x2="-35.310001"
       y1="401.58401"
       y2="119.093"
       gradientTransform="matrix(0.11989,0,0,0.11989,4.1869428,3.0978843)"
       gradientUnits="userSpaceOnUse">
      <stop
         offset="0"
         stop-color="#111110"
         id="stop5-0" />
      <stop
         offset="1"
         stop-color="#111110"
         id="stop7-0" />
    </linearGradient>
  </defs>
  <path
     d="m 88.3415,5 h 19.317 c 9.358,-0.045 10.317,0.96 10.317,10.298 v 25.97 c 0,9.34 -0.962,10.056 -10.317,10.299 h -19.317 z"
     id="path34"
     fill="#edeced"
     opacity="0.04" />
  <rect
     x="7.9998302"
     y="3.9998014"
     width="48.00034"
     height="56.000397"
     ry="5.0000358"
     fill="#4c37d1"
     style="fill:#7d57c2;fill-opacity:1;stroke-width:1.00001;paint-order:stroke fill markers"
     id="rect9"
     transform="matrix(0,1,1,0,0,0)" />
  <path
     style="fill:#f5f5f5;fill-opacity:1;fill-rule:nonzero;stroke:none;stroke-width:1"
     d="m 52.535152,45.890624 h 2.648439 c 0.363296,0 0.660157,0.292956 0.660157,0.660156 v 2.644531 c 0,0.367188 -0.296888,0.664065 -0.660157,0.664065 h -2.648439 c -0.363295,0 -0.660156,-0.296888 -0.660156,-0.664065 V 46.55078 c 0,-0.367188 0.296888,-0.660156 0.660156,-0.660156 z m 0,0"
     id="path2677" />
  <path
     style="fill:#f5f5f5;fill-opacity:1;fill-rule:nonzero;stroke:none;stroke-width:1"
     d="m 8.8164051,22.078124 h 2.6484379 c 0.36328,0 0.660156,0.292968 0.660156,0.660156 v 2.644531 c 0,0.367188 -0.296876,0.664063 -0.660156,0.664063 H 8.8164051 c -0.36328,0 -0.660156,-0.296877 -0.660156,-0.664063 V 22.73828 c 0,-0.367189 0.296877,-0.660156 0.660156,-0.660156 z m 0,0"
     id="path2661" />
  <path
     style="fill:#f5f5f5;fill-opacity:1;fill-rule:nonzero;stroke:none;stroke-width:1"
     d="m 8.8164051,14.140624 h 2.6484379 c 0.36328,0 0.660156,0.292968 0.660156,0.660156 v 2.644531 c 0,0.367188 -0.296876,0.664063 -0.660156,0.664063 H 8.8164051 c -0.36328,0 -0.660156,-0.296877 -0.660156,-0.664063 V 14.80078 c 0,-0.367189 0.296877,-0.660156 0.660156,-0.660156 z m 0,0"
     id="path2663" />
  <path
     style="fill:#f5f5f5;fill-opacity:1;fill-rule:nonzero;stroke:none;stroke-width:1"
     d="m 8.8164051,30.015625 h 2.6484379 c 0.36328,0 0.660156,0.292957 0.660156,0.660153 v 2.644534 c 0,0.367189 -0.296876,0.664061 -0.660156,0.664061 H 8.8164051 c -0.36328,0 -0.660156,-0.296887 -0.660156,-0.664061 v -2.644534 c 0,-0.367188 0.296877,-0.660153 0.660156,-0.660153 z m 0,0"
     id="path2665" />
  <path
     style="fill:#f5f5f5;fill-opacity:1;fill-rule:nonzero;stroke:none;stroke-width:1"
     d="m 8.8164051,45.890624 h 2.6484379 c 0.36328,0 0.660156,0.292956 0.660156,0.660156 v 2.644531 c 0,0.367188 -0.296876,0.664065 -0.660156,0.664065 H 8.8164051 c -0.36328,0 -0.660156,-0.296888 -0.660156,-0.664065 V 46.55078 c 0,-0.367188 0.296877,-0.660156 0.660156,-0.660156 z m 0,0"
     id="path2667" />
  <path
     style="fill:#f5f5f5;fill-opacity:1;fill-rule:nonzero;stroke:none;stroke-width:1"
     d="m 8.8164051,37.953123 h 2.6484379 c 0.36328,0 0.660156,0.292957 0.660156,0.660157 v 2.64453 c 0,0.367189 -0.296876,0.664065 -0.660156,0.664065 H 8.8164051 c -0.36328,0 -0.660156,-0.296888 -0.660156,-0.664065 v -2.64453 c 0,-0.367189 0.296877,-0.660157 0.660156,-0.660157 z m 0,0"
     id="path2669" />
  <path
     style="fill:#f5f5f5;fill-opacity:1;fill-rule:nonzero;stroke:none;stroke-width:1"
     d="m 52.535152,22.078124 h 2.648439 c 0.363296,0 0.660157,0.292968 0.660157,0.660156 v 2.644531 c 0,0.367188 -0.296888,0.664063 -0.660157,0.664063 h -2.648439 c -0.363295,0 -0.660156,-0.296877 -0.660156,-0.664063 V 22.73828 c 0,-0.367189 0.296888,-0.660156 0.660156,-0.660156 z m 0,0"
     id="path2671" />
  <path
     style="fill:#f5f5f5;fill-opacity:1;fill-rule:nonzero;stroke:none;stroke-width:1"
     d="m 52.535152,14.140624 h 2.648439 c 0.363296,0 0.660157,0.292968 0.660157,0.660156 v 2.644531 c 0,0.367188 -0.296888,0.664063 -0.660157,0.664063 h -2.648439 c -0.363295,0 -0.660156,-0.296877 -0.660156,-0.664063 V 14.80078 c 0,-0.367189 0.296888,-0.660156 0.660156,-0.660156 z m 0,0"
     id="path2673" />
  <path
     style="fill:#f5f5f5;fill-opacity:1;fill-rule:nonzero;stroke:none;stroke-width:1"
     d="m 52.535152,30.015625 h 2.648439 c 0.363296,0 0.660157,0.292957 0.660157,0.660153 v 2.644534 c 0,0.367189 -0.296888,0.664061 -0.660157,0.664061 h -2.648439 c -0.363295,0 -0.660156,-0.296887 -0.660156,-0.664061 v -2.644534 c 0,-0.367188 0.296888,-0.660153 0.660156,-0.660153 z m 0,0"
     id="path2675" />
  <path
     style="fill:#f5f5f5;fill-opacity:1;fill-rule:nonzero;stroke:none;stroke-width:1"
     d="m 52.535152,37.953123 h 2.648439 c 0.363296,0 0.660157,0.292957 0.660157,0.660157 v 2.64453 c 0,0.367189 -0.296888,0.664065 -0.660157,0.664065 h -2.648439 c -0.363295,0 -0.660156,-0.296888 -0.660156,-0.664065 v -2.64453 c 0,-0.367189 0.296888,-0.660157 0.660156,-0.660157 z m 0,0"
     id="path2679" />
  <path
     id="path8811"
     style="fill:#ffffff;fill-opacity:1;stroke:#000000;stroke-width:0"
     inkscape:transform-center-x="-2.9999976"
     d="m 39.845301,32.999998 -7.267951,4.196152 -7.267949,4.196154 a 1.1547006,1.1547006 0 0 1 -1.732051,-1 v -8.392306 -8.392303 a 1.1547007,1.1547007 0 0 1 1.732051,-1 l 7.267949,4.196151 7.267951,4.196153 a 1.1547006,1.1547006 0 0 1 0,1.999999 z" />
  <path
     d="M 3.9998014,31.999999 H 60.000198 V 45.48765 c 0,9.70126 -0.908978,10.445034 -9.748361,10.69746 H 13.748163 c -8.8422185,0 -9.7483616,-0.997239 -9.7483616,-10.69746 z"
     fill="#edeced"
     opacity="0.04"
     id="path32"
     style="opacity:0.05;stroke-width:0.990724" />
  <path
     id="rect3648"
     style="fill:#000000;fill-opacity:0.154727;stroke-width:1.00001;paint-order:stroke fill markers"
     d="m 3.9999997,49.611315 v 1.400391 c 0,2.770017 2.229983,5 5,5 H 55 c 2.770017,0 5,-2.229983 5,-5 v -1.400391 c 0,2.770017 -2.229983,5 -5,5 H 8.9999997 c -2.770017,0 -5,-2.229983 -5,-5 z" />
  <path
     id="path3653"
     style="fill:#000000;fill-opacity:0.154727;stroke-width:1.00001;paint-order:stroke fill markers"
     d="m 3.9999998,14.388683 v -1.400391 c 0,-2.770017 2.229983,-5 5,-5 H 55 c 2.770017,0 5,2.229983 5,5 v 1.400391 c 0,-2.770017 -2.229983,-5 -5,-5 H 8.9999998 c -2.770017,0 -5,2.229983 -5,5 z" />
</svg>
